<svg version="1.1" id="Layer_1" xmlns="http://www.w3.org/2000/svg" xmlns:xlink="http://www.w3.org/1999/xlink" x="0px" y="0px"
	 width="343.4px" height="482.7px" viewBox="0 0 343.4 482.7" style="enable-background:new 0 0 343.4 482.7;" xml:space="preserve"
	>

<g>
	<g>
		<path class="st0" d="M212.5,86.7l-0.5,0c0.2-2.4,2.7-3.5,5.1-4.4c1.7-0.7,3.4-1.4,4.4-2.6c1.5-1.8,2-4.8,2.4-7.8
			c0.3-1.7,0.5-3.4,1-4.8c1.1-3.2,1-5.5-0.5-7.8c-1.1-1.8-4.4,0.1-4.4,0.1l0,0c-5,1.7-5.7,13.2-5.7,13.3l-0.5,0c0,0,0.2-3,1-6.2
			c1.1-4.3,2.8-6.8,5-7.6c0.1-0.1,1-0.5,1.9-0.8c1.4-0.4,2.5-0.1,3.1,0.9c1.5,2.4,1.6,4.9,0.5,8.2c-0.5,1.3-0.7,3-1,4.7
			c-0.4,3-0.9,6.1-2.5,8c-1.1,1.3-2.9,2-4.6,2.8C214.9,83.7,212.7,84.6,212.5,86.7z"/>
		<path class="st0" d="M214.4,81.3l-0.3,0c-0.1-0.1-0.1-0.1-0.1-0.3l0,0c0,0,0,0,0,0c0-0.1,0-0.1,0.1-0.2c0,0,0,0,0,0
			c0.3-1,0.9-4.1,0.2-5.2c-0.2-0.2-0.4-0.4-0.6-0.4l0.1-0.5c0.5,0.1,1,0.3,1.3,1.4c0.2,0.8,0.1,1.9-0.1,3.3c0,0.2-0.1,0.3-0.1,0.5
			c0.4-0.4,1-0.8,1.7-1.3c1.5-1,3.3-2.3,4.6-4.3c0.8-1.2,1-2.3,0.8-3.3c-0.4-1.5-1.8-2.5-2.9-3.1c-1.6-0.9-3.5,0-3.6,0l-0.2-0.4
			c0.1,0,2.2-1,4,0c1.2,0.6,2.7,1.8,3.1,3.4c0.3,1.1,0,2.4-0.8,3.7c-1.3,2.1-3.2,3.3-4.7,4.4c-1.1,0.8-2,1.4-2.2,2
			C214.5,81.2,214.5,81.3,214.4,81.3z"/>
		<path class="st0" d="M175.4,79.1c-2.5,0-3.6-0.9-4.7-1.7c-0.1-0.1-0.2-0.2-0.3-0.3c-0.5-0.3-0.8-0.5-1.1-0.4
			c-0.1,0-0.2,0.2-0.3,0.2c0,0,0,0.1,0,0.1l-0.4-0.2c0,0,0,0,0-0.1c1.4-3,5.8-3.2,6-3.2l0.3,0l0,0.3c0,0,0,1.1,0.7,1.9
			c0.5,0.5,1.3,0.8,2.2,0.8c3,0,3.3-3,3.3-3.1l0-0.1l0.1-0.1c0.1-0.1,0.5-0.3,2.1-0.1c-0.3-0.1-0.6-0.2-0.9-0.4
			c-0.5-0.2-0.9-0.4-1.4-0.6c-2.2-0.9-5.4-0.2-8.9,0.8c-3.3,0.9-4.1,3.4-4.1,3.4l-0.5-0.1c0-0.1,0.9-2.7,4.4-3.7
			c3.7-1,6.9-1.8,9.2-0.8c0.5,0.2,0.9,0.4,1.4,0.6c1.2,0.5,2.4,1,3.3,1.2c0.3,0.1,0.6,0.1,0.8,0.2c0,0,0.1,0,0.1,0
			c1,0,2.4,0.6,2.5,0.6l-0.2,0.4c-0.7-0.2-1.6-0.4-2.4-0.6c-0.2,0-0.6-0.1-0.9-0.2c-1.8-0.4-3.6-0.6-4.2-0.5
			c-0.1,0.7-0.7,3.4-3.8,3.4c-1.1,0-2-0.3-2.6-0.9c-0.7-0.7-0.8-1.6-0.8-2c-0.8,0.1-3.5,0.5-4.9,2.2c0.4,0,0.8,0.2,1.2,0.5
			c0.1,0.1,0.2,0.2,0.3,0.3c1.3,1,2.5,1.9,5.6,1.6c3.2-0.3,5.5-1.7,7.3-4.4l0.4,0.3c-1.9,2.8-4.3,4.3-7.6,4.6
			C176.1,79,175.7,79.1,175.4,79.1z"/>
		<path class="st0" d="M143.2,81.7c-2.6,0-6-1.2-6.6-1.8c-0.2-0.2-0.2-0.3-0.1-0.4c0.1-0.1,0.2-0.5,2.7-1.2c1.2-0.4,2.6-0.7,2.9-0.7
			c0.3,0,0.5,0.2,0.7,0.5c0.4,0.5,1,1.1,2.4,0.9c2.3-0.2,3.6-1.6,3.8-2.3c0.1-0.2,0.2-0.4,0.4-0.5c0.1,0,0.2-0.1,0.3-0.1
			c-1-0.4-2.1-0.3-2.9-0.2c-0.4,0-0.7,0-1,0c-0.5-0.1-0.9,0.1-1.4,0.3c-0.6,0.2-1.2,0.5-2,0.5c-1.6,0-3.4,0.9-4.6,1.5
			c-1.6,0.8-3.6,0.9-3.7,0.9l0-0.5c0,0,2,0,3.4-0.8c1.2-0.7,3.1-1.6,4.8-1.6c0.7,0,1.3-0.2,1.9-0.5c0.5-0.2,1-0.4,1.6-0.4
			c0.2,0,0.6,0,0.9,0c1.2-0.1,3-0.2,4.6,1.1l1.4,1.2l-1.7-0.8c-0.4-0.2-1.2-0.5-1.6-0.3c-0.1,0-0.1,0.1-0.1,0.2
			c-0.3,0.9-1.8,2.4-4.2,2.7c-1.7,0.2-2.4-0.6-2.8-1.1c-0.1-0.2-0.3-0.3-0.4-0.3c-0.2,0-1.5,0.3-2.7,0.6c-1.6,0.5-2.3,0.8-2.5,1
			c0.5,0.5,5.1,2.3,7.7,1.5c1.4-0.4,2.5-0.9,3.3-1.3c0.9-0.4,1.6-0.7,2.2-0.7c0.8,0,1.4-0.5,2-1c0.1-0.1,0.2-0.2,0.4-0.3l0.3,0.4
			c-0.1,0.1-0.2,0.2-0.4,0.3c-0.6,0.5-1.3,1.2-2.3,1.2c-0.5,0-1.1,0.3-2,0.7c-0.9,0.4-2,0.9-3.4,1.3
			C144.4,81.6,143.8,81.7,143.2,81.7z"/>
		<path class="st0" d="M216,67.4"/>
		<g>
			<g>
				<path class="st0" d="M164.6,154c-1.2,0-2.5-0.1-3.7-0.2c-2-0.2-5.2-1.8-8.2-4.2c-2-1.6-5.8-4.9-7.7-9
					c-1.6-3.5-3.5-10.1-5.4-16.4c-1.7-6-3.4-11.6-4.5-13.8c-2.3-4.3-7.1-24.6-4.9-30.1c-0.1-0.7-1.3-7.5-2.6-9.1
					c-0.9-1.1-3.3-4.9-3-8c0.1-1,0.6-1.9,1.3-2.5c-0.2-0.7-0.9-3.2-0.6-6.5c0.1-1.2,0.1-3.2,0-5.6c-0.1-5.5-0.1-13.1,1.1-17.2
					c0.2-0.9,0.5-1.7,0.7-2.6c1.4-5.2,2.8-10.7,9.5-16.1c3.8-3.1,8.8-6.1,14-8.4c5.5-2.4,10.8-3.8,15.2-4.1
					c8.6-0.6,21.9,0.2,23.1,3.6l0,0.1l0,0.1c0,0.1-0.9,2.2-2.4,2.2c-1.1,0-4.7,1.1-5.2,2.1c0,0.1-0.1,0.3,0.1,0.5
					c0.4,0.4,0.5,0.8,0.4,1.3c-0.3,1.5-2.6,3-3,3.2c-0.1,0-0.3,0.1-0.8,0.2c-1.6,0.3-5.3,0.9-8.6,1.9c-5,1.5-6,2.8-6,3.7
					c0,0.3,0,0.5,0,0.7c0.2,3.1,0.3,4.9-4.7,5.2c-2.7,0.2-5.7-0.6-8-1.1c-1.1-0.3-2.4-0.6-2.7-0.5c0,0,0,0,0,0
					c0.3,0.6,3.1,1.1,5.1,1.4c2.5,0.4,4,0.7,4.3,1.2c0.1,0.1,0.1,0.2,0.1,0.4c-0.2,0.6-2.3,0.6-10.1,0.4c-4.2-0.1-9.8-0.2-10.7,0.2
					c0,0,0,0,0.1,0.1c1.7,1,7.6,1,11.8,0.9c4.2,0,4.8,0,5,0.3c0.1,0.1,0,0.2,0,0.3c-0.2,0.2-0.9,0.3-3.6,0.5
					c-5.9,0.4-18.3,1.2-19.7,6.8c-1.8,7.3-2.1,21.2-0.5,26.5c1.6,5.4,0.6,12,0.5,12.7l-0.5-0.1c0.1-0.7,1.1-7.2-0.5-12.5
					c-1.6-5.4-1.4-19.4,0.5-26.7c0.6-2.6,3.5-4.5,8.4-5.7c4-1,8.7-1.3,11.7-1.5c0.9-0.1,1.9-0.1,2.5-0.2c-0.9,0-2.4,0-3.8,0
					c-4.3,0-10.2,0.1-12.1-1c-0.1-0.1-0.5-0.3-0.4-0.6c0.1-0.3,0.4-0.6,3.8-0.6c2.1,0,4.8,0,7.4,0.1c4,0.1,8.9,0.2,9.6-0.1
					c-0.3-0.3-2.5-0.7-3.9-0.9c-3.1-0.5-5.1-0.9-5.5-1.7c-0.1-0.3,0-0.4,0-0.5c0.3-0.4,1.2-0.2,3.2,0.3c2.2,0.5,5.2,1.3,7.8,1.1
					c4.5-0.3,4.4-1.6,4.2-4.7c0-0.2,0-0.5,0-0.7c-0.1-2.3,4.8-4.3,15-6.1c0.4-0.1,0.7-0.1,0.8-0.1c0.3-0.1,2.4-1.6,2.7-2.8
					c0.1-0.4,0-0.6-0.2-0.9c-0.4-0.4-0.3-0.8-0.2-1c0.6-1.4,4.5-2.4,5.6-2.4c1.1,0,1.8-1.5,1.9-1.8c-0.6-1.3-3.4-2.3-8.1-2.9
					c-4.2-0.5-9.6-0.6-14.4-0.3c-4.4,0.3-9.6,1.7-15.1,4.1c-5.2,2.2-10.1,5.2-13.9,8.3c-6.6,5.3-7.9,10.7-9.3,15.9
					c-0.2,0.9-0.5,1.7-0.7,2.6c-1.2,4.1-1.1,11.6-1,17.1c0,2.4,0,4.5,0,5.7c-0.3,3.7,0.6,6.5,0.6,6.5l0.1,0.2l-0.1,0.1
					c-0.7,0.6-1.1,1.3-1.3,2.3c-0.3,2.7,1.8,6.3,2.9,7.6c1.4,1.8,2.7,9.1,2.7,9.4l0,0.1l0,0.1c-0.9,2.2-0.7,7.7,0.7,15.1
					c1.2,6.1,2.9,12.4,4.1,14.6c1.2,2.2,2.8,7.9,4.6,13.9c1.8,6.4,3.8,12.9,5.4,16.4c3.1,6.6,11.7,12.6,15.6,12.9
					c3.3,0.3,6.7,0.4,9.2-0.8c2.5-1.2,9.3-2.1,11.7-2.4c2.5-0.3,8-2.1,13.1-7.3c2.1-2.1,4-6.6,5.6-13.2c1.5-5.9,2.3-11.4,2.5-13
					c0.4-3.1,2.6-6.3,4.8-9.4c1.2-1.8,2.5-3.6,3.4-5.4c1.6-3,1.6-6.2,1.5-8c-0.2-0.5-0.3-1.1-0.3-1.8v-1.9l0.5,1.9
					c0,0,0.2,0.7,0.3,1.7c0.2,0.5,0.4,0.9,0.8,1.2c0.8,0.8,1.9,0.8,2,0.8c3.3-0.6,3.8-1.8,4.6-3.9c0.3-0.8,0.6-1.7,1.2-2.7
					c1.6-3.1,3.5-10.3,5-15.6c0.4-1.4,0.7-2.7,1-3.7c1.3-4.7,0-9.1-2.3-14.2c-0.6-1.3-1.5-2.2-2.6-2.5c-2-0.7-4,0.4-4,0.4l-0.1,0.1
					l-0.1-0.1c-0.8-0.5-0.9-2.8-1.2-8c-0.3-6-0.7-14.2-2.7-22.4c-0.8-3.2-2.5-6.3-5-9c-2-2.2-4.6-4.1-7.6-5.9
					c-5.1-2.9-9.9-4.1-9.9-4.1l0.1-0.5c0,0,4.9,1.2,10.1,4.2c3.1,1.7,5.6,3.7,7.7,5.9c2.6,2.8,4.3,5.8,5.1,9.2
					c2,8.2,2.4,16.5,2.7,22.5c0.2,3.7,0.3,6.9,0.9,7.5c0.5-0.2,2.4-1,4.3-0.4c1.2,0.4,2.2,1.3,2.9,2.8c2.4,5.2,3.7,9.6,2.4,14.5
					c-0.3,1-0.6,2.4-1,3.7c-1.4,5.3-3.4,12.5-5,15.7c-0.5,1-0.9,1.9-1.2,2.7c-0.9,2.2-1.4,3.6-5,4.2l0,0c-0.1,0-1.4,0.1-2.4-0.9
					c-0.1-0.1-0.3-0.3-0.4-0.4c0,1.9-0.2,4.6-1.6,7.2c-0.9,1.8-2.2,3.6-3.4,5.4c-2.1,3.1-4.3,6.2-4.7,9.2
					c-0.3,2.1-2.9,20.9-8.3,26.4c-4.5,4.6-9.9,7.1-13.4,7.5c-2.4,0.3-9.1,1.2-11.6,2.3C168.7,153.8,166.7,154,164.6,154z"/>
				<path class="st0" d="M188.8,113.5"/>
				<path class="st0" d="M195.9,102.8"/>
				<path class="st0" d="M188.2,117c-0.7,0-1.6-0.5-2.2-1.7c-0.7-1.3-2.4-3.5-3.9-5c-0.5-0.5-1.1-0.9-1.8-1.3
					c-1.2-0.7-2.6-1.5-3.8-3.3c-1.7-2.7-4.4-2.7-4.4-2.7l0-0.5c0.1,0,3,0,4.8,2.9c1.1,1.7,2.4,2.5,3.6,3.2c0.7,0.4,1.4,0.8,1.9,1.4
					c1.5,1.6,3.3,3.8,3.9,5.1c0.7,1.4,1.6,1.6,2.1,1.4l0,0c0,0,0.8-0.3,0.5-1.8c-0.2-1.2,1.5-3.7,2.9-5.9c0.8-1.2,1.6-2.4,1.7-2.8
					c0.1-0.6,0.1-1.2,0.1-1.8c0-0.7-0.1-1.3,0.2-2c0.3-1,1.8-1.8,3-2.5c0.4-0.3,0.9-0.5,1.1-0.7c0.6-0.5,0.3-2.5,0.1-3.7
					c-0.1-0.4-0.1-0.8-0.2-1.1c0-0.2,0-0.4,0.2-0.5c0.3-0.2,0.8-0.1,1.3,0.1c0.4,0.1,0.9,0.3,1.1,0.1c0.3-0.3,0.6-1.8,0.9-2.8
					c0.1-0.5,0.2-1.1,0.3-1.4c0.3-1,2.5-3.1,2.8-3.4c1.7-2.7,1.6-4,1.4-5.7c-0.1-0.9-0.2-1.9,0-3.2c0.4-3.2-0.3-9-2-15.8
					c-0.7-2.7-2.1-4.7-3.2-6.1c-1.2-1.6-2.1-2.9-0.8-3.9c1.3-1,0.4-4.1-0.5-7.2c-0.4-1.5-0.8-3-1-4.3c0-0.2-0.1-0.6,0.2-0.7
					c0.5-0.2,1.1,0.7,4.4,6c1.3,2.1,2.6,4.2,3.8,5.9c1.8,2.6,2.2,2.6,2.3,2.6c0,0,0.2-0.1,0-1.2c0-0.3-0.1-0.5-0.2-0.8
					c-1.1-4.1-5.8-10-10-15.1c-3.7-4.6-6.9-8.5-7-10.5c0-0.4,0.1-0.7,0.4-0.8c0.8-0.3,2.3,1.3,5.8,5.3c2.7,3,6.3,7.2,7.5,6.9
					c0.1,0,0.2-0.1,0.3-0.4c0.6-1.8-3.5-5.2-7.4-8.5c-4.2-3.5-8.2-6.9-8.1-9.2c0.2-2.5-0.8-3.9-1.9-5.3c-0.8-1.2-1.7-2.3-1.9-4.1
					c-0.5-3.9,4.7-5.6,4.7-5.6l0.1,0.5c0,0-4.8,1.6-4.4,5.1c0.2,1.6,1,2.7,1.8,3.9c1.1,1.5,2.1,3,2,5.6c-0.1,2.1,3.9,5.6,7.9,8.9
					c4.2,3.5,8.2,6.9,7.5,9c-0.2,0.5-0.4,0.6-0.7,0.7c-1.4,0.3-4-2.6-8-7.1c-1.3-1.5-2.5-2.8-3.5-3.8c-1.4-1.4-1.8-1.4-1.8-1.4
					c0,0-0.1,0.1-0.1,0.4c0.1,1.8,3.4,5.9,6.9,10.2c4.2,5.2,9,11.1,10.1,15.3c0.1,0.3,0.1,0.6,0.2,0.9c0.2,1.1,0.1,1.6-0.3,1.7
					c-0.9,0.3-2.8-2.5-6.7-8.7c-1.4-2.3-3.1-5-3.8-5.7c0,0,0,0,0,0.1c0.2,1.3,0.6,2.8,1,4.2c0.9,3.3,1.8,6.5,0.3,7.7
					c-0.9,0.7-0.3,1.5,0.9,3.2c1.1,1.5,2.5,3.5,3.2,6.3c0.8,3.2,2.6,11.3,2.1,16c-0.2,1.3-0.1,2.2,0,3.1c0.2,1.7,0.3,3.1-1.5,6l0,0
					l0,0c-0.7,0.6-2.4,2.4-2.7,3.2c-0.1,0.3-0.2,0.8-0.3,1.4c-0.3,1.5-0.6,2.7-1,3.1c-0.3,0.3-1,0.2-1.6,0c-0.3-0.1-0.8-0.2-0.9-0.2
					c0,0,0,0,0,0.1c0,0.3,0.1,0.6,0.2,1.1c0.3,1.6,0.6,3.6-0.2,4.2c-0.3,0.2-0.7,0.5-1.2,0.7c-1.1,0.6-2.5,1.4-2.8,2.2
					c-0.2,0.6-0.2,1.2-0.1,1.9c0,0.6,0.1,1.2-0.1,1.9c-0.1,0.6-0.9,1.6-1.8,3c-1.3,1.9-3.1,4.5-2.9,5.6c0.3,1.9-0.7,2.3-0.8,2.3
					C188.6,116.9,188.4,117,188.2,117z"/>
				<path class="st0" d="M207.9,72.1c-0.1,0-0.3,0-0.4-0.2c-0.8-0.8-1.2-3.7-1.7-7.2c-0.3-1.9-0.5-3.8-0.9-5.4c-0.9-4.3-3.8-6-3.8-6
					l0.2-0.4c0.1,0.1,3.1,1.8,4,6.3c0.3,1.6,0.6,3.5,0.9,5.4c0.4,3.1,0.9,6.3,1.6,6.9c0,0,0.1,0.1,0.1,0.1c0.3,0,0.8-1.9,1.1-3.1
					c0.5-1.8,1.1-4.1,2-5.4c0.5-0.8,1-1.6,1.5-2.4c1.2-2,2.3-3.9,3.7-4.9l0.2-0.1c0.5-0.4,0.8-0.6,0.9-0.8c0-0.2-0.1-0.5-0.5-1
					c-0.3-0.5-0.7-1.1-1.1-2c-0.4-0.8-0.6-2.8-0.8-5.9c-0.5-5.6-1.3-14.1-4-21.4c-1.5-4-3.4-7.2-5.7-9.5c-2.7-2.7-6-4.3-9.8-4.6
					l0-0.5c16.8,1.6,18.9,24.9,19.9,36c0.3,2.8,0.4,5,0.8,5.7c0.5,0.9,0.8,1.6,1.1,2c0.8,1.3,0.8,1.4-0.5,2.4l-0.2,0.1
					c-1.3,1-2.4,2.8-3.6,4.8c-0.5,0.8-1,1.6-1.5,2.4c-0.9,1.3-1.5,3.5-2,5.3c-0.6,2.1-0.9,3.3-1.5,3.4C208,72.1,208,72.1,207.9,72.1
					z"/>
				<path class="st0" d="M158.4,108.6c-0.5,0-1-0.1-1.4-0.2c-0.6-0.2-1.1-0.5-1.3-1c-0.3-0.6-1.2-1.1-2.2-1.7
					c-0.9-0.5-1.8-1-2.8-1.8c-2.1-1.8-1.7-5.4-0.8-6.8c0.8-1.3,1.8-6.4,2.2-8.1c0.1-0.5,0.2-1.2,0.4-2c0.6-3.1,1.6-7.8,2-10.2
					c0.3-1.8-0.4-2.3-1.2-2.9c-0.4-0.3-0.9-0.7-1.3-1.2c-1-1.7-0.4-3.4-0.3-3.5l0.4,0.2c0,0-0.6,1.6,0.3,3.1
					c0.3,0.5,0.7,0.8,1.2,1.1c0.9,0.6,1.7,1.2,1.4,3.3c-0.4,2.4-1.3,7.1-2,10.2c-0.2,0.8-0.3,1.5-0.4,2c-0.6,3-1.5,7-2.2,8.3
					c-0.7,1.1-1.2,4.5,0.7,6.2c0.9,0.8,1.8,1.3,2.7,1.8c1.1,0.6,2,1.2,2.4,1.9c0.2,0.4,0.7,0.6,1,0.7c1.1,0.3,2.6,0.2,3.6-0.3
					c0.4-0.2,0.8-0.8,1.2-1.5c1.1-1.7,2.7-4.1,5.8-3.5l-0.1,0.5c-2.8-0.5-4.2,1.6-5.4,3.3c-0.5,0.8-0.9,1.4-1.4,1.7
					C160.2,108.4,159.3,108.6,158.4,108.6z"/>
				<path class="st0" d="M167.4,105c-0.7,0-1.2-0.1-1.3-0.1l0.1-0.5c0,0,2.9,0.7,5.3-1.5c1.5-1.4,2.2-3.2,1.8-4.8
					c-0.3-1.5-1.6-2.6-3.6-3.2l0.1-0.5c2.8,0.8,3.6,2.4,3.9,3.5c0.4,1.7-0.4,3.8-1.9,5.2C170.2,104.7,168.5,105,167.4,105z"/>
				<path class="st1" d="M150.4,70.5c0,0-2.2,0.9-4.7,0.5c-2.5-0.5-9.1-2.7-13.4,2.2c0,0-0.5,2.8,2.4,2.7c2.8-0.2,6.3-3.3,9.9-1.9
					s7.2,1.3,7.2,1.3S148.8,71.9,150.4,70.5z"/>
				<path class="st0" d="M142.6,88.8c-0.4,0-0.8-0.1-1.2-0.2c-1.5-0.5-3.4-1.8-7.1-5l0.3-0.4c6.9,6,7.6,5.7,11.3,4.1
					c0.2-0.1,0.5-0.2,0.7-0.3c4.2-1.8,6.5-8.2,6.5-8.2l0.4,0.2c0,0.1-0.6,1.7-1.7,3.5c-1,1.7-2.7,4-5.1,5c-0.3,0.1-0.5,0.2-0.7,0.3
					C144.7,88.4,143.7,88.8,142.6,88.8z"/>
				<path class="st0" d="M143,120.9h-0.2c-0.1,0-1.8-0.1-3.4-4.4c-1.2-3.2-3.4-6.5-4.8-8.4c-0.8-1.1-1.1-1.6-1.1-1.9l0.5,0
					c0,0.2,0.5,0.9,1.1,1.6c1.4,2,3.6,5.2,4.8,8.5c1.1,3.1,2.3,3.9,2.8,4c0.1-0.6,0.3-2,1.1-2.9c0.9-1.1,2.4-7,3.2-10.2l0.1-0.4
					c0.9-3.4,2.7-3.8,2.8-3.8l0.1,0.5l0-0.2l0,0.2c0,0-1.6,0.4-2.4,3.5l-0.1,0.4c-0.9,3.5-2.3,9.3-3.2,10.4c-0.9,1.1-1,2.9-1,2.9
					L143,120.9z"/>
				<path class="st0" d="M186.8,126c-1.6,0-2.9-1.5-4-2.8c-0.2-0.2-0.4-0.4-0.5-0.6c-0.4-0.5-0.6-0.9-0.8-1.4
					c-0.4-0.8-0.6-1.4-2.1-1.5c-1.2-0.1-1.9-0.4-2.5-0.7c-0.6-0.3-1.1-0.5-2-0.6c-1.2-0.1-1.7,0-2.4,0.2c-0.5,0.1-1,0.2-1.9,0.3
					c-1.8,0.2-2.6-0.3-3.5-0.7c-0.3-0.1-0.5-0.3-0.8-0.4c-0.7-0.3-1.1-0.1-1.7,0.2c-0.3,0.1-0.6,0.3-1,0.4c-1.2,0.4-2.3,0.6-3.4,0.1
					c-0.9-0.4-3.3-0.7-4.1-0.7c-0.2,0-0.5,0-0.9,0.1c-1.3,0.2-3.3,0.4-4.8-0.1c-1-0.4-1.1-0.3-1.3,0.2c-0.2,0.3-0.4,0.8-0.9,1.3
					c-1.4,1.2-2.6,2-2.6,2l-0.3-0.4c0,0,1.2-0.8,2.6-2c0.5-0.4,0.7-0.8,0.8-1.1c0.3-0.7,0.6-0.9,1.9-0.5c1.4,0.5,3.3,0.3,4.6,0.1
					c0.4-0.1,0.8-0.1,1-0.1c0.8,0,3.3,0.2,4.4,0.7c0.9,0.4,1.9,0.2,3-0.1c0.4-0.1,0.6-0.2,0.9-0.4c0.6-0.3,1.2-0.6,2.1-0.2
					c0.3,0.1,0.6,0.3,0.8,0.4c0.8,0.4,1.6,0.8,3.2,0.6c0.9-0.1,1.4-0.2,1.9-0.3c0.7-0.1,1.3-0.3,2.5-0.2c1,0.1,1.6,0.3,2.2,0.6
					c0.6,0.3,1.2,0.6,2.3,0.7c1.7,0.2,2.1,1,2.5,1.8c0.2,0.4,0.4,0.8,0.8,1.2c0.2,0.2,0.3,0.4,0.5,0.6c1.1,1.2,2.4,2.7,3.8,2.6
					l0,0.5C186.9,126,186.9,126,186.8,126z"/>
				<path class="st0" d="M164.1,125.6c-1,0-2-0.1-2.8-0.2c-1.4-0.2-3.2-0.2-4.9-0.1c-3,0.1-5.9,0.2-6.8-1.1c-0.4-0.5-0.5-1-0.4-1.5
					c0.2-0.7,1-1.3,1.6-1.5c0,0-0.1,0-0.1,0c-0.6-0.1-1.1-0.4-1.3-0.8c-0.6-1-0.3-2.5-0.3-2.5l0.5,0.1c0,0-0.3,1.3,0.2,2.2
					c0.2,0.3,0.6,0.5,1,0.6c1.2,0.2,4.3,0.1,7.4-0.1c2.5-0.1,5.1-0.2,6.9-0.2c3,0.1,4.5-0.1,6-0.3c0.4-0.1,0.8-0.1,1.3-0.2
					c2.1-0.2,3.2-0.2,4.4-0.2c0.9,0,2.5-0.1,3.4-0.2c0.2,0,0.4-0.1,0.5,0l0,0.5c0,0-0.2,0-0.5,0c-0.7,0.2-1.6,0.8-2.6,1.6
					c-0.9,0.7-2,1.5-3.3,2.1C172.1,124.8,167.7,125.6,164.1,125.6z M158.9,124.8c0.9,0,1.8,0,2.5,0.2c3.6,0.6,9.9-0.2,12.7-1.6
					c1.2-0.6,2.3-1.4,3.2-2.1c0.6-0.4,1.1-0.8,1.5-1.1c-0.8,0.1-1.6,0.1-2.1,0.1c-1.2,0-2.2,0-4.3,0.2c-0.5,0.1-0.9,0.1-1.3,0.2
					c-1.5,0.2-3,0.4-6.1,0.3c-1.7-0.1-4.3,0.1-6.8,0.2c-2.7,0.1-5.2,0.2-6.7,0.1l0.1,0.2c0,0-1.5,0.5-1.8,1.5
					c-0.1,0.4,0,0.7,0.3,1.1c0.8,1.1,3.7,1,6.4,0.9C157.2,124.8,158,124.8,158.9,124.8z"/>
				<path class="st0" d="M175.7,151.5l-0.2-0.4c0,0,1.8-0.8,3.3-1.5c1.5-0.7,5.7-5.1,6.6-6.6c1.2-1.9,2.4-3,4-3.5
					c1.3-0.4,1.2-1.6,1.1-2.6c0-0.2,0-0.5,0-0.7c0-1,1.9-1.5,3.5-1.9c0.5-0.1,1-0.3,1.3-0.4c1.1-0.4,4.5-3.7,4.3-6.2
					c-0.2-2.8,2.6-7.1,2.7-7.2l0.4,0.3c0,0-2.9,4.3-2.6,6.9c0.2,2.9-3.3,6.2-4.6,6.7c-0.3,0.1-0.8,0.3-1.4,0.4
					c-1.2,0.3-3.1,0.9-3.1,1.4c0,0.2,0,0.4,0,0.6c0.1,1.1,0.2,2.6-1.4,3.1c-1.5,0.5-2.7,1.5-3.8,3.3c-1,1.6-5.3,6.1-6.8,6.8
					C177.5,150.7,175.7,151.5,175.7,151.5z"/>
				<path class="st1" d="M175.3,73.3c0,0-0.2,3.1,2.8,2.5s1.6-2.9,2.4-3.1C181.3,72.6,176.1,72.8,175.3,73.3z"/>
				<path class="st1" d="M143.1,77.1c0,0,1.3,2,3.9,0.9s1.5-2,1.5-2S144.6,76.2,143.1,77.1z"/>
				<path class="st0" d="M161.8,106.5"/>
				<path class="st1" d="M167.5,102.7c0,0,1,0.2,0.7,1c-0.3,0.9-5.7,1.6-6.6,3.3C160.7,108.8,163,102.8,167.5,102.7z"/>
				<path class="st0" d="M190.3,76.9c-0.4,0-0.6,0-0.8,0l0-0.1c0.7,0,2.5,0.1,4.3-0.5c1.7-0.5,2.8-1.5,3.2-2.8c0.6-2-0.4-3-2-4.5
					c-0.7-0.7-1.5-1.4-2.3-2.4c-2.2-2.8-2-22.8-1.9-32.4c0-1.4,0-2.5,0-3.3c0-5.9-4.5-6.7-4.5-6.7l0-0.1c0,0,4.6,0.9,4.6,6.8
					c0,0.8,0,1.9,0,3.3c-0.1,8.8-0.3,29.6,1.9,32.3c0.8,1,1.6,1.7,2.3,2.4c1.5,1.5,2.7,2.5,2,4.6C196.3,76.5,192.1,76.9,190.3,76.9z
					"/>
				<path class="st0" d="M186.9,109.2c-1.2,0-3-0.9-4.7-2.5c-2-1.8-3.4-4-3.8-5.7c-0.8-3.7-4.2-6.5-4.3-6.5l0.1-0.1
					c0,0,3.5,2.8,4.3,6.6c0.8,3.9,6.4,8.6,8.7,8.1c2.5-0.5,3.6-9.3,3.4-10.3c0-0.2-0.2-0.7-0.5-1.3c-1-2.3-3.1-7.1-1.6-9.5
					c0.5-0.9,1.5-1.4,2.9-1.5c7.3-0.5,10.5-1.2,10.5-6.2c0-5.1-1.3-20.4-3.7-21.4c-1.1-0.4-1.9-1.2-2.3-2.3
					c-0.5-1.3-0.7-3.8,1.2-7.7l0.1,0.1c-1.9,3.9-1.7,6.3-1.2,7.6c0.4,1.1,1.2,1.9,2.3,2.3c2.6,1,3.8,16.8,3.8,21.5
					c0,5.4-3.8,5.9-10.6,6.4c-1.4,0.1-2.3,0.6-2.8,1.4c-1.5,2.4,0.6,7.1,1.6,9.4c0.3,0.7,0.5,1.1,0.5,1.3c0.1,0.5-0.1,3-0.7,5.5
					c-0.5,2.1-1.4,4.7-2.8,5C187.1,109.1,187,109.2,186.9,109.2z"/>
				<path class="st0" d="M144,67.6c-0.1,0-0.3,0-0.4,0c-0.2,0-0.4-0.1-0.7-0.1c-2-0.3-4.7-0.7-7.7-2.1c-0.5-0.2-0.7-0.5-0.7-0.7
					c0-0.7,1.9-1.3,3.8-1.9c1.8-0.6,3.9-1.3,4.1-2c0.2-0.7-1.2-3.4-2.7-6.5c-2.1-4.1-4.7-9.1-5.4-13c-0.7-3.6,0.9-6.2,2.3-7.8
					c1.6-1.7,3.4-2.5,3.4-2.5l0,0.1c0,0-1.8,0.8-3.4,2.5c-1.4,1.5-3,4.1-2.3,7.7c0.8,3.8,3.4,8.9,5.4,12.9c1.7,3.3,3,5.8,2.8,6.6
					c-0.2,0.8-2.2,1.5-4.2,2.1c-1.8,0.6-3.7,1.2-3.7,1.8c0,0.2,0.2,0.4,0.6,0.6c3,1.4,5.7,1.8,7.7,2.1c0.2,0,0.4,0.1,0.7,0.1
					c0.8,0.1,1.6-0.2,2.4-0.5c1.2-0.5,2.4-0.9,3.4,0.2l-0.1,0.1c-1-1-2.1-0.6-3.3-0.2C145.4,67.3,144.7,67.6,144,67.6z"/>
				<path class="st0" d="M142.6,111l-0.1,0c0.5-2.5,4.5-8.5,6.5-10.7c1.6-1.9,3.7-8.6,3-10.7c-0.1-0.3-0.3-0.5-0.5-0.6
					c-0.7-0.2-1.2,0.5-2.1,1.5c-1.2,1.5-3.1,3.8-7.2,5c-2.8,0.8-5.5-0.4-7.9-3.5c-1.8-2.3-2.7-4.9-2.7-4.9l0.1,0c0,0,1,2.6,2.7,4.9
					c1.6,2.1,4.3,4.4,7.8,3.4c4.1-1.1,5.9-3.4,7.1-4.9c0.8-1,1.4-1.7,2.2-1.5c0.3,0.1,0.5,0.3,0.6,0.7c0.7,2.1-1.4,8.9-3.1,10.8
					C147.1,102.6,143,108.5,142.6,111z"/>
				<path class="st0" d="M176.4,81.3c-1.5,0-2.9-0.4-4.1-1.3c-2.6-2.1-3.4-2-3.4-2l0-0.1c0,0,0.8-0.1,3.5,2.1
					c2.6,2.2,6.7,1.3,8.8,0.2c0.8-0.4,1.4-1,2.1-1.6c1.2-1.1,2.3-2.1,3.7-2l0,0.1c-1.4-0.1-2.5,0.9-3.6,2c-0.7,0.6-1.4,1.2-2.1,1.7
					C180,80.8,178.2,81.3,176.4,81.3z"/>
				<path class="st0" d="M142.4,85.2c0,0-0.1,0-0.1,0c-2.1,0-3.6-0.6-4.7-1.7c-1.2-1.3-2.3-1.9-3.1-1.7c-0.7,0.1-0.9,0.8-0.9,0.8
					l-0.1,0c0,0,0.3-0.7,1-0.8c0.8-0.2,1.9,0.4,3.2,1.8c1,1.1,2.6,1.7,4.6,1.7c3,0,6.1-1.2,6.8-1.8c1.1-1.1,2.7-3,2.7-3l0.1,0.1
					c0,0-1.6,1.9-2.7,3C148.5,84,145.5,85.2,142.4,85.2z"/>
				<path class="st0" d="M152.3,112.4c-0.2,0-0.3,0-0.4-0.1c-0.6-0.5-0.3-2,0-3.2c0.1-0.2,0-0.4-0.1-0.5c-0.3-0.3-1.3-0.1-2.2,0.2
					c-0.3,0.1-0.6,0.2-1,0.2c-0.1,0-0.3,0.1-0.3-0.1c-0.3-0.5,3.2-3.7,3.9-4.3l0.1,0.1c-1.6,1.4-4.1,3.8-3.9,4.1c0,0,0.1,0,0.2,0
					c0.3-0.1,0.6-0.1,1-0.2c1-0.2,2-0.5,2.3-0.1c0.1,0.1,0.2,0.3,0.1,0.6c-0.2,0.6-0.7,2.6-0.1,3.1c0.2,0.2,0.6,0.1,1.1-0.1
					c0.4-0.2,0.9-0.5,1.3-0.7c1.5-0.8,2.6-1.5,3.2-1.2c0.5,0.2,1.2-0.5,1.9-1.1c0.4-0.4,0.8-0.8,1.2-0.9l0,0.1
					c-0.3,0.1-0.7,0.5-1.1,0.9c-0.7,0.7-1.5,1.3-2,1.1c-0.6-0.2-1.7,0.4-3.1,1.2c-0.4,0.2-0.8,0.5-1.3,0.7
					C152.8,112.3,152.5,112.4,152.3,112.4z"/>
				<path class="st0" d="M166.8,138.9c-0.7,0-1.4-0.2-2.2-0.5c-1.3-0.5-2.1-1.5-2.7-2.4c-0.7-0.9-1.2-1.6-2-1.1
					c-1.2,0.9-6.9,0.5-9.5-0.9c-0.9-0.5-1.4-1.1-1.3-1.8c0-0.7-0.2-1.3-0.6-1.7c-0.8-0.7-2.4-0.9-4.8-0.6c-0.3,0-0.5,0-0.6-0.2
					c-0.9-1.2,1.7-7.5,1.8-7.7l0.1,0c0,0.1-2.7,6.4-1.8,7.6c0.1,0.1,0.3,0.2,0.5,0.2c2.5-0.4,4.1-0.1,4.9,0.6c0.5,0.4,0.7,1,0.6,1.8
					c0,0.6,0.4,1.2,1.3,1.7c2.7,1.5,8.2,1.7,9.3,0.9c0.9-0.6,1.4,0.1,2.1,1.1c0.6,0.9,1.4,1.9,2.7,2.4c2.6,0.9,4.1,0.7,6.7-2.8
					c0.5-0.7,0.9-1.4,1.3-1.9c1.5-2.3,2.3-3.4,4.6-2.7c0.8,0.3,1.6,0.7,2.3,1.2c1,0.6,1.9,1.1,2.5,0.8c0.4-0.2,0.7-0.7,0.9-1.6
					c0.4-1.8-1-3.5-2-4.7c-0.7-0.8-1.2-1.4-1-1.8c0.1-0.2,0.4-0.4,0.9-0.5c1.6-0.3,2.4,0.9,3.1,1.9c0.6,0.9,1.2,1.7,2.3,1.6
					c1.3-0.2,2.8-0.6,4.1-1.2c1.1-0.5,2.4-1.3,2.8-2.4c0.2-0.5,0.2-1.3,0.3-2.2c0.2-2.9,0.6-7.2,4-7.8c4.6-0.8,7.2-4.2,7-7
					c-0.2-3.3-0.1-7.4,2.2-10c2.6-2.9,3.8-5.4,3.9-8.2c0.1-1.9-1.1-3.3-1.9-4.3c-0.5-0.6-0.9-1.1-0.9-1.6h0.1c0,0.4,0.4,0.9,0.9,1.5
					c0.9,1,2,2.4,1.9,4.4c-0.1,2.8-1.4,5.3-4,8.2c-2.3,2.6-2.4,6.6-2.2,9.9c0.2,2.9-2.5,6.3-7.1,7.1c-3.3,0.6-3.7,4.8-3.9,7.7
					c-0.1,0.9-0.2,1.7-0.3,2.2c-0.6,1.9-4.5,3.3-7,3.7c-1.1,0.2-1.7-0.7-2.4-1.6c-0.7-1-1.4-2.1-3-1.8c-0.5,0.1-0.7,0.2-0.8,0.4
					c-0.1,0.4,0.4,0.9,1,1.7c1,1.2,2.4,2.9,2,4.8c-0.2,0.9-0.5,1.5-1,1.7c-0.7,0.3-1.6-0.2-2.6-0.8c-0.7-0.4-1.5-0.9-2.3-1.1
					c-2.2-0.7-3,0.4-4.4,2.6c-0.4,0.6-0.8,1.2-1.3,1.9C169.6,138,168.3,138.9,166.8,138.9z"/>
				<path class="st0" d="M162.9,75.7c-1.5,0-2.1-0.8-2.4-1.3c-0.1-0.2-0.2-0.3-0.3-0.3v-0.1c0.1,0,0.3,0.2,0.4,0.4
					c0.4,0.6,1.3,1.7,3.8,1c1.6-0.4,2.9-1.7,4.1-3c1.5-1.5,2.9-3,4.8-3c2,0,3.1-0.4,3.8-0.7c0.5-0.2,0.9-0.4,1.3-0.2
					c0.1,0,0.3,0.1,0.5,0.2c1,0.4,2.8,1,6,1.4c2.4,0.3,4.8,0.1,6.3-0.1c0.9-0.1,1.5-0.1,1.9-0.1c0.1,0,0.1,0,0.1,0.1
					c0,0.1-0.3,0.3-1.3,0.8c-1,0.5-2.5,1.2-2.4,1.6c0,0.1,0.2,0.2,0.7,0.3c1.6,0.3,3.6-0.5,4.7-1c0.7-0.3,1-0.4,1-0.3
					c0.1,0.1,0,0.2-0.5,0.8c-2,2-5.2,2.8-5.2,2.8l0-0.1c0,0,3.2-0.8,5.2-2.8c0.4-0.4,0.5-0.5,0.5-0.6c-0.1,0-0.5,0.2-0.9,0.3
					c-1.2,0.5-3.2,1.3-4.8,1c-0.5-0.1-0.8-0.2-0.8-0.4c-0.1-0.5,1-1,2.5-1.7c0.5-0.3,1.1-0.6,1.2-0.7c0,0,0,0,0,0
					c-0.3-0.1-1,0-1.8,0.1c-1.6,0.1-3.9,0.4-6.4,0.1c-3.2-0.4-5-1-6-1.4c-0.2-0.1-0.3-0.1-0.5-0.2c-0.4-0.1-0.7,0-1.2,0.2
					c-0.7,0.3-1.8,0.7-3.8,0.7c-1.8,0-3.2,1.4-4.7,2.9c-1.2,1.3-2.5,2.6-4.1,3C163.8,75.6,163.3,75.7,162.9,75.7z"/>
				<path class="st0" d="M221.5,107.4c-1.6-0.8-2.7-2.3-3.3-4.5c-0.6-2.2-0.5-4.4-0.5-5.2c0.1-0.9,0.2-1.9,0.4-1.9l0,0.1
					c-0.1,0.1-0.4,1.2-0.4,3c0,1.9,0.4,6.6,3.7,8.4L221.5,107.4z"/>
				<path class="st0" d="M176.6,89C176.6,89,176.6,89,176.6,89c-1.4-0.2-3.9-1.4-4.1-3.4c-0.1-1.2-1.4-2.3-2.7-3.4
					c-0.7-0.6-1.4-1.2-2-1.8c-0.7-0.8-1-1.3-0.8-1.7c0.2-0.4,0.8-0.4,1-0.4v0.1c-0.2,0-0.8,0-0.9,0.4c-0.1,0.3,0.1,0.9,0.8,1.6
					c0.6,0.6,1.3,1.2,2,1.8c1.4,1.1,2.6,2.2,2.7,3.4c0.2,1.9,2.6,3.1,3.9,3.3c0.6,0.1,1.1-0.5,1.7-1.3c0.8-1,1.8-2.1,3.4-2.1l0,0.1
					c-1.5-0.1-2.4,1-3.3,2C177.7,88.4,177.2,89,176.6,89z"/>
				<path class="st1" d="M158.5,70.1c0,0-0.6,3.7,3.8,3.5c0,0,0.7,0.7,2.4,0.4s1.6-0.6,2.4-0.8c0.8-0.2,3.5-4,5.7-4.3
					s5.4-2.2,8.6-0.9s5.4,1.1,6.1,1.2c0.7,0.1,1.7-0.2,1.7-0.2s-4.9-2.8-8-3.4s-9-0.6-10.9,1.3c-2,2-5.1,3.1-5.9,3.5
					c-0.8,0.4-3.3,1.7-5.1,0.1"/>
				<path class="st0" d="M157.4,105.3c-0.6,0-1.2-0.4-1.7-0.7c-0.3-0.2-0.5-0.3-0.7-0.4c-0.8-0.3-2.6-1.8-2.9-3.4
					c-0.2-1,1.6-8.8,3.1-15.8c1-4.5,1.9-8.4,1.9-9.3c0.2-2-1.7-2.8-1.7-2.8l0-0.1c0,0,1.9,0.8,1.8,2.9c-0.1,0.8-0.9,4.7-1.9,9.3
					c-1.5,6.6-3.3,14.8-3.1,15.7c0.3,1.5,2,2.9,2.8,3.3c0.2,0.1,0.5,0.2,0.7,0.4c0.7,0.4,1.5,0.9,2.2,0.6c0.6-0.3,1.2-0.7,1.8-1.1
					c0.4-0.3,0.9-0.6,1.3-0.9c0.3-0.2,0.6-0.5,0.8-0.8c0.5-0.6,1-1.3,2.9-1.3v0.1c-1.8,0-2.3,0.6-2.8,1.2c-0.2,0.3-0.5,0.6-0.8,0.8
					c-0.5,0.3-0.9,0.6-1.3,0.9c-0.6,0.4-1.2,0.9-1.8,1.1C157.8,105.3,157.6,105.3,157.4,105.3z"/>
				<path class="st0" d="M164.6,95.7c-0.1,0-0.1,0-0.2-0.1c-0.3-0.2-0.3-0.9-0.1-1.5c0.2-0.6,0.9-1.8,3-1.6c0.3,0,0.6,0.1,0.9,0.1
					c3,0.3,4.6,0.4,5.9,1.8l-0.1,0.1c-1.3-1.4-2.8-1.5-5.8-1.8c-0.3,0-0.6-0.1-0.9-0.1c-2-0.2-2.7,1-2.9,1.6c-0.2,0.6-0.2,1.2,0,1.4
					c0.1,0.1,0.2,0,0.3-0.1c0.6-0.5,1.9-0.8,3.7-0.8v0.1c-1.7,0-3,0.3-3.6,0.8C164.8,95.7,164.7,95.7,164.6,95.7z"/>
				<path class="st1" d="M170,94.7c0,0,0.3-1.2,2-0.2c1.7,1,3.5,2,4,4.8c0.6,2.8,2.8,6.5,4.1,7.1c1.3,0.6,1.9,1.3,2.8,2.4
					c0.9,1.1-0.6-0.4-2.8-0.9s-3.9-5.9-6.1-6.1c-2.2-0.2-0.6-0.8-0.6-0.8S175,96,170,94.7z"/>
				<path class="st0" d="M149.3,100.6c0,0-1.4,1.4-2.1,3.7c-0.7,2.3-1,6-1.3,7.1c-0.2,1.1,1.5-6.8,2.7-7.2c1.2-0.3,1.7-1.1,1.7-1.1
					L149.3,100.6z"/>
				<path class="st0" d="M165.2,75.6"/>
				<path class="st1" d="M165.7,75.1c0,0,0.9,1.7,1.8,1.1s2.4-3.9,5.2-4c2.8-0.2,3.7-0.6,4.3-0.6c0.6,0,2.6-0.3,3.6,0.1
					c1,0.4,3.8,1.3,4,1.4c0.2,0.1-2.5-2.7-4.7-2.8c-2.2-0.1-6.7,0-8,0.9C170.5,72.2,166.9,72.5,165.7,75.1z"/>
				<path class="st1" d="M134.9,78.8c0,0-3-0.7-0.9-1.4s2.5,0.4,4.1-0.4s2.8-1.6,4.2-1.7c1.4-0.1,1.6,0.2,2.8-0.1s3.6-0.2,3.9-0.2
					c0.2,0.1,1,0.7,1,0.7s-6.6-0.3-8.9,0.9C138.7,78,135.1,78.8,134.9,78.8z"/>
				<path class="st1" d="M126.6,61.7c0,0,1-0.8,1.9,2c0.9,2.8,0.6,10.3,0.9,11.3c0.4,1-4.3-8-4.2-8.5c0.1-0.5-0.9-4.7,0.6-5.5
					c1.5-0.8,0.9,0.9,0.9,0.9"/>
				<path class="st1" d="M217.9,67.3c0,0-2.4-0.3-2.8,0.9c-0.4,1.3-0.6,4.4-0.8,4.5c-0.2,0.1-0.5,1.2,0.1,2.5s0.6,3.3,0.6,3.3
					s3.3-1.3,3.4-3.4s-3.2-4.6-1.3-5.4c2-0.8,1.9-2,1.9-2L217.9,67.3z"/>
				<path class="st1" d="M216.5,96c-0.8,0.5-3.5-1.5-3.5-1.5s-0.1,2.4,0,3.1c0.1,0.6-3.9,8-3.1,6.9c0.8-1,4.4,8.3,4.1,8
					s0.3-10,0.4-12.6c0.1-2.6,2.6-3.8,2.6-3.8"/>
				<path class="st0" d="M164.2,124c-2.2,0-3.2-0.2-5.5-0.6c-0.5-0.1-0.9-0.2-1.4-0.2c-0.7,0-1.3,0.1-1.8,0.2
					c-0.5,0.1-0.9,0.2-1.5,0.2c-0.3,0-0.7,0-1,0h0c-1.1,0-2.6-0.1-3.5-0.6c-0.4-0.2-0.4-0.4-0.4-0.6c0-0.5,0.9-0.9,1.3-1.1
					c0.4-0.7,2.5-0.8,6.1-0.9c0.7,0,1.4,0,1.6-0.1c0.5-0.1,2.9-0.2,4.7-0.2c0.9,0,2.1,0,2.7,0.1c0.2,0,0.5,0.1,0.8,0.1
					c1.3,0,3.4-0.3,5.1-0.5c0.4-0.1,0.8-0.1,1.1-0.1c2-0.2,7.1-0.2,7.3-0.2h1l-2.7,1.3c0,0-2.1,0.7-2.9,1c-0.7,0.3-1.3,0.4-2.3,0.6
					c-0.2,0-0.4,0.1-0.7,0.1c-0.9,0.2-1.4,0.3-1.9,0.5c-0.4,0.1-0.7,0.2-1.3,0.3C167.7,123.9,166.3,124,164.2,124z M157.4,122.8
					c0.5,0,1,0.1,1.5,0.2c2.3,0.5,3.2,0.6,5.4,0.6c2,0,3.4-0.1,4.8-0.5c0.5-0.1,0.9-0.2,1.3-0.3c0.5-0.1,1-0.3,1.9-0.5
					c0.3-0.1,0.5-0.1,0.7-0.1c1.1-0.2,1.5-0.3,2.2-0.6c0.8-0.3,2.7-1,2.9-1l0.8-0.4c-1.6,0-4.7,0.1-6.2,0.2c-0.3,0-0.7,0.1-1.1,0.1
					c-1.7,0.2-3.8,0.5-5.2,0.5c-0.4,0-0.7,0-0.9-0.1c-0.4-0.1-1.3-0.1-2.6-0.1c-2.1,0-4.2,0.1-4.6,0.2c-0.2,0-0.7,0.1-1.7,0.1
					c-1,0-2.5,0-3.6,0.1c-1.8,0.2-2,0.5-2.1,0.5l0,0.1l-0.1,0c-0.5,0.2-1.1,0.5-1.1,0.7c0,0,0,0.1,0.2,0.1c0.7,0.4,1.8,0.5,3.3,0.5
					h0c0.3,0,0.6,0,0.9,0c0.5,0,0.9-0.1,1.4-0.2C156,122.9,156.6,122.8,157.4,122.8z"/>
				<path class="st0" d="M162.9,126.7c-1.4,0-2.8-0.3-4.2-0.8c-1.1-0.4-2.6-0.2-4.1,0.1c-1.1,0.2-2.2,0.4-3.1,0.3
					c-2.6-0.3-3.4-2.9-3.7-4c-0.1-0.4-0.3-0.7-0.6-0.8c-0.9-0.4-2.4,0.4-2.4,0.4l-0.1-0.1c0.1,0,1.6-0.8,2.5-0.4
					c0.3,0.2,0.6,0.5,0.6,0.9c0.2,1.1,1,3.6,3.6,3.9c0.9,0.1,2-0.1,3.1-0.3c1.5-0.3,3-0.6,4.2-0.1c1.8,0.7,3.5,1,5.3,0.8
					c0.8-0.1,1.3-0.3,1.7-0.5c0.5-0.2,0.9-0.4,1.5-0.3c1,0.2,2.2,0.4,3.8-0.1c0.8-0.2,1.3-0.5,1.7-0.7c0.4-0.2,0.8-0.4,1.5-0.7
					c0.6-0.2,0.9-0.3,1.2-0.4c0.3-0.1,0.7-0.2,1.5-0.5c0.8-0.3,1.3-0.7,1.7-1c0.4-0.3,0.8-0.6,1.2-0.6c0.4,0,1.2,0.6,2.2,1.4
					c1,0.8,2.1,1.6,2.7,1.7l0,0.1c-0.6,0-1.7-0.9-2.8-1.7c-0.9-0.7-1.7-1.4-2.1-1.4c-0.4,0-0.7,0.3-1.2,0.6c-0.4,0.3-0.9,0.7-1.7,1
					c-0.9,0.3-1.2,0.4-1.5,0.5c-0.3,0.1-0.6,0.2-1.2,0.4c-0.7,0.2-1.1,0.4-1.5,0.7c-0.5,0.2-0.9,0.5-1.8,0.8
					c-1.6,0.5-2.9,0.3-3.9,0.1c-0.6-0.1-0.9,0.1-1.4,0.3c-0.4,0.2-0.9,0.4-1.7,0.5C163.6,126.6,163.3,126.7,162.9,126.7z"/>
				<path class="st0" d="M163.5,150.5c-1.4,0-3-1-4.8-2.9c-0.1-0.1-0.2-0.3-0.3-0.4c-0.4-0.5-0.8-1.1-1.5-0.8c0,0,0,0.1,0,0.1
					c0,0.2,0.1,0.5,0,0.8l0,0l0,0c-1.1,0.3-3.5-1.2-4.2-1.6c-1.2-0.8-2.5-1.9-3.6-3.1c-0.1-0.1-0.2-0.2-0.3-0.3
					c-0.5-0.5-1.1-1.1-1.4-1.7c-0.2-0.4-0.6-1.2-0.9-1.7c-0.3-0.7-0.4-1-0.5-1.1c-0.5-0.5-1.8-1.8-3.1-1.9l0-0.1
					c1.2,0.1,2.5,1.3,3.1,1.8l0,0c0.1,0,0.1,0,0.2,0.2c0.1,0.1,0.1,0.1,0.1,0.2c0,0,0,0-0.1,0c0.2,0.6,0.9,2,1.3,2.6
					c0.4,0.6,0.9,1.2,1.4,1.7c0.1,0.1,0.2,0.2,0.3,0.3c1.1,1.2,2.3,2.3,3.6,3.1c1.4,0.9,3.1,1.8,4,1.6c0-0.2,0-0.5,0-0.7
					c0-0.1,0-0.1,0-0.2l0,0l0,0c0.8-0.3,1.2,0.3,1.7,0.9c0.1,0.1,0.2,0.3,0.3,0.4c1.8,1.9,3.4,2.9,4.8,2.8c0.1-0.4,0.1-0.8,0.1-1.2
					l0-0.1l0,0c0.5-0.2,1.1,0.1,1.7,0.3c0.3,0.1,0.5,0.2,0.7,0.2c0.1,0,0.2,0.1,0.4,0.1c0.3,0.1,0.7,0.2,0.9,0.2
					c0.2,0,0.3-0.1,0.4-0.3c0.1-0.1,0.1-0.2,0.3-0.3c0.7-0.5,1.5-0.3,2.3-0.2c0.2,0,0.5,0.1,0.7,0.1l0.2,0c0.8,0.1,1.7,0.2,2.5,0.2
					c0.3,0,1.8,0,3.4-0.1c2-0.1,3.1-0.4,3.5-0.8c0.1-0.1,0.1-0.2,0.1-0.3l0.1,0c0,0.2,0,0.3-0.1,0.4c-0.9,1.1-6.9,1-7,1
					c-0.8,0-1.7-0.1-2.5-0.2l-0.2,0c-0.2,0-0.5-0.1-0.7-0.1c-0.8-0.1-1.5-0.3-2.2,0.2c-0.1,0.1-0.2,0.2-0.3,0.3
					c-0.1,0.1-0.2,0.3-0.4,0.3c-0.2,0-0.6-0.1-0.9-0.2c-0.1,0-0.3-0.1-0.4-0.1c-0.2,0-0.4-0.1-0.7-0.2c-0.5-0.2-1.1-0.4-1.5-0.3l0,0
					c0,0.4,0,0.8-0.1,1.2l0,0l0,0C163.6,150.5,163.6,150.5,163.5,150.5z"/>
				<path class="st0" d="M135.6,78.7c0,0-1.1,0-2.5-0.2c-1.3-0.2-1.7-0.9-2.6-2.3l-0.2-0.2c-1-1.6,1-3.1,1-3.1l0.1,0.1
					c0,0-2,1.4-1,2.9l0.2,0.2c0.9,1.4,1.3,2,2.6,2.3c1.3,0.2,2.4,0.2,2.4,0.2V78.7z"/>
				<path class="st0" d="M142.8,82.7c-0.1,0-0.2,0-0.3,0c-1.2-0.2-4.1-1-5.3-1.7c-0.1-0.1-0.3-0.2-0.5-0.3c-1.2-0.7-3.3-1.9-4.1-0.8
					l-0.1-0.1c0.8-1.2,2.9,0,4.2,0.7c0.2,0.1,0.4,0.2,0.5,0.3c1.1,0.6,4.1,1.5,5.3,1.6c1.2,0.2,4-0.7,4.7-1.3c0.5-0.4,1.2-0.6,2-0.7
					c0.5-0.1,1-0.2,1.6-0.4c1.4-0.5,2.2-1.7,2.2-1.7l0.1,0.1c0,0-0.8,1.3-2.2,1.8c-0.5,0.2-1.1,0.3-1.6,0.4
					c-0.8,0.2-1.5,0.3-1.9,0.7C146.5,81.9,144.1,82.7,142.8,82.7z"/>
				<path class="st0" d="M178.1,80.2L178.1,80.2c-1.4,0-2.6-0.5-2.7-0.5l-0.4-0.2l0.5,0.1c0.2,0,0.4,0,0.6,0h0c3.4,0,8.1-4,8.5-4.7
					c0.2-0.3,0.5-0.4,0.9-0.4c0.7,0,1.6,0.4,1.7,0.4l0,0.1c-0.1,0-0.2,0-0.3,0c-1.1,0-2.9,1.6-4.5,3c-0.7,0.7-1.4,1.3-2,1.7
					C179.7,80,178.9,80.2,178.1,80.2z M175.9,79.7c0.5,0.2,1.3,0.4,2.2,0.4h0c0.9,0,1.6-0.2,2.1-0.6c0.6-0.4,1.3-1,2-1.7
					c1.6-1.4,3.3-2.9,4.5-3c-0.3-0.1-0.8-0.2-1.2-0.2c-0.4,0-0.7,0.1-0.8,0.4c-0.4,0.8-5.2,4.8-8.6,4.8h0
					C176,79.7,175.9,79.7,175.9,79.7z"/>
				<path class="st0" d="M142.4,80.6c-0.6,0-1.2,0-1.8-0.1c-2.2-0.2-2.7-1.2-2.7-1.3l0.1,0c0,0,0.5,1,2.6,1.2c2.2,0.2,4.6,0,5.3-0.3
					c0.1,0,0.2-0.1,0.3-0.1c0.9-0.4,2.7-1.1,3.5-1.3c0.9-0.2,1.7-1.1,1.8-1.6l0.1,0c-0.1,0.5-0.9,1.4-1.9,1.7
					c-0.8,0.2-2.6,0.9-3.5,1.3c-0.1,0.1-0.2,0.1-0.3,0.1C145.4,80.4,144,80.6,142.4,80.6z"/>
				<path class="st0" d="M175.2,78.4c-0.1,0-0.2,0-0.2,0c-4-0.4-4.5-3.2-4.5-3.2l0.1,0c0,0,0.5,2.7,4.4,3.1c0,0,3.8,0.1,5.7-1.5
					c1-0.8,1.5-1.6,2-2.2c0.5-0.7,0.9-1.2,1.4-1.2l0,0.1c-0.5-0.1-0.8,0.4-1.3,1.1c-0.5,0.7-1.1,1.5-2,2.2
					C179.1,78.3,175.9,78.4,175.2,78.4z"/>
				<path class="st0" d="M130.4,32.2l-0.1,0c0.8-2.8,4.7-7,13.2-14.2c5.4-4.6,16.2-6.4,24.1-7.7c5.2-0.9,9.2-1.6,9.7-2.7
					c0-0.1,0-0.2,0-0.2c-0.5-0.7-5.5,0-10.8,0.7c-7.2,1-15.4,2.1-16.6,0.4c-0.2-0.3-0.2-0.7,0-1.1c1.2-2.3,7.2-3.6,17.9-3.8
					c7.9-0.2,15.6,0.3,15.7,0.3l0,0.1c-0.1,0-7.8-0.5-15.7-0.3c-7.3,0.2-16.3,1-17.8,3.8c-0.2,0.4-0.2,0.8,0,1
					c1.2,1.6,9.7,0.5,16.5-0.5c5.5-0.8,10.3-1.4,10.9-0.7c0.1,0.1,0.1,0.2,0,0.4c-0.5,1.2-4.4,1.8-9.8,2.7c-7.9,1.3-18.6,3.1-24,7.7
					C135.1,25.2,131.1,29.4,130.4,32.2z"/>
				<path class="st0" d="M146.8,108.5l-0.1-0.1c1.9-4,4.6-4.2,4.7-4.2l0,0.1C151.3,104.4,148.6,104.5,146.8,108.5z"/>
			</g>
		</g>
		<path class="st0" d="M207.2,81.1l0-0.1c0.9-0.2,2.5-5.3,4.1-10.2c1.3-4,2.6-8.1,3.8-10.6c2.7-5.6,7.3-5.4,7.3-5.4l0,0.1
			c0,0-4.6-0.2-7.2,5.3c-1.2,2.5-2.5,6.6-3.8,10.6C209.7,76.2,208.2,80.9,207.2,81.1z"/>
		<path class="st0" d="M214.6,91.8c0,0-1.2-1.7-0.8-3.6c0.3-1.3,1.3-2.4,2.9-3.2c4.9-2.6,6.3-3.4,7.1-4.9l0.1,0.1
			c-0.8,1.4-2.1,2.3-7.1,4.9c-1.6,0.8-2.5,1.9-2.8,3.1C213.5,90,214.7,91.7,214.6,91.8L214.6,91.8z"/>
		<path class="st0" d="M215.8,93.2c-0.4,0-0.9,0-1.3-0.1l0-0.1c3,0.7,5-1.1,6.1-2.7c1.6-2.3,2-5.2,1.9-5.4l0.1-0.1
			c0.2,0.3-0.3,3.2-1.9,5.6C219.7,91.7,218.1,93.2,215.8,93.2z"/>
		<path class="st0" d="M154.7,62.4c-0.6,0-1.1,0-1.6,0c-1-0.1-1.1-0.1-1.1-0.2c0-0.3,2-0.5,8.1-1.3c9.9-1.2,26.4-3.3,27.8-5.9
			c0.1-0.2,0.1-0.4,0-0.7c-2.1-3.9-25.6-1.2-38.2,0.2c-4.7,0.5-7.8,0.9-8.3,0.8l0-0.1c0.5,0.1,3.8-0.2,8.3-0.8
			c6.5-0.7,15.5-1.8,23.2-2.1c9.3-0.4,14.2,0.2,15.2,2c0.1,0.3,0.1,0.5,0,0.8c-1.4,2.7-17.3,4.6-27.8,5.9c-4.1,0.5-7.6,0.9-8,1.2
			c0.1,0,0.3,0.1,0.9,0.1c3.2,0.2,8.8-0.3,14.7-0.8c9.5-0.8,20.2-1.7,23.7-0.1l0,0.1c-3.5-1.5-14.2-0.7-23.6,0.1
			C162.8,62,158,62.4,154.7,62.4z"/>
		<path class="st1" d="M151.4,121.2c0,0-1.5,0.7-1.2,0.8c0.3,0.1,3.1,0.2,4.2-0.1s2.8,0.1,4.7,0.1s2.8,0.2,4.3,0.2s2.1-0.4,3.1-0.4
			s1.1-0.1,2.3-0.1c1.2,0,1.2,0.3,2.6-0.2c1.4-0.5,1.9-0.9,2.7-0.9c0.8,0,0.4,0.1,1.8,0c1.4-0.1,3.9-0.7,3.9-0.7s-5.7,0.2-7.2,0.2
			c-1.5,0-6.5,0.5-8.2,0.6c-1.7,0.1-7,0-7.8,0C155.9,120.7,151.4,121.2,151.4,121.2z"/>
		<ellipse class="st0" cx="151.4" cy="69.3" rx="1.2" ry="0.7"/>
	</g>
	<g>
		<path class="st0" d="M177.4,243.8c-13,0-33.9-2.6-47-7.6c-10.5-4-18.7-12.4-20.8-21.4c-1.6-6.9,0.5-13.7,6-19.6
			c9.3-9.9,23.5-18.2,33-23.7c5.2-3,9.2-5.4,9.7-6.4l0.1-0.3c0.1-0.6,0.1-3-0.7-11.6l0.5-0.1c1.1,11.1,0.7,12.1,0.5,12.3
			c-0.6,1.2-4.3,3.4-9.8,6.6c-9.4,5.5-23.6,13.7-32.8,23.6c-5.4,5.7-7.4,12.3-5.9,19.1c2,8.8,10,17.1,20.4,21
			c16.7,6.4,45.9,8.8,55.3,7l0.1,0.5C183.9,243.6,180.9,243.8,177.4,243.8z"/>
		<path class="st0" d="M155.1,145.4"/>
		<path class="st0" d="M173.9,251.8c-10.2,0-24.3-2.3-36.5-5.9c-7.4-2.2-13.7-4.8-18.9-7.7c-5.9-3.3-10-7-12.4-10.9
			c-2.3-3.8-2.7-8.7-1.3-14.4c1.1-4.6,3.3-9.7,6.7-15.3c5.7-9.5,12.6-17.1,12.7-17.2l0.4,0.4c-0.1,0.1-7,7.6-12.6,17.1
			c-3.3,5.5-5.5,10.7-6.6,15.2c-1.3,5.6-0.9,10.3,1.3,14c2.3,3.8,6.4,7.4,12.2,10.7c5.1,2.9,11.4,5.5,18.8,7.7
			c12.5,3.8,27.2,6.1,37.4,5.9l0,0.5C174.6,251.8,174.2,251.8,173.9,251.8z"/>
		<path class="st0" d="M67.7,401c-2.5,0-5.8-0.6-11.1-3.2c-3.8-1.9-6.4-1.8-10.8-1.6c-4,0.2-9.4,0.4-18.3-0.8
			c-4.4-0.6-8.3-2-11.7-4.3c-2.7-1.8-5.1-4.2-7.1-7.1c-3.3-4.7-4.4-9.1-4.5-9.5c-6.7-14-3.8-28.2-0.1-37.6
			c4.2-10.8,11.8-21.1,19.7-27c9.5-7.1,12.2-10,14.8-12.9c1.3-1.4,2.6-2.9,4.7-4.8c6.3-5.7,11.2-15.4,14.5-28.8
			c3.4-13.7,11.5-28.3,20.1-43.3c4.2-7.2,14-17,26.8-26.7c11.8-8.9,24.7-16.7,33.7-20.3c15.6-6.2,16.3-8.2,16.3-8.4l-0.2-0.1
			l0.2-0.2c2.6-3.2,1.8-10.4,1.8-10.4l0.5-0.1c0,0.3,0.8,7.3-1.8,10.7c0,0.1,0,0.1,0,0.2c-0.2,1.5-6.2,4.6-16.7,8.8
			c-8.9,3.6-21.8,11.3-33.5,20.2c-12.8,9.7-22.5,19.4-26.7,26.6c-8.6,15-16.7,29.5-20.1,43.2c-3.4,13.5-8.3,23.3-14.7,29.1
			c-2.1,1.9-3.4,3.4-4.7,4.8c-2.6,2.9-5.3,5.8-14.8,12.9c-7.8,5.8-15.3,16.1-19.5,26.8c-3.7,9.3-6.6,23.3,0.1,37.2l0,0.1
			c0,0,1.1,4.6,4.5,9.4c2,2.8,4.3,5.1,7,6.9c3.3,2.2,7.2,3.7,11.5,4.2c8.9,1.2,14.3,0.9,18.3,0.8c4.5-0.2,7.2-0.3,11.1,1.7
			c7.3,3.6,10.6,3.3,13.6,3c3-0.3,9.7-0.3,9.8-0.3v0.5c-0.1,0-6.7,0-9.7,0.3C69.6,400.9,68.7,401,67.7,401z"/>
		<path class="st0" d="M97,392.6L97,392.6c-0.1,0-6.5-0.9-10.1-0.9c-3.6,0-4.6,0-12.9-2.1c-3.9-1-5.8-0.1-7.7,0.7
			c-2,0.9-4.1,1.8-8.5,0.2c-3-1.1-6-1.8-8.9-2.4c-5.1-1.1-9.9-2.2-14.6-5.5c-3.7-2.6-6-7.7-6.7-15c-0.8-7.2-0.1-16.5,2.1-27.7
			c1.4-7.4,3-11.6,5.2-13.5c2.1-1.9,4.5-1.6,7.6-1.3c2.7,0.3,5.8,0.6,9.6-0.4c8.9-2.1,11.6-1,14.6,0.3c1.4,0.6,2.8,1.2,5,1.6
			c3.8,0.7,4.1,1.7,4.5,2.8c0.3,1,0.7,2.2,3.8,3.6c3.3,1.5,3.6,2.3,3.6,3.1c0,0.5,0.1,0.9,3,1.7c1.1,0.3,1.6,0.8,1.8,1.4
			c0.3,1.5-2.1,3.3-3.7,4.5c-0.2,0.2-0.4,0.3-0.6,0.5c0.4-0.1,0.9-0.3,1.8-0.6c4.5-1.6,7.6,0.1,9.4,1.8c1.2,1.2,2,2.5,2.5,3.4
			c0.1-0.8,0.2-2-0.1-2.7c-0.3-0.5-0.1-2.8,0.3-7.4c0.5-5.6,1.1-13.2,0.6-17.7c-0.2-1.4-0.4-3.4-0.8-5.9
			c-1.5-11.6-4.4-33.2-5.6-54.5c-0.8-13.4,2.6-24.7,5.5-31.7c3.2-7.7,6.7-12.2,6.7-12.3l0.4,0.3c0,0-3.5,4.6-6.6,12.2
			c-2.9,7-6.3,18.2-5.5,31.5c1.2,21.2,4.1,42.8,5.6,54.4c0.3,2.5,0.6,4.5,0.8,5.9c0.5,4.6-0.1,12.2-0.6,17.8
			c-0.3,3.4-0.6,6.6-0.4,7.1c0.6,1.3,0,3.7,0,3.8l-0.2,0.8l-0.3-0.8c0,0-0.8-2.2-2.7-4c-2.4-2.3-5.4-2.9-8.9-1.7
			c-0.9,0.3-1.6,0.5-2,0.7c-0.5,0.1-0.8,0.2-1-0.1c-0.2-0.3,0.2-0.6,1.2-1.4c1.3-1,3.7-2.8,3.5-4c-0.1-0.4-0.5-0.8-1.4-1
			c-3.2-0.9-3.4-1.4-3.4-2.2c0-0.5-0.1-1.2-3.3-2.7c-3.3-1.5-3.8-2.9-4.1-3.9c-0.3-1.1-0.6-1.8-4.1-2.4c-2.2-0.4-3.7-1-5.1-1.6
			c-3-1.2-5.6-2.3-14.3-0.2c-3.9,0.9-7.2,0.6-9.8,0.4c-3-0.3-5.3-0.5-7.2,1.2c-2.1,1.8-3.6,5.9-5,13.2c-2.1,11.1-2.8,20.3-2.1,27.5
			c0.8,7.2,3,12.1,6.5,14.6c4.6,3.2,9.4,4.3,14.4,5.4c2.9,0.7,5.9,1.3,9,2.5c4.2,1.5,6.1,0.7,8.1-0.2c2-0.9,4-1.8,8-0.7
			c8.2,2.1,9.1,2.1,12.7,2.1c3.4,0,9.3,0.8,10,0.9l6.3-2.5c-2.6-0.4-9.4-2-13.1-5.9c-2.2-2.4-3.9-8.3-3-15.2
			c0.5-3.7,1.7-7.1,3.6-10.2c2.2-3.6,5.2-6.5,9-8.8l0,0l0,0c0.4-0.1,10.8-1.8,16.1-0.9c3.3,0.6,6.5,1.9,9.3,3.2
			c1.8,0.8,3.5,1.5,4.9,1.9c1.7,0.4,3.5,1.3,5.3,2.1c1.8,0.8,3.7,1.7,5.4,2.1l0.4,0.1c3.4,0.8,9.6,2.2,14.2,5.3
			c3.2,2.2,6.5,3.9,9.7,5.6c1.5,0.8,3,1.6,4.5,2.4c4.3,2.4,10.6,5.1,14.1,5.5c2.4,0.2,3.8,0.7,4.2,1.7c0.3,0.7,0.2,1.5-0.5,2.6
			c-1.7,2.6-4.9,3.5-5.8,3.8l-0.1-0.5c0.6-0.2,3.9-1.1,5.5-3.5c0.6-0.9,0.7-1.5,0.5-2c-0.3-0.7-1.6-1.2-3.8-1.4
			c-3.5-0.3-9.9-3-14.3-5.5c-1.5-0.8-3-1.6-4.5-2.4c-3.2-1.7-6.5-3.5-9.7-5.7c-4.5-3.1-10.7-4.5-14-5.2l-0.4-0.1
			c-1.8-0.4-3.7-1.3-5.5-2.1c-1.7-0.8-3.5-1.6-5.2-2c-1.4-0.4-3.1-1.1-4.9-1.9c-2.8-1.2-6-2.6-9.2-3.1c-5-0.9-15.1,0.8-15.9,0.9
			c-3.7,2.3-6.7,5.2-8.8,8.6c-1.8,3-3,6.4-3.5,10c-0.7,4.9,0.1,11.8,2.9,14.8c4.3,4.6,13.6,5.8,13.7,5.9l1,0.1L97,392.6z"/>
		<path class="st0" d="M193.5,431.1c-0.3,0-0.7,0-1-0.1c-4.5-0.6-6.2-1.8-13.4-8.1c-7.1-6.2-16.7-12.9-21.3-15.7
			c-4.2-2.6-8.1-5.5-8.1-5.5l0.3-0.4c0,0,3.8,2.9,8.1,5.5c4.6,2.8,14.3,9.5,21.4,15.7c7.3,6.3,8.7,7.4,13.1,8c1.4,0.2,2.4,0,3-0.6
			c0.8-0.8,0.6-2,0.6-2l0,0l0,0c0.4-3.4-6.2-9.8-11.1-14.5c-1.2-1.2-2.4-2.3-3.3-3.3c-3.3-3.4-10-9.4-14.4-13.3
			c-1.9-1.7-3.3-3-4.1-3.6c-1-0.9-1.4-1.6-1.2-2.2c0.2-0.7,1.1-0.8,1.2-0.8l0.1,0l0.1,0c0,0,4.3,2.1,6.1,2.9
			c1.6,0.7,5.3,2.7,18.2,12.1c11.9,8.7,14.5,5.7,14.6,5.7c2.7-3.2-1.4-7.8-4.2-10.8l-0.2-0.3c-2.7-3-12.3-12.3-16-15.1
			c-1.5-1.1-3.9-2.7-6.4-4.4c-3.7-2.5-7.6-5.1-9.5-6.7c-3.2-2.7-9.4-8.3-9.5-8.4l0.4-0.4c0.1,0.1,6.3,5.7,9.4,8.4
			c1.9,1.6,5.7,4.2,9.4,6.7c2.5,1.7,4.9,3.3,6.4,4.4c3.7,2.8,13.3,12.1,16,15.1l0.2,0.3c2.8,3.2,7.2,7.9,4.2,11.5
			c0,0.1-0.6,0.7-2.2,0.7c-2.1,0-6-1.1-13.1-6.3c-12.9-9.4-16.5-11.3-18.1-12c-1.7-0.7-5.4-2.6-6-2.9c-0.2,0-0.6,0.2-0.6,0.4
			c-0.1,0.2,0,0.7,1,1.7c0.7,0.7,2.2,2,4,3.6c4.4,3.9,11.1,9.8,14.4,13.3c0.9,1,2.1,2.1,3.3,3.3c5.2,5,11.6,11.2,11.2,14.9
			c0,0.2,0.1,1.5-0.8,2.4C195.3,430.8,194.5,431.1,193.5,431.1z"/>
		<path class="st0" d="M182.6,433.6c-2.9,0-10.1-1.2-14.9-3.9c-5.1-2.8-9-5.4-14.5-9c-5.4-3.6-11.2-8.5-11.3-8.6l0.3-0.4
			c0.1,0,5.8,4.9,11.3,8.5c5.4,3.6,9.4,6.2,14.5,9c5,2.7,12.5,3.9,15.1,3.8c0.2-0.1,1.8-0.7,2.1-1.8c0.1-0.2,0.1-0.5,0.2-0.7
			c0.4-1.1,0.8-2.2-2.6-4.5l0.3-0.4c3.5,2.3,3.3,3.7,2.8,5.1c-0.1,0.2-0.2,0.4-0.2,0.6c-0.3,1.5-2.4,2.2-2.5,2.2l0,0l0,0
			C182.9,433.6,182.8,433.6,182.6,433.6z"/>
		<path class="st0" d="M86.5,437.8c-1.9,0-4.7-1.8-4.8-1.8l0,0c-2.6-2.2-6.2-7.8-7.2-10.2c-0.7-1.4-0.3-4.2,0-7.4
			c0.3-2.2,0.5-4.8,0.5-7.1c0-5.9,0.8-7,2.2-8.8c1.5-2,12.2-7.1,16.3-8.6c4.2-1.6,10.8-4.9,11.2-5.2c0.1-0.1,0.6-0.4,1.2-0.3
			c0.8,0.1,1.6,0.6,2.5,1.6c0.4,0.5,1.1,1.6,2,3c3.4,5.4,10.3,16.7,19.6,22.7l0,0c0.1,0.1,8,6.7,12.6,10.5c0,0,3.1,2.6,9.5,4.1
			c5,1.2,9,1.2,11.7,1.2c0.8,0,1.5,0,2,0c2.1,0.1,2.6-0.3,3.1-1l0.4,0.3c-0.7,0.9-1.5,1.3-3.6,1.2c-0.5,0-1.2,0-2,0
			c-2.7,0-6.8,0-11.8-1.2c-6.5-1.5-9.6-4.1-9.7-4.2c-4.6-3.7-12.3-10.2-12.6-10.5c-9.4-6.1-16.4-17.4-19.8-22.8
			c-0.9-1.4-1.5-2.5-1.9-3c-0.7-0.9-1.4-1.4-2.1-1.4c-0.6,0-0.9,0.2-0.9,0.2l0,0l0,0c-0.1,0-6.9,3.5-11.3,5.2
			c-4.5,1.7-14.7,6.7-16,8.4c-1.3,1.8-2.1,2.8-2.1,8.5c0,2.4-0.3,5-0.6,7.2c-0.4,3.2-0.7,5.9-0.1,7.2c1.1,2.3,4.5,7.8,7.1,10
			c0.2,0.1,3.4,2.1,5,1.7l0.1,0.5C86.9,437.8,86.7,437.8,86.5,437.8z"/>
		<path class="st0" d="M92,445.8l-0.9-0.2l-1.1-1.3c-1.1-1.2-6.4-12.8-6.6-13.3l0,0c-0.1-0.5-0.4-1.2-0.6-2
			c-0.8-2.3-1.9-5.4-1.7-7.7c0.2-1.9,4.1-6.4,6.4-9c3.2-3.5,6.7-7,8.1-7.8c1.5-0.9,1.6-2.1,1.6-2.7c0-0.6-0.2-0.9-0.3-1c0,0,0,0,0,0
			v-0.5c0.3,0,0.6,0.4,0.7,0.8c0.3,1,0,2.6-1.8,3.8c-2.8,1.8-13.9,13.6-14.2,16.4c-0.2,2.2,0.9,5.3,1.6,7.5c0.3,0.8,0.5,1.5,0.6,2
			c1.9,4.2,5.7,12.2,6.5,13.2l1,1.2l0.7,0.1L92,445.8z"/>
		<path class="st0" d="M92,444.6c-0.9-1.5-1.8-3.7-2.3-5.8c-0.5-1.7-0.9-4.1-0.5-5.9c0.8-2.9,8.2-15,10.2-18.1c1-1.4,1-2.2,0.9-2.7
			c-0.1-0.3-0.3-0.4-0.3-0.4l0.2-0.5c0.2,0.1,0.5,0.3,0.7,0.8c0.2,0.8-0.1,1.8-1,3.1c-2.1,3-9.4,15.1-10.2,17.9
			c-0.8,2.9,1.1,8.5,2.7,11.2L92,444.6z"/>
		<path class="st0" d="M109.1,456.5"/>
		<path class="st0" d="M101,461.2c-0.6,0-1,0-1-0.1l0,0l0,0c-2.6-1-6.9-6.2-7.3-8.1c-0.5-1.9-1.1-12,0-15.1c1-2.9,6.1-8.3,9.1-11.2
			c2-2,2.1-4.8,2.1-4.8l0.5,0c0,0.1,0,3-2.2,5.2c-2.3,2.3-7.9,8.1-8.9,11c-1,2.9-0.4,13,0,14.8c0.4,1.7,4.6,6.8,7,7.7
			c0.2,0,1.9,0.2,3.2-0.3c0.2-0.1,0.4-0.2,0.6-0.3l0.1,0c1.2-0.6,1.9-1.4,2.2-2.4c0.2-0.5,0.2-0.9,0.2-1.1c-1.6-0.5-2.6-2.3-2.7-2.4
			l0-0.1l0-0.1c0.1-1.9-0.1-9-0.2-9.1l0-0.2l0.1-0.1c1.1-0.7,3.8-4.7,7.4-11c1.5-2.7,13.2-3.7,16.7-3.9c6.6-0.4,15.1-3,15.2-3
			l0.2,0.5c-0.1,0-8.6,2.6-15.3,3.1c-6.8,0.5-15.1,1.7-16.2,3.7c-2.1,3.7-5.8,9.9-7.4,11.1c0,1,0.3,7,0.2,8.9
			c0.2,0.3,1.1,1.8,2.5,2.1l0.2,0l0,0.2c0,0,0.4,2.7-2.7,4.2l-0.1,0c-0.2,0.1-0.5,0.2-0.7,0.3C102.6,461.2,101.7,461.2,101,461.2z"
			/>
		<path class="st0" d="M195.8,387.2c-0.1,0-0.3-0.1-0.5-0.2c-0.4-0.3-1.2-0.9-3.5-1.6c-4.1-1.3-7.1-1.1-8.7-1
			c-0.7,0-1.1,0.1-1.3-0.1l0.3-0.4c0,0,0,0,0,0c0.1,0,0.5,0,1,0c1.5-0.1,4.7-0.3,8.9,1c2.4,0.8,3.2,1.4,3.7,1.7
			c0.1,0,0.1,0.1,0.2,0.1c0.1,0,0.1-0.1,0.2-0.2c0.3-0.3,0.7-0.7,1.5-1.4c0.5-0.4,1-0.8,1.4-1.2c2-1.8,2.6-2.2,6.9-2.1
			c1.6,0,2.7,0,3.5,0c1.7,0,2.3,0,5,0.6c1.1,0.3,1.9,0.6,2.5,0.8c1.6,0.6,2.2,0.8,4.3-0.4c1.2-0.7,1.8-1.4,2.2-1.8
			c0.6-0.7,1-1.2,2.8-1.2c1.7-0.1,3.2,0,4.6,0.2c0.9,0.1,1.8,0.2,2.6,0.2c1.9,0,1.9-0.1,3.3-1.9l0.3-0.3c0.7-0.9,0.7-2,0.6-3.1
			c0-1.4-0.1-2.9,1.5-3.8l0.3,0.5c-1.3,0.7-1.2,1.9-1.2,3.3c0,1.2,0.1,2.4-0.7,3.5l-0.3,0.3c-1.5,1.9-1.7,2.1-3.8,2.1
			c-0.9,0-1.7-0.1-2.7-0.2c-1.4-0.1-2.8-0.2-4.5-0.2c-1.6,0.1-1.9,0.4-2.4,1.1c-0.4,0.5-1,1.2-2.3,1.9c-2.3,1.4-3.1,1.1-4.7,0.5
			c-0.6-0.2-1.4-0.5-2.5-0.8c-2.5-0.6-3.2-0.6-4.8-0.6c-0.8,0-1.9,0-3.5,0c-4.1-0.1-4.5,0.2-6.5,2c-0.4,0.3-0.8,0.7-1.4,1.2
			c-0.8,0.6-1.2,1.1-1.4,1.3C196.1,387.1,196,387.2,195.8,387.2z"/>
		<path class="st0" d="M337.5,468.3c-2.3-4.3-0.4-18.8,1.7-35.5c1.3-10.5,2.9-22.4,3.4-32.9c1.5-26.4-4.7-74.3-8.2-95.9
			c-3.4-21.1-12.3-54.1-20.1-69.7c-7.7-15.3-31.3-33.7-38.9-38.9c-3.2-2.2-6.8-6.3-10.2-11.8c-3.3-5.2-6.3-11.4-8.8-17.9
			c-4.8-12.5-17.6-35.8-18-36.5c-3-4.2-10-14.9-10.6-24.3c-0.5-8.9-4.5-17.7-4.5-17.8l0.5-0.2c0,0.1,4,9,4.6,18
			c0.5,9.3,7.5,19.9,10.5,24.1l0,0c0.1,0.2,13.2,23.9,18,36.6c5.2,13.6,12.6,25.2,18.8,29.4c3.3,2.3,11.1,8.1,19.1,15.3
			c9.9,9,16.6,17,20,23.8c7.8,15.6,16.7,48.7,20.1,69.9c3.5,21.7,9.7,69.6,8.2,96.1c-0.6,10.5-2.1,22.4-3.5,33
			c-2.1,16.6-3.9,31-1.8,35.2L337.5,468.3z"/>
		<path class="st0" d="M116.2,348.8l-0.5-0.1c0-0.3,0.9-6.3,7.9-12.7c4-3.6,4.5-5.2,5.2-7.3c0.6-1.7,1.2-3.7,3.6-7.3
			c2.4-3.6,3.8-6.4,5.5-9.6c2.1-4.2,4.6-8.9,9.7-16.6c4.2-6.3,8.1-12.6,11.8-18.8c4.2-6.9,8.2-13.5,12-18.7
			c6.1-8.5,14.6-14.7,20.7-19.2c0.9-0.7,1.7-1.3,2.5-1.9c1.4-1,3.6-3,6.3-5.4c9.2-8.2,24.6-21.9,39.2-27.5
			c9.8-3.8,20.2-4.6,27.2-4.5c7.6,0,13,1,13,1l-0.1,0.5c-0.1,0-5.4-0.9-12.9-1c-0.1,0-0.2,0-0.2,0c-7,0-17.2,0.8-26.8,4.5
			c-14.5,5.6-29.8,19.3-39,27.4c-2.7,2.4-4.9,4.4-6.3,5.4c-0.8,0.6-1.6,1.2-2.5,1.9c-6.1,4.5-14.5,10.6-20.6,19.1
			c-3.8,5.2-7.8,11.8-12,18.7c-3.7,6.1-7.6,12.4-11.8,18.8c-5.1,7.7-7.6,12.4-9.7,16.6c-1.7,3.2-3.1,6-5.5,9.7
			c-2.3,3.5-3,5.5-3.5,7.1c-0.7,2.2-1.3,3.8-5.3,7.5c-3.6,3.3-5.5,6.4-6.4,8.5C116.4,347.2,116.2,348.8,116.2,348.8z"/>
		<path class="st0" d="M241.3,437.4c-2.7,0-5.2-0.2-7.3-0.6c-5.7-1.1-9.3-2.2-12.2-3c-4.3-1.3-7.2-2.1-13.4-2.1
			c-10.2,0-22.9-0.3-23-0.3l0-0.5c0.1,0,12.8,0.3,23,0.3c6.2,0,9.1,0.9,13.5,2.2c2.9,0.9,6.5,1.9,12.1,3c13.9,2.7,41.6-4.5,46.2-7
			c2.9-1.6,3.6-2.5,5.1-4.7c0.8-1.2,1.9-2.8,3.7-5c3.7-4.5,3.8-5.8,4.3-12.1c0.2-2.4,0.5-5.8,1.1-10.4c1.9-14.4,10.3-38.6,13-46.6
			c0.4-1,0.6-1.8,0.8-2.3c0.1-0.4,0.3-0.8,0.4-1.3c1.9-5.5,5.8-17,4.2-27.8c-1.2-8-0.5-11.5,0.8-17.3c0.6-2.9,1.4-6.5,2.1-11.6
			c1.7-12.1-6.5-21.9-15.2-32.3c-2.1-2.5-4.3-5.1-6.3-7.7c-5.1-6.6-9.2-11.2-12.6-14.1c-3.2-2.7-5.9-4.1-8.2-4.1
			c-2,0-3.6-0.1-5.4-0.1c-2.3-0.1-5-0.2-9.2-0.2c-7.8,0-18.2,6.8-26.4,12.8c-4.1,3-5.6,4.3-7.1,5.6c-1.8,1.5-3.5,3-9,6.9
			c-7.9,5.6-12.2,10.4-17.7,16.5c-1.7,1.9-3.4,3.9-5.5,6c-4.2,4.5-7.2,10.1-10.3,16c-3.3,6.1-6.6,12.5-11.6,18.1
			c-9.7,10.9-51.8,35.1-52.2,35.4l-0.3-0.5c0.4-0.2,42.5-24.4,52.1-35.3c4.9-5.6,8.3-11.9,11.5-18c3.2-6,6.2-11.6,10.4-16.1
			c2-2.2,3.8-4.1,5.5-6c5.5-6.1,9.8-11,17.8-16.6c5.5-3.9,7.2-5.3,9-6.9c1.5-1.3,3.1-2.6,7.2-5.6c5.5-4,9.9-6.8,13.7-8.8
			c5.2-2.7,9.4-4,12.9-4c4.3,0,6.9,0.1,9.3,0.2c1.8,0.1,3.4,0.1,5.4,0.1c4.9,0,11.3,5.5,21.2,18.4c2,2.6,4.2,5.2,6.3,7.7
			c8.8,10.5,17.1,20.3,15.3,32.7c-0.7,5.1-1.5,8.7-2.1,11.7c-1.3,6-2,9.3-0.8,17.2c1.7,11-2.3,22.5-4.2,28.1
			c-0.2,0.5-0.3,0.9-0.4,1.3c-0.2,0.5-0.4,1.3-0.8,2.3c-2.7,7.9-11.1,32.1-13,46.5c-0.6,4.6-0.9,7.9-1.1,10.3
			c-0.6,6.4-0.7,7.7-4.4,12.3c-1.8,2.2-2.8,3.7-3.7,4.9c-1.5,2.2-2.2,3.2-5.3,4.9C276.6,431.8,256.1,437.4,241.3,437.4z"/>
		<path class="st0" d="M202.8,381.9l-0.1-1.5c0-0.1-0.6-6.6,2.2-20.1c2.2-10.8,2.7-11.7,7.4-20.2c1.3-2.4,3-5.3,5.1-9.2
			c5.3-9.8,9-20.8,12.6-31.5c3-8.8,6-18,9.9-26.1c3.9-8,8.8-13.8,14.6-17.2c4.4-2.6,9.4-3.8,14.6-3.7c3.7,0.1,5.5,0.7,6.5,0.9
			c0.6,0.2,0.9,0.2,1.1,0.1c0.2-0.1,0.5-0.6,0.9-1.3l0.1-0.2c0.3-0.6,0.8-1,1.3-1.1c1.4-0.2,3.1,1.3,5,3c1.3,1.2,2.8,2.5,4.4,3.4
			c0.8,0.5,1.5,0.6,2.2,0.2c2.5-1.2,3.5-7.6,3.5-7.7l0.5,0.1c0,0.3-1,6.7-3.8,8.1c-0.8,0.4-1.7,0.3-2.7-0.3
			c-1.6-0.9-3.1-2.3-4.4-3.5c-1.8-1.6-3.5-3.1-4.6-2.9c-0.4,0.1-0.7,0.3-1,0.8l-0.1,0.2c-1,1.8-1.1,1.9-2.6,1.5
			c-1-0.3-2.8-0.8-6.4-0.9c-15.3-0.5-24,10.9-28.7,20.6c-3.9,8-6.8,16.8-9.9,26c-3.6,10.7-7.3,21.8-12.6,31.6
			c-2.1,3.9-3.8,6.8-5.1,9.2c-4.7,8.4-5.2,9.3-7.4,20c-1.9,9.5-2.2,15.5-2.2,18.3c0.8-2.9,2.7-9,5.5-16c3.5-8.8,9-20.7,15.8-27.5
			c7.6-7.6,12.3-16.7,16.4-24.7c2.9-5.7,5.5-10.7,8.6-14c1.4-1.5,2.7-2.9,3.8-4.2c4.7-5.2,7.2-8.1,13.4-10.8
			c7.5-3.3,8.5-4.2,12.7-9.1c0.9-1,1.7-1.9,2.3-2.7c2.6-3.1,4-4.7,7.2-6.5c1.8-1,3.3-2.9,4.7-4.8c1.5-2,2.9-3.9,4.7-4.1l0.1,0.5
			c-1.5,0.1-2.8,2-4.3,3.9c-1.4,1.8-2.9,3.9-4.9,4.9c-3.1,1.7-4.5,3.3-7,6.3c-0.7,0.8-1.5,1.7-2.4,2.8c-4.3,4.9-5.3,5.8-12.9,9.2
			c-6.1,2.7-8.6,5.5-13.2,10.7c-1.1,1.2-2.3,2.6-3.8,4.2c-3,3.3-5.6,8.2-8.5,13.9c-4.1,8-8.8,17.2-16.5,24.8
			c-6.7,6.7-12.2,18.6-15.7,27.4c-3.7,9.5-5.9,17.5-5.9,17.6L202.8,381.9z"/>
		<path class="st0" d="M206.8,226.9l-0.5-0.2c0-0.1,1.9-6.5,3.7-10.4c1.8-3.8,2.4-5.3-1.5-9.8c-3.7-4.3-0.3-8.2,2.4-11.4
			c0.3-0.4,0.6-0.7,0.9-1.1c1.9-2.4,0-5.1-2.1-7.9c-0.7-0.9-1.3-1.8-1.9-2.7c-1.6-2.7-0.6-4.8,0.8-7.6c0.5-1.1,1.1-2.4,1.7-3.9
			c1.2-3.5,2.2-5,2.9-5.6c-1.3-1.4-3-5.3-5-11c-2.7-7.9,0.6-21.4,0.6-21.5c0.4-1.9,1-3.1,1.5-4c1-1.9,1.6-3.1-0.2-8.4
			c-2.7-8,0-18.8,0-18.9l0.5,0.1c0,0.1-2.6,10.7,0,18.6c1.8,5.5,1.2,6.8,0.1,8.8c-0.5,1-1.1,2-1.5,3.9c0,0.1-3.3,13.4-0.6,21.2
			c2.7,7.7,4.3,10.1,5,10.9c0.2-0.1,0.3-0.1,0.4-0.1c0.3,0.1,0.5,0.3,0.5,0.5c0,0.2-0.1,0.4-0.3,0.4c-0.2,0-0.4,0-0.6-0.2
			c-0.5,0.4-1.4,1.6-2.8,5.4c-0.5,1.5-1.1,2.8-1.7,3.9c-1.3,2.8-2.2,4.6-0.8,7.1c0.5,0.9,1.2,1.8,1.8,2.7c2.1,2.9,4.3,5.9,2.1,8.6
			c-0.3,0.4-0.6,0.7-0.9,1.1c-2.7,3.2-5.8,6.8-2.4,10.7c2,2.3,2.9,3.9,3,5.4c0.1,1.5-0.5,2.8-1.4,4.9
			C208.8,220.5,206.9,226.9,206.8,226.9z"/>
	</g>
	<path class="st1" d="M226.8,94.6c3,13.2,3,13.3,3.7,21.7c0.8,8.6,4.8,17.1,8.3,23.5c3.5,6.4,10.7,27.8,13.6,31.3
		c2.9,3.5,6.2,9.4,8,13.4s15.9,14.7,18.9,16s-15.9-13.9-19.7-23c-3.7-9.1-10.7-25.4-13.1-28.9c-2.4-3.5-11.5-22.7-11.2-23.8
		C235.6,123.8,226.8,94.6,226.8,94.6z"/>
	<path class="st0" d="M198.2,233.8l-0.5,0c0.2-4.6,1.8-8.2,5.3-11.1c3.1-2.6,7.3-4.6,11.8-6.6c0.7-0.3,1.4-0.6,2.1-1
		c2.9-1.3,4.7-3,5.5-5.2c1.5-4.1-0.9-9.1-3-13.5c-0.1-0.3-0.3-0.6-0.4-0.9c-1.7-3.5-2.5-5.8-2.5-8.4c0-2.5,0.9-5.2,3.2-9.7
		c0.7-1.3,1.2-2.3,1.5-3c0.6-1.1,0.9-1.7,1-2.1c0-0.2,0-0.3-0.4-0.7c-0.5-0.5-1.5-1.6-2.5-4.4c-0.6-1.6-1.3-3.1-1.9-4.5
		c-2.4-5.2-4.5-9.6-1.6-17.8c3.5-10.1,4.3-14.1,0.7-22.6c-3.5-8.5-2.5-23.9-2.5-24l0.5,0c0,0.2-1,15.4,2.5,23.8
		c3.6,8.8,2.8,12.8-0.7,23c-2.8,8-0.7,12.4,1.6,17.4c0.7,1.4,1.3,2.9,2,4.5c1,2.7,1.9,3.6,2.4,4.2c0.8,0.9,0.7,1-0.5,3.4
		c-0.4,0.7-0.9,1.7-1.5,3c-4.2,8.4-3.9,10.9-0.7,17.6c0.1,0.3,0.3,0.6,0.4,0.9c2.1,4.5,4.6,9.6,3,13.9c-0.8,2.3-2.7,4.1-5.7,5.5
		c-0.7,0.3-1.4,0.6-2.1,1c-4.4,2-8.6,4-11.7,6.6C199.9,225.9,198.3,229.4,198.2,233.8z"/>
	<path class="st1" d="M224,212.5c0,0,22.8-20.3,16.4-48.5c0,0,6.8,13.2,4.3,23.9s-2.5,11.8,2.5,10c5-1.8,10.3-4.6,5.7-18.5
		c-4.6-13.9,7.1,15,11.8,16c4.6,1.1,10.3,1.4,10.3,1.4l9.3,4.6C284.3,201.4,249.3,194.6,224,212.5z"/>
	<path class="st0" d="M224.5,207.1c-0.5,0-1.1,0-1.7-0.1l0-0.1c3,0.3,4.8-0.1,5.7-1.2c1.2-1.5,0.3-4.1-0.5-6.6
		c-0.3-1-0.6-1.9-0.8-2.7c-0.7-3.1,0.8-5.4,2.4-7.9c1.4-2.3,2.9-4.7,2.6-7.6c-0.2-2.1-1.2-4.4-2.3-7c-1.8-4.4-3.7-8.9-1.9-12.3
		c0.6-1.2,1.7-1.9,2.7-2.5c1-0.7,2.1-1.3,2.7-2.5c1.2-2.5,0-8-1.8-10c-0.9-1-1.8-1.6-2.6-2.2c-2-1.4-3.5-2.5-2.5-6.5
		c0.3-1.3,0.8-2.2,1.1-2.9c0.7-1.3,1.1-2.1-0.1-4.6c-0.7-1.7-2.3-3.2-3.8-4.6c-2.5-2.4-5-4.8-4-8.2c0.7-2.1,2.4-3.3,4-4.6
		c1.5-1.1,3.1-2.3,3.9-4.2c0.9-2.3,0.4-3.6-0.1-5.1c-0.3-0.8-0.6-1.6-0.7-2.6l0.1,0c0.1,1,0.4,1.8,0.7,2.6c0.5,1.5,1,2.9,0.1,5.2
		c-0.8,1.9-2.4,3.1-3.9,4.2c-1.6,1.2-3.3,2.4-4,4.5c-1.1,3.3,1.4,5.6,3.9,8.1c1.5,1.4,3.1,2.9,3.8,4.7c1.1,2.6,0.8,3.4,0.1,4.8
		c-0.3,0.7-0.8,1.5-1.1,2.9c-1,3.9,0.4,5,2.4,6.4c0.8,0.6,1.8,1.3,2.6,2.3c0.9,1,1.7,2.8,2.1,4.9c0.4,2.2,0.3,4.1-0.2,5.3
		c-0.6,1.2-1.7,1.9-2.7,2.6c-1,0.7-2.1,1.3-2.7,2.5c-1.7,3.4,0.1,7.9,1.9,12.2c1,2.5,2,4.9,2.3,7c0.3,3-1.2,5.4-2.6,7.7
		c-1.5,2.5-3,4.8-2.4,7.8c0.2,0.8,0.5,1.8,0.8,2.7c0.9,2.5,1.7,5.2,0.5,6.7C227.9,206.7,226.5,207.1,224.5,207.1z"/>
	<path class="st0" d="M162.8,241.1c-0.4,0-0.8,0-1.2,0l0-0.1c10.1,0.3,17.6-3.4,22.9-11.5c4.6-7,7-16.5,9.2-24.8
		c1.9-7.4,3.7-14.5,6.8-18.6c2.9-3.9,4.8-8.2,5.7-12.8c0.8-4,0.7-7.9-0.3-11.3c-1.1-3.9-3.2-6.8-5.7-7.9c-0.8-0.4-1.5-0.4-2.1,0
		c-1.6,0.9-2.2,4.2-2.9,7.7c-0.8,4.6-1.8,9.8-5.3,10.2c-3,0.3-8-2.7-14.9-8.8c-5.1-4.6-9.4-9.3-9.5-9.4l0.1-0.1
		c0.2,0.2,17.2,18.9,24.2,18.2c3.5-0.3,4.4-5.3,5.2-10.1c0.6-3.5,1.2-6.9,2.9-7.8c0.6-0.3,1.4-0.3,2.2,0c2.6,1.1,4.7,4,5.8,8
		c1,3.5,1.1,7.4,0.3,11.4c-0.9,4.6-2.8,8.9-5.7,12.8c-3.1,4.2-4.8,11.2-6.7,18.6c-2.1,8.3-4.5,17.7-9.2,24.8
		C179.5,237.3,172.3,241.1,162.8,241.1z"/>
	<path class="st0" d="M111.4,219.3l-0.1-0.1c1.2-0.6,2.6-2.1,3.2-4.1c0.4-1.4,0.6-3.7-1.1-6.5c-1.3-2.2-1.1-5.1,0.6-8.5
		c1.3-2.5,3-4.4,3-4.4l0.1,0.1c-0.1,0.1-6.7,7.5-3.6,12.8c1.7,2.8,1.5,5.1,1.1,6.6C114,217.2,112.5,218.7,111.4,219.3z"/>
	<path class="st0" d="M140.3,238.2l-0.1,0c0-0.1,0.8-3.7,10.7-13.2l0.1,0.1C141.1,234.5,140.3,238.1,140.3,238.2z"/>
	<path class="st0" d="M124.2,181.9l-0.1-0.1c8.9-6.9,24.3-6.1,34.5-5.7c4.2,0.2,7.4,0.3,9.1-0.1c0.8-0.2,1.6-0.4,2.3-0.5
		c2.3-0.5,4-0.9,4-1.4c0-0.6-2.9-1.3-3.8-1.5c-3.7-0.9-6.3-5.6-7.9-9.3c-1.7-4-2.5-7.9-2.5-7.9l0.1,0c0,0.2,3.3,15.3,10.3,17.1
		c2.8,0.7,3.9,1.2,3.9,1.6c0,0.6-1.6,0.9-4.1,1.5c-0.7,0.2-1.5,0.3-2.3,0.5c-1.7,0.4-5,0.3-9.1,0.1C148.4,175.7,133,175,124.2,181.9
		z"/>
	<path class="st0" d="M286.2,401.6c-3.9-9.8-21.1-18.2-32.4-23.7c-5.1-2.5-8.8-4.3-9.9-5.5c-0.9-1-1.9-1.5-3-1.5
		c-0.9,0-1.6,0.3-2,0.5c-0.5,0.4-0.6,0.4-0.8,0.2c-0.1-0.1-0.1-0.2,0-0.4c0.1-0.1,0.2-0.2,0.4-0.3c0.1-0.1,0.2-0.2,0.3-0.3
		c0.5-0.4,1-2.6,1.1-11.1c0.1-6.1-0.1-13.9-0.3-20.8c-0.2-6.8-0.3-13.2-0.2-16.8c0.4-10.6,6.3-20.9,6.4-21l0.5,0.3
		c-0.1,0.1-5.9,10.2-6.3,20.7c-0.1,3.5,0,9.9,0.2,16.7c0.4,16.6,0.6,28.9-0.7,31.8c1.2-0.3,3-0.2,4.7,1.6c1,1.2,4.9,3,9.8,5.4
		c11.4,5.5,28.7,13.9,32.7,23.9L286.2,401.6z"/>
	<path class="st0" d="M98.4,343l-0.5-0.1c0.8-6.9-2.2-13.1-4.9-17c-3.3-4.9-7.1-8.1-8.9-9.1c-6.6-3.6-11-3.5-13.7-3.2
		c-2.8,0.4-4.6-1.1-6.8-3c-2.3-1.9-5.2-4.3-10.4-5.9c-4.2-1.3-10.5-0.8-18.4,1.6c-6,1.8-10.8,3.9-10.8,4l-0.2-0.5
		c0,0,4.9-2.2,10.9-4c8.1-2.4,14.4-2.9,18.7-1.6c5.3,1.6,8.2,4.1,10.6,6c2.3,1.9,3.9,3.2,6.4,2.9c5.9-0.8,10.8,1.5,14.1,3.2
		c1.8,1,5.7,4.3,9.1,9.3C96.1,329.7,99.2,336,98.4,343z"/>
	<path class="st0" d="M87.1,378.5l0-0.5c0-0.1-0.1-0.4-0.1-0.7c-0.1-0.2-0.3-0.3-0.6-0.4l0.1-0.1c0.2,0.1,0.4,0.2,0.5,0.3
		c0-0.1-0.1-0.3-0.1-0.4c-0.1-0.4-0.2-0.9-0.2-1.1c-0.9-0.1-1.8,0.1-2.7,0.3c-1,0.2-2.1,0.5-3.2,0.3l-0.1,0l0-0.1
		c-0.1-0.9-0.1-1.8-0.1-2.7c0-0.8,0-1.6,0-2.4c-2.5-0.6-4.5,1.2-6.4,2.9c-1,0.9-2,1.8-3.1,2.3c-2.9,1.4-6.8,2.5-8.5,1
		c-0.9-0.8-1-2.3-0.3-4.4c2.3-6.8,6.6-10,13.2-13.1c0.6-0.3,1.4-0.6,2.2-0.8c2.8-1,6.3-2.2,6-5.1c-1.6-0.3-3.1,0.8-4.6,1.8
		c-2.2,1.5-4.4,3-7,0.6l0,0l0,0c0.3-1.8,1.5-2.6,2.7-3.3c1.2-0.7,2.3-1.4,2.6-3c-1.7-0.3-3.8,0.7-5.9,1.6c-2.9,1.3-5.8,2.7-7.7,0.8
		l0,0l0,0c1-1.5,4.1-3,7.3-4.5c4.1-2,8.3-4,8.1-6.1c-9.9-0.6-18.7,4.2-24.4,7.9c-0.3,0.2-0.7,0.5-1.3,0.9c-3,2.1-8.6,6-10.1,4.8
		c-0.5-0.4-0.5-1.3,0.1-2.8c0.4-1.1,2.1-2.4,4-3.9c2.2-1.8,4.6-3.6,4.6-5c0-0.3-0.1-0.6-0.4-0.9c-1.5-1.4-5.1,0.6-8.6,2.6
		c-2.9,1.7-5.9,3.4-7.7,3.1l0,0l0,0c-0.4-3.2,0.7-6,3.4-8.4c2.3-2.1,5.6-3.7,8.4-5.1c1.1-0.5,2.1-1,3-1.5l0.6-0.3
		c4.1-2.2,8.2-4.4,12.9-5.3c0.6-0.1,1.6-0.1,2.6-0.1c1.4,0,3.1-0.1,3.3-0.4c0,0,0-0.1,0-0.1l0.1-0.1c0.1,0.1,0.1,0.2,0.1,0.3
		c-0.2,0.4-1.4,0.4-3.4,0.5c-1,0-2,0-2.6,0.1c-4.7,0.9-8.8,3.1-12.9,5.3l-0.6,0.3c-0.9,0.5-1.9,1-3,1.5c-2.8,1.4-6.1,3-8.4,5
		c-2.6,2.4-3.7,5.1-3.3,8.3c1.8,0.3,4.7-1.4,7.6-3c3.5-2,7.1-4.1,8.7-2.6c0.3,0.3,0.4,0.6,0.4,1c-0.1,1.4-2.4,3.3-4.7,5.1
		c-1.8,1.5-3.5,2.8-3.9,3.8c-0.5,1.4-0.6,2.3-0.1,2.6c1.4,1.1,7.2-2.9,9.9-4.8c0.5-0.4,1-0.7,1.3-0.9c4.2-2.7,8-4.6,11.7-5.9
		c4.4-1.6,8.6-2.2,12.8-2l0.1,0l0,0.1c0.3,2.2-4,4.3-8.2,6.3c-3.2,1.5-6.2,3-7.2,4.4c1.8,1.8,4.7,0.4,7.5-0.9c2.1-1,4.3-2,6-1.6
		l0.1,0l0,0.1c-0.3,1.6-1.5,2.4-2.7,3.1c-1.2,0.7-2.4,1.5-2.7,3.2c2.6,2.3,4.6,0.8,6.8-0.7c1.5-1,3.1-2.1,4.8-1.8l0,0l0,0
		c0.4,3-3.2,4.3-6,5.2c-0.8,0.3-1.6,0.5-2.2,0.8c-6.6,3.1-10.9,6.3-13.2,13c-0.7,2.1-0.6,3.5,0.3,4.3c0.7,0.6,1.9,0.8,3.6,0.6
		c1.4-0.2,3.1-0.8,4.8-1.6c1-0.5,2-1.4,3-2.3c2-1.8,4-3.6,6.6-2.9l0,0l0,0c0,0.8,0,1.7,0,2.5c0,0.9,0,1.8,0.1,2.6
		c1.1,0.2,2.1-0.1,3.1-0.3c0.9-0.2,1.8-0.4,2.8-0.3l0.1,0l0,0.1c0,0.3,0.1,0.7,0.2,1.2c0,0.2,0.1,0.5,0.1,0.7
		c0.1,0.2,0.2,0.5,0.1,0.7L87.1,378.5z"/>
	<path class="st1" d="M111.5,197.4c0,0-8.2,14.2-7.4,19.9c0,0-9.4,14.6-9.4,21.1C94.8,238.5,97.7,213.6,111.5,197.4z"/>
	<path class="st0" d="M242.7,434.6c-0.3,0-0.5,0-0.8,0c-0.3,0-0.5,0-0.8,0c-8.4,0.1-16.1-1.9-22.9-6.1c-4.1-2.5-8.1-5.4-12-8.2
		l-1.2-0.9c-1.1-0.8-2.3-1.9-3.5-3c-2.4-2.2-4.8-4.5-7.6-5.1c-0.3,2.4,2.8,5.7,4.8,7.9c0.5,0.6,1,1,1.3,1.4c1.5,1.8,3.3,3.5,4.9,5.2
		c1.6,1.6,3.3,3.2,4.7,4.9l-0.1,0.1c-1.4-1.7-3.1-3.3-4.7-4.9c-1.7-1.6-3.4-3.3-5-5.2c-0.3-0.4-0.8-0.9-1.3-1.4
		c-2.1-2.2-5.2-5.6-4.8-8.1l0-0.1l0.1,0c2.8,0.6,5.3,2.9,7.7,5.2c1.2,1.1,2.3,2.2,3.4,3l1.2,0.9c3.9,2.8,7.9,5.7,12,8.2
		c6.8,4.1,14.5,6.2,22.8,6.1c0.2,0,0.5,0,0.8,0c1.6,0,3.6,0.1,4.3-1.3c1.3-2.6-4.7-7-7.2-8.9c-0.3-0.2-0.5-0.4-0.7-0.5
		c-1.9-1.5-3.9-2.8-5.7-4.2c-5.3-3.8-10.4-7.4-14.7-12.5c-1.1-1.2-2-2.6-3-3.8c-1.4-1.9-2.8-3.8-4.4-5.4c-0.6-0.6-1.2-1.1-1.9-1.7
		c-1.7-1.4-3.7-3.1-4.3-5.2l0-0.1l0.1,0c7.8-2,14.3,4.1,20.2,9.4c2,1.8,3.8,3.5,5.7,4.9c4.2,3.1,9.1,5.8,14.9,8.3
		c0.2,0.1,0.4,0.2,0.7,0.3c2.3,1,6.5,2.9,8.4,1.5c0.7-0.5,1-1.1,1.1-1.7c0.1-1.9-2.3-4.4-4.7-6.8c-2.7-2.7-5.2-5.2-4.5-7.2
		c0.3-0.9,0.9-1.5,1.6-1.8c2.1-0.7,5.4,1.6,8.1,3.4c1.5,1,2.8,1.9,3.6,2.1c0.4-1.3-0.3-2.9-1-4.4c-0.7-1.7-1.4-3.2-0.8-4.5
		c0.4-0.8,1-1.3,1.8-1.4c1.9-0.2,4.3,1.7,5.3,3.1c0.3,0.3,0.5,0.7,0.8,1.1c2,2.6,4.9,6.6,6.8,6.1c0.9-0.2,1.5-1.4,1.8-3.6l0-0.1
		l0.1,0c1.5,0,3.1,1.7,4.5,3.2c0.7,0.7,1.4,1.5,2,1.9c0.4,0.3,0.9,0.6,1.3,1c1.6,1.2,3.3,2.6,5,3.2c2,0.8,4.3,1.1,6.9,1.1
		c0-0.3-0.1-0.7-0.2-1l0.1-0.1c0.2,0.3,0.3,0.7,0.3,1.1l0,0.1l-0.1,0c-2.6,0.1-4.9-0.3-7-1.1c-1.7-0.7-3.5-2-5.1-3.2
		c-0.5-0.4-0.9-0.7-1.3-1c-0.6-0.4-1.3-1.2-2-1.9c-1.4-1.5-3-3.1-4.4-3.1c-0.3,2.1-1,3.4-1.9,3.6c-2,0.5-5-3.5-7-6.1
		c-0.3-0.4-0.6-0.8-0.8-1.1c-1-1.3-3.4-3.2-5.2-3c-0.7,0.1-1.3,0.5-1.7,1.3c-0.6,1.2,0.1,2.7,0.8,4.4c0.7,1.6,1.4,3.2,1,4.6l0,0.1
		l-0.1,0c-0.8-0.2-2.2-1.1-3.7-2.1c-2.7-1.8-6-4.1-8-3.4c-0.7,0.2-1.2,0.8-1.5,1.7c-0.7,1.9,2,4.5,4.5,7.1c2.4,2.4,4.9,4.9,4.7,6.9
		c-0.1,0.7-0.4,1.3-1.1,1.8c-1.9,1.4-6.2-0.5-8.5-1.5c-0.3-0.1-0.5-0.2-0.7-0.3c-5.8-2.5-10.7-5.2-15-8.3c-1.8-1.3-3.7-3-5.7-4.9
		c-5.8-5.3-12.3-11.3-20-9.4c0.6,2,2.5,3.5,4.3,5c0.7,0.6,1.4,1.1,2,1.7c1.7,1.7,3.1,3.6,4.5,5.5c0.9,1.3,1.9,2.6,3,3.8
		c4.3,5.1,9.4,8.7,14.7,12.5c1.9,1.3,3.8,2.7,5.7,4.2c0.2,0.1,0.4,0.3,0.7,0.5c2.6,1.9,8.6,6.4,7.3,9.1
		C245.7,434.5,244.1,434.6,242.7,434.6z"/>
	<path class="st0" d="M116.1,348.6l-0.3-0.4c0.4-0.3,40.7-28.3,51.3-42.4c1.7-2.3,3.9-5.9,6.7-10.5c7.2-11.9,18.1-29.8,33.1-45
		c8.3-8.4,16.9-15,25.7-19.7c10.4-5.5,21.3-8.6,32.4-9.1l0,0l0,0c0,0,3.3,0.2,8.3,1.6c4.6,1.3,11.8,4,19.5,9.3
		c8.7,5.9,16.4,13.9,22.8,23.6c8,12.1,14.1,27.1,18.1,44.4l-0.5,0.1c-4-17.3-10-32.2-18-44.3c-6.4-9.7-14-17.6-22.6-23.5
		C278.1,223,265.5,222,265,222c-11,0.5-21.8,3.5-32.1,9c-8.8,4.7-17.4,11.3-25.6,19.6c-15,15.1-25.8,33-33,44.9
		c-2.8,4.6-5,8.3-6.7,10.6c-3.1,4.1-10.7,12-29.7,26.6C126.4,341.4,116.2,348.5,116.1,348.6z"/>
	<path class="st0" d="M323.6,271.7c-2.9-12.3-7.5-23-13.6-31.7c-4.9-7-10.7-12.7-17.3-17c-5.9-3.9-11.4-5.9-14.9-6.9
		c-3.7-1.1-6.2-1.3-6.4-1.3c-0.2,0-0.4,0-0.7,0c-9.6,0-18.7,1.7-27.1,5.1c-6.9,2.8-13.4,6.6-19.2,11.5c-10,8.3-14.7,16.7-14.8,16.8
		l-0.5-0.3c0-0.1,4.9-8.6,14.9-17c5.9-4.9,12.4-8.8,19.4-11.6c8.7-3.5,18.1-5.2,28-5.1l0,0c0.1,0,10.1,0.8,21.5,8.2
		c6.7,4.4,12.6,10.1,17.5,17.1c6.1,8.8,10.7,19.5,13.6,31.9L323.6,271.7z"/>
	<path class="st0" d="M131,354l-0.1-0.5c5.5-1.2,12.1-4.5,19.6-9.8c6.7-4.7,13.8-11,20.7-18c6.5-6.7,12.5-13.8,17.2-20.5
		c4.8-6.8,7.9-12.8,9-17.1c1.3-5.2,4.9-13.8,14.1-24.9c5.5-6.7,10.5-11.2,10.6-11.2l0.4,0.4c0,0-5,4.5-10.5,11.2
		c-9.2,11.1-12.7,19.6-14,24.7c-1.1,4.4-4.3,10.4-9.1,17.3c-4.7,6.7-10.7,13.8-17.2,20.6c-6.9,7.1-14.1,13.3-20.8,18.1
		C143.3,349.4,136.6,352.8,131,354z"/>
	<path class="st0" d="M159.5,365.3l1-1l0.1,0.1L160,365c2.8-1,6.3-3.9,7.7-5.1c2.9-2.5,4.7-5.5,5.6-9.2c0.2-0.7,0.4-1.9,0.6-3.2
		c0.6-4.3,1.6-10.8,4.5-12.7c0.9-0.6,1.8-0.7,2.9-0.4l0.1,0l0,0.1c-0.4,1.7-0.4,5.4,0.3,8.7c0.5,2.3,1.6,6.2,4.3,6.8
		c6.2,1.3,10.3-13.6,11.8-19.2c0.2-0.6,0.3-1.1,0.4-1.4c0.3-0.9,0.5-1.9,0.8-2.8c2.5-8.6,5.2-17.5,5.4-26.5c0.1-4.1,1-13.9,6.2-16.9
		l0.1,0l0,0.1c0.8,2.6,0.6,6.3,0.4,9.6c-0.1,1-0.1,2-0.1,2.9c-0.1,2.5-0.6,5.2-1.1,7.8c-0.8,3.7-1.6,7.6-0.9,11
		c5.7-4.2,8.3-11.5,10.7-18c0.3-0.7,0.5-1.5,0.8-2.2c1.9-5.2,4-10.3,6.1-15.3c2.1-5,4.2-10.1,6.1-15.3c0.3-0.8,0.6-1.9,1-3.3
		c2.1-6.9,6-19.7,12.9-18.2l0,0l0,0c0.2,2.5-1.5,4.3-3.3,6.2c-1.9,2-3.9,4.1-3.4,7.2c6.1,0,10.4-4,14.6-7.8c0.7-0.6,1.3-1.2,2-1.8
		c1.9-1.7,5.2-3.6,8.6-5.7c4.6-2.8,9.5-5.6,11.6-8.3l0.1,0.1c-2.2,2.6-7,5.5-11.7,8.3c-3.4,2.1-6.7,4-8.6,5.7
		c-0.7,0.6-1.3,1.2-2,1.8c-4.2,3.9-8.6,7.8-14.8,7.9l-0.1,0l0-0.1c-0.5-3.2,1.5-5.4,3.5-7.4c1.7-1.8,3.4-3.6,3.3-6
		c-6.7-1.5-10.6,11.2-12.7,18.1c-0.4,1.3-0.8,2.5-1.1,3.3c-1.9,5.1-4,10.3-6.1,15.3c-2.1,5-4.2,10.2-6.1,15.3
		c-0.3,0.7-0.5,1.5-0.8,2.2c-2.4,6.5-5.1,13.9-10.8,18.1l-0.1,0.1l0-0.1c-0.7-3.5,0.1-7.4,0.9-11.1c0.5-2.6,1.1-5.3,1.1-7.8
		c0-0.9,0.1-1.9,0.1-2.9c0.2-3.2,0.4-6.9-0.4-9.5c-5.1,3-5.9,12.7-6,16.8c-0.3,9-2.9,17.9-5.4,26.5c-0.3,0.9-0.5,1.9-0.8,2.8
		c-0.1,0.4-0.2,0.9-0.4,1.4c-1.5,5.4-5.3,19.4-11.1,19.4c-0.3,0-0.5,0-0.8-0.1c-4.6-1-5.4-11.9-4.7-15.6c-1-0.3-1.9-0.1-2.7,0.4
		c-2.9,1.8-3.8,8.3-4.5,12.6c-0.2,1.3-0.4,2.5-0.6,3.2c-0.9,3.7-2.8,6.8-5.7,9.2c-1.5,1.3-5.2,4.3-8,5.2L159.5,365.3z"/>
	<path class="st0" d="M104.9,348.6l-0.1,0c2.1-6.8,0.7-33-0.4-48.1c-1.5-21.6-3.7-43.5-4.9-51.3c-1.3-8.3,0.6-13.9,2.5-17.1
		c2-3.5,4.3-5,4.4-5l0.1,0.1c0,0-2.3,1.5-4.3,5c-1.8,3.2-3.8,8.7-2.5,17c1.2,7.8,3.4,29.6,4.9,51.3
		C105.5,315.5,106.9,341.8,104.9,348.6z"/>
	<path class="st0" d="M108.5,348.3l-0.1-0.1c3.3-6.2,3.3-31.1,3-45.5c-0.4-20.4-1.9-40.7-2.9-46.8c-1.1-6.5,1.9-10.9,4.6-13.5
		c2.9-2.8,6.1-4.1,6.2-4.1l0,0.1c0,0-3.2,1.3-6.1,4c-2.7,2.6-5.6,6.9-4.5,13.4c1.1,6.2,2.5,26.5,2.9,46.8
		C111.8,317.1,111.8,342.1,108.5,348.3z"/>
	<path class="st0" d="M111.4,348.8l-0.1-0.1c1.5-0.7,4.3-16.1,7.5-41.1c2.7-20.6,4.9-42.4,4.9-47.6c0-5.4,3.1-9,5.7-11.1
		c2.8-2.3,5.7-3.3,5.7-3.3l0,0.1c0,0-2.9,1-5.7,3.2c-2.6,2.1-5.7,5.6-5.7,11c0,5.3-2.2,27.1-4.9,47.6
		C117.4,319.5,113.6,347.7,111.4,348.8z"/>
	<path class="st0" d="M123.8,336.3l-0.1-0.1c1.1-1.6,3.6-13.5,6.3-30.5c2.2-13.8,4.5-30.2,4.5-35.9c0-5.6,4.6-10.9,8.4-14.4
		c4.1-3.8,8.3-6.3,8.4-6.3l0.1,0.1c0,0-4.2,2.5-8.4,6.3c-3.8,3.5-8.4,8.8-8.4,14.3c0,5.6-2.2,22.1-4.5,35.9
		C128,318.6,125.1,334.3,123.8,336.3z"/>
	<path class="st0" d="M147.9,295.4l-0.1,0c0,0,1.1-3.2,2.1-7.3c0.9-3.8,1.9-9.1,1.3-13.2c-0.6-4.1,2.6-10.5,5.3-15.1
		c3-5,6.1-9.1,6.1-9.2l0.1,0.1c-0.1,0.2-12.5,16.5-11.4,24.2c0.3,2.2,0.3,6.4-1.3,13.2C149,292.2,147.9,295.4,147.9,295.4z"/>
	<path class="st0" d="M295.5,389.8c-0.4-0.2-0.9-0.4-1.3-0.7l0.1-0.1c0.3,0.2,0.5,0.3,0.8,0.4c-1.1-1.1-1.2-2.3-1.2-3.6
		c0-0.8-0.1-1.6-0.4-2.5c-1.4-3.5-5-6.8-11.2-9.9c-1.7-0.9-3.5-1.7-5.2-2.5c-1.9-0.9-3.8-1.8-5.7-2.8c-0.7-0.4-1.7-0.8-2.7-1.2
		c-2.3-1-4.9-2-6.2-3.5c-1.3-1.4-1.7-2.5-1.4-3.3c0.6-1.4,3.7-1.4,6.3-1.4c0.3,0,0.6,0,0.9,0c0.5,0,1.3,0,2.1,0
		c4.1,0.1,11,0.4,12.1-2.3c0.7-1.6,0.2-3.5-1.6-5.5c-1.4-1.6-3.3-3-4.6-3.7c-1.1-0.6-3.1-1.2-5.4-1.8c-4.8-1.3-10.7-2.9-11.1-6.3
		c-0.5-4.4,5.6-5.3,9.2-5.9c0.6-0.1,1.1-0.2,1.6-0.3c7.2-1.4,14.1-1.7,19.8-1.8c0.3,0,0.5,0,0.8,0c4.6,0,11.4-0.1,11.9-5.4
		c0.5-5.5-5.1-10.1-9.9-13.1c-5.2-3.2-11.1-4.8-16.9-6.4c-5.3-1.5-10.9-3-15.7-5.7c-2.4-1.3-3.9-3.2-4.4-5.3c-0.5-2,0-4.1,1.4-6.2
		c0.4-0.6,1-1,1.5-1.4c0.8-0.6,1.4-1.1,1.3-1.7l0.1,0c0.2,0.7-0.5,1.2-1.3,1.9c-0.5,0.4-1.1,0.9-1.5,1.4c-1.3,2-1.8,4.1-1.3,6.1
		c0.5,2.1,2,3.9,4.4,5.2c4.8,2.7,10.3,4.2,15.6,5.7c5.8,1.6,11.7,3.2,16.9,6.4c4.8,2.9,10.5,7.6,10,13.2c-0.5,5.4-7.4,5.4-12,5.5
		c-0.3,0-0.5,0-0.8,0c-5.7,0.1-12.5,0.3-19.7,1.8c-0.4,0.1-1,0.2-1.6,0.3c-3.6,0.6-9.5,1.5-9.1,5.7c0.4,3.4,6.3,5,11,6.2
		c2.3,0.6,4.3,1.1,5.4,1.8c1.3,0.8,3.3,2.2,4.7,3.8c1.8,2,2.3,3.9,1.6,5.6c-1.2,2.7-8.1,2.5-12.2,2.3c-0.8,0-1.6-0.1-2.1,0
		c-0.3,0-0.6,0-0.9,0c-2.5,0-5.6,0-6.2,1.3c-0.3,0.7,0.1,1.8,1.3,3.1c1.3,1.4,3.8,2.5,6.1,3.5c1,0.4,2,0.8,2.7,1.2
		c1.9,1,3.8,1.9,5.7,2.8c1.7,0.8,3.5,1.7,5.2,2.5c6.2,3.2,9.9,6.5,11.2,10c0.3,0.8,0.4,1.7,0.4,2.5c0.1,1.4,0.1,2.7,1.6,3.9
		L295.5,389.8z"/>
	<path class="st0" d="M96,328.8L96,328.8c-0.1-3.3-1.2-7.6-3.6-13.2c-0.2-0.5-0.4-1.1-0.6-1.7c-0.3-0.9-0.5-1.8-0.8-2.3
		c-1.2-1.9-2.9-3.1-4.8-4.2c-0.7-0.4-1.4-0.9-2.1-1.4c-1.3-0.9-2.6-1.9-3.9-2.8c-1.7-1.2-3.5-2.5-5.2-3.7c-2.8-1.9-3.1-2.9-2.2-6.3
		l0,0l0,0c1.8-0.4,4,0.2,6.1,0.8c2.4,0.7,4.7,1.3,6,0.3c0.9-0.7,1.2-2.1,1.1-4.4c-0.2-3.5-1.7-6.6-3.2-9.7c-1.3-2.6-2.5-5.3-3-8.2
		c-0.4-2.4-0.1-4.1,0.8-5.2c1.2-1.5,3.4-1.7,5.8-1.8c2.2-0.2,4.6-0.3,6-1.8c3.3-3.3,1.3-10.4,0.7-12.7c-0.2-0.7-0.4-1.4-0.6-2.2
		c-1.4-5.3-3.3-12.5-6.1-16.2c-0.5-0.7-1.4-1.4-2.4-2.3c-2-1.8-4.4-3.8-4.4-5.8c0-0.8,0.3-1.5,1-2.2c1.1-1.1,2.4-1.6,4-1.5
		c5.4,0.2,11.8,7.1,13.1,8.4l0,0l0,0c-0.3,0.5-0.4,1.1-0.6,1.7c-0.1,0.4-0.2,0.7-0.3,1.1l-0.1,0c0.1-0.3,0.2-0.7,0.3-1
		c0.1-0.6,0.2-1.1,0.6-1.7c-1.3-1.4-7.7-8.2-13-8.3c-1.5,0-2.8,0.4-3.9,1.5c-0.7,0.7-1,1.3-1,2.1c0.1,2,2.4,3.9,4.4,5.7
		c1,0.8,1.9,1.6,2.4,2.3c2.8,3.7,4.8,10.9,6.1,16.2c0.2,0.8,0.4,1.6,0.6,2.2c0.5,1.7,1.1,4.2,1.1,6.6c0.1,2.8-0.5,4.9-1.9,6.2
		c-1.5,1.5-3.8,1.7-6.1,1.8c-2.3,0.2-4.5,0.3-5.7,1.8c-0.9,1.1-1.1,2.7-0.8,5.1c0.4,2.9,1.7,5.5,3,8.2c1.5,3.1,3,6.2,3.2,9.7
		c0.1,2.3-0.2,3.8-1.1,4.5c-1.3,1.1-3.6,0.4-6.1-0.2c-2.1-0.6-4.2-1.2-5.9-0.8c-0.9,3.3-0.6,4.2,2.2,6.1c1.8,1.2,3.5,2.5,5.2,3.7
		c1.3,0.9,2.6,1.9,3.9,2.8c0.7,0.5,1.4,0.9,2.1,1.4c1.9,1.2,3.6,2.3,4.8,4.3c0.3,0.5,0.6,1.4,0.8,2.3c0.2,0.6,0.4,1.2,0.6,1.7
		c2.3,5.6,3.5,9.9,3.6,13.1c0.6,0,0.8-0.4,1-0.9c0.1-0.2,0.1-0.3,0.3-0.5l0.1,0.1c-0.1,0.2-0.2,0.4-0.2,0.5
		C97,328.4,96.8,328.8,96,328.8L96,328.8z"/>
	<path class="st0" d="M307.8,481.9c-0.3-0.7-0.5-1.4-0.8-2.2c-1.8-4.8-4.1-10.9-4.1-16.4c0-4.9,1.2-8.7,2.4-12.4
		c1.7-5.1,3.3-10,0.6-16.9c-1.1-3-2.9-5.9-4.5-8.8c-3.5-6-7.2-12.2-5.3-19.5c1.6-6.3,5.5-12.1,9.3-17.7c2.2-3.2,4.4-6.6,6.2-9.9
		c0.5-1,1-1.9,1.5-2.9c5.4-10.3,9.7-18.5,10.4-31.1c0.7-11.6,1.2-24.9-0.9-35.9c-0.4-2.3-1-4.5-1.6-6.6c-1-3.6-2-7.4-2.3-11.3
		c-0.1-1.5,0-3.1,0.1-4.6c0.1-2,0.2-4.1-0.1-5.9c-0.3-1.8-1.1-3.5-1.9-5.1c-1-2-1.9-4.2-2-6.5l0.1,0c0,2.3,1,4.4,2,6.4
		c0.8,1.6,1.6,3.3,1.9,5.2c0.3,1.9,0.2,4,0.1,6c-0.1,1.5-0.2,3.1-0.1,4.6c0.3,3.9,1.3,7.7,2.3,11.3c0.6,2.2,1.2,4.4,1.6,6.6
		c2.2,10.9,1.6,24.2,0.9,35.9c-0.7,12.6-5,20.8-10.4,31.1c-0.5,0.9-1,1.9-1.5,2.9c-1.7,3.3-4,6.7-6.2,9.9
		c-3.8,5.6-7.7,11.4-9.3,17.6c-1.8,7.2,1.8,13.4,5.3,19.4c1.7,2.8,3.4,5.8,4.5,8.8c2.6,6.9,1,11.8-0.6,17c-1.2,3.6-2.4,7.4-2.4,12.3
		c0,5.5,2.3,11.5,4.1,16.3c0.3,0.8,0.6,1.5,0.8,2.2L307.8,481.9z"/>
	<path class="st0" d="M157.4,428.7c-1.9,0-3.8-0.1-5.2-0.2c-2.6-0.3-6-2.8-7.9-4.3c-2.6-2.1-5-4.5-5.8-5.9c-0.3-0.5-0.6-1-0.8-1.4
		c-0.8-1.6-1.1-2.1-3.4-2.3c-2.3-0.2-10.9-13.8-16.5-22.8c-1.5-2.4-2.8-4.4-3.6-5.6c-2.6-4-5.1-3.8-8.5-3.5
		c-1.3,0.1-2.9,0.2-4.6,0.1c-5.9-0.5-11.2-11.4-11.3-11.5l0.1-0.1c0.1,0.1,5.4,10.9,11.2,11.5c1.7,0.2,3.2,0,4.6-0.1
		c3.3-0.3,5.9-0.5,8.6,3.6c0.8,1.2,2.1,3.2,3.6,5.6c5.3,8.4,14.2,22.5,16.4,22.7c2.4,0.2,2.7,0.8,3.6,2.4c0.2,0.4,0.5,0.9,0.8,1.4
		c0.8,1.4,3.2,3.8,5.8,5.9c1.8,1.5,5.3,3.9,7.8,4.3c4.2,0.5,12.7,0,12.8,0l0,0.1C164.9,428.5,161.2,428.7,157.4,428.7z"/>
	<path class="st0" d="M188.3,426.7c-1.5,0-4.1-2-5.7-4.7c-1-1.5-8.3-7-15.3-12.3c-6.6-4.9-13.4-10-14.9-11.8
		c-2.1-2.4-4.1-2.8-6.3-3.2c-1.2-0.2-2.4-0.5-3.6-1c-3.5-1.6-2.5-5.4-2.4-5.4l0.1,0c0,0-1,3.7,2.4,5.3c1.2,0.6,2.4,0.8,3.6,1
		c2.2,0.4,4.3,0.8,6.3,3.3c1.5,1.8,8.3,6.9,14.9,11.8c7.1,5.3,14.4,10.8,15.3,12.3c1.6,2.6,4.2,4.6,5.6,4.6c0.2,0,0.3,0,0.4-0.1
		c1.4-0.5,6.2-1.6,7.3-0.8l-0.1,0.1c-1-0.8-5.9,0.3-7.2,0.8C188.7,426.6,188.5,426.7,188.3,426.7z"/>
	<path class="st0" d="M174.2,428.8c-0.5,0-0.9,0-1.2,0c-1.5-0.1-1.5-1.4-1.4-2.7c0-1.4,0.1-2.9-1.5-3.4c-1.6-0.5-3.3-0.1-4.9,0.2
		c-1.6,0.4-3.1,0.7-4.2,0c-2.1-1.3-19.4-14.3-19.5-14.4l0.1-0.1c0.2,0.1,17.4,13.1,19.5,14.4c1,0.7,2.5,0.3,4.1,0
		c1.6-0.4,3.4-0.8,5-0.2c1.7,0.6,1.6,2.1,1.6,3.5c0,1.3-0.1,2.5,1.3,2.6c2.9,0.3,11.9-0.8,12-0.8l0,0.1
		C185,427.9,177.8,428.8,174.2,428.8z"/>
	<path class="st0" d="M199.2,406.8c-1-0.1-1.8-0.2-2.5-0.3c-2-0.2-3.1-0.3-4.5-1.3c-1.2-0.9-1.5-2.7-1.9-4.8
		c-0.2-1.2-0.4-2.4-0.8-3.5c-0.2-0.5-0.4-0.8-0.7-0.9c-0.6-0.1-1.3,0.8-2,1.7c-0.8,1-1.5,1.9-2.1,1.6c-1.4-0.5-12.9-8.6-16.9-11.5
		c-4-2.9-9-3.7-9.1-3.7l0-0.1c0.1,0,5.1,0.8,9.1,3.8c4,2.9,15.5,11,16.8,11.5c0.5,0.2,1.2-0.7,1.9-1.6c0.7-0.9,1.5-1.9,2.1-1.7
		c0.3,0.1,0.6,0.4,0.8,1c0.4,1.2,0.6,2.4,0.8,3.5c0.4,2.1,0.7,3.9,1.9,4.7c1.4,1,2.4,1.1,4.4,1.3c0.7,0.1,1.5,0.2,2.5,0.3
		L199.2,406.8z"/>
	<path class="st0" d="M180.3,383.5l-0.1,0c0.1-0.4,0.3-0.8,0.5-1.2c0.4-0.7,0.7-1.5,0.5-2c-0.2-0.3-0.6-0.6-1.2-0.7
		c-2.7-0.5-15.3-7.2-15.8-7.5c-2.1-1.7-4-1.2-6.7-0.4c-2,0.6-4.5,1.2-8,1.2c-3.3,0-6.3-2.7-8.7-7.9c-1.8-3.9-2.6-7.9-2.6-7.9l0.1,0
		c0,0,0.8,4,2.6,7.9c1.6,3.6,4.5,7.8,8.6,7.8c3.4,0,5.9-0.7,7.9-1.2c2.7-0.7,4.6-1.3,6.8,0.4c0.1,0.1,13.1,6.9,15.8,7.5
		c0.7,0.1,1.1,0.4,1.3,0.8c0.3,0.6-0.1,1.4-0.5,2.2C180.6,382.7,180.4,383.1,180.3,383.5z"/>
	<path class="st0" d="M109.2,454.5c-0.2,0-0.3-0.1-0.3-0.2c0,0,0-0.1,0-0.1c-0.7-0.5-2.8-1.6-4.7-2.5l0.2-0.5c0,0,1.3,0.6,2.6,1.3
		c1.1,0.6,1.8,1,2.2,1.2c0.1-0.1,0.2-0.2,0.3-0.4c0.7-0.9,1.9-2.6,1.8-4.6c-0.1-1.8-2.2-2.9-3.7-3.8c-1.2-0.6-2-1.1-1.8-1.7l0.5,0.2
		c-0.1,0.2,0.9,0.7,1.5,1.1c1.6,0.9,3.9,2.1,4,4.2c0.1,2.2-1.2,4-1.9,4.9c-0.1,0.1-0.2,0.3-0.3,0.4c0.1,0.1,0.1,0.2,0.1,0.3
		C109.5,454.4,109.4,454.5,109.2,454.5z"/>
	<path class="st0" d="M83.8,433.1l-3-3l0,0c-0.1-0.5-3.4-12.2-3-14.5c0.3-1.8,2.7-3.2,4.4-4.1c0.5-0.3,0.9-0.5,1.2-0.7
		c0.2-0.1,0.3-0.3,0.3-0.6c0.1-1.1-1.4-2.7-1.4-2.7l-0.1-0.1l0.1,0l14.1-8.6l0.1,0.1l-14,8.5c0.3,0.3,1.5,1.7,1.4,2.8
		c0,0.3-0.2,0.5-0.4,0.7c-0.3,0.2-0.7,0.4-1.2,0.7c-1.6,0.9-4,2.3-4.3,4c-0.3,2.2,2.9,13.9,3,14.4L83.8,433.1L83.8,433.1z"/>
	<path class="st0" d="M89.3,435.2c0,0-1.6-2.9-1.8-5.6c-0.2-2.7,2.5-8.8,3.8-10.6c1.2-1.8,9.7-12,9.8-12.1l0.1,0.1
		c-0.1,0.1-8.6,10.4-9.8,12.1c-1.2,1.7-3.9,7.8-3.7,10.5c0.2,2.6,1.8,5.5,1.8,5.5L89.3,435.2z"/>
	<path class="st0" d="M92.7,434c-0.8-1.4,4.6-7.7,4.8-7.9c1.2-1.4,5.1-9.4,5.2-9.4l0.1,0.1c-0.2,0.3-3.9,8-5.2,9.5
		c-1.9,2.2-5.4,6.7-4.8,7.8L92.7,434z"/>
	<path class="st0" d="M98.7,460c-0.1,0-0.1,0-0.2,0l0-0.1c0.8,0,1.5-0.2,2-0.6c1-0.9,1.2-2.5,1.2-2.7c-0.1-0.2-1.5-3.1-2.1-4.6
		c-0.5-1.2,0.7-2.6,1.8-3.9c0.4-0.5,0.8-1,1.1-1.4c0.2-0.3,0.2-0.6,0.2-0.9c-0.2-0.9-1.5-1.6-1.6-1.6l0,0l0-0.1
		c0-0.1,3.4-10.9,4.8-13c1.5-2.2,4.7-3.6,10.7-4.7c5.9-1,15.9-6.8,16.2-7.3c0,0,0,0,0,0c0,0,0,0,0,0v-0.1c0.1,0,0.1,0,0.1,0.1
		c0,0.2-3.2,2.1-5.9,3.4c-3,1.5-7.2,3.4-10.4,3.9c-6,1-9.2,2.4-10.7,4.6c-1.4,2-4.5,12.1-4.8,12.9c0.2,0.1,1.3,0.8,1.6,1.7
		c0.1,0.4,0,0.7-0.2,1c-0.3,0.4-0.7,0.9-1.1,1.4c-1.1,1.2-2.3,2.6-1.8,3.7c0.7,1.6,2.1,4.6,2.1,4.6l0,0l0,0c0,0.1-0.1,1.8-1.2,2.8
		C100.1,459.8,99.4,460,98.7,460z"/>
	<path class="st0" d="M107.1,452.3l-0.1-0.1c2.4-3.7-1.9-8.3-2-8.3l0.1-0.1C105.2,443.9,109.6,448.6,107.1,452.3z"/>
	<path class="st1" d="M97.8,349.7c0,0-8.5,4.6-12,13.7c-3.6,9.1-0.7,16.8,2,20.7s10.7,4.6,8.2,6.1s-5.7,2.3-6.6,3.6
		c-0.9,1.2-7.3,5.5-7.3,5.5l22.2-9.7c0,0-11.1-2.9-13.1-5.4c-2-2.5-11.5-22.2,8.8-34.4H97.8z"/>
	<path class="st1" d="M108.3,390.6c0,0,5.5,14.1,12.5,21c7,7,11.4,11.8,9.3,14.4c-2.1,2.7-1.4,3.9-1.4,3.9l14.3-2.9
		c0,0-12-11.2-16.3-14.3C122.3,409.9,108.1,391.5,108.3,390.6z"/>
	<path class="st0" d="M166.6,395.5c0,0,8.8,5.3,14,8.6c5.2,3.2,15.5,11.4,21.7,7.5c0,0-5.9-0.5-10.8-3.7c-4.9-3.2-11.8-8.4-13-9.1
		c-1.2-0.7-11.9-7.6-15-7.9c0,0-2-0.7-1.1,0.8C163.4,393.1,166.6,395.5,166.6,395.5z"/>
	<path class="st1" d="M241.9,309.8c0,0-5.4,16.1-7.2,30.7c-1.8,14.6,1.4,28.9-3.6,31.4s3.9,2.5,2.9,4.6c-1.1,2.1,1.1,2.9,1.1,2.9
		l1.8-0.7c0,0,0.7-6.4,2.9-7.5C241.8,370.1,243.3,317.3,241.9,309.8z"/>
	<path class="st1" d="M92.6,256.8c0,0-7.4,10.9-5.2,25.5c2.1,14.6,7.8,31.7,3.6,31.7c-4.3,0-20.7-2.1-14.3,0.4s14.6,7.1,15.3,10.3
		c0.7,3.2-17.5-0.7-12.1,2.1c5.3,2.9,8.6,7.1,11.1,9.6c2.5,2.5,0.7,6.4,1.8,6.4s5.3,7.8,5.3,6.8c0-1.1,0.4-17.1,1.1-23.2
		C99.9,320.5,90.9,259,92.6,256.8z"/>
	<path class="st1" d="M117.4,228.2c0,0,44.6,19.5,79.2,7l-10.3,8.3C186.2,243.5,130.9,244.6,117.4,228.2z"/>
	<path class="st1" d="M152.7,149.9c0,0,4.5,11.6-1.6,17.2c-6.2,5.6,11.6-4.8,20.1-11.8c7.2-6-2.8-2.1-7.1-1.8
		c-4.3,0.3-9.6-2.2-9.8-3"/>
	<path class="st0" d="M115,225.2c-0.1-0.2-0.1-0.5,0-0.7c0.3-0.9,2-1.6,4-2.3c2.1-0.9,4.6-1.8,4.8-3c0.1-0.6-0.7-1.8-1.5-3
		c-0.8-1.2-1.7-2.4-1.7-3.4c-0.2-3.3,1.1-5.4,4.2-6.4c0.7-0.2,1.5-0.4,2.4-0.5c2.5-0.4,4.8-0.8,4.7-3.5c-0.1-2.3-2.1-3.2-4-4.2
		c-0.4-0.2-0.8-0.4-1.2-0.6c-1.6-0.9-2.6-2.1-2.7-3.4c-0.1-1.2,0.5-2.4,1.8-3.5c1.2-1,2.5-1,3.9-1c1.2,0,2.4,0,3.2-0.8
		c1.7-1.6,1-3.4,0.1-5.5c-0.8-1.9-1.6-4-0.4-6c2.3-4,7.5-5.1,11.8-5.9c0.4-0.1,0.8-0.2,1.2-0.2c3.5-0.7,6.3-2.6,8-5.5
		c1.9-3.1,2.2-7.2,1-11.3l0.5-0.2c1.3,4.2,0.9,8.4-1,11.7c-1.8,3-4.7,5-8.3,5.7c-0.4,0.1-0.8,0.2-1.2,0.2c-4.1,0.8-9.3,1.8-11.4,5.6
		c-1,1.8-0.3,3.7,0.5,5.5c0.8,2.1,1.7,4.2-0.2,6.1c-1,1-2.3,1-3.6,1c-1.2,0-2.5,0-3.5,0.8c-1.2,1-1.7,2-1.6,3.1c0.1,1.1,1,2.2,2.4,3
		c0.4,0.2,0.7,0.4,1.1,0.6c1.9,0.9,4.1,2,4.3,4.6c0.1,3.2-2.7,3.6-5.1,4c-0.8,0.1-1.6,0.3-2.3,0.5c-2.9,1-4.1,2.8-3.8,5.9
		c0.1,0.8,0.9,2,1.6,3.2c0.9,1.3,1.7,2.5,1.5,3.4c-0.3,1.4-2.7,2.4-5.1,3.4c-1.7,0.7-3.4,1.4-3.7,2c0,0.1,0,0.2,0,0.3L115,225.2z"/>
	<path class="st1" d="M278.6,274.2c0,0,30.4-5.3,37.1,18.9l0.7-3.3c0,0,2.1-22.5-19-35.3c0,0-5.3,5.1-7,7.3
		C288.6,263.8,277.9,270.6,278.6,274.2z"/>
	<ellipse class="st0" cx="308.1" cy="481.1" rx="1.3" ry="1.6"/>
	<ellipse class="st0" cx="150.5" cy="401.9" rx="1.3" ry="1.6"/>
	<ellipse transform="matrix(0.952 0.3062 -0.3062 0.952 75.9307 -35.4041)" class="st0" cx="150.8" cy="224.3" rx="1.3" ry="1.6"/>
	<ellipse class="st0" cx="143.1" cy="411.8" rx="1.3" ry="1.6"/>
	<ellipse class="st0" cx="140.1" cy="388" rx="1.3" ry="1.6"/>
	<ellipse class="st0" cx="100.8" cy="411.8" rx="1.3" ry="1.6"/>
	<ellipse class="st0" cx="337.5" cy="468.5" rx="1.8" ry="2.2"/>
	<path class="st0" d="M80.5,398.5L80.5,398.5c-0.7-0.3-1.2-0.5-1.7-0.8c-0.9-0.5-1.5-0.8-3.1-0.6c-0.8,0.1-1.6,0.3-2.3,0.5
		c-1.5,0.4-2.9,0.8-4.7,0.5c-1.8-0.3-3.2-1-4.8-1.8c-0.7-0.4-1.5-0.8-2.3-1.1c-5.2-2.2-10-2.6-16-1.3c-0.7,0.2-1.5,0.3-2.3,0.5
		c-2.5,0.6-5.1,1.3-7.6,0.8c-2.9-0.6-5.1-1.9-6.9-4c-1.5-1.8-2.7-4.3-3.7-7.5c-0.2-0.8-0.6-1.7-1-2.5c-0.4-1-0.9-2-1.1-2.9
		c-0.2-1-0.1-2,0.1-3c0.1-0.8,0.2-1.7,0.1-2.6c-0.2-1.5-0.6-2.4-1.2-2.6c-0.5-0.1-1,0.2-1.6,1c-0.4,0.5-0.7,1.4-1,2.3
		c-0.5,1.4-1,2.9-2,3.4c-0.5,0.2-1.2,0.2-1.9-0.1l0,0l0,0c-0.1-4.7,0.8-9.5,1.7-14.2c0.1-0.4,0.2-0.8,0.2-1.2
		c0.8-4.3,1.9-8.2,3.4-11.4c0.2-0.5,0.5-1,0.7-1.4c0.6-1,1.2-2.1,1.1-3.2c-3.5,1-5.6,4.2-7.6,7.3c-0.8,1.3-1.6,2.5-2.5,3.6
		c-0.1,0.2-0.3,0.4-0.5,0.7c-1,1.3-2.7,3.6-4,3.4c-0.4-0.1-0.8-0.4-1-1c-0.7-1.7,2.1-6.2,3.4-8.4c0.2-0.3,0.4-0.6,0.5-0.8
		c1.4-2.3,3-4.8,5.1-7.4c0.7-0.9,2-1.9,3.2-3c2.3-1.9,4.9-4,5.2-6.3c-2.2,0.7-3.6,2.6-5,4.5c-0.7,0.9-1.4,1.8-2.1,2.6
		c-0.8,0.9-2.4,2.2-3.3,1.8c-0.5-0.2-0.7-0.9-0.6-2.1c0.3-3.3,4.4-6.9,7.4-9.5c0.7-0.7,1.4-1.3,2-1.8c0.8-0.7,1.9-1.5,3.2-2.4
		c2.1-1.4,4.5-3,5.1-4.6c-0.5,0.2-0.9,0.4-1.4,0.5c-2.9,1.1-5.6,2.2-8.2,4.1c-0.2,0.1-0.5,0.4-0.8,0.7c-1.7,1.5-4.8,4.2-6.8,3.9
		c-0.5-0.1-0.9-0.3-1.3-0.8c-1.4-2,1.8-4.8,3.7-6.5c0.4-0.4,0.8-0.7,1.1-1l0.1-0.1c3.1-3.3,6-6.4,10.3-8.4
		c8.2-3.8,19.1-2.4,27.7-0.7c3.6,0.7,7.2,2,10.7,3.4c4.7,1.7,9.5,3.5,14.2,3.8l0,0.1c-4.8-0.3-9.6-2.1-14.3-3.8
		c-3.5-1.3-7.1-2.7-10.7-3.3c-8.6-1.6-19.5-3.1-27.6,0.7c-4.3,2-7.2,5.1-10.3,8.4l-0.1,0.1c-0.2,0.3-0.6,0.6-1.1,1
		c-1.9,1.6-5,4.4-3.6,6.3c0.3,0.4,0.7,0.7,1.2,0.7c2,0.2,5-2.5,6.7-3.9c0.3-0.3,0.6-0.5,0.8-0.7c2.6-2,5.3-3,8.2-4.2
		c0.5-0.2,1-0.4,1.5-0.6l0.1-0.1l0,0.1c-0.6,1.6-2.9,3.2-5.2,4.8c-1.2,0.9-2.4,1.7-3.2,2.4c-0.5,0.5-1.2,1.1-2,1.8
		c-3,2.6-7.1,6.3-7.3,9.5c-0.1,1.1,0.1,1.7,0.5,1.9c0.6,0.3,1.8-0.4,3.2-1.8c0.7-0.7,1.4-1.7,2.1-2.6c1.4-1.9,2.9-3.9,5.2-4.5l0.1,0
		l0,0.1c-0.2,2.3-2.9,4.5-5.2,6.5c-1.3,1.1-2.5,2-3.2,3c-2.1,2.6-3.7,5-5.1,7.4c-0.1,0.2-0.3,0.5-0.5,0.8c-1.3,2.2-4,6.7-3.4,8.3
		c0.2,0.6,0.5,0.9,0.9,0.9c1.2,0.2,2.9-2,3.9-3.4c0.2-0.3,0.4-0.5,0.5-0.7c0.9-1.1,1.7-2.3,2.5-3.6c2.1-3.2,4.2-6.4,7.8-7.4l0.1,0
		l0,0.1c0.1,1.2-0.6,2.3-1.2,3.4c-0.3,0.5-0.5,0.9-0.7,1.4c-1.4,3.2-2.6,7.1-3.4,11.4c-0.1,0.4-0.2,0.8-0.2,1.2
		c-0.9,4.7-1.8,9.5-1.7,14.1c0.7,0.3,1.3,0.3,1.8,0.1c1-0.5,1.5-1.9,2-3.4c0.3-0.9,0.6-1.8,1-2.3c0.7-0.8,1.3-1.2,1.8-1
		c0.6,0.2,1.1,1.1,1.3,2.7c0.1,0.9,0,1.8-0.1,2.6c-0.1,1-0.3,2-0.1,2.9c0.2,0.9,0.6,1.9,1,2.8c0.4,0.8,0.8,1.7,1,2.5
		c0.9,3.2,2.1,5.7,3.6,7.5c1.8,2.1,4,3.4,6.8,4c2.4,0.5,5-0.2,7.5-0.8c0.8-0.2,1.5-0.4,2.3-0.5c6-1.3,10.9-0.9,16.1,1.3
		c0.8,0.3,1.6,0.7,2.3,1.1c1.5,0.8,2.9,1.5,4.7,1.8c1.8,0.2,3.1-0.1,4.6-0.5c0.7-0.2,1.5-0.4,2.3-0.5c1.7-0.3,2.3,0.1,3.2,0.6
		c0.4,0.2,0.9,0.5,1.6,0.8c0.3-0.2,0.4-0.5,0.2-1l0.1,0C81,397.9,80.9,398.3,80.5,398.5L80.5,398.5z"/>
	<path class="st0" d="M212.8,382.7c-1.6-1.6,1.6-13.4,3.8-20.2c4.3-13.5,8.3-21,10.5-23.4c3.3-3.6,6.8-10.5,9.1-15.8
		c2.5-5.7,4.3-10.6,4.3-10.6l0.5,0.2c0,0-1.8,5-4.4,10.6c-3.4,7.7-6.5,13-9.2,15.9c-2.2,2.4-6.1,9.8-10.4,23.2
		c-1.6,4.9-2.8,9.5-3.5,13.1c-1.1,5.4-0.6,6.4-0.4,6.5L212.8,382.7z"/>
	<path class="st0" d="M226,380.2c0,0-1.1-0.1-2.2-1.3c-2.3-2.7-2.1-8.3-1.5-12.4c1.8-13.1,18.1-39.8,18.2-40l0.5,0.3
		c-0.2,0.3-16.4,26.8-18.2,39.8c-1,7.3,0.2,10.6,1.4,12c0.9,1.1,1.8,1.1,1.8,1.2L226,380.2z"/>
	<path class="st0" d="M232.6,380.3c-1.8-2.3-2.8-5.5-3-9.5c-0.1-3.2,0.3-6.8,1.3-10.9c1.6-6.9,4.2-12.7,4.3-12.7l0.5,0.2
		c0,0.1-2.6,5.8-4.2,12.6c-1.5,6.3-2.4,14.9,1.6,19.9L232.6,380.3z"/>
	<path class="st1" d="M201.8,131.1c0,0-6.6,14.3-14.4,16.4c0,0,14.2-2.9,17.1,5c2.9,7.9,2.8,7.7,0.2-31.3L201.8,131.1z"/>
	<ellipse class="st0" cx="128.1" cy="74.3" rx="1.7" ry="0.8"/>
</g>
</svg>
