
<svg version="1.1" id="Layer_1" xmlns="http://www.w3.org/2000/svg" xmlns:xlink="http://www.w3.org/1999/xlink" x="0px" y="0px"
	 width="1102.7px" height="521.9px" viewBox="0 0 1102.7 521.9" style="enable-background:new 0 0 1102.7 521.9;"
	 xml:space="preserve">
<g>
	<g>
		<path class="st0" d="M373.6,189.3c0,0,7.4,9.5,11.2,10.2s9.8-1.5,13.5-0.5s17.5,5,17.5,5s-19.5-13.4-19.4-15.2
			c0.1-1.8-11.9-1.8-14.9-1.8s-8.3-2-8.3-2L373.6,189.3z"/>
		<path class="st0" d="M424,207.9c0,0,0.2,0.2,0.6,0.5c3.8,3.2,23,19.6,23.9,22.3c1,3,3.8,10.3,3.8,10.3l-0.5-15.8"/>
		<path class="st0" d="M296.3,141.8c0,0-3.5-14.6-13.3-15.1s-150,16-173,7.3c0,0,60.8,14,104,10.8S291.3,135.9,296.3,141.8z"/>
		<g>
			<path class="st1" d="M59.7,18.2"/>
		</g>
		<path class="st1" d="M38.7,6c2.4,0.7,4,1.1,6.9,1.2c0.4,0,1,0.1,1.7,0.1c0.4,0,0.8,0.1,1.2,0.1c0.5,0,1,0.1,1.6,0.1
			c1.1,0.1,2.2,0.2,3.4,0.3c2.3,0.2,4.5,0.5,6.8,0.8c4.6,0.6,9.2,1.3,13.9,2.1c9.4,1.6,19,3.6,28.7,5.9
			c19.5,4.5,39.7,10.1,60.3,16.3c20.6,6.2,41.7,13.1,62.8,20.6l4,1.4l1,0.4l0.3,0.1c0.2,0.1,0.3,0.1,0.4,0.1l0.5,0.1l2.1,0.4
			c2.8,0.5,5.6,1,8.3,1.5c5.6,1,11.2,2,16.7,3.1c5.6,1.1,11.2,2.1,16.7,3.3c5.6,1.2,11.1,2.5,16.7,3.7c2.7,0.7,5.5,1.5,8.2,2.3
			c2.7,0.9,5.3,1.9,8,2.9l3.9,1.7c1.3,0.6,2.6,1.1,3.8,1.8c2.5,1.3,5,2.6,7.4,4.2c4.8,2.9,9.4,6.3,13.8,9.8c2.2,1.8,4.5,3.5,6.8,5.2
			c2.3,1.7,4.5,3.4,6.8,5.1c9.2,6.7,18.3,13.3,27.4,19.7c4.6,3.2,9.1,6.4,13.7,9.5l3.4,2.3c1.1,0.8,2.3,1.6,3.5,2.3
			c2.3,1.5,4.7,2.9,7.1,4.2c2.4,1.4,4.7,2.7,7.1,4c2.4,1.3,4.8,2.5,7.3,3.7l1,0.4c0.4,0.1,0.6,0.2,0.9,0.3c0.6,0.2,1.2,0.4,1.7,0.7
			c1.1,0.6,2,1.4,2.8,2.3c1.6,1.9,2.4,4.3,3.2,6.9c1.6,5,3.1,10.1,4.8,15c0.4,1.2,0.8,2.5,1.3,3.7c0.2,0.6,0.5,1.2,0.7,1.8
			c0.1,0.3,0.3,0.6,0.4,0.9l0.2,0.5l0.3,0.5c0.5,0.6,1,1,1.5,1.5l1.5,1.2c1,0.8,2,1.6,3,2.4c4.1,3.1,8.1,6.2,11.8,9.4
			c0.9,0.8,1.8,1.7,2.7,2.5c0.9,0.9,1.7,1.8,2.6,2.7c1.7,1.8,3.4,3.5,5.1,5.3c1.7,1.8,3.3,3.6,5,5.3c0.9,0.9,1.8,1.7,2.5,2.5
			c0.8,0.8,1.3,1.7,1.7,2.7c0.3,1,0.4,2.1,0.5,3.2c0,1.2,0.1,2.4,0.1,3.5c0.1,2.3,0.1,4.7,0.3,7c0.1,2.3,0.4,4.6,0.8,7
			c0.2,0.6,0.3,1.2,0.5,1.7l0.5,1.6c0.3,1.1,0.7,2.1,1,3.2c1.3,4.3,2.5,8.5,3.6,12.6c0.3,1,0.5,2.1,0.7,3.1l0.3,1.5l0.2,1.5
			c0.1,2.1,0.1,4.2,0.2,6.3l0,1.6l0,0.8l0,0.5c0,0.1,0.1,0.2,0.1,0.4l0.1,0.2c0.3,1,0.7,1.9,1,2.9c0.7,1.9,1.3,3.8,1.8,5.7
			c0.3,0.9,0.5,1.9,0.7,2.8c0.1,0.5,0.2,0.9,0.2,1.4l0,0.6c0,0.2,0,0.1,0,0.1l0,0l0,0c0,0,0,0,0,0c0,0-0.1,0.1-0.1,0.1l-0.6,0.3
			c-0.4,0.2-0.8,0.3-1.3,0.5c-0.8,0.3-1.7,0.5-2.6,0.5c-1.8,0.2-3.5-0.1-5.2-0.6c-1.6-0.6-3.2-1.4-4.5-2.5l-1-0.8
			c-0.3-0.3-0.6-0.6-0.9-0.9c-0.6-0.6-1.2-1.2-1.7-1.9c-0.5-0.7-1.1-1.3-1.6-2c-0.5-0.7-0.9-1.4-1.4-2.1l-0.3-0.5l-0.1-0.2l-0.1-0.3
			l-0.5-1.1c-0.3-0.8-0.7-1.5-1-2.3c-0.6-1.5-1.2-3-1.7-4.5c-0.5-1.5-1-3-1.2-4.4c-0.1-0.7-0.2-1.4-0.3-2.1c0-0.2,0-0.3,0-0.5l0-0.7
			l0-0.3l-0.1-0.2l-0.2-0.4l-0.3-0.5c-1.5-2.6-2.8-5.1-3.8-7.6c-0.5-1.2-1-2.5-1.2-3.6c-0.2-1.3-0.5-2.6-0.8-3.9
			c-0.6-2.5-1.1-4.8-1.6-7c-0.5-2.2-0.9-4.3-1.1-6.3c0-0.5-0.1-0.9-0.1-1.4l0-0.3l0-0.1c0,0,0-0.1,0-0.2c0.1-0.2,0.2-0.5,0.3-0.7
			l0.1-0.3c0-0.1-0.2-0.1-0.3-0.2c-1-0.5-2.1-1.1-3-1.6c-3.1-1.6-5.7-3.1-7.8-4.3c-4.2-2.4-6.3-3.9-6.3-3.9s0,0-1-0.7
			c-1-0.7-3-1.9-6.5-4.8c-0.1-0.1-0.4-0.4-1.6-1.5c-0.3-0.3-0.6-0.6-0.9-1c-0.2-0.2-0.4-0.4-0.6-0.7c-0.2-0.2-0.3-0.5-0.5-0.8
			c-0.1-0.1-0.2-0.2-0.2-0.4l-0.2-0.3c-0.1-0.1-0.1-0.2-0.2-0.2c-0.3-0.1-0.6-0.2-0.8-0.3c-0.4-0.1-0.8-0.3-1.3-0.4
			c-0.9-0.3-1.9-0.7-3-1.1c-2.2-0.9-4.9-2-7.9-3.7c-1.5-0.8-3.2-1.8-4.8-2.9c-0.9-0.6-1.7-1.2-2.5-1.9c-0.4-0.4-0.8-0.7-1.2-1.1
			c-0.4-0.4-0.9-0.8-1.2-1.2c-0.4-0.4-0.8-0.9-1.2-1.3c-0.3-0.5-0.7-1-1.1-1.5l-0.3-0.4l-0.2-0.4c-0.1-0.3-0.3-0.6-0.4-0.8l-0.4-0.7
			l-0.2-0.5l-0.1-0.2c0-0.1-0.2,0-0.2,0c-0.5,0-1,0.1-1.5,0.1c-2.7,0.2-5.7,0.3-8.8,0.2c-3.1-0.1-6.5-0.5-9.8-1.4
			c-0.4-0.1-0.8-0.3-1.2-0.4l-0.6-0.2l-0.3-0.1c-0.1,0-0.3-0.2-0.5-0.2c-0.7-0.4-1.5-0.7-2.2-1.1l-0.1-0.1c0,0,0,0.1,0,0.2l0,0.4
			l-0.1,0.7l-0.1,1.3l0,0.6l0,0.4l0,0.7c0,0.5,0,1-0.1,1.5c0,1,0,2,0,3c0,0.9,0.1,2,0.2,3.4c0,0.7,0.2,1.5,0.3,2.3
			c0.1,0.4,0.1,0.9,0.2,1.3c0.1,0.5,0.2,1,0.3,1.5c0.2,1.1,0.6,2.1,0.9,3.3c0.3,1.2,0.7,2.5,1.2,3.9c1,2.8,2.5,6,4.8,9.3
			c0.6,0.8,1.2,1.7,1.8,2.5c0.3,0.4,0.6,0.9,0.9,1.3c0.3,0.5,0.6,0.9,0.9,1.4c1.1,1.9,2.3,4,3.4,6.4c1.1,2.3,2.2,4.9,3.1,7.6
			c1,2.8,1.9,5.7,2.5,8.9c0.6,3.2,1,6.7,0.5,10.2c-0.1,0.9-0.4,1.7-0.7,2.6l-0.2,0.7c-0.1,0.2-0.1,0.4-0.2,0.6
			c-0.2,0.4-0.4,0.8-0.6,1.2c-0.9,1.6-2.1,3.2-3.6,4.4c-1.5,1.2-3.4,2.1-5.3,2.4c-2,0.3-4-0.3-5.8-1.4c-3.7-2.3-6.5-6.4-8.6-10.8
			l0,0c-0.3-0.7-0.7-1.3-0.9-2.1c-0.1-0.4-0.3-0.7-0.5-1.1l-0.2-0.6l-0.2-0.4c0-0.1-0.1-0.2-0.2-0.2l-0.1-0.1
			c-0.9-1.3-1.9-2.7-2.9-4.2c-1.9-3-3.9-6.3-5.7-9.9c-0.4-0.9-0.9-1.9-1.3-2.8c-0.4-1-0.7-2-1.1-3c-0.6-2.1-1.3-4.3-2-6.5
			c-1.5-4.4-3.1-9-5.2-13.8c-2.1-4.7-4.4-9.6-7.7-14.2c-0.9-1.1-1.8-2.3-2.8-3.3c-1-1.1-2.3-1.9-3.4-2.8c-2.4-1.7-4.9-3.2-7.3-4.9
			c-4.9-3.3-9.8-6.9-14.2-11.3c-4.4-4.4-8.2-9.6-10.8-15.6c-1.3-3-2.3-6.1-3-9.4c-0.2-0.8-0.3-1.6-0.5-2.5c-0.2-0.8-0.3-1.7-0.4-2.5
			l-0.1-1.3l-0.1-0.5l0-0.3c0-0.1-0.1-0.2-0.2-0.2c-0.1-0.1-0.3-0.3-0.4-0.4l-0.3-0.2c-0.8-0.5-1.6-1-2.5-1.3
			c-1.7-0.8-3.5-1.1-5.3-1.4c-0.9-0.1-1.8-0.1-2.7-0.2c-0.9,0-1.7-0.1-2.6-0.1c-3.5-0.1-7.1-0.3-10.7-0.2c-3.6,0.1-7.3,0.5-10.9,1.4
			l-0.7,0.2l-0.3,0.1c-0.2,0,0,0-0.2,0l-1.4,0.1l-2.7,0.3c-1.8,0.2-3.6,0.3-5.5,0.5c-7.3,0.7-14.8,1.2-22.3,1.6
			c-15,0.8-30.4,1.2-45.9,0.9c-15.5-0.3-31.2-1.3-46.7-3.7c-3.9-0.5-7.7-1.4-11.5-2.2l-2.9-0.6l-2.8-0.7c-1.9-0.5-3.8-1-5.7-1.5
			c-7.5-2.1-14.9-4.6-22.2-7.4c-14.5-5.5-28.4-12.3-42.1-18.9c-6.9-3.2-13.7-6.4-20.8-8.9c-1.8-0.6-3.6-1.1-5.4-1.6L21.7,98L21.4,98
			c-0.3-0.1-0.7-0.1-1-0.2c-1.3-0.3-2.4-0.4-3-0.5c-3-0.4-4.7-0.1-7.1,0.7c2.5,0.4,4,0.8,6.8,1.2c0.6,0.1,1.6,0.2,2.8,0.5
			c0.3,0.1,0.6,0.1,1,0.2l0.3,0.1l0.7,0.2c1.8,0.5,3.5,1,5.2,1.6c6.9,2.4,13.7,5.6,20.6,8.8c13.6,6.5,27.6,13.4,42.2,18.9
			c7.3,2.8,14.7,5.3,22.3,7.4c1.9,0.5,3.8,1.1,5.7,1.5l2.9,0.7l2.9,0.6c3.9,0.8,7.7,1.7,11.6,2.2c15.6,2.4,31.3,3.4,46.9,3.7
			c15.6,0.3,31-0.1,46.1-0.9c7.5-0.4,15-0.9,22.3-1.6c1.8-0.2,3.7-0.3,5.5-0.5l2.7-0.3l1.4-0.1c0,0,0.4-0.1,0.5-0.1l0.3-0.1l0.7-0.1
			c3.5-0.9,7-1.3,10.5-1.4c3.5-0.1,7,0,10.6,0.2c0.9,0,1.8,0.1,2.6,0.1l2.5,0.2c1.6,0.3,3.3,0.6,4.8,1.2c0.8,0.3,1.4,0.7,2.1,1.1
			l0.3,0.2l0,0l0,0l0,0.1l0.1,1.3c0.1,0.9,0.2,1.7,0.4,2.6c0.1,0.9,0.3,1.7,0.5,2.5c0.7,3.4,1.8,6.6,3.2,9.7
			c2.7,6.2,6.7,11.6,11.2,16.1c4.5,4.5,9.5,8.3,14.5,11.6c2.5,1.7,5,3.2,7.3,4.8c2.4,1.6,4.2,3.4,5.8,5.6c3.2,4.4,5.4,9.2,7.5,13.9
			c2,4.7,3.7,9.2,5.1,13.6c0.7,2.2,1.3,4.3,2,6.4c0.4,1.1,0.7,2.1,1.1,3.1c0.5,1,0.9,2,1.3,2.9c1.9,3.7,3.9,7.1,5.9,10.1
			c1,1.5,2,2.9,2.9,4.3c0.2,0.3,0,0,0.2,0.3l0.2,0.6c0.2,0.4,0.3,0.7,0.5,1.1c0.3,0.7,0.7,1.4,1,2.1l0,0c2.3,4.6,5.1,9,9.4,11.6
			c2.1,1.3,4.6,2,7.1,1.6c0.6-0.1,1.2-0.2,1.8-0.4l0.8-0.3l0.8-0.4c1-0.5,2-1.1,2.9-1.8c1.7-1.4,3.1-3.1,4.1-5
			c0.2-0.5,0.5-0.9,0.7-1.4c0.1-0.2,0.2-0.5,0.3-0.7l0.1-0.2l0-0.1c0,0,0.1-0.2,0,0.1l0,0l0.1-0.4c0.3-1,0.7-1.9,0.8-2.9
			c0.6-3.9,0.2-7.6-0.5-10.9c-0.6-3.3-1.6-6.4-2.6-9.2c-1-2.8-2.1-5.4-3.2-7.8c-1.1-2.4-2.3-4.6-3.5-6.6c-0.3-0.5-0.6-1-0.9-1.5
			c-0.3-0.5-0.6-0.9-1-1.4c-0.6-0.9-1.2-1.7-1.8-2.5c-2.2-3.2-3.6-6.2-4.6-8.8c-0.5-1.3-0.9-2.6-1.2-3.8c-0.3-1.2-0.7-2.3-0.9-3.2
			c-0.1-0.5-0.2-0.9-0.3-1.4c-0.1-0.4-0.1-0.9-0.2-1.3c-0.1-0.8-0.2-1.5-0.2-2.2c-0.1-1.3-0.2-2.4-0.1-3.3c0-1,0-2,0-3
			c0-0.5,0-1,0.1-1.4c0-0.4,0-0.8,0.1-1.1c0-0.1,0-0.3,0-0.2l0.3,0.1c0.1,0,0,0,0.1,0.1l0.3,0.1l0.7,0.3c0.4,0.2,0.9,0.3,1.3,0.4
			c3.6,1,7.1,1.4,10.3,1.5c3.2,0.1,6.2,0,9.1-0.2l0.5,0l0,0c0,0,0,0,0,0l0.1,0.2c0.2,0.3,0.3,0.6,0.5,0.9l0.2,0.5l0.3,0.4
			c0.4,0.6,0.8,1.1,1.2,1.6c0.4,0.5,0.9,1,1.3,1.4c0.4,0.5,0.9,0.9,1.3,1.3c0.5,0.4,0.9,0.8,1.3,1.2c0.9,0.7,1.8,1.4,2.7,2
			c1.8,1.2,3.4,2.2,5,3c3.2,1.7,5.9,2.9,8.1,3.8c1.1,0.4,2.2,0.8,3.1,1.1c0.5,0.2,0.9,0.3,1.3,0.4c0.1,0,0.2,0.1,0.3,0.1l0,0
			c-0.1-0.1,0,0,0.1,0.1c0.2,0.3,0.4,0.7,0.6,1c0.2,0.3,0.4,0.5,0.6,0.7c0.4,0.4,0.7,0.8,1,1.1c1.2,1.2,1.6,1.5,1.7,1.6
			c3.7,3.1,5.7,4.3,6.7,5c1,0.7,1,0.7,1,0.7s2.1,1.5,6.4,3.9c2.1,1.2,4.7,2.7,7.9,4.4c0.6,0.3,1.2,0.6,1.9,1l0,0l0,0.4l0,0.4
			c0,0.6,0,1.1,0.1,1.6c0.2,2.1,0.7,4.2,1.1,6.5c0.5,2.2,1.1,4.6,1.6,7c0.3,1.2,0.6,2.5,0.8,3.7c0.3,1.4,0.8,2.8,1.3,4.1
			c1.1,2.6,2.5,5.2,3.9,7.8l0.3,0.5l0.1,0.1l0,0l0,0l0,0.1l0,0.3c0,0.2,0,0.4,0,0.6c0,0.8,0.1,1.6,0.3,2.4c0.3,1.6,0.8,3.1,1.3,4.7
			c0.5,1.5,1.1,3.1,1.8,4.6c0.3,0.8,0.7,1.5,1,2.3l0.5,1.2l0.1,0.3c0.1,0.2,0.1,0.2,0.2,0.3l0.4,0.5c0.5,0.7,1,1.5,1.4,2.2
			c0.5,0.7,1.1,1.4,1.7,2.1c0.5,0.7,1.2,1.4,1.9,2c0.3,0.3,0.6,0.7,1,1l1.1,0.9c1.5,1.2,3.2,2.1,5.1,2.8c1.9,0.6,3.9,0.8,6,0.6
			c1-0.1,2-0.3,3-0.6c0.5-0.1,1-0.3,1.4-0.5c0.2-0.1,0.5-0.2,0.7-0.3l0.2-0.1l0.3-0.2c0.2-0.1,0.4-0.2,0.6-0.4l0.1-0.7
			c0-0.2,0.1-0.5,0-0.6l-0.1-0.8c-0.1-0.5-0.1-1-0.3-1.5c-0.2-1-0.5-2-0.7-3c-0.5-1.9-1.2-3.9-1.8-5.8c-0.3-1-0.7-1.9-1-2.9
			l-0.1-0.2l0,0l0-0.3l0-0.8l0-1.6c-0.1-2.1-0.1-4.1-0.2-6.3l-0.2-1.7l-0.3-1.6c-0.2-1.1-0.5-2.1-0.7-3.2c-1.1-4.2-2.3-8.4-3.6-12.7
			c-0.3-1.1-0.7-2.1-1-3.2l-0.5-1.6c-0.2-0.5-0.3-1-0.4-1.6c-0.4-2.1-0.7-4.4-0.8-6.7c-0.2-2.3-0.2-4.6-0.3-6.9
			c0-1.2-0.1-2.4-0.1-3.5c0-1.2-0.2-2.5-0.6-3.8c-0.5-1.3-1.2-2.4-2.1-3.3c-0.9-0.9-1.8-1.7-2.6-2.6c-1.7-1.7-3.3-3.5-5-5.3
			c-1.7-1.8-3.4-3.5-5.1-5.3c-0.9-0.9-1.7-1.8-2.6-2.7c-0.9-0.9-1.8-1.7-2.8-2.6c-3.8-3.3-7.9-6.4-11.9-9.5c-1-0.8-2-1.6-3-2.4
			l-1.5-1.2c-0.4-0.4-0.9-0.8-1.2-1.2l-0.2-0.3l-0.2-0.4c-0.1-0.3-0.3-0.5-0.4-0.8c-0.2-0.6-0.5-1.2-0.7-1.8
			c-0.5-1.2-0.9-2.4-1.3-3.6c-1.6-4.9-3.1-10-4.8-15c-0.8-2.5-1.7-5.2-3.5-7.5c-0.9-1.2-2-2.1-3.3-2.8c-0.6-0.4-1.3-0.6-2-0.9
			c-0.3-0.1-0.7-0.2-1-0.3l-0.8-0.3c-2.4-1.1-4.8-2.3-7.1-3.6c-2.4-1.3-4.7-2.6-7.1-4c-2.4-1.4-4.7-2.7-7-4.2
			c-1.2-0.7-2.3-1.5-3.4-2.2l-3.4-2.3c-4.6-3.1-9.1-6.3-13.6-9.5c-9.1-6.4-18.2-13-27.4-19.6c-2.2-1.7-4.5-3.4-6.8-5.1
			c-2.3-1.7-4.5-3.4-6.7-5.2c-4.5-3.5-9.1-7-14-10c-2.4-1.6-5-2.9-7.5-4.2c-1.2-0.7-2.6-1.2-3.9-1.8l-3.9-1.8c-2.7-1-5.4-2-8.1-2.9
			c-2.8-0.8-5.5-1.6-8.3-2.3c-5.6-1.2-11.2-2.5-16.7-3.7c-5.6-1.2-11.2-2.2-16.8-3.3c-5.6-1.1-11.2-2.1-16.7-3.1
			c-2.8-0.5-5.6-1-8.4-1.5l-2.1-0.4l-0.5-0.1c-0.1,0-0.2,0-0.1,0l-0.2-0.1l-1-0.4l-4-1.4c-21.2-7.5-42.3-14.4-62.9-20.7
			c-20.6-6.2-40.9-11.8-60.4-16.4c-9.8-2.3-19.4-4.3-28.8-5.9c-4.7-0.8-9.4-1.5-14-2.1c-2.3-0.3-4.6-0.5-6.9-0.8
			c-1.1-0.1-2.3-0.3-3.4-0.3c-0.5,0-1.1-0.1-1.6-0.1c-0.4,0-0.8-0.1-1.2-0.1c-0.7-0.1-1.3-0.1-1.7-0.1C42.8,5.2,41.1,5.5,38.7,6z"/>
		<path class="st1" d="M373.1,192.6c0.7,2.4,1.4,4,3.2,6.3c0.3,0.4,0.8,1,2,2.3c0.3,0.3,0.7,0.6,1.1,1c0.4,0.4,0.9,0.8,1.3,1.1
			c0.5,0.3,0.9,0.7,1.2,0.9c0.3,0.2,0.5,0.3,0.5,0.3s0.2,0.1,0.4,0.3c0.3,0.2,0.7,0.4,1.1,0.6c0.2,0.1,0.5,0.2,0.7,0.4
			c0.1,0.1,0.3,0.1,0.4,0.2l0.2,0.1c0,0,0,0,0,0c-0.4,0.9-0.7,1.5-1,2.1c-0.3,0.6-0.5,1.1-0.7,1.4c-0.7,1.3-1.1,2.3-1.6,3.3
			c-0.5,1-0.8,1.9-1.5,2.9c1.2-0.5,2-1.3,2.7-2.1c0.7-0.9,1.4-1.8,2.1-3.1c0.2-0.3,0.4-0.8,0.7-1.4c0.2-0.3,0.3-0.7,0.5-1.1
			c0.2-0.5,0.5-1.1,0.8-1.7c0.1-0.2,0.2-0.4,0.3-0.6l0.1-0.3l0.1-0.2l0-0.1c0,0,0,0-0.1,0c-0.4-0.2-0.9-0.3-1.4-0.5l-0.5-0.2
			c-0.1,0-0.2-0.1-0.3-0.1c-0.2-0.1-0.4-0.2-0.6-0.3c-0.4-0.2-0.8-0.4-1-0.6c-0.2-0.2-0.4-0.2-0.4-0.2s-0.2-0.1-0.5-0.3
			c-0.3-0.2-0.6-0.5-1.1-0.8c-0.4-0.3-0.8-0.7-1.2-1.1c-0.4-0.4-0.7-0.7-1-1c-1.1-1.2-1.6-1.8-1.9-2.1
			C376.1,195.6,374.9,194.4,373.1,192.6z"/>
		<path class="st1" d="M386.6,205.6c1.1,0.6,2.1,0.9,3.2,1.2c1.1,0.3,2.2,0.5,3.7,0.6c0.5,0,1.3,0.1,3,0.1c0.8,0,2.2,0.1,3.4,0
			c1.2-0.1,2.2-0.1,2.2-0.1s0.8,0,1.9-0.1c1.1,0,2.3-0.2,3.2-0.3c2.2-0.3,3.6-0.4,4.3-0.5c2.9-0.5,4.5-1.1,6.7-2.1
			c-2.5-0.2-4.2-0.2-7,0.3c-0.7,0.1-2.1,0.2-4.2,0.5c-0.9,0.1-2.1,0.3-3.2,0.3c-1,0.1-1.8,0.1-1.8,0.1s-1,0.1-2.1,0.1
			c-1.2,0.1-2.5,0-3.3,0c-1.6,0-2.4,0-2.9-0.1c-1.4-0.1-2.6-0.1-3.6,0C388.8,205.5,387.8,205.6,386.6,205.6z"/>
		<path class="st1" d="M391,236.6c2.1-1.3,3.5-2.4,5.4-4.6c0.3-0.4,0.8-1,1.9-2.3c0.6-0.8,1.6-2.1,2.3-3.4c0.4-0.6,0.7-1.2,0.9-1.6
			c0.2-0.4,0.3-0.7,0.3-0.7s0.1-0.2,0.3-0.6c0.1-0.4,0.3-0.9,0.6-1.5c0.5-1.2,0.9-2.6,1.2-3.7c0.6-2.2,1-3.5,1.2-4.2
			c0.7-2.8,0.7-4.5,0.6-7c-1.1,2.3-1.8,3.8-2.5,6.6c-0.2,0.7-0.5,2-1.2,4.1c-0.3,1-0.7,2.4-1.2,3.5c-0.2,0.6-0.4,1.1-0.5,1.4
			c-0.2,0.3-0.3,0.5-0.3,0.5s-0.1,0.2-0.3,0.6c-0.2,0.4-0.4,1-0.8,1.5c-0.7,1.2-1.7,2.5-2.2,3.2c-1,1.3-1.5,1.9-1.8,2.3
			C393.1,233,392.2,234.5,391,236.6z"/>
		<path class="st1" d="M404.6,214c-0.6,2.4-0.8,4.2-0.4,7.1c0.1,0.5,0.2,1.3,0.4,2.3c0,0.1,0,0.2,0.1,0.4c0.1,0.2,0.1,0.5,0.2,0.7
			c0.1,0.6,0.3,1.2,0.5,1.8c0.2,0.6,0.4,1.2,0.6,1.9c0.4,1.3,1,2.5,1.7,3.7c0.4,0.6,0.8,1.2,1.2,1.8l0.7,0.8c0,0.1,0-0.1,0,0.1
			c-0.7,5.4-1.1,11-0.8,16.2c0.1,2.6,0.4,5,1,7.2c0.1,0.6,0.3,1.1,0.5,1.6c0.1,0.5,0.4,1,0.6,1.5c0.1,0.2,0.2,0.5,0.3,0.7
			c0-0.1,0,0,0,0l0,0l0,0.2c-0.1,0.5-0.1,0.9-0.2,1.3c-0.5,5.6-0.1,10.6,1.1,14.6c1.2,4,3.1,7.1,5.1,9c2,1.9,3.9,2.8,5.1,3.4
			c0.5,0.2,0.9,0.3,1.3,0.5c0.2,0.1,0.4,0.2,0.6,0.2c0.1,0.1,0.1-0.1,0.2-0.1c0-0.1,0.1-0.2,0.1-0.2c0.3-0.6,0.4-0.8,0.4-0.8
			s0.2-0.4,1.1-2.2c0.4-0.8,1-2,1.8-3.6c0.2-0.4,0.4-0.8,0.6-1.3c0,0,0,0,0,0l0,0c0.3,0.5,0.7,1.1,1.1,1.7c0.6,0.8,1.7,2.3,3.6,4
			c0.5,0.4,1,0.8,1.6,1.3c0.6,0.4,1.2,0.8,1.9,1.2c1.4,0.8,3.1,1.2,5,1.4c0.5,0,1,0,1.4,0c0.5,0,1-0.2,1.4-0.3
			c0.4-0.1,0.8-0.2,1.2-0.2c0.1-0.2,0.1-0.4,0.2-0.7l0.2-0.6c0.1-0.5,0.2-0.9,0.4-1.4c0.5-1.9,1-3.8,1.4-5.9c0.2-1,0.5-2.1,0.7-3.1
			c0.2-1.1,0.3-2.2,0.5-3.3l0.1-0.8l0.1-0.4l0-0.1l0,0l0,0c0,0.1,0-0.2,0,0.1l0-0.1l0.1-0.2c0.1-0.5,0.3-1,0.4-1.6
			c0.4-1,0.7-2.1,1.1-3.1l0,0c0.3-0.7,0.6-1.8,0.8-2.7c0.1-0.9,0.3-1.8,0.3-2.7c0.2-1.8,0.3-3.5,0.4-5.3c0.1-0.9,0.1-1.7,0.2-2.6
			c0-0.4,0.1-0.8,0.1-1.3c0-0.2,0-0.4,0.1-0.6l0-0.2c0-0.3,0.1-0.7,0.1-1c0.1-0.7,0.2-1.2,0.3-1.7c0.1-0.5,0.3-0.9,0.4-1.2
			c1.1-2.7,1.4-4.3,1.8-6.8c-1.5,2-2.4,3.4-3.5,6.1c-0.1,0.3-0.3,0.7-0.4,1.3c-0.2,0.6-0.3,1.2-0.4,1.9c0,0.3-0.1,0.7-0.2,1.1l0,0.2
			c0,0.2,0,0.4-0.1,0.6c0,0.4-0.1,0.9-0.1,1.3c-0.1,0.9-0.1,1.7-0.2,2.6c-0.1,1.7-0.2,3.5-0.4,5.2c-0.1,0.9-0.2,1.7-0.3,2.5
			c-0.2,0.8-0.3,1.5-0.7,2.3l0,0c-0.4,1.1-0.7,2.2-1.1,3.2c-0.1,0.6-0.3,1.1-0.4,1.6l-0.1,0.2l0,0.1l0,0.2l-0.1,0.4l-0.1,0.8
			c-0.2,1.1-0.3,2.1-0.5,3.1c-0.2,1-0.5,2.1-0.7,3.1c-0.4,2-0.9,4-1.4,5.8c-0.1,0.5-0.2,0.9-0.4,1.4l0,0.1l0,0c0,0,0,0,0,0
			c0,0,0,0-0.1,0c-0.4,0.1-0.8,0.2-1.2,0.2c-0.4,0-0.8,0-1.2,0c-1.6-0.1-3-0.5-4.2-1.2c-0.6-0.3-1.2-0.7-1.7-1
			c-0.5-0.4-1-0.7-1.4-1.1c-1.7-1.5-2.7-2.9-3.3-3.7c-0.4-0.6-0.7-1.1-1.1-1.7c-0.3-0.5-0.6-1.2-0.9-1.7c-0.2-0.3-0.3-0.6-0.4-0.9
			l-0.2-0.4c-0.1,0.1-0.1,0.2-0.2,0.4c-0.8,1.6-1.5,3-2.1,4.2c-0.8,1.6-1.4,2.8-1.8,3.6c-0.8,1.5-0.9,1.9-0.9,1.9l0,0l0,0
			c-0.1,0-0.2-0.1-0.3-0.1c-1.1-0.5-2.8-1.3-4.6-3c-1.8-1.7-3.5-4.4-4.6-8.2c-1.1-3.7-1.5-8.5-1-13.9c0-0.4,0.1-0.8,0.2-1.3l0.1-0.5
			l0-0.2l-0.1-0.2l-0.2-0.4c-0.1-0.2-0.2-0.4-0.3-0.6c-0.2-0.4-0.4-0.8-0.5-1.3c-0.1-0.5-0.3-0.9-0.4-1.5c-0.5-2-0.8-4.4-0.9-6.9
			c-0.3-5,0.1-10.5,0.8-15.8l0.1-0.9l-0.7-0.7l-0.6-0.7c-0.4-0.5-0.7-1-1.1-1.5c-0.6-1.1-1.2-2.2-1.6-3.4c-0.2-0.6-0.4-1.2-0.6-1.7
			c-0.2-0.6-0.3-1.2-0.4-1.7c-0.1-0.2-0.1-0.5-0.2-0.7c0-0.1,0-0.2-0.1-0.4c-0.2-0.9-0.3-1.7-0.4-2.2
			C405.6,218,405.2,216.4,404.6,214z"/>
		<path class="st1" d="M422.5,205.5c-0.6,2.4-0.9,4.1-0.7,7.1c0,0.4,0.1,1,0.2,1.7c0,0.4,0.1,0.8,0.1,1.2c0.1,0.8,0.3,1.6,0.4,2.5
			c0.4,1.8,0.8,3.7,1.5,5.6c0.2,0.5,0.3,1,0.5,1.5l0.6,1.4c0.4,0.9,0.7,1.9,1.1,2.8c0.4,0.9,0.6,1.8,0.9,2.7
			c0.2,0.5,0.2,0.8,0.3,1.2c0.1,0.2,0.1,0.4,0.1,0.7l0,0l0,0l0,0c-0.1,0,1.5-0.3,0.6-0.1l-0.6,0l0,0l0,0l0,0.2l-0.1,0.2
			c-0.2,0.9-0.3,1.7-0.5,2.5c-0.2,0.8-0.3,1.6-0.4,2.3c-0.4,2.8-0.6,4.7-0.6,4.7s0,0.5-0.1,1.3c0,0.9-0.1,2.1-0.1,3.7
			c0,1.6,0.2,3.6,0.6,5.7c0.2,1.1,0.6,2.2,1.1,3.4c0.1,0.3,0.3,0.6,0.4,0.9l0.2,0.4c0-0.1,0,0,0,0l0,0l-0.1,0.2l-0.1,0.5
			c-0.1,0.3-0.2,0.6-0.3,0.9c-0.8,3.1-1.5,7-1.6,9.3c-0.2,2.3-0.1,3.7-0.1,4.4c0.2,3,0.9,4.8,2.6,6.7c-0.1-0.6-0.2-1.2-0.3-1.7
			c0-0.5-0.1-1.1-0.1-1.6c0-0.5,0-1.1-0.1-1.6c0-0.6-0.1-1.2-0.1-1.9c0-0.7-0.1-2,0.1-4.2c0.1-2.2,0.8-6,1.6-9
			c0.1-0.3,0.2-0.6,0.2-0.9c0.1-0.4,0.2-0.8,0.3-1.1l0.1-0.2c0-0.1-0.1-0.1-0.1-0.2l-0.2-0.4l-0.2-0.4c-0.1-0.2-0.3-0.5-0.4-0.7
			c-0.4-1-0.8-2-1-3c-0.4-2-0.6-3.8-0.6-5.4c0-1.5,0-2.8,0.1-3.6c0.1-0.8,0.1-1.3,0.1-1.3s0.1-1.8,0.6-4.5c0.1-0.7,0.2-1.4,0.4-2.2
			c0.2-0.8,0.3-1.7,0.5-2.6l0.1-0.4l0-0.2l0-0.1l0-0.2c0-0.2,0-0.4-0.1-0.7c-0.1-0.5-0.2-1.1-0.4-1.5c-0.3-0.9-0.6-1.9-1-2.9
			c-0.4-0.9-0.8-1.9-1.1-2.8l-0.6-1.4c-0.2-0.5-0.3-0.9-0.5-1.4c-0.7-1.8-1.1-3.6-1.4-5.3c-0.1-0.8-0.3-1.7-0.4-2.4
			c-0.1-0.4-0.1-0.8-0.1-1.2c-0.1-0.7-0.1-1.3-0.2-1.7C423.4,209.6,423.1,208,422.5,205.5z"/>
		<path class="st1" d="M366.5,256.4c-2.4,0.6-4,1.1-6.6,2.5c-0.4,0.2-1.1,0.6-2.6,1.4c-0.5,0.3-1.1,0.6-1.8,1
			c-0.3-0.2-0.5-0.4-0.8-0.5c-0.4-0.3-0.8-0.6-1.1-0.9c-0.7-0.6-1.3-1.2-1.6-1.7c-0.4-0.5-0.5-0.8-0.5-0.8s-0.7-1.1-0.9-2.6
			c-0.3-1.6,0.1-3.5,0.7-4.9c0.8-1.9,1.5-3,1.9-3.6c1.6-2.3,2.4-3.7,3.7-5.8c-2.2,1.2-3.6,2.3-5.3,4.8c-0.4,0.6-1.2,1.8-2.1,4
			c-0.6,1.5-1.1,3.9-0.8,5.8c0.1,1,0.4,1.8,0.7,2.4c0.1,0.3,0.2,0.5,0.3,0.7c0.1,0.2,0.1,0.2,0.1,0.2s0.2,0.4,0.6,1
			c0.4,0.6,1.1,1.4,1.9,2.1c0.4,0.4,0.8,0.7,1.3,1c0.2,0.2,0.5,0.3,0.7,0.5c0.4,0.2,0.7,0.5,1.1,0.7c0.2-0.1,0.4-0.2,0.7-0.3
			c0.2-0.1,0.3-0.2,0.5-0.3c0.2-0.1,0.4-0.2,0.6-0.3c0.4-0.2,0.8-0.4,1.1-0.6c1.5-0.8,2.2-1.2,2.6-1.4
			C363.4,259.2,364.7,258.1,366.5,256.4z"/>
		<path class="st1" d="M378.9,261.9c-2.9,0.4-5-0.1-5.1-0.1l-0.1,0l0-0.1c-0.1-0.2-9.9-19.9-11.4-23.1c-0.6-1.2,0.7-2.7,2.8-4.3
			c-1.7,0.8-3.2,1.1-4,0.7c-0.3-0.2-0.4-0.4-0.4-0.5c0-0.9,1.9-2,5.2-4c3.2-1.9,7.1-4.3,7.5-5.9c0.1-0.2,0-0.5-0.1-0.7
			c-0.8-1.4-4.9,0.9-8.4,3c-3.4,2-6.3,3.6-7.6,3.1c-0.3-0.1-0.5-0.4-0.6-0.8c-0.8-3.7-8.8-20.9-16.5-33.6c-4.9-8.1-5.4-15-5.7-20.1
			c-0.2-2.8-0.3-5-1.2-6.3c-0.2-0.2-0.5-0.6-0.7-0.5c-1.1,0.3-1.9,6.6-2.1,10.4l0,0.3l-0.3-0.1c-25.6-5.4-32.9-37.3-32.9-37.7
			c-1.3-17.6-9-23.4-17.1-29.5c-8.3-6.3-59.1-6.6-59.6-6.7l-0.1,0c-1.2-0.6-115.9-57.6-128.9-45.3l-0.3-0.4
			c5.6-5.3,29.1,0.8,69.9,17.9c29.7,12.5,58.2,26.6,59.6,27.3c2.8,0,51.4,0.4,59.8,6.7c8.2,6.2,16,12,17.3,29.8
			c0,0,1.8,8.1,6.7,16.6c4.5,7.8,12.5,17.7,25.6,20.6c0.1-2.2,0.7-10.1,2.4-10.6c0.4-0.1,0.8,0.1,1.2,0.7c0.9,1.4,1.1,3.7,1.3,6.6
			c0.3,5,0.8,11.9,5.6,19.9c7.9,13,15.8,30,16.6,33.7c0.1,0.2,0.2,0.4,0.3,0.5c1.1,0.5,4.2-1.3,7.2-3c4.1-2.4,8-4.6,9.1-2.8
			c0.2,0.3,0.2,0.7,0.1,1c-0.4,1.8-4.3,4.1-7.7,6.2c-2.3,1.4-5,3-5,3.6c0,0,0,0.1,0.1,0.1c1.5,0.9,6.7-2.3,9.8-4.2
			c2.2-1.3,2.7-1.7,3-1.6l0.2,0l0.1,0.2c0,0.3-0.1,0.3-2.2,1.5c-3.1,1.7-10.5,5.8-9.5,7.9c1.4,3.1,10.5,21.4,11.3,23
			c1,0.2,9.4,1.6,14.3-6.3l-6.5-14c-1.5,0.2-12.3,1.8-13.5,5.5l-0.5-0.2c1.4-4.2,13.6-5.7,14.1-5.8l0.2,0l0.1,0.2l6.7,14.4l-0.1,0.1
			C386,259.8,382,261.4,378.9,261.9z"/>
		<path class="st1" d="M488.7,286.1c-3.7,0.1-6.5-2.7-8.5-8.5c-1.5-4.4,0.8-6.1,1.5-6.5c-0.8-3.4-10.3-41.7-10.5-42.7
			c0-0.2,0-0.4,0-0.8c0-2-0.1-6.6-3.4-8.3c-0.8-0.4-1.2-0.9-1.3-1.4c-0.1-1,1.2-1.9,2.5-2.8c1.2-0.9,2.5-1.8,2.6-2.7
			c0-0.3-0.1-0.5-0.3-0.6c-1-0.7-4.2,0.3-5.3,0.7l-0.2,0.1l-0.1-0.1c-0.2-0.3-23.3-25.6-28.5-28.7c-3.5-2.1-4.5-5.4-5.8-9.7
			c-0.6-2.2-1.4-4.7-2.6-7.4c-2.6-5.6-5.6-6.8-7.1-7.3c-0.5-0.2-0.8-0.3-0.9-0.6c-1.5-1.7-54.8-45.8-83-68.9l0.3-0.4
			c25,20.6,83,68.4,83.1,69.2c0,0.1,0.4,0.2,0.6,0.3c1.5,0.6,4.6,1.8,7.3,7.6c1.2,2.7,2,5.2,2.6,7.5c1.2,4.1,2.2,7.4,5.5,9.4
			c5.2,3.1,26.6,26.5,28.5,28.7c0.9-0.3,4.4-1.5,5.6-0.6c0.3,0.2,0.5,0.6,0.5,1.1c-0.1,1.1-1.4,2.1-2.8,3.1
			c-1.1,0.8-2.3,1.7-2.3,2.4c0,0.3,0.4,0.7,1,1c3.5,1.9,3.6,6.7,3.6,8.8c0,0.3,0,0.6,0,0.7c0.1,0.9,10.4,42.4,10.5,42.8l0,0.2
			l-0.2,0.1c-0.1,0.1-3,1.4-1.4,6c1.9,5.7,4.5,8.3,8.1,8.2L488.7,286.1z"/>
		<path class="st1" d="M385.5,218.1l-0.4-0.3c2-3.2,5.5-9.3,5.5-9.3l0.4,0.2C391,208.8,387.5,215,385.5,218.1z"/>
		<path class="st1" d="M424.9,286.8c-1.9-0.6-3.4-2-4.4-4c-3.3-6.9-0.3-19.8,0.8-22.5c0.2-0.5,0.2-0.9,0-1.1
			c-0.6-0.7-2.8-0.3-4.4,0.1c-1.5,0.3-2.3,0.4-2.7,0.2c-0.7-0.4-0.8-3.7-0.9-11.4c-0.1-4.2-0.1-8.1-0.4-9.4c-0.4-1.9,2-2.8,4.4-3.6
			c1.8-0.6,3.7-1.3,3.8-2.3c0-0.2,0-0.4-0.1-0.6c-0.5-0.6-2.1-0.8-3.8-1c-1.9-0.2-4.1-0.5-5.5-1.4c-3.1-2.1-2.1-20-2-20.8l0.5,0
			c-0.3,5.1-0.5,18.7,1.8,20.3c1.3,0.9,3.4,1.1,5.3,1.3c1.9,0.2,3.5,0.4,4.2,1.2c0.2,0.3,0.3,0.6,0.2,1c-0.2,1.3-2.1,2-4.1,2.7
			c-2.2,0.8-4.4,1.6-4.1,3c0.3,1.4,0.4,5.3,0.4,9.5c0.1,4.4,0.2,10.5,0.7,11c0.3,0.1,1.4-0.1,2.4-0.3c2-0.4,4.2-0.8,4.9,0.1
			c0.3,0.4,0.3,0.9,0,1.6c-1,2.6-4,15.4-0.8,22.1c0.9,1.9,2.3,3.2,4.1,3.8L424.9,286.8z"/>
		<path class="st1" d="M442.8,290.4c-2.2-0.2-4.2-1.3-5.9-3.4c-5.7-7-6.2-22.8-5.9-25.1c0.2-1.3,1.6-2.6,3.2-4.2
			c2-1.9,4.4-4.1,4.3-6.4c0-1.7-1.4-2.2-3-2.8c-2.1-0.8-4.4-1.7-3.8-5.4c0.7-4.3,3.7-7.2,6.1-9.6c1.2-1.1,2.2-2.2,2.9-3.3
			c0.5-0.8,0.6-1.3,0.4-1.7c-0.6-1.1-4-1-6.9-0.9c-0.7,0-1.3-0.2-1.9-0.7c-2.5-2.4-2.7-10.1-2.8-12.6c0-0.4,0-0.6,0-0.7l0.5-0.1
			c0,0.1,0,0.3,0,0.8c0.1,2.5,0.2,10,2.6,12.2c0.5,0.4,1,0.6,1.5,0.6c4-0.1,6.6-0.1,7.4,1.1c0.3,0.6,0.2,1.3-0.4,2.2
			c-0.7,1.1-1.8,2.2-3,3.3c-2.5,2.4-5.3,5.2-6,9.3c-0.6,3.3,1.4,4.1,3.5,4.8c1.6,0.6,3.3,1.2,3.3,3.2c0.1,2.5-2.3,4.8-4.5,6.8
			c-1.5,1.4-3,2.8-3.1,3.9c-0.3,2.3,0.2,17.9,5.8,24.8c1.6,1.9,3.5,3,5.6,3.2L442.8,290.4z"/>
		<path class="st1" d="M445.8,285.3c-0.9,0-1.6-0.3-2.1-0.9c-1.1-1.4-1-4.3,0.2-9.2c0.5-2.1,1.3-3.3,2.4-3.6
			c1.3-0.4,2.4,0.6,2.5,0.6l-0.3,0.4c0,0-1-0.9-2-0.5c-0.9,0.3-1.6,1.4-2.1,3.3c-1.2,4.6-1.3,7.5-0.3,8.8c0.4,0.5,0.9,0.7,1.7,0.8
			L445.8,285.3z"/>
		<ellipse class="st1" cx="12" cy="98" rx="11.7" ry="7.8"/>
	</g>
	<g>
		<path class="st0" d="M664.8,417c0,0,0.8-0.8,8.8,5.8c8,6.7,33.2,30.5,58.7,22.8l5.7-4.8c0,0-16.7-0.7-29.8-4.7
			C695,432.2,666.8,414.7,664.8,417z"/>
		<path class="st0" d="M663,416.5c0,0-6.3,10.7-6.3,15s-4,5.2-5.5,5.2s-5.7,1.5-5.7,1.5s11,0.8,14.8,0.2c3.8-0.7,7.6-4.5,7.6-4.5
			l-4-17.9L663,416.5z"/>
		<path class="st0" d="M673.5,436.7c0,0,5.2,14.2,1.5,18.7s0.5,3.8,0.5,3.8s12.3-5.3,12.1-6.8C687.3,450.8,678,436.5,673.5,436.7z"
			/>
		<path class="st0" d="M770,435.4c0,0,0,0.1-0.1,0.3c-0.3,1.1-1.4,4.5-1.1,6.9c0.3,2.8,1.5,14.7,0.7,16c-0.8,1.3,6.7,2.5,6.7,2.5
			s33.5,23.5,36.3,26.2c2.8,2.7,10.7,9.3,10.7,9.3s-8.3-14.5-11-19.3c-2.7-4.8-19.2-16.2-25.3-20"/>
		<g>
			<path class="st1" d="M688.1,452.6"/>
		</g>
		<g>
			<path class="st1" d="M664.9,415.6"/>
		</g>
		<path class="st1" d="M849.9,517.6c-0.9-0.8,1.4,0.5,0.7-0.2c-0.8-0.8-1.6-1.5-2.7-2.4c-0.3-0.2-0.7-0.5-1.2-0.9
			c-0.2-0.2-0.5-0.4-0.8-0.6c-0.6-0.4-1.1-0.9-1.7-1.4c-5.4-4.3-10.9-8.7-16.5-13.2c-11.2-9-22.7-18.4-34.5-27.8
			c-5.9-4.7-12.5-9.3-20.3-10.9c-0.5-0.1-1-0.2-1.5-0.3c-0.5-0.1-1-0.1-1.5-0.2l-0.4,0l-0.7,0c-0.1,0-0.1,0-0.2,0l-0.1,0.1l-0.3,0.3
			l-0.3,0.4l-0.5,0.5l-0.5,0.4c-1.4,1.1-3,1.9-4.8,2.2c-3.6,0.8-7.4,0.3-11.1-0.2c-3.7-0.6-7.6-1.3-11.5-1.6
			c-3.8-0.4-7.7-0.7-11.5-1.1c-3.8-0.4-7.6-0.7-11.4-1.2c-1.9-0.2-3.8-0.5-5.6-0.8c-1.8-0.4-3.7-0.7-5.5-1.3c-1.8-0.5-3.6-1-5.4-1.6
			c-1.8-0.6-3.6-1.2-5.4-1.8c-1.8-0.6-3.5-1.3-5.3-1.9l-1.5-0.6l-0.7-0.2c-0.2,0.1-0.3,0.3-0.5,0.5l-0.7,0.7c-0.3,0.3-0.6,0.6-1,0.9
			c-0.3,0.3-0.7,0.6-1.1,0.8c-2.9,2.1-6.3,3.4-9.8,4.2c-0.4,0.1-0.9,0.2-1.3,0.2l-0.3,0l-0.5,0.1c-0.2,0-0.5,0-0.6,0.2l-0.4,0.5
			l-1.7,2.1c-0.5,0.7-1.2,1.4-1.8,2c-0.6,0.6-1.2,1.3-1.9,1.9l-1.7,1.6c-0.3,0.3-0.6,0.5-0.8,0.8c-0.1,0.1-0.2,0.2-0.6,0.5l-0.3,0.7
			c-0.7,1.3-1.3,2.7-2.2,3.9c-0.4,0.6-0.8,1.3-1.2,1.8c-0.4,0.6-0.8,1.2-1.3,1.7l-0.7,0.8l-0.8,0.7c-0.5,0.5-1.1,0.9-1.6,1.2
			c-1.3,0.6-2.6,1.2-3.9,1.2c-1.3,0.1-2.5-0.2-3.5-1c-1-0.7-1.7-1.9-2.2-3.1c-0.1-0.3-0.2-0.6-0.3-0.9c0-0.1-0.1-0.3-0.1-0.4l0,0
			c0,0,0,0,0-0.1c0.2-0.7,0.4-1.4,0.5-2.1c1.4-5.4,2.8-10.7,4.5-15.4c0.9-2.3,1.9-4.6,3.1-6.5c0.3-0.5,0.6-0.9,0.9-1.4
			c0.4-0.4,0.7-0.9,1.1-1.3c0.7-0.9,1.4-1.7,2.1-2.5c1.4-1.6,2.8-3.2,4.1-4.6c0.8-0.8,1.5-1.6,2.2-2.4c1.3-1.4,2.5-2.7,3.7-3.9
			c0.3-0.3,0.6-0.6,0.9-0.9l0.4-0.4l0.1-0.1c0,0,0,0,0,0l-0.1,0l-0.3,0.1c-0.9,0.4-1.7,0.7-2.6,1.1c-0.9,0.3-1.7,0.7-2.6,1
			c-0.8,0.4-1.6,0.6-2.2,0.7c-1.3,0.4-2.6,0.6-3.6,0.8c-4.3,0.7-6.3,0.7-5,0.6c-1.8,0.1-3.5,0.2-5.2,0.3c-0.9,0-1.7,0-2.5,0l-0.9,0
			l-0.3,0c-0.1,0.1-0.1,0.2-0.2,0.2l-0.4,0.5c-0.2,0.3-0.5,0.6-0.7,0.9c-2,2.3-4.3,4.1-6.1,5.3c-1.8,1.3-3.2,2-3.8,2.4
			c-0.6,0.3-0.4,0.2,0.9-0.5c-1.5,0.9-3,1.7-4.5,2.4l-0.6,0.3l-0.8,0.4c-0.5,0.9-0.5,1-0.8,1.4c-0.3,0.7-0.7,1.4-1.1,2
			c-1.6,2.6-3.5,4.6-5.1,5.9c-1.6,1.3-2.9,2-3.3,2.3c-0.5,0.2-0.1,0.1,1.2-0.8c-0.6,0.4-1.3,0.8-2,1.1l-0.5,0.2l-0.2,0.1
			c-0.1,0,0,0-0.1,0l-1.1,0.2l-1.1,0.2l-1.1,0.1c-0.7,0.1-1.4,0.1-2.1,0c-1.4-0.1-2.7-0.5-3.5-1.3c-0.9-0.8-1.3-2-1.4-3.2
			c0-0.2,0-0.3,0-0.5l0-0.2c0,0,0-0.1,0-0.1l0-0.3l0.1-1.1l0.2-1.2l0.1-0.6l0-0.1l0-0.1l0,0l-0.2,0.1l-0.8,0.4
			c-0.5,0.3-1.1,0.6-1.6,0.8l-0.8,0.4l-0.4,0.2c-0.3,0.1-0.6,0.2-0.8,0.3c-0.6,0.2-1.1,0.3-1.6,0.5c-1.1,0.2-2.1,0.3-3,0.1
			c-0.9-0.2-1.8-0.5-2.4-0.9c-0.7-0.4-1.2-1-1.6-1.5c-0.1-0.1-0.2-0.3-0.2-0.3c-0.1-0.1-0.1-0.3-0.2-0.4c-0.1-0.3-0.2-0.6-0.3-0.9
			c-0.1-0.6-0.2-1-0.3-1.4c0-0.4-0.1-0.7-0.1-0.9c0-0.4,0-0.4,0,0.1c0,0.5,0.1,1.4,0.6,2.7c-0.5-1.5-0.7-3.1-0.6-4.6
			c0.1-1.6,0.4-3.1,0.9-4.7c0.9-3.1,2.4-5.9,3.9-8.7c0.8-1.4,1.5-2.9,2.2-4.3c0.6-1.5,1.2-3,1.7-4.4c0.3-0.7,0.6-1.4,0.9-2.1
			c0.4-0.6,0.6-1.3,1.1-1.9l0.6-0.9l0.7-0.8c0.4-0.6,1-1.1,1.5-1.7c4.3-4.8,8.4-9.4,12.4-13.9l-1.6-0.9l-0.8-0.4l-0.4-0.3
			c-0.3-0.2-0.5-0.4-0.8-0.6l-0.7-0.6c-0.9-0.9-1.6-1.9-2.1-3.1c-0.5-1.1-0.8-2.3-1-3.6c-0.1-0.6-0.1-1.2-0.1-1.8c0-0.3,0-0.6,0-0.9
			l0.2-0.9c0.4-2.4,1.2-4.8,2.6-6.6c1.4-1.8,3.4-2.9,5.5-2.9c4.7,0.2,9.2,0.3,13.4,0.5c2.1,0.1,4.2,0.1,6.2,0.2c0.5,0,1,0,1.6,0.1
			l0.4,0c0.1,0,0.1,0,0.2,0l0.1-0.1l0.5-0.4c0.2-0.1,0.3-0.3,0.5-0.4c0.7-0.5,1.6-0.8,2.4-1.2c3.4-1.3,6.8-2.1,10-2.8
			c0.8-0.2,1.6-0.3,2.4-0.4l0.6-0.1l0.3-0.1l0.1,0l-0.1-0.1l-0.1-0.1l-0.9-0.9c-1.5-1.5-1.4-1.8-1.9-2.5c-0.7-1.2-1.2-2.5-1.7-3.8
			c-0.9-2.5-1.6-4.9-2.1-7c-0.1-0.3-0.2-0.6-0.2-1l-0.1-0.4c0-0.1,0-0.3-0.2-0.3c-0.3-0.1-0.5-0.2-0.8-0.3c-0.3-0.1-0.5-0.2-0.7-0.3
			c-0.2-0.1-0.4-0.1-0.6-0.2c-0.8-0.4-1.6-0.7-2.3-1.1c-0.3-0.2-0.7-0.4-1-0.6c-0.3-0.2-0.6-0.4-0.9-0.6c-0.5-0.4-1-0.7-1.4-1
			c-1.7-1.2-2.3-1.8-2-1.6c0.3,0.2,1.4,1.3,3.8,2.8c-3.1-2-5.7-4.4-7.9-6.5c-2.2-2.1-3.8-4.1-5-5.4c-1.1-1.4-1.7-2.1-1.6-2
			c0.1,0.1,0.8,1.1,2.5,3.1c-1.2-1.5-2.5-3-3.4-4.3c-0.5-0.9-1.1-1.7-2-2.4c-0.2-0.2-0.5-0.3-0.8-0.4c-0.2-0.1-0.3-0.1-0.6-0.1
			l-0.1,0c-0.2,0,0.1,0,0.1,0l0,0l-0.1,0l-0.2,0c-0.4-0.1-0.8-0.1-1.2-0.2c-3.2-0.7-6.1-1.8-8.6-2.8c-5.1-2.1-9-4-11.6-5.3
			c-1.3-0.7-2.3-1.2-3-1.6c-0.2-0.1-0.3-0.2-0.5-0.3c-0.1-0.1-0.3-0.2-0.4-0.2c-0.1,0-0.2,0-0.3-0.1c-0.2,0-0.3-0.1-0.4-0.1
			c0,0,0,0,0.2,0c0.1,0,0.2,0,0.3,0.1c0.1,0,0.1,0,0.2,0c0.1,0,0.1,0,0.2,0c0.1,0.1,0.2,0.1,0.3,0.2c0.6,0.3,1.5,0.8,2.8,1.5l0,0
			c-0.6-0.3-1.2-0.6-1.8-0.9c-0.3-0.2-0.6-0.3-0.8-0.4l-0.5-0.3c-0.1,0-0.1-0.1-0.2-0.1l-0.2,0l-0.2,0c-1.2-0.2-2.2-0.4-3.2-0.7
			c-2-0.5-3.7-1.2-5.1-1.7c-2.8-1.2-4.7-2.2-5.9-2.9c-1.2-0.7-1.9-1.1-2.2-1.3c-0.3-0.2-0.4-0.2-0.4-0.2s-0.5-0.3-1.4-0.9
			c-0.9-0.6-2.2-1.6-3.8-3c-1.5-1.3-3.3-3.3-4.7-5.9c-0.6-1.3-1.2-2.8-1.4-4.5c-0.2-1.6,0.1-3.4,1-5c0.1-0.2,0.2-0.4,0.3-0.6
			c0.1-0.2,0.3-0.4,0.3-0.5c0,0,0,0,0,0l0.1-0.1c0.1,0,0.2-0.1,0.3-0.1c0.2-0.1,0.4-0.2,0.6-0.2l0.7-0.2l0.7-0.1
			c0.5-0.1,1-0.1,1.5-0.1c2.1,0,4.3,0.5,6.8,1c4.8,1.1,10.2,1.8,15.3,3.9c1.3,0.6,2.6,1.2,3.9,1.9c0.7,0.3,1.4,0.7,2.1,1
			c0.7,0.3,1.5,0.5,2.2,0.8c0.7,0.3,1.5,0.5,2.2,0.8c0.8,0.2,1.5,0.4,2.3,0.6c0.8,0.2,1.5,0.4,2.3,0.6c0.8,0.1,1.6,0.3,2.4,0.4
			c1.6,0.3,3.3,0.5,4.9,0.7c1.7,0.1,3.3,0.4,4.8,0.7c3.1,0.8,6.2,2.4,9.1,4.4c3,1.9,6,3.9,9.1,6c3.2,2,6.4,4,9.6,6
			c3.3,1.9,6.7,4,10.2,5.9c1.8,0.9,3.6,1.9,5.4,2.9c0.9,0.5,1.8,1,2.7,1.4c0.9,0.4,1.9,0.9,2.8,1.3c1.9,0.9,3.8,1.7,5.7,2.6
			c2,0.8,3.9,1.5,5.9,2.3c1,0.4,2,0.8,3,1.2c1,0.3,2,0.7,3.1,1c2.1,0.7,4.1,1.4,6.2,2c2.1,0.5,4.3,1.1,6.5,1.6
			c2.2,0.4,4.4,0.7,6.6,1c4.4,0.5,8.9,1,13.2,2.2c1.1,0.3,2.2,0.6,3.2,1l1.6,0.6l0.8,0.3c0.1,0,0.5,0.2,0.5,0.2l0.4,0.1
			c2.2,0.6,4.5,1.2,6.7,1.9c4.5,1.3,9,2.5,13.5,3.8c4.4,1.4,8.8,3.3,13.2,5.1c4.4,1.9,8.9,3.7,13.4,5.6c2.3,0.9,4.5,1.9,6.8,2.8
			c2.3,0.9,4.6,1.8,7,2.5c4.8,1.3,9.7,2.2,14.4,3.6c4.7,1.3,9.4,3,13.7,5.4c4.5,2.6,9.4,4.1,14.2,5.6c9.6,3,19.2,6.3,28.7,9.9
			c9.5,3.6,19,7.4,28.5,11.1c19,7.4,38,14.7,56.8,21.6c18.8,6.9,37.5,13.6,55.7,19.6c9.1,3,18.2,5.9,27.1,8.5
			c2.2,0.7,4.5,1.3,6.7,1.9c2.2,0.6,4.4,1.2,6.7,1.8c2.2,0.6,4.4,1.1,6.6,1.7c1.1,0.3,2.2,0.5,3.3,0.8l2.1,0.5
			c1.9,0.4,3.4,0.7,4.2,0.8c2.9,0.5,38.5,8.9,41,8.6c-2.4-0.9-37.8-9.9-40.6-10.5c-0.8-0.1-2.3-0.4-4.2-0.8l-2.1-0.4
			c-1.1-0.2-2.2-0.5-3.3-0.8c-2.2-0.5-4.4-1.1-6.6-1.7c-2.2-0.6-4.4-1.2-6.6-1.8c-2.2-0.6-4.4-1.2-6.7-1.9
			c-8.9-2.6-17.9-5.5-27.1-8.5c-18.2-6.1-36.9-12.7-55.7-19.6c-18.8-6.9-37.8-14.2-56.8-21.6c-9.5-3.7-18.9-7.5-28.5-11.1
			c-9.5-3.6-19.2-6.9-28.8-9.9c-4.8-1.6-9.6-3-13.8-5.5c-4.5-2.5-9.3-4.2-14.1-5.5c-4.8-1.4-9.7-2.3-14.4-3.6
			c-2.3-0.7-4.6-1.5-6.8-2.4c-2.3-0.9-4.5-1.8-6.8-2.7c-4.5-1.9-8.9-3.7-13.4-5.6c-4.5-1.8-8.8-3.7-13.4-5.2
			c-4.6-1.3-9.1-2.5-13.5-3.8c-2.2-0.6-4.5-1.2-6.7-1.9l-0.4-0.1c-0.2-0.1-0.1,0-0.3-0.1l-0.8-0.3l-1.6-0.6c-1.1-0.5-2.2-0.7-3.3-1
			c-4.5-1.2-9-1.7-13.5-2.2c-2.2-0.3-4.4-0.5-6.5-0.9c-2.1-0.5-4.2-1.1-6.3-1.6c-2.1-0.6-4.1-1.3-6.1-2c-1-0.3-2-0.7-3-1
			c-1-0.4-2-0.8-3-1.2c-2-0.8-3.9-1.5-5.9-2.3c-1.9-0.9-3.8-1.7-5.6-2.6c-0.9-0.4-1.9-0.9-2.8-1.3c-0.9-0.4-1.8-0.9-2.7-1.4
			c-1.8-1-3.5-1.9-5.3-2.8c-3.5-1.9-6.8-4-10.1-5.9c-3.3-2-6.5-4-9.6-6c-3.1-2-6.1-4-9.1-6c-3-2-6.2-3.7-9.6-4.6
			c-1.7-0.4-3.5-0.6-5.1-0.8c-1.6-0.2-3.2-0.4-4.8-0.7c-0.8-0.1-1.6-0.3-2.3-0.4c-0.8-0.1-1.5-0.4-2.3-0.5c-0.7-0.2-1.5-0.4-2.2-0.6
			c-0.7-0.2-1.4-0.5-2.1-0.7c-0.7-0.2-1.4-0.5-2.1-0.7c-0.7-0.3-1.3-0.6-2-0.9c-1.3-0.6-2.7-1.3-4-1.9c-2.7-1.1-5.5-1.8-8.1-2.4
			c-2.6-0.6-5.1-1.1-7.5-1.6c-2.3-0.5-4.8-1.1-7.2-1.1c-0.6,0-1.2,0-1.8,0.1l-0.9,0.1l-0.9,0.2c-0.3,0.1-0.6,0.2-0.9,0.3
			c-0.1,0.1-0.3,0.1-0.4,0.2l-0.2,0.1c-0.1,0.1-0.2,0.1-0.3,0.2c-0.3,0.3-0.4,0.5-0.6,0.8c-0.2,0.2-0.3,0.5-0.4,0.7
			c-1.1,2-1.4,4.2-1.2,6.1c0.2,2,0.9,3.7,1.6,5.2c1.6,2.9,3.4,5,5.2,6.5c1.7,1.4,3,2.4,4,3.1c0.9,0.7,1.4,1,1.4,1s0,0,0.4,0.2
			c0.3,0.2,1,0.6,2.3,1.4c1.3,0.7,3.2,1.8,6.1,3.1c1.5,0.6,3.2,1.3,5.3,1.8c1,0.3,2.2,0.5,3.4,0.7l0.2,0l0.3,0.2
			c0.3,0.1,0.6,0.3,0.8,0.5c0.6,0.3,1.2,0.6,1.8,0.9l0,0c-1.3-0.7-2.2-1.2-2.8-1.5c0,0-0.1,0-0.1,0l0,0c0,0,0,0,0,0
			c-0.1,0-0.2,0-0.3-0.1c-0.1,0-0.2,0-0.2,0c0,0,0.2,0,0.4,0.1l0.1,0c0,0,0,0,0,0l0,0c0.1,0.1,0.3,0.2,0.5,0.3
			c0.7,0.4,1.7,0.9,3.1,1.6c2.7,1.4,6.6,3.3,11.8,5.4c2.6,1,5.5,2.1,8.9,2.9c0.4,0.1,0.9,0.2,1.3,0.2l0.2,0l0.1,0l0,0
			c0,0,0.3,0,0.1,0l0,0c0,0,0,0,0.1,0c0.1,0,0.2,0.1,0.4,0.2c0.5,0.4,1,1,1.4,1.7c1.1,1.7,2.3,3.1,3.6,4.7c-1.7-2-2.5-3.1-2.6-3.2
			c-0.1-0.1,0.5,0.7,1.7,2.1c1.2,1.4,2.9,3.4,5.1,5.5c2.2,2.2,4.9,4.6,8.2,6.7c-2.5-1.6-3.7-2.7-4-3c-0.3-0.2,0.4,0.4,2.1,1.7
			c0.4,0.3,0.9,0.7,1.5,1c0.3,0.2,0.6,0.4,0.9,0.6c0.3,0.2,0.7,0.4,1,0.6c0.7,0.4,1.6,0.8,2.5,1.2c0.2,0.1,0.5,0.2,0.7,0.3
			c0.2,0.1,0.5,0.2,0.7,0.2c0,0,0,0,0,0c0,0.2,0.1,0.4,0.1,0.6c0.5,2.1,1.2,4.5,2.2,7.2c0.5,1.3,1,2.7,1.8,4c0.2,0.3,0.4,0.7,0.6,1
			l0.2,0.3c0,0,0,0,0,0l0,0c-3.2,0.7-6.7,1.5-10.3,2.9c-0.9,0.4-1.8,0.8-2.7,1.3c-0.2,0.1-0.4,0.3-0.7,0.5c-0.2,0.1-0.1,0.1-0.1,0.1
			c0,0,0,0,0,0c-0.5,0-0.9,0-1.4-0.1c-2-0.1-4.1-0.1-6.2-0.2c-4.3-0.1-8.8-0.3-13.5-0.5c-2.7,0-5.3,1.5-7,3.6
			c-1.6,2.2-2.5,4.8-3,7.4l-0.2,1c0,0.4,0,0.7,0,1.1c0,0.7,0.1,1.4,0.1,2.1c0.2,1.4,0.6,2.8,1.2,4.1c0.6,1.3,1.4,2.6,2.5,3.6
			l0.8,0.8c0.3,0.2,0.6,0.4,0.9,0.7l0.5,0.3l0.1,0.1l0.3,0.1c-3.5,3.9-7.1,7.9-10.8,12.1c-0.5,0.6-1,1.1-1.5,1.7l-0.8,0.9l-0.7,1
			c-0.5,0.7-0.8,1.4-1.2,2.1c-0.3,0.7-0.7,1.5-0.9,2.2c-0.6,1.5-1.1,2.9-1.7,4.3c-0.6,1.4-1.3,2.8-2.1,4.2c-1.5,2.8-3,5.8-4,9.1
			c-0.5,1.6-0.8,3.3-0.9,5.1c-0.1,1.8,0.1,3.6,0.7,5.3c-0.5-1.6-0.6-2.6-0.7-3.2c-0.1-0.5-0.1-0.5,0-0.1c0,0.2,0.1,0.6,0.1,1
			c0.1,0.4,0.2,1,0.4,1.6c0.1,0.3,0.2,0.6,0.3,1c0.1,0.2,0.1,0.4,0.2,0.6c0.2,0.3,0.2,0.4,0.4,0.6c0.5,0.7,1.2,1.4,2.1,2
			c0.9,0.6,2,1,3.2,1.2c1.2,0.2,2.5,0.1,3.7-0.1c0.6-0.2,1.3-0.3,1.9-0.6c0.3-0.1,0.6-0.2,0.9-0.4l0.5-0.2l0.1,0l0.1-0.1
			c0.1,0,0.1,0,0.1,0l0,0l0,0l0,0.1l0,0.3c0,0.2,0,0.4,0,0.6c0.1,1.5,0.7,3.2,2,4.4c1.3,1.2,3,1.7,4.7,1.9c0.8,0,1.7,0.1,2.5,0
			l1.2-0.1l1.2-0.2l1.2-0.2l0.2,0l0.2-0.1l0.3-0.1l0.6-0.3c0.7-0.4,1.5-0.8,2.2-1.2c-1.5,0.9-1.9,1.1-1.4,0.8
			c0.5-0.3,1.9-1.1,3.6-2.5c1.7-1.4,3.8-3.6,5.5-6.3c0.4-0.7,0.9-1.4,1.2-2.2c0.2-0.3,0.5-1,0.4-0.8c0.3-0.1,0.6-0.3,0.9-0.4
			c1.6-0.8,3.1-1.6,4.7-2.5c-1.3,0.8-1.5,0.9-0.9,0.6c0.6-0.4,2-1.2,3.9-2.5c1.9-1.3,4.2-3.1,6.4-5.7c0.3-0.3,0.5-0.7,0.8-1
			c0,0,0,0,0,0h0l0.3,0c0.9,0,1.7,0,2.6,0c1.8,0,3.6-0.1,5.4-0.3c-1.3,0.1,0.7,0.1,5.2-0.6c1.1-0.2,2.4-0.4,3.8-0.8c0.1,0,0,0,0,0
			l0,0c-0.5,0.6-1,1.1-1.6,1.7c-1.3,1.5-2.7,3-4.1,4.7c-0.7,0.8-1.4,1.7-2.1,2.6c-0.4,0.4-0.7,0.9-1.1,1.3c-0.3,0.5-0.7,1-1,1.5
			c-1.4,2.1-2.3,4.4-3.3,6.8c-1.8,4.8-3.2,10.1-4.6,15.6c-0.2,0.7-0.4,1.4-0.5,2.1l-0.1,0.4c-0.1,0.2,0,0.4,0,0.5
			c0.1,0.3,0.1,0.4,0.2,0.6c0.1,0.4,0.2,0.7,0.4,1.1c0.6,1.4,1.4,2.9,2.8,3.9c1.3,1.1,3.1,1.5,4.8,1.4c1.7-0.1,3.2-0.8,4.6-1.4
			c0.8-0.4,1.4-0.9,2-1.5l0.9-0.8l0.8-0.9c0.5-0.6,1-1.2,1.4-1.9c0.5-0.6,0.9-1.3,1.3-2c0.9-1.3,1.5-2.7,2.3-4.1
			c0.3-0.5,0-0.2,0.5-0.6c0.3-0.3,0.6-0.5,0.9-0.8l1.7-1.6c0.7-0.6,1.3-1.3,1.9-2c0.6-0.7,1.3-1.3,1.9-2.1l1.8-2.2c0.1-0.1,0,0,0,0
			l0,0c0,0,0,0,0,0l0.5-0.1c0.5-0.1,0.9-0.2,1.4-0.3c3.7-0.8,7.3-2.2,10.5-4.5c0.4-0.3,0.8-0.6,1.2-0.9c0.4-0.3,0.8-0.6,1.1-1
			l0.3-0.3l0.1-0.1l0,0l0,0l0,0l1.1,0.4c1.8,0.6,3.5,1.3,5.3,1.9c1.8,0.6,3.6,1.2,5.4,1.8c1.8,0.6,3.7,1.1,5.5,1.6
			c1.8,0.6,3.7,0.9,5.6,1.3c1.9,0.3,3.8,0.6,5.7,0.8c3.8,0.5,7.6,0.8,11.5,1.2c3.8,0.4,7.7,0.7,11.5,1.1c3.8,0.3,7.5,1,11.4,1.6
			c3.8,0.5,7.8,1,11.8,0.1c2-0.4,3.9-1.3,5.6-2.6l0.6-0.5l0.5-0.6l0.1-0.1c0.1-0.1,0,0,0,0c0,0,0,0,0,0s0,0,0,0l0.3,0
			c0.9,0,1.8,0.2,2.7,0.4c3.6,0.8,7.1,2.2,10.3,4.1c0.8,0.5,1.6,0.9,2.4,1.4l2.3,1.6c1.5,1,3,2.2,4.5,3.4
			c11.8,9.4,23.3,18.8,34.5,27.8c5.6,4.5,11.1,8.9,16.5,13.2c0.6,0.5,1.2,0.9,1.7,1.4c0.3,0.2,0.5,0.4,0.8,0.6
			c0.5,0.4,0.9,0.7,1.2,0.9c1.2,0.9,2.1,1.5,3.1,2C850.7,519,848.7,517.3,849.9,517.6z"/>
		<path class="st1" d="M702.7,380.8c-1.2-0.3-2.2-0.5-3.3-0.6c-0.5-0.1-1.1-0.1-1.7-0.1c-0.6,0-1.3,0.1-2,0.2
			c-0.5,0.1-1.3,0.1-3,0.4c-0.8,0.2-1.8,0.3-2.9,0.5c-1.1,0.2-2.2,0.6-3.4,0.9c-1.2,0.4-2.4,0.7-3.6,1.1c-1.2,0.4-2.4,0.8-3.5,1.2
			c-1.1,0.4-2.2,0.7-3.2,1c-1,0.3-1.9,0.4-2.6,0.6c-0.7,0.1-1.4,0.2-1.8,0.2c-0.4,0-0.7,0.1-0.7,0.1s-0.2,0-0.6,0
			c-0.4,0-0.9,0-1.6,0c-0.7,0-1.5,0-2.3-0.1c-0.4,0-0.9-0.1-1.4-0.1c-0.5-0.1-1-0.1-1.5-0.2c-2.1-0.2-4.3-0.7-6.5-1.2
			c-1.1-0.3-2.1-0.6-3.2-0.8c-1.1-0.3-2.1-0.5-3-0.7c-2.2-0.6-3.6-0.7-4.3-0.8c-1.5-0.2-2.6-0.3-3.7-0.3c-1.1,0-2.1,0.1-3.4,0.3
			c1.2,0.4,2.2,0.8,3.2,1c1,0.3,2.1,0.5,3.6,0.8c0.7,0.1,2.1,0.3,4.2,0.8c0.9,0.2,1.8,0.4,2.9,0.7c1,0.2,2.1,0.6,3.3,0.8
			c2.3,0.5,4.6,1,6.7,1.2c0.5,0.1,1.1,0.1,1.6,0.2c0.5,0,1,0.1,1.5,0.1c0.9,0.1,1.8,0.1,2.5,0.1c0.7,0,1.3,0,1.6,0
			c0.4,0,0.6,0,0.6,0s0.3,0,0.7-0.1c0.5-0.1,1.1-0.1,1.9-0.2c0.8-0.2,1.8-0.3,2.8-0.6c1-0.3,2.1-0.7,3.3-1.1
			c1.1-0.4,2.3-0.8,3.5-1.2c1.2-0.4,2.4-0.8,3.5-1.1c1.2-0.3,2.3-0.6,3.3-0.8c1-0.2,2-0.4,2.8-0.5c1.6-0.3,2.4-0.3,2.9-0.4
			c0.7-0.1,1.3-0.2,1.9-0.3c0.6-0.1,1.1-0.1,1.7-0.3C700.5,381.4,701.5,381.2,702.7,380.8z"/>
		<path class="st1" d="M614.8,405.6c1.7,1.8,3.1,2.9,5.7,4.3c0.4,0.2,0.9,0.4,1.6,0.8c0.3,0.2,0.7,0.3,1.1,0.5
			c0.3,0.1,0.7,0.3,1,0.5c0.4,0.2,0.8,0.3,1.2,0.5c0.8,0.3,1.6,0.6,2.4,0.9c3.3,1.2,7.1,2.3,11.2,2.5c2,0,4,0.1,6-0.1
			c2-0.1,4-0.4,6-0.5c3.9-0.3,7.6,0.1,11,0.9c1.7,0.5,3.3,1,4.8,1.5c0.7,0.3,1.4,0.6,2.1,0.9c0.7,0.3,1.3,0.6,1.9,0.9
			c1.2,0.6,2.3,1.2,3.3,1.8c1,0.5,1.8,1,2.5,1.4c1.4,0.8,2.1,1.3,2.1,1.3s3.1,1.9,7.9,4.6c4.9,2.7,11.6,6.4,19.1,9.1
			c1.9,0.6,3.8,1.3,5.7,1.9c1,0.3,2,0.5,2.9,0.8c1,0.3,1.9,0.5,2.9,0.7c1,0.2,2,0.4,2.9,0.5c0.5,0.1,1,0.2,1.4,0.3
			c0.5,0.1,1,0.1,1.4,0.1c1,0.1,1.9,0.2,2.8,0.3c0.5,0,0.9,0.1,1.4,0.1c0.2,0,0.5,0,0.7,0l0.6,0c2,0,3.6,0,4.4,0
			c0.7,0,1.4-0.1,2-0.2c0.6-0.1,1.2-0.2,1.7-0.4c1.1-0.3,2.1-0.6,3.2-1c-1.3-0.2-2.3-0.3-3.4-0.3c-0.5,0-1.1,0-1.7,0
			c-0.6,0-1.2,0.1-1.9,0.1c-0.8,0-2.3,0-4.2,0l-0.6,0c-0.2,0-0.4,0-0.7,0c-0.4,0-0.9-0.1-1.3-0.1c-0.9-0.1-1.8-0.2-2.7-0.3
			c-0.5,0-0.9-0.1-1.4-0.1c-0.5-0.1-0.9-0.2-1.4-0.3c-0.9-0.2-1.9-0.3-2.8-0.5c-1-0.1-1.9-0.4-2.8-0.7c-0.9-0.3-1.9-0.5-2.9-0.8
			c-1.9-0.5-3.7-1.2-5.6-1.8c-7.3-2.7-14-6.3-18.8-9c-4.8-2.8-7.9-4.6-7.9-4.6s-0.8-0.5-2.2-1.3c-0.7-0.4-1.5-0.9-2.5-1.5
			c-1-0.5-2.1-1.2-3.4-1.8c-0.6-0.3-1.3-0.7-2-1c-0.7-0.3-1.5-0.6-2.2-0.9c-1.6-0.5-3.2-1-5-1.5c-1.8-0.3-3.6-0.8-5.6-0.9
			c-0.5,0-1-0.1-1.5-0.1c-0.5,0-1,0-1.5,0c-1,0-2,0-3,0.1c-2,0.1-4,0.4-5.9,0.5c-2,0.2-3.9,0.1-5.8,0.1c-3.8-0.2-7.4-1.2-10.6-2.4
			c-0.8-0.3-1.6-0.6-2.3-0.9c-0.4-0.2-0.8-0.3-1.1-0.5c-0.3-0.1-0.7-0.3-1-0.4c-0.4-0.2-0.8-0.3-1.1-0.5c-0.7-0.3-1.2-0.6-1.5-0.7
			C618.7,406.8,617.2,406.3,614.8,405.6z"/>
		<path class="st1" d="M604.5,455.2c1.1-0.6,2-1.2,2.8-1.9c0.8-0.7,1.6-1.6,2.5-2.8c0.3-0.4,0.8-1.1,1.6-2.6
			c0.6-1.2,1.3-2.7,1.8-4.4c0.3-0.8,0.4-1.6,0.5-2.3c0-0.4,0.1-0.7,0.1-1.1c0-0.1,0,0,0,0c0.4-0.3,0.7-0.5,1.1-0.8
			c0.4-0.3,0.7-0.5,1.1-0.8c0.7-0.5,1.4-1,2-1.5c1.2-1,2.3-1.9,3.2-2.7c0.9-0.8,1.6-1.4,2-1.9c0.5-0.4,0.7-0.7,0.7-0.7
			s0.6-0.6,1.5-1.5c0.9-1,2.1-2.4,3.3-4.1c0.6-0.8,1.2-1.8,1.7-2.8c0.2-0.4,0.4-0.8,0.6-1.2c0.4-0.2,0.8-0.3,1.2-0.5
			c2-0.8,4-1.6,5.6-2.3c2.1-0.8,3.3-1.4,4-1.6c2.7-1.1,4.1-2,6.1-3.5c-2.5,0.4-4.1,0.7-6.8,1.8c-0.7,0.3-1.9,0.8-4,1.6
			c-1.6,0.7-3.6,1.5-5.6,2.3c-0.6,0.3-1.2,0.5-1.9,0.8c-0.3,0.6-0.6,1.2-0.8,1.8c-0.5,0.9-1,1.8-1.6,2.6c-1.1,1.6-2.3,3-3.1,3.9
			c-0.9,0.9-1.4,1.5-1.4,1.5s-0.2,0.2-0.7,0.7c-0.4,0.4-1.1,1.1-2,1.8c-1.7,1.5-4.1,3.5-7.3,5.7c-0.1,0.1-0.2,0.1-0.3,0.2l-0.2,0.1
			c-0.1,0-0.1,0.1-0.1,0.2c0,0.3-0.1,0.6-0.1,0.9c0,0.3-0.1,0.6-0.1,0.9c-0.1,0.7-0.2,1.4-0.5,2.1c-0.4,1.5-1,2.9-1.6,4
			c-0.8,1.4-1.2,2-1.5,2.4c-0.8,1.2-1.4,2.1-2,3C605.7,453.2,605.2,454.1,604.5,455.2z"/>
		<path class="st1" d="M663.9,415.9c-0.6,2.4-0.8,4.2-0.4,7.1c0.1,0.5,0.2,1.3,0.7,3c0.3,0.9,0.7,2.2,1.2,3.5
			c0.6,1.3,1.4,2.7,2.3,3.8c0.4,0.6,1,1,1.5,1.5c0.1,0.1,0.2,0.2,0.3,0.2l0.2,0.1c0.1,0.1,0.2,0.1,0.3,0.2c0.2,0.1,0.4,0.2,0.6,0.4
			c0.8,0.4,1.2,0.7,1.2,0.7s1.6,1,3.5,2.4c1.9,1.4,4,3.3,5.4,4.8c0.7,0.8,1.3,1.5,1.7,2c0.4,0.5,0.7,0.9,0.9,1.2
			c1.6,2.3,2.6,3.5,4.1,5.6c-0.3-2.5-0.8-4.2-2.5-6.7c-0.2-0.3-0.6-0.7-1-1.3c-0.5-0.6-1.1-1.3-1.8-2.1c-1.4-1.6-3.7-3.5-5.7-5
			c-2-1.5-3.6-2.5-3.6-2.5s-0.5-0.3-1.3-0.8c-0.2-0.1-0.4-0.2-0.7-0.4c-0.1-0.1-0.2-0.1-0.4-0.2l-0.2-0.1c0,0,0,0,0,0
			c-0.4-0.4-0.9-0.7-1.2-1.3c-0.8-0.9-1.5-2.2-2.1-3.3c-0.5-1.2-0.9-2.4-1.1-3.2c-0.4-1.6-0.5-2.3-0.6-2.8
			C665,419.9,664.5,418.3,663.9,415.9z"/>
		<path class="st1" d="M647.4,358c-1.7,0.2-6.6-3.4-16.2-11.8l-0.7-0.6c-1.9-1.7-1.7-5.3-1.4-8.8c0.2-2.7,0.4-5.2-0.5-6.4
			c-0.3-0.4-0.6-0.5-0.9-0.5c0,0,0,0-0.1,0c-1.3,0.2-3.1,3.4-4.1,5.3c-0.4,0.8-0.8,1.4-1,1.7c-1.2,1.7-15.7-3.7-21.3-6.3
			c-4.7-2.2-4.1-5.8-3.5-9c0.3-1.4,0.5-2.7,0.3-3.9c-0.1-0.8-0.3-0.9-0.3-0.9l0,0c-0.4,0.1-1.6,2.7-2.5,5.8l-0.1,0.2l-6.8-1.6
			c-13-3.5-18.7-14-18.8-14.1l0.4-0.2c0.1,0.1,5.8,10.4,18.5,13.9l6.4,1.5c0.6-1.9,1.8-5.7,2.8-5.9c0,0,0.1,0,0.1,0
			c0.5,0,0.6,0.7,0.7,1.3c0.2,1.3-0.1,2.6-0.3,4.1c-0.6,3.2-1.2,6.5,3.2,8.5c9,4.1,20,7.3,20.7,6.4c0.2-0.3,0.6-0.9,1-1.7
			c1.2-2.3,2.9-5.3,4.4-5.6c0,0,0.1,0,0.1,0c0.5,0,0.9,0.2,1.3,0.7c1,1.4,0.8,4,0.6,6.7c-0.2,3.4-0.5,6.8,1.3,8.4l0.7,0.6
			c9.6,8.5,15,12.4,16,11.7c0.5-0.3,1.3-1.9,2.2-3.7c2.1-4.2,5.2-10.5,9.7-11.5l0.1,0.5c-4.3,0.9-7.4,7.1-9.4,11.3
			c-1,2-1.7,3.4-2.3,3.9C647.6,358,647.5,358,647.4,358z"/>
		<path class="st1" d="M670.4,385.6c-2.2,0.3-6.3-0.4-10.3-4c-6.2-5.5-9.7-23.5-9.9-24.2l0.5-0.1c0,0.2,3.7,18.6,9.7,23.9
			c5,4.5,9.9,4.3,11.1,3.5c0.1,0,0.2-0.2,0.2-0.3c-0.1-0.2-7.6-25.6-5.4-27.3c0.2-0.1,0.5-0.2,0.9,0.1c1.7,1.1,3.2,5.8,4.7,10.7
			c1.6,5.1,3.2,10.4,5.1,11.4c0.3,0.2,0.6,0.2,0.9,0.1c1.5-0.6,2.9-1.6,4.5-2.8c2.8-2.1,5.7-4.3,9.3-3.1l-0.2,0.5
			c-3.4-1.2-6.2,0.9-8.9,3c-1.5,1.1-3,2.3-4.6,2.9c-0.4,0.2-0.9,0.1-1.3-0.1c-2.1-1-3.7-6.2-5.4-11.7c-1.4-4.7-2.9-9.5-4.5-10.5
			c-0.2-0.1-0.3-0.1-0.4-0.1c-1.7,1.4,4.9,24.9,5.5,26.8c0,0.1,0.1,0.5-0.4,0.8C671.5,385.4,671,385.5,670.4,385.6z"/>
		<path class="st1" d="M959.5,483.8c-16.5,2.4-37.7,3.6-64.6,2.1c-32.5-1.8-58.7-6.8-60-7c0,0-0.1,0-0.1,0
			c-4.2,0.6-18.5-8.2-32.4-16.8c-12.3-7.6-25.1-15.5-27.4-14.4c-0.2,0.1-0.3,0.2-0.3,0.4c-0.1,0.5-0.1,1.1-0.2,1.6
			c-0.7,6.1-1.3,11.8-9,13.1l-0.1-0.5c7.3-1.3,7.9-6.8,8.6-12.7c0.1-0.5,0.1-1.1,0.2-1.6c0-0.4,0.2-0.6,0.6-0.8
			c2.5-1.2,14.3,6,27.8,14.5c13.2,8.1,28,17.4,32.1,16.8c0.1,0,0.1,0,0.2,0l0.1,0l0.1,0c0.3,0.1,26.8,5.2,60,7
			c30.6,1.7,73.2,1,102.5-12.5l0.2,0.4C989.3,477.1,977,481.2,959.5,483.8z"/>
		<path class="st1" d="M841.3,457.9c-4.6,0.7-26.4-6.6-52.3-15.4c-8.9-3-16.7-5.7-19.2-6.3c0,0,0,0,0.1,0l-0.2,0.4
			c-0.8-0.4-1.1-0.6-0.9-0.9c0.2-0.5,1.8-0.1,20.5,6.3c18.9,6.4,50.6,17.2,52.5,15.2c0,0,0.1-0.1,0-0.2c-1.3-3.9-13.4-7.7-26.2-11.8
			c-7-2.2-14.2-4.5-20.7-7.1c-19-7.5-21.6-11.5-20.2-20.4c0.8-4.8-0.9-7.1-2.5-7.5c-1.6-0.4-3.2,0.6-3.9,2.5
			c-1.1,2.9-8.9,5.8-15.4,6.9c-2.4,0.4-8.4,1.1-10.2-1.1c-0.4-0.5-0.8-1.1-1.2-1.5c-1-1.4-1.8-2.4-3-2.6c-1.4-0.2-3.5,1-7.1,3.8
			c-7.7,6.2-22.7,5.3-37.3-2.3c-12.8-6.6-29.8-6.8-36.6-6.5c-2.9,0.1-3.5-1.4-4.1-2.8c-0.4-1-0.8-1.9-1.9-2.3c-1.5-0.6-1.7-3.1-2-6
			c-0.3-3.2-0.6-6.8-2.6-8.4c-0.4-0.3-0.8-0.5-1-0.3c-0.9,0.4-1.1,3.7-1.2,6.4c-0.1,3.6-0.3,5.7-1.3,6c-0.4,0.1-0.7,0-1-0.2
			c-1.4-1-2-5-2.5-9l-0.2-1.3c-0.2-1.1-0.5-2.4-1.5-2.4c-0.9,0-2,1.2-2.1,1.5c0,0.2,0,0.8,0,1.4c0.1,1.9,0.3,5.2-0.5,7.5
			c-0.6,1.9-4.8,2.9-7.3,3.2c0,0-0.1,0-0.1,0c-3.3,0.5-7,0.5-8.6,0.1c-3.6-0.9-2.9-17.1-2.8-17.3c0-0.2,0.1-0.4,0.3-0.5
			c2-1.6,15.6,0.6,17.2,0.8l-0.1,0.5c-4.2-0.7-15.3-2.1-16.8-0.9c-0.1,0.1-0.1,0.2-0.1,0.2c-0.2,2.8-0.3,16,2.5,16.8
			c3.1,0.8,14.5-0.2,15.4-3.1c0.7-2.2,0.6-5.4,0.5-7.3c0-0.8-0.1-1.3,0-1.5c0.1-0.5,1.4-1.9,2.6-1.9c0.7,0,1.6,0.5,2,2.8l0.2,1.3
			c0.5,3.7,1.1,7.8,2.3,8.7c0.2,0.1,0.4,0.2,0.6,0.1c0.7-0.2,0.8-3.2,0.9-5.6c0.1-3.2,0.2-6.3,1.5-6.8c0.4-0.2,0.9-0.1,1.5,0.4
			c2.1,1.7,2.5,5.4,2.8,8.7c0.2,2.6,0.5,5.1,1.6,5.6c1.3,0.5,1.7,1.5,2.1,2.5c0.6,1.4,1.1,2.6,3.6,2.5c6.8-0.2,23.9-0.1,36.8,6.6
			c14.5,7.5,29.3,8.4,36.8,2.4c3.7-3,5.8-4.1,7.4-3.9c1.4,0.2,2.2,1.3,3.3,2.8c0.4,0.5,0.7,1,1.2,1.5c1.1,1.4,4.8,1.7,9.7,0.9
			c6.4-1,14-4,15-6.6c0.8-2.1,2.6-3.3,4.5-2.8c1.8,0.5,3.7,2.9,2.9,8.1c-1.5,8.8,1,12.5,19.9,19.9c6.5,2.6,13.7,4.9,20.7,7.1
			c13.4,4.3,25.1,8,26.5,12.1c0.1,0.4,0,0.6-0.1,0.7C841.9,457.8,841.6,457.9,841.3,457.9z"/>
		<path class="st1" d="M597.3,457.6c-0.6,0.1-1.1,0.1-1.7,0l0-0.5c6,0.6,9.3-6.9,11.5-11.9c0.7-1.6,1.3-2.9,1.8-3.6
			c1.1-1.5-0.8-3.9-2.8-6.4c-1.4-1.8-2.9-3.8-3.4-5.5c-0.2-0.6-0.1-1,0.2-1.2c1.5-0.9,8.5,4.5,10.3,6c1.2-1.2,9.2-9.3,13.5-12.6
			c1-0.8,1.5-1.4,1.5-2c0-0.8-1-1.6-2.2-2.6c-1.4-1-3.1-2.3-4-4.3c-0.5-1-0.6-1.4-0.3-1.6c0.4-0.3,1.2,0.3,4.2,3.1
			c1.7,1.6,3.8,3.5,4.5,3.6c1.3,0.2,4-2.2,5-3.1l0.3,0.3c-0.1,0.1-3.5,3.5-5.4,3.3c-0.8-0.1-2.4-1.6-4.7-3.7c-1.3-1.2-3-2.7-3.5-3
			c0,0.1,0.1,0.4,0.4,0.9c0.9,1.8,2.5,3,3.9,4.1c1.4,1,2.4,1.9,2.4,2.9c0,0.8-0.5,1.5-1.6,2.4c-4.6,3.5-13.5,12.6-13.6,12.7
			l-0.2,0.2l-0.2-0.1c-3.5-2.9-8.9-6.7-9.9-6.1c-0.1,0.1-0.1,0.3,0,0.7c0.4,1.6,1.9,3.5,3.3,5.3c2.1,2.7,4.1,5.3,2.8,7
			c-0.5,0.6-1.1,2-1.7,3.5C605.5,450.1,602.6,456.9,597.3,457.6z"/>
		<path class="st1" d="M611,462.9c-1.4,0.2-2.7-0.1-3.9-1.1l0.3-0.4c4.2,3.5,10.1-2.7,13.2-6.1c0.7-0.8,1.3-1.4,1.8-1.8
			c0.5-0.4,0.7-1,0.7-1.7c0.1-2.4-2.1-6.2-4.2-8.5c-0.5-0.5-0.7-0.8-0.5-1.1c0.3-0.4,1.4,0.1,6.3,2.8c1.1,0.6,2.2,1.2,2.9,1.6
			c1.4,0.7,4.2-1.9,6.6-4.2c1.8-1.7,3.4-3.2,4.6-3.6c1.5-0.5,0.5-4.3-0.4-7.6c-0.6-2.5-1.3-4.8-1-6.2c0.1-0.5,0.4-0.7,0.6-0.7
			c0,0,0,0,0,0c1.7-0.3,7,7.8,8.2,9.7c5.5,0.8,18.4-5.1,18.9-5.8l0.4,0.2c-0.6,1.1-14.1,7-19.5,6.1l-0.1,0l-0.1-0.1
			c-2.6-4.1-6.7-9.7-7.8-9.5l0,0c-0.1,0-0.2,0.2-0.2,0.3c-0.2,1.3,0.4,3.7,1,6c1,3.9,2,7.6,0.1,8.2c-1.1,0.3-2.7,1.9-4.4,3.5
			c-2.7,2.5-5.4,5.1-7.1,4.2c-0.7-0.3-1.7-1-2.9-1.6c-1.8-1-4.6-2.6-5.5-2.9c0.1,0.1,0.2,0.2,0.3,0.4c2.2,2.4,4.5,6.3,4.4,8.9
			c0,0.9-0.4,1.5-0.9,2c-0.4,0.4-1,1-1.7,1.7C618.6,458.3,614.7,462.4,611,462.9z"/>
		<path class="st1" d="M649.9,477.3c-0.5,0.1-0.9,0.1-1.4,0c-1.6-0.3-2.7-1.7-3.1-4.1l0.5-0.1c0.4,2.2,1.3,3.5,2.7,3.8
			c4.3,0.8,11.8-7.6,12.5-8.8c0.5-0.9-1.9-3.3-3.9-5.2c-1.2-1.2-2.5-2.5-3.3-3.5c-0.1-0.2-0.5-0.7-0.2-0.9c0.6-0.6,5.4,2.1,9.3,4.6
			c0.7-0.4,3.9-2.2,5.8-4.4c0.2-0.2,0.3-0.5,0.2-0.9c-0.4-2.2-6.3-5.7-10.2-8.1c-0.6-0.4-1.2-0.7-1.7-1c-0.7-0.4-0.9-0.6-0.8-0.9
			c0.1-0.2,0.2-0.2,0.5-0.2c1.5,0.1,15.3,5.5,15.5,6.6c0,0.1,0.4,0.4,1.3,0.6c1.5,0.3,4.5,0.2,6.1-2.3c2.3-3.6-4.1-13.3-4.1-13.4
			l0.4-0.3c0.3,0.4,6.6,10,4.1,13.9c-1.6,2.6-4.6,3-6.6,2.5c-0.4-0.1-1.6-0.4-1.7-1c-0.5-0.8-11.7-5.4-14.5-6.1c0,0,0.1,0,0.1,0.1
			c0.5,0.3,1.1,0.7,1.7,1c4.2,2.5,10,6,10.4,8.4c0.1,0.5,0,0.9-0.3,1.3c-2.1,2.5-5.9,4.5-6,4.6l-0.1,0.1l-0.1-0.1
			c-3.7-2.4-7.9-4.7-8.8-4.8c0,0.1,0.1,0.2,0.2,0.3c0.7,1,2,2.3,3.2,3.5c2.5,2.5,4.7,4.6,3.9,5.8
			C660.8,469.4,654.5,476.6,649.9,477.3z"/>
		<path class="st1" d="M765.6,460.7l-0.2-0.4c5.3-2.1,4.8-4.5,4-8.7l0-0.2c-0.8-3.8-1.4-9.1,0.2-16c1.5-6.3-0.4-10.2-5.7-11.9
			c-3.7-1.1-6.9,8.7-9.8,17.5c-1.1,3.5-2.2,6.7-3.3,9.3c-3.9,9.2-37.9,5.2-45.9,3.2c-6.7-1.7-14.3-3.7-17.1-11
			c-1.7-4.4-8.1-10.1-12.2-13.9c-3.4-3-4-3.7-3.7-4.1l0.4,0.3c0,0,0-0.1,0-0.1c0.1,0.4,1.9,2,3.6,3.6c4.2,3.8,10.6,9.5,12.4,14.1
			c2.7,7.1,9.9,8.9,16.8,10.7c7.6,2,41.6,5.8,45.3-2.9c1.1-2.5,2.1-5.8,3.3-9.2c3.1-9.4,6.2-19.1,10.4-17.8
			c5.6,1.8,7.6,5.8,6.1,12.4c-1.6,6.9-0.9,12.1-0.2,15.8l0,0.2C770.7,455.6,771.3,458.4,765.6,460.7z"/>
		<ellipse class="st1" cx="1096" cy="480.7" rx="6.7" ry="4.5"/>
		
			<ellipse transform="matrix(0.8342 0.5515 -0.5515 0.8342 426.1008 -383.8277)" class="st1" cx="851.3" cy="516.7" rx="6.7" ry="4.5"/>
		<path class="st0" d="M654.7,377.7c0,0,7.5,9,13.5,9s29.7-7.3,33.7-6c0,0-17-2-28.7-3.5c-11.7-1.5-23-14-23-15.3
			c0-1.3-1.7,0.4-1.7,0.4s1.5,10.9,6.2,14.8"/>
		<path class="st0" d="M614.2,406.8c0,0,7.6,13.2,18,14.7l12.8-6.2c0,0-21.9-2-30.1-9.8L614.2,406.8z"/>
	</g>
	<g>
		<polygon class="st0" points="513,302.3 524.8,309.1 524.7,322.6 513,315.9 		"/>
		<path class="st0" d="M536.3,248.4L513,261.8l0,0l-0.1,27.1l8.5,4.8l3.2,1.9l0,13.4l35-20.2v-27L536.3,248.4z M513.6,262.2
			l10.8,6.4l0.2,13.4l11.4,7.1l-10.8,6.3l-11.8-6.7L513.6,262.2z M524.6,295.6l0.1,0.1l0,0L524.6,295.6z M548,282.1l-11.5,6.5
			l-11.4-7l-0.2-13.1l11.4-6.6l11.7,6.7V282.1z"/>
	</g>
	<ellipse transform="matrix(0.9738 0.2274 -0.2274 0.9738 2.0249 -8.5788)" class="st0" cx="38.3" cy="4.5" rx="5.8" ry="4.5"/>
</g>
</svg>
