<svg version="1.1" id="Layer_1" xmlns="http://www.w3.org/2000/svg" xmlns:xlink="http://www.w3.org/1999/xlink" x="0px" y="0px"
	 width="315.2px" height="354.5px" viewBox="0 0 315.2 354.5" style="enable-background:new 0 0 315.2 354.5;" xml:space="preserve"
	>
<g>
	<path class="st0" d="M212.8,113.4l0.6-0.1c-0.5-2.3-1.4-5.2-2.3-8.4c-2.9-9.9-6.8-23.5-4.3-28c2.9-5.1,12.1-17.5,12.2-17.6
		l-0.5-0.4c-0.1,0.1-9.3,12.5-12.2,17.7c-2.7,4.8,1.1,17.9,4.2,28.5C211.4,108.3,212.2,111.2,212.8,113.4z"/>
	<path class="st0" d="M181.4,129.6c9.2-8.5,11.4-16,12.5-20c0.8-2.9,4.1-2.1,7.2-1.4c1.7,0.4,3.2,0.7,4.3,0.5
		c1.8-0.4,0.9-6.6-1.9-21.2c-1.1-5.6-2.1-10.9-2.1-13c0-5.4,7.7-10.5,7.8-10.6l-0.3-0.5c-0.1,0.1-2,1.3-4,3.3c-2.7,2.7-4,5.3-4,7.8
		c0,2.1,1,7.2,2.1,13.1c0.9,4.8,1.9,9.9,2.5,13.8c0.8,6,0.1,6.6-0.1,6.7c-0.9,0.2-2.4-0.1-4-0.5c-3.1-0.7-7-1.6-8,1.8
		c-1.1,4-3.2,11.3-12.3,19.7L181.4,129.6z"/>
	<ellipse class="st0" cx="156.7" cy="69.8" rx="1.4" ry="1.1"/>
	<ellipse class="st0" cx="291.4" cy="337.4" rx="2" ry="1.4"/>
	<path class="st0" d="M183.3,163.4l0.6-0.1c-0.9-3.6-1.5-5.7-2-7.1c-0.6-2-0.8-2.7-0.9-4.5c-0.1-3.3-2.6-13-3.3-15.2
		c-0.7-1.8,1.1-4.5,1.3-4.8c0.6-0.5,9.5-8.6,13.2-12.3c3.8-3.8,13-8.5,16-8.2c3.1,0.3,8.3,6.1,10.2,8.3c2.3,2.7,5.7,2.1,5.9,2.1l0,0
		l0,0c0,0,4.4-2.4,7.6-4.8c3.2-2.4,13-8.9,13.9-9.1c0.8-0.3,3.9-0.4,6.2-0.4c2.1,0,6.2,0.4,6.3,0.4l0.9,0v-0.3c0,0-0.6-0.7-0.4-1.3
		c0,0-0.2-0.1,0.2-0.1c0.4,0,0.7,0,1.2,0c0.3,0,0.5,0,0.7,0c1,0,2.3-0.6,2.3-0.6l0,0c2.6-1.9,5.4-11.1,7.4-17.8
		c0.2-0.7,0.3-1.2,0.4-1.3l-0.6-0.2c0,0.1-0.2,0.5-0.4,1.3c-1.1,3.8-4.4,15.4-7.1,17.5c-0.2,0.1-1.3,0.6-2.1,0.6c-0.2,0-0.5,0-0.7,0
		c-1.1-0.1-2.2-0.1-2.4,0.6c-0.1,0.4-0.1,0.8-0.1,1.1c-0.9-0.1-3.7-0.4-5.4-0.4c-2.1,0-5.5,0.1-6.4,0.5c-1,0.3-11,6.9-14.1,9.2
		c-2.9,2.2-7,4.5-7.4,4.8c-0.4,0.1-3.3,0.4-5.2-1.9c-3.4-3.8-7.6-8.3-10.6-8.5c-3.3-0.3-12.5,4.4-16.5,8.4
		c-3.9,3.9-13.2,12.3-13.2,12.3l0,0l0,0c-0.1,0.1-2.2,3.2-1.4,5.4c0.8,2.2,3.1,11.7,3.3,15c0.1,1.9,0.3,2.7,0.9,4.6
		C181.8,157.7,182.4,159.8,183.3,163.4z"/>
	<path class="st0" d="M276.3,86c2,0,3.7-0.9,4.6-1.7c0.4-0.4,0.6-0.7,0.6-0.9c0-0.6,2.5-8.4,2.9-9c0.4-0.4,4.6-2,5.2-2
		c5.5,0,7.8-5.1,7.8-5.2l0.1-0.2l-0.1-0.1c0-0.2,0.1-0.8,0.1-1.4c0.3-2.4,0.8-6.8-1.2-9.6c-0.5-0.7-0.7-3.1-0.9-6
		c-0.8-11.5-2.6-35.5-29.5-45.8c-0.1,0-6.9-2.9-16.2-3.9c-5.5-0.6-10.7-0.4-15.5,0.5c-6.1,1.2-11.6,3.5-16.4,7
		c-10.5,7.6-17.2,14.7-22.7,20.4c-5.4,5.6-9.6,10.1-15.1,12.6l-0.1,0l0,0.1c-0.1,0.2-3.7,6.1-3.7,8.4c0,0.4,0.1,0.7,0.4,0.9
		c0.4,0.3,1,0,1.9-0.3c1.2-0.5,3-1.2,4.6-0.2c3.1,1.9,5.4,1.8,7.7-0.3c2-1.8,7.7-3.2,9.2-1.8c0.8,0.7,1.5,1,2,0.9
		c0.4-0.1,0.5-0.4,0.6-0.4l-0.6-0.2l0,0c0,0,0,0.1-0.1,0.1c-0.1,0-0.6,0-1.4-0.8c-1.2-1.1-3.8-0.7-4.9-0.5c-2.1,0.4-4.1,1.3-5.1,2.3
		c-2.1,2-4.1,2.1-7,0.3c-1.8-1.1-3.8-0.4-5.1,0.1c-0.5,0.2-1.1,0.5-1.3,0.3c0,0-0.1-0.1-0.1-0.4c0-2,3.1-7.3,3.5-8.1
		c5.5-2.6,9.8-7,15.2-12.7c5.4-5.7,12.1-12.7,22.6-20.3c4.7-3.4,10.1-5.7,16.1-6.9c4.8-0.9,10-1.1,15.3-0.5c9.2,1,15.9,3.8,16,3.8
		c6.2,2.4,11.5,5.6,15.7,9.7c3.6,3.5,6.4,7.6,8.6,12.4c3.9,8.6,4.5,17.4,4.9,23.2c0.2,3.3,0.4,5.4,1,6.3c1.9,2.6,1.3,6.9,1.1,9.2
		c-0.1,0.9-0.2,1.4-0.1,1.7c-0.4,0.8-2.6,4.7-7.2,4.7c-0.7,0-5.1,1.7-5.6,2.2c-0.5,0.5-3.1,8.7-3.1,9.4c-0.1,0.4-2.2,2.3-5.2,2
		l-0.1,0.6C275.9,86,276.1,86,276.3,86z"/>
	<path class="st0" d="M264.8,41.7c3.1,0,5.5-0.5,6.4-1.1l-0.4-0.5c-1.1,0.8-6.4,1.6-12.5,0.3c-5.3-1.1-12.6-4.1-17.1-11.8
		c-2.5-4.2-6.6-9.4-12-10.5c-3.1-0.6-5.2,0.4-5.6,0.5c-4,0.5-5.5,4.6-6.8,8.2c-0.8,2.3-1.6,4.4-2.9,5.1l0.3,0.5
		c1.5-0.8,2.3-3,3.2-5.4c1.3-3.5,2.7-7.4,6.4-7.8l0.1,0l0.1,0c0,0,2.2-1.1,5.3-0.5c2.9,0.6,7.3,2.8,11.6,10.2
		c4.6,7.9,12,10.9,17.5,12.1C260.5,41.5,262.8,41.7,264.8,41.7z"/>
	<path class="st0" d="M285.3,71.6c2.9,0,7.5-2.4,7.7-2.5l-0.3-0.5c-0.1,0-6.2,3.2-8.5,2.3c-0.6-0.3-1-1.7-1.5-3.4
		c-1.1-4.1-2.7-10.3-10-13c-2-0.7-3.6-1.4-5.1-2c-6.5-2.5-9.5-3.7-14.5-2.6c-0.8,0.2-1.6,0.4-2.4,0.6c-4.7,1.1-7.8,1.9-11.6,0.2
		c-3.8-1.7-4.7-1.7-6.7-1.9c-0.4,0-0.8-0.1-1.4-0.1c-1.5-0.1-5.9-3.8-7.4-9.1c-1.9-6.6,2-11.3,5.6-14l-0.4-0.5
		c-6.8,5.2-6.9,10.9-5.8,14.7c1.5,5.3,6.1,9.3,7.9,9.5c0.5,0.1,1,0.1,1.4,0.1c2,0.1,2.8,0.2,6.5,1.8c4,1.7,7.3,0.9,12-0.2
		c0.8-0.2,1.6-0.4,2.4-0.6c4.8-1.1,7.5,0,14.1,2.5c1.5,0.6,3.2,1.2,5.1,2c7,2.6,8.6,8.6,9.6,12.6c0.5,2,0.9,3.4,1.8,3.8
		C284.3,71.5,284.8,71.6,285.3,71.6z"/>
	<path class="st0" d="M261.6,105.6c0.7,0,1.3-0.2,2-0.6l-0.3-0.5c-0.7,0.5-1.5,0.6-2.2,0.5c-1.3-0.3-2.2-1.5-2.4-1.8
		c0.6-3.2-1.1-4.1-2.8-4.9c-1.2-0.6-2.5-1.2-3-2.8c-0.3-1-0.3-1.9,0.2-2.6c0.7-1.2,2.4-1.6,2.6-1.6c1.9,0.2,3.2,0.8,3.9,1.9
		c1,1.5,0.4,3.4,0.4,3.4l0.6,0.2c0-0.1,0.7-2.2-0.5-3.9c-0.8-1.2-2.3-1.9-4.4-2.1l0,0l0,0c-0.1,0-2.1,0.4-3.1,1.9
		c-0.5,0.9-0.6,1.9-0.2,3.1c0.6,1.8,2,2.5,3.3,3.1c1.7,0.9,3.1,1.5,2.5,4.4l0,0.1l0.1,0.1c0,0.1,1.1,1.8,2.9,2.2
		C261.2,105.5,261.4,105.6,261.6,105.6z"/>
	<path class="st0" d="M245.6,107.3l0.5-0.3c-0.3-0.7-2.3-2.5-2.7-2.9c-0.5-0.4-0.8-0.8-1.2-1.1c0.8,0.2,1.8,0.4,3.1,0.5
		c2.1,0.3,7.6,1.3,8.2,3.2l0.6-0.2c-0.3-1.1-1.9-2-4.7-2.8c-2-0.5-4-0.8-4-0.8c-2-0.2-3.6-0.6-4.3-0.8c-0.4-0.3-0.5-0.3-0.5-0.3
		c-0.3,0-0.4,0.2-0.4,0.3c0,0.2,0,0.3,0.7,0.5C242,103.6,245.2,106.6,245.6,107.3z"/>
	<path class="st0" d="M242.2,109.7c1.3-2-1.3-5.8-2.1-7.1c-0.1-0.1-0.1-0.2-0.1-0.2l-0.5,0.3c0,0.1,0.1,0.1,0.1,0.2
		c1.4,2.2,3,5.1,2.1,6.4L242.2,109.7z"/>
	<path class="st0" d="M238.1,106.3c0.3-0.5,0.4-1,0.5-1.5c0.2-1,0.4-2,3.6-3.4c4.6-1.9,10.4-5.9,10.5-6l-0.3-0.5
		c-0.1,0-5.8,4-10.4,5.9c-3.5,1.4-3.7,2.6-3.9,3.8c-0.1,0.4-0.2,0.9-0.4,1.3L238.1,106.3z"/>
	<path class="st0" d="M216.5,116.5"/>
	<path class="st0" d="M216.6,58.6c0.4,0,1-0.2,1.8-0.6c1.7-0.7,4.3-1.8,6.6-1c3.1,1.1,7.5,1,9.5-0.2c0.7-0.4,1.1-0.9,1.2-1.6
		c0.2-1.3,1.8-2.4,3.1-3c1.2-0.5,1.9-0.6,2.1-0.5l0.3-0.5c-0.5-0.3-1.7,0-2.6,0.5c-0.7,0.3-3.1,1.5-3.5,3.4c-0.1,0.4-0.4,0.8-1,1.2
		c-1.9,1.1-6,1.2-9,0.1c-2.5-0.9-5.2,0.3-7,1c-0.6,0.2-1.3,0.6-1.5,0.5c-0.1-1.4,1.3-3.5,4.3-6.3c3.6-3.5,4.6-8.2,4.6-8.4l-0.6-0.1
		c0,0-0.9,4.8-4.4,8.1c-4.8,4.6-4.5,6.3-4.5,6.9c0,0.2,0.2,0.4,0.3,0.4C216.4,58.6,216.5,58.6,216.6,58.6z"/>
	<path class="st0" d="M209.3,63.2c1.3,0,2.3-0.6,2.9-1.8c0.3-0.6,0.4-1.2,0.4-1.9c0-0.7-0.3-1.2-0.6-1.6l-0.5,0.4
		c0.6,0.6,0.6,1.9,0.2,2.9c-0.3,0.6-1,1.5-2.5,1.4c-2.8-0.1-6.3-1.8-6.9-8.6c-0.3-3,0.5-6.6,2.2-10.5c1.3-3,3.2-6.1,5.2-8.4
		c1.4-1.7,3.3-2.7,5.6-2.8c3.7-0.2,6.9,1.8,7.1,2c0,0-0.1-0.1-0.1-0.3l0.3,0.1l0.1,0.3l0.2-0.3c0-0.2,0-0.3-0.7-0.7
		c-0.5-0.3-1.1-0.5-1.6-0.8c-2.2-0.9-7.7-2.4-11.3,2c-2,2.4-3.9,5.5-5.2,8.6c-1.8,3.9-2.5,7.7-2.3,10.8c0.3,3.2,1.2,5.6,2.8,7.2
		c1.2,1.2,2.9,1.9,4.7,2C209.1,63.2,209.2,63.2,209.3,63.2z"/>
	<path class="st1" d="M221.9,45.4c0,0-0.6,0.6-2.9-0.6c-2.3-1.2-3.3-1.8-4.4-0.6c-1.1,1.2-3.9,1.2-3.5,4.2c0.5,3,0.5,4.5,1.7,5.1
		c1.2,0.6,2.3-1.4,2.7-3.3c0.5-2,1.5-2.1,3.5-2C221,48.5,223.4,45.9,221.9,45.4z"/>
	<path class="st0" d="M208.7,53l0.5-0.4c-0.3-0.3-0.5-0.6-0.8-0.9c-1-1-1.8-1.8-1.7-4.8c0.1-2,1.5-4.9,7.8-7.7
		c2.9-1.3,8.5-0.9,8.6-0.9l0-0.6c-0.2,0-5.8-0.4-8.9,0.9c-3.6,1.6-8,4.4-8.2,8.2c-0.1,3.2,0.8,4.2,1.9,5.3
		C208.2,52.4,208.4,52.7,208.7,53z"/>
	<path class="st0" d="M300.8,86.3"/>
	<path class="st0" d="M267.7,77.4c4.2,0,4.6-2.5,4.6-2.6l-0.6,0c0,0.1-0.3,2.3-4.2,2.2c-0.2-0.1-1.1-0.4-1.3-1.1c0-0.1,0-0.1,0-0.2
		c-0.1-0.7-0.4-2.5-2.1-4.3c-2.1-2.2-5.8-3.9-10.8-4.9l0,0l0,0c-0.7,0-2.6,0-3.4-0.4c0.9-0.7,3.7-2.6,5.6-2.3c0.2,0,0.4,0.1,0.7,0.1
		c2.8,0.4,10.3,1.4,13.6,8.7c0.1,0.6,0.4,2.1-0.2,2.8c-0.2,0.3-0.6,0.4-1.1,0.4l0,0.6c0.7,0,1.2-0.2,1.6-0.6
		c0.9-1.1,0.3-3.3,0.3-3.4l0,0c-3.4-7.6-11.1-8.7-14-9.1c-0.3,0-0.5-0.1-0.7-0.1c-2.6-0.4-6.2,2.6-6.4,2.7l-0.3,0.2l0.2,0.2
		c0.9,0.9,3.7,0.8,4.1,0.8c7.6,1.5,11.8,4.5,12.4,8.7c0,0.1,0,0.2,0,0.3c0.2,1.1,1.6,1.3,1.7,1.3l0-0.3h0
		C267.5,77.2,267.6,77.4,267.7,77.4z"/>
	<path class="st0" d="M260.2,78.7c-4.4-0.6-5.4-3.4-5.8-4.7c0-0.1,0-0.1-0.1-0.2c-0.1-0.3-0.2-0.4-0.2-0.4c0,0-0.1,0-0.2,0
		c-0.2,0-0.5,0.1-1-0.1c-0.3-0.2-0.5-0.5-0.5-0.6c-0.1-0.5,0.3-1.1,0.4-1.1l0.2-0.2l0.2,0.2c0.7,0.5,2,0.2,2,0.2l0,0
		c2.9-0.4,4.1,0.3,4.3,0.4c2,0.9,3.2,2,3.7,3.4c0.6,1.7-0.3,3.1-0.3,3.2l-0.2-0.1l0.1,0.1c-0.2,0.2-0.6,0.3-1,0.3
		C261.2,79.1,260.4,78.8,260.2,78.7z M262.7,75.7c-0.4-1.2-1.5-2.2-3.4-3l0,0l0,0c0,0-1-0.7-3.9-0.3c-0.2,0-1.3,0.3-2.2-0.1
		c-0.1,0.1-0.1,0.3-0.1,0.4c0,0.1,0,0.1,0.2,0.2c0.2,0.1,0.4,0.1,0.6,0.1c0.5-0.1,0.8,0,1,0.7c0,0.1,0,0.1,0.1,0.2
		c0.4,1.2,1.3,3.7,5.3,4.3l0.1,0c0.7,0.2,1.8,0.4,2.2,0.2C262.6,78.1,263.1,77,262.7,75.7z"/>
	<path class="st0" d="M265.1,102.6"/>
	<path class="st0" d="M271,86.7l1-3.3c0.1-0.3,0.2-0.5,0.2-0.8c0.6-2,0.6-2,1.6-2.8c0.1-0.1,0.3-0.2,0.5-0.4c0.5-0.4,1-0.6,1.7-0.5
		c2.4,0.3,5.1,4.1,5.1,4.2l0.5-0.3c-0.1-0.2-2.8-4.1-5.5-4.4c-0.8-0.1-1.5,0.1-2.2,0.6c-0.2,0.2-0.3,0.3-0.5,0.4
		c-1.1,0.9-1.1,1-1.8,3.1c-0.1,0.2-0.2,0.5-0.2,0.8l-1,3.3L271,86.7z"/>
	<path class="st0" d="M276.6,85.5l0.6-0.1c-0.3-1.3-1.2-2.4-2.6-3.3c-1-0.7-1.9-1-2-1l-0.2,0.6C272.5,81.7,275.9,82.9,276.6,85.5z"
		/>
	<path class="st0" d="M279.9,84.9l0.3-0.5c0,0-0.9-0.4-2.1-1.8c-0.8-1-3.4-3.9-5.5-2.4l0.4,0.5c1.1-0.8,2.7-0.1,4.7,2.3
		C278.8,84.4,279.8,84.9,279.9,84.9z"/>
	<path class="st0" d="M261,99.3c0.2,0,0.3,0,0.5-0.1c1.4-0.4,2.4-2.7,3.1-4.3c0.3-0.6,0.5-1.1,0.7-1.4c0.1-0.2,0.5-1.3,1-2.7
		c1.2-3.6,3.2-9.6,4.8-11.8c1.3-1.9,1.4-2.9,1.3-3.4c-0.1-0.3-0.3-0.5-0.3-0.5l0,0.1l0,0l0,0c0,0,0.2,0.1,0.3,0.4
		c0.1,0.5,0,1.5-1.3,3.3c-1.5,2.3-3.6,8.3-4.8,11.9c-0.5,1.5-0.9,2.5-1,2.7c-0.2,0.3-0.4,0.8-0.7,1.4c-0.7,1.6-1.6,3.8-3,4.3
		c-0.5,0.2-1.1,0-1.7-0.3l0,0.1C260.2,99.2,260.6,99.3,261,99.3z"/>
	<path class="st0" d="M220.8,92.1c0.5,0,1,0,1.5-0.1c2.4-0.2,4.6-0.9,4.6-0.9l0,0l0,0c0.6-1.2,2.2-2.8,6.5-3.3c2.5-0.3,4.8,0,4.9,0
		c5.4,0,9.7-0.7,12.9-1.9c2.4-0.9,4-2.2,4.4-3.5c0.2-0.7,0.1-1.3-0.4-1.6c-1.9-1.3-3.3-7.3-3.5-10.2c-0.2-2.4-1.7-3.5-2.2-3.8
		c-0.3-0.2-0.5-0.3-0.6-0.2l0,0.1c0,0,0.3,0,0.6,0.2c0.5,0.3,2,1.4,2.2,3.8c0.2,2.9,1.7,8.9,3.5,10.3c0.4,0.3,0.6,0.9,0.4,1.5
		c-0.2,0.6-1,2.1-4.3,3.5c-3.1,1.2-7.5,1.9-12.8,1.9c0,0-2.3-0.3-4.9,0c-4.2,0.5-5.9,2.1-6.5,3.3c-0.4,0.1-8.8,2.5-10.8-0.8
		c-0.6-0.9-1-3.8-0.7-8c0.4-4.5,1.6-8.9,3.4-12.5c1.5-2.9,3.3-5.2,5.6-6.9c2.6-1.9,5.6-3.1,9-3.3l0,0c0.2-0.1,19-6.4,26-4.2
		c3.2,1,6.9,3,10,5.4c2.8,2.2,4.6,4.2,4.5,5.3c0,0.3-0.1,0.8-0.1,1.3c-0.3,3.5-0.5,6.6,0,6.8c0.1,0,0.1,0,0.2-0.1
		c0.8-0.8,4.4-12.1,4.6-12.6l-0.1,0c0,0.1-3.8,11.8-4.6,12.6c-0.1,0.1-0.1,0.1-0.1,0.1c-0.4-0.2-0.1-4.4,0.1-6.7
		c0-0.5,0.1-1,0.1-1.3c0.1-1.1-1.7-3.2-4.6-5.4c-3.1-2.4-6.8-4.4-10-5.4c-3.7-1.2-10.5,0-15.7,1.3c-5.5,1.3-10.2,2.9-10.3,3
		c-3.4,0.3-6.5,1.4-9,3.3c-2.2,1.7-4.1,4-5.6,6.9c-1.8,3.5-3,8-3.4,12.5c-0.3,3.6,0,6.9,0.7,8C216.8,91.5,218.4,92.1,220.8,92.1z"/>
	<path class="st0" d="M262.2,80.7c0.3,0,0.6-0.1,0.8-0.3c0.4-0.6,0.1-1.7,0.1-1.7l-0.1,0c0,0,0.3,1.1-0.1,1.6
		c-0.2,0.2-0.5,0.3-0.9,0.3c-0.6-0.1-1.1-0.2-1.6-0.3c-0.7-0.2-1.4-0.4-2.5-0.2c-1.6,0.3-4.1-2.9-4.7-5.4l-0.1,0
		c0.6,2.4,2.9,5.5,4.6,5.5c0.1,0,0.1,0,0.2,0c1-0.2,1.7,0,2.4,0.2c0.5,0.1,1,0.3,1.6,0.3C262.1,80.7,262.1,80.7,262.2,80.7z"/>
	<path class="st0" d="M259.4,100.2c0,0-1.8-1.9-3.2-2.6c-1.1-0.5-2.5-2.2-2.5-3.6c-0.2-0.8,0.5-1.3,0.5-1.3l0.1,0.1
		c-0.3,0.3-0.5,0.8-0.4,1.3c0.1,0.4,0.4,0.7,0.9,1.1c0.1,0.1,0.3,0.2,0.5,0.3C256.9,96.6,259.3,98.2,259.4,100.2L259.4,100.2
		L259.4,100.2z M256.2,97.6c1.3,0.6,2.8,2.1,3.2,2.5c-0.3-1.9-2.6-3.5-4.3-4.6c-0.2-0.1-0.3-0.2-0.5-0.3c-0.4-0.3-0.7-0.5-0.8-0.8
		C254,95.6,255.2,97.1,256.2,97.6z"/>
	<path class="st0" d="M273,87.1c2.2,0,3.5-1.2,3.6-1.3l0.7-0.1v-0.1c0-0.1-0.7-2.2-4.4-3.5l-0.5,0.6c2.9,1.1,3.1,2.5,3.2,2.9
		c-0.2,0.3-1.3,1.4-4.6,0.5l-0.2,0.6C271.7,87,272.4,87.1,273,87.1z"/>
	<path class="st0" d="M264.3,78.5c0,0,1-2.2-0.5-3.9c-0.2-0.2-0.3-0.1-0.5-0.3c-1.3-1.5-2.7-3.2-6.1-3.2h0l0-0.3c0,0-2,0.7-2.9,0.4
		c-0.4-0.1-0.3-0.5-0.7-0.9c-0.6-0.5-0.4-1.1-1.4-1.1v0.1c1,0,0.8,0.5,1.3,1c0.4,0.4,0.5,0.7,0.9,0.8c0.9,0.3,2.7-0.5,2.8-0.5
		c3.3,0.2,4.7,1.9,6,3.5c0.2,0.2,0.3,0.4,0.5,0.6C265.2,76.3,264.3,78.5,264.3,78.5L264.3,78.5z"/>
	<path class="st0" d="M256.9,75.1c0-1.4,1.2-2.6,2.8-2.6s2.8,1.2,2.8,2.6s-1.2,2.6-2.8,2.6S256.9,76.5,256.9,75.1z M257.7,75.1
		c0,1,0.9,1.9,2,1.9s2-0.8,2-1.9s-0.9-1.9-2-1.9S257.7,74.1,257.7,75.1z"/>
	<path class="st0" d="M262.7,78.1c0,0,0.6-2.6-2-4.1c-1.9-1.1-3.4-1.1-4.4-1.1c-0.4,0-0.7,0-0.8-0.1l0,0l0,0c0,0-0.4,0.1-0.5,0.3
		c0,0.1,0,0.3,0.1,0.4c0.4,0.5,0.9,1.6,0.5,2.1l0.1,0c0.4-0.5-0.1-1.6-0.5-2.2c-0.1-0.1-0.1-0.2-0.1-0.3c0.1-0.2,0.3-0.3,0.4-0.3
		c0.2,0.1,0.5,0.1,0.9,0.1c1,0,2.5,0,4.4,1.1C263.2,75.6,262.6,78.1,262.7,78.1L262.7,78.1z"/>
	<path class="st0" d="M267.5,75.5c-0.4-0.1-0.6-0.7-0.9-1.5c-0.7-2.1-2-5.7-8.7-7.1c-0.3,0-6.7-0.7-7.1-0.9c0,0-0.1-0.1,0-0.1
		c0.1-0.4,2-1.7,4.3-1.7c0.5,0,0.9,0,1.4,0.1c0.4,0.1,0.8,0.2,1.3,0.2c3.5,0.6,8.8,1.5,11.5,9.5l0,0l0,0c0,0-0.3,1.5-1.3,1.5h0
		C267.8,75.6,267.6,75.5,267.5,75.5z M257.8,64.7c-0.5-0.1-0.9-0.2-1.3-0.2c-0.4-0.1-0.9-0.1-1.4-0.1c-2.4,0-4.2,1.3-4.3,1.6
		c0,0,0,0,0,0c0.3,0.1,4.7,0.6,7,0.9c6.8,1.4,8,5,8.8,7.1c0.3,0.8,0.5,1.4,0.9,1.5c0.2,0.1,0.3,0.1,0.4,0.1h0c1,0,1.2-1.3,1.2-1.4
		C266.5,66.2,261.2,65.3,257.8,64.7z"/>
	<path class="st0" d="M233.8,100.3c6.9,0,14.1-5.2,17.6-7.7c0.7-0.5,1.2-0.9,1.6-1.1c2.4-1.5,3.6-0.2,3.6-0.2l0.4-0.4
		c-0.1-0.1-1.6-1.7-4.4,0.1c-0.4,0.3-0.9,0.6-1.6,1.1c-3.8,2.7-11.7,8.5-18.9,7.5c-0.1,0-0.1,0-0.2,0l-0.1,0.6c0.1,0,0.1,0,0.2,0
		C232.7,100.2,233.3,100.3,233.8,100.3z"/>
	<path class="st0" d="M230.6,99.9L230.6,99.9c-0.3-0.1-0.5-0.1-0.5-0.2c0-0.1,0.6-0.3,5.3-0.8c5.1-0.5,10.4-4,14.2-6.6
		c2-1.4,3.6-2.5,4.7-2.8c1.6-0.4,2.6,0,3.2,0.5c0.7,0.5,1,1.1,1,1.1l0.1,0c0,0-0.3-0.6-1-1.1c-0.6-0.5-1.7-0.9-3.3-0.5
		c-1.1,0.3-2.7,1.4-4.7,2.8c-3.8,2.6-9.1,6.1-14.2,6.6c-5.3,0.5-5.3,0.8-5.3,0.8C230,99.8,230.3,99.9,230.6,99.9z"/>
	<path class="st0" d="M256.1,106.4L256.1,106.4c-1.2-2.4-5.3-3-8-3.4c-1.4-0.2-2.5-0.4-2.6-0.7c-0.1-0.8,4.4-4.4,6.9-6.2l0-0.1
		c-0.3,0.2-7,5.2-6.9,6.3c0.1,0.4,1.1,0.5,2.7,0.8C250.8,103.4,254.8,104,256.1,106.4z"/>
	<path class="st0" d="M239.5,111.2c0.7-0.5,0.8-2.8,0.2-6.9c0-0.3,0-0.6,0.2-0.8c0.4-0.6,1.4-0.6,1.4-0.6l0-0.1c0,0-1,0.1-1.5,0.7
		c-0.2,0.2-0.3,0.5-0.2,0.9C240.1,107.1,240.4,110.5,239.5,111.2L239.5,111.2z"/>
	<path class="st0" d="M252.6,106.6L252.6,106.6c0-0.1-1-0.2-1.2-0.6c0,0,0-0.1,0-0.1c-0.2-0.4-0.3-0.8-2.2-1.2
		c-0.8-0.2-1.9-0.2-2.9-0.3c-1.5-0.1-2.9-0.2-3.5-0.6l0,0.1c0.6,0.4,2,0.5,3.5,0.6c1,0.1,2,0.2,2.9,0.3c1.9,0.4,2,0.7,2.2,1.1
		c0,0,0,0.1,0,0.1C251.5,106.5,252.5,106.6,252.6,106.6z"/>
	<path class="st0" d="M205.9,56.2c0.5,0,1,0.3,1.4-0.3c0.3-0.4,0.6-0.4,1.1-0.4c1.2-0.1,2.5,1.3,2.5,1.3l0.1,0
		c-0.1-0.1-1.4-1.3-2.6-1.1c-0.5,0.1-0.8,0.3-1.1,0.8c-0.4,0.6-0.8,0.9-1.3,0.9c-0.8,0-1.6-0.9-1.8-1.3c0,0-2.1-3.4,0.8-10.6
		c2.2-5.5,5.1-11.4,9.5-12.7c2.4-0.7,5-0.1,7.8,1.9l0-0.1c-2.8-2-5.5-2.6-7.9-1.9c-4.5,1.3-7.4,7.2-9.6,12.8
		c-1.5,3.8-1.6,6.5-1.5,8.1c0.2,1.7,0.7,2,0.7,2C204.2,55.8,205,56.2,205.9,56.2C205.9,56.2,205.9,56.2,205.9,56.2z"/>
	<path class="st0" d="M214.5,59.3c0.2-1.9-2.3-4.3-3.3-5.2c-0.1-0.1-0.2-0.2-0.2-0.2c-0.3-0.3-0.5-1.5-0.6-2.8
		c-0.1-1.2-0.3-2.4-0.6-3.2c-0.3-0.8-0.2-2.6,3.9-5.1c1.6-0.9,3.3-0.2,4.9,0.5c1,0.4,1.9,0.8,2.8,0.9c0.7,0,1.2-0.1,1.5-0.5
		c0.6-0.7,0.4-1.8,0.4-1.8l-0.1,0c0,0,0.2,1.1-0.4,1.8c-0.3,0.4-0.8,0.5-1.5,0.5c-0.9,0-1.8-0.4-2.8-0.9c-1.7-0.7-3.4-1.5-5-0.5
		c-1.8,1.1-4.6,3.2-3.9,5.2c0.3,0.8,0.4,2,0.6,3.1c0.2,1.4,0.3,2.6,0.6,2.9c0.1,0.1,0.1,0.1,0.3,0.2C212.1,55,214.6,57.4,214.5,59.3
		L214.5,59.3z"/>
	<path class="st1" d="M239.6,51.5c0,0-1.9-1.5-5-0.4c-3.1,1.1-6.8,0.5-7.9-1.1c-1.1-1.6-2.2-3.4-2.2-3.4l0.7-2.6c0,0,2.8,3,3.6,3.6
		c0.8,0.6,2.6,1.5,3.4,1.5S239.1,50.2,239.6,51.5z"/>
	<path class="st1" d="M227.9,57.8c0,0-20.2,4.9-24.8,11.9c0,0,1.4-4.5,8.9-7.9c0,0,0.2-2-0.1-3c-0.3-1,3.2,0.4,4.7-0.2
		c1.5-0.6,3-1.7,4.8-1.9c1.8-0.2,3.9,0.3,5,0.7C227.6,57.7,227.9,57.8,227.9,57.8z"/>
	<path class="st1" d="M240.7,98.5c0,0-4,4.1-11,2.5c0,0,0.2-2,2.1-1.6C232.8,99.7,239.6,99.4,240.7,98.5z"/>
	<path class="st0" d="M288.9,44.9L288.9,44.9c0.1-0.1-1-8.4-5-17.2c-2.4-5.2-5.3-9.5-8.7-12.9c-4.2-4.2-9.2-7-14.8-8.1
		c-22.8-4.8-31,0.3-34.5,2.4c-0.2,0.2-0.5,0.3-0.7,0.4c-1.3,0.7-2.7,1-4.2,1.3c-2.1,0.4-3.9,0.8-4.4,2.4c-0.3,1-0.2,2.2-0.1,3.6
		c0.1,2.2,0.3,4.6-1.5,5.3c-1.9,0.8-3.7,1.6-4.1,2.8c-0.2,0.5-0.1,1.1,0.3,1.7c1.2,2.2,3.2,2.7,3.2,2.7l0-0.1c0,0-2-0.5-3.2-2.7
		c-0.3-0.6-0.4-1.2-0.2-1.6c0.4-1.2,2.2-1.9,4-2.7c1.8-0.8,1.7-3.1,1.5-5.4c-0.1-1.3-0.2-2.6,0.1-3.6c0.5-1.5,2.3-1.9,4.3-2.3
		c1.4-0.3,2.9-0.6,4.2-1.4c0.2-0.1,0.4-0.3,0.7-0.4c3.5-2.1,11.7-7.2,34.4-2.4c5.6,1.2,10.5,3.9,14.7,8.1c3.4,3.4,6.3,7.7,8.7,12.9
		C287.9,36.6,288.9,44.9,288.9,44.9z"/>
	<path class="st0" d="M255.2,36.5c0.1,0,0.3,0,0.4,0c2-0.2,3.8-1.2,4.7-2.9c0.8-1.5,1.4-4.1-0.6-8.2c-3.1-6.4-9-5.4-13.8-4.7
		c-0.7,0.1-1.4,0.2-2.1,0.3c-1.3,0.2-2.4,0.4-3.5,0.6c-3.1,0.6-5.3,1.1-7.6-0.8c-1-0.8-1.6-1.5-2.1-2c-1.1-1.2-1.8-2-4.7-2.4
		c-0.2,0-0.3-0.1-0.3-0.2c0-0.4,1.2-1.3,4-2.5c2.3-1,10.4-4.1,20.1-4.1c0.1,0,0.2,0,0.3,0c4.5,0,8.5,0.8,12.1,2.2
		c4.2,1.6,7.7,4.2,10.4,7.6c5.3,6.6,7.4,10.9,6.2,13.4c-1.2,2.5-5.4,2.6-9.1,2.6c-1.7,0-3.3,0-4.3,0.3l0,0.1
		c1.1-0.3,2.6-0.3,4.3-0.3c3.7-0.1,8-0.1,9.2-2.6c1.2-2.5-0.9-6.9-6.2-13.5c-2.8-3.4-6.3-6-10.5-7.6c-3.6-1.4-7.7-2.1-12.1-2.2
		c-0.1,0-0.2,0-0.3,0c-9.7,0-17.9,3.2-20.1,4.1c-2.5,1.1-4.1,2.1-4.1,2.6c0,0.1,0.1,0.2,0.4,0.2c2.9,0.4,3.5,1.1,4.7,2.4
		c0.5,0.6,1.2,1.2,2.1,2c2.3,1.9,4.7,1.4,7.7,0.8c1-0.2,2.2-0.4,3.5-0.6c0.7-0.1,1.4-0.2,2.1-0.3c4.8-0.8,10.7-1.7,13.7,4.6
		c2,4.1,1.4,6.7,0.6,8.2c-0.9,1.6-2.7,2.7-4.7,2.8c-3.5,0.3-5.6-3.6-5.6-3.6l-0.1,0C250,32.8,251.9,36.5,255.2,36.5z"/>
	<path class="st1" d="M202,57c0,0,0.8,9.5-3.8,13.9l4.7-1.8c0,0,0.8-6,4.2-6.3C207.1,62.8,202,59.5,202,57z"/>
	<path class="st0" d="M220.1,116.9c0.4,0,0.7-0.1,0.9-0.2c1.6-0.9,3.4-1.5,5.8-0.6c1.1,0.4,2.6,0,4.2-1c1.6-1,2.7-2.5,2.8-3.6
		c0-0.2-0.1-0.4-0.2-0.5c-0.8-0.9-4.4-0.9-7.2-1c-1.8,0-3.4,0-3.6-0.3c0,0,0,0,0-0.1c0.1-0.4-0.3-1.9-0.6-3.4
		c-0.3-1.2-0.6-2.5-0.5-2.6c0,0,0,0,0.1,0.1c0.8,1.2,6.6,2.3,9.8,2.3c3.3,0,7.3,4.9,7.4,5l0.1,0c0,0-4.1-5-7.4-5
		c-1.7,0-3.9-0.3-5.8-0.7c-2.2-0.5-3.6-1-3.9-1.6c-0.1-0.1-0.1-0.2-0.2-0.2c-0.1,0.1,0,0.8,0.4,2.7c0.3,1.4,0.7,3,0.6,3.4
		c0,0,0,0.1,0,0.1c0.2,0.3,1.7,0.3,3.7,0.3c2.8,0,6.3,0,7.1,0.9c0.1,0.1,0.2,0.3,0.2,0.5c-0.1,1.1-1.2,2.5-2.8,3.5
		c-1.5,1-3.1,1.3-4.1,0.9c-2.5-0.9-4.3-0.3-5.9,0.6c-1.6,0.9-5.4-1.6-5.5-1.7l0,0.1c0,0,1,0.6,2.1,1.2
		C218.6,116.7,219.4,116.9,220.1,116.9z"/>
	<path class="st0" d="M173.7,131.6l0.6-0.1c-0.2-2.5,4.8-9.8,9.2-16.2c1.3-1.8,2.5-3.5,3.5-5.2c4.1-6.1,4.3-17.3,4.4-24.1
		c0-1.8,0.1-3.3,0.2-4.2c0.3-3.5,2.1-5.1,4.2-7.2c0.6-0.6,1.2-1.2,1.8-1.8c2.5-2.7,1.3-6.9,0.5-9.7c-0.2-0.7-0.4-1.3-0.4-1.7
		c-0.4-2,2.7-5.1,4-6l-0.4-0.5c-0.5,0.4-1.6,1.4-2.5,2.5c-1.3,1.6-1.9,3-1.6,4.1c0.1,0.5,0.3,1.1,0.5,1.8c0.8,2.7,1.9,6.7-0.4,9.1
		c-0.6,0.7-1.2,1.2-1.8,1.8c-2.3,2.2-4.1,3.9-4.4,7.6c-0.1,1-0.1,2.4-0.2,4.3c-0.1,6.6-0.3,17.8-4.3,23.7c-1.1,1.6-2.3,3.3-3.5,5.2
		C178.3,121.9,173.4,128.9,173.7,131.6z"/>
	<path class="st0" d="M0.6,198.7c2.2-6.6,5.5-14.5,8.3-21.4c2.2-5.4,4.3-10.4,5.7-14.3c3.1-8.8,7-16.8,10.8-24.5l0-0.1
		c3.2-6.5,9.9-15,12.8-18.6c0.5-0.6,0.9-1.1,1.1-1.4c1.3-1.8,2.1-3.8,2.1-4c3.5-7.9,9.7-14.5,14.2-19.3c1.3-1.4,2.4-2.6,3.4-3.8
		c3.8-4.4,9-9.2,15.5-14.1c4.5-3.4,10.9-5.9,14-7.1c0.4-0.2,0.7-0.3,1-0.4c2.3-0.9,4.7-3.9,4.8-4c3.2-4.2,7.7-7.5,13.2-9.6
		c4.4-1.7,8.7-2.3,11.5-2.7c3.8-0.4,11.1-0.3,16.4-0.2c1.8,0,3.3,0.1,4.4,0.1c3.2,0,8.7,1.9,12,3.1c1,0.4,1.9,0.7,2.4,0.8
		c2.2,0.6,8.8,0.1,13.2-0.7c4.6-0.9,9.5-6.8,9.7-7l-0.5-0.4c0,0.1-5,6-9.3,6.8c-4.7,0.9-11,1.3-13,0.8c-0.5-0.1-1.3-0.4-2.3-0.8
		c-3.3-1.2-8.9-3.1-12.2-3.1c-1.1,0-2.6,0-4.3-0.1c-5.3-0.1-12.6-0.2-16.5,0.2c-2.8,0.3-7.1,1-11.6,2.7c-5.7,2.2-10.2,5.5-13.5,9.8
		c0,0-2.4,3-4.5,3.8c-0.3,0.1-0.6,0.2-1,0.4c-3.1,1.2-9.6,3.7-14.2,7.2c-6.5,5-11.8,9.8-15.6,14.2c-1,1.1-2.2,2.4-3.4,3.8
		c-4.5,4.9-10.7,11.6-14.3,19.5l0,0c0,0-0.8,2.1-2.1,3.8c-0.2,0.3-0.6,0.7-1.1,1.4c-2.9,3.6-9.6,12.2-12.8,18.7l0,0.1
		C21.1,146,17.2,154,14,162.8c-1.4,3.8-3.4,8.9-5.7,14.2c-2.9,7-6.1,14.9-8.4,21.5L0.6,198.7z"/>
	<path class="st0" d="M283,352c1,0,1.9-0.8,2.5-0.8h0c0.1,0,0.2,0.7,0.6,0.5c0,0,0.1,0.3,0.1,0.2c1.4-0.7,6.5-2.8,8.7-3.2
		c0.4-0.1,0.8-0.1,1.2-0.2c2.5-0.5,4.7-0.9,6.2-2.2c1.7-1.5,4.2-8.2,5.8-13.7c0.6-2.2,1.6-4.1,2.5-6c1.4-2.7,2.7-5.3,2.7-8.2
		c0.1-2.9-2.1-8.1-3.5-11c-1.8-4-4-7.8-5.1-8.9c-0.8-0.8-1.8-3.3-3.1-6.4c-2-4.7-4.7-11.2-8.7-17.6c-5.8-9.3-17.6-13.7-23.9-16.2
		c-1.2-0.4-2.1-0.8-2.9-1.1c-0.6-0.2-1.2-0.5-2-0.8c-6-2.5-17.3-7.3-24.4-14.3c-8-7.9-32.7-26.7-38.2-29.9c-2.7-1.5-4.7-1.8-6.1-2
		c-1.5-0.2-2.4-0.3-3.3-1.5c-1.8-2.5-3.3-13.7-5.5-32c-1.7-14-7-25.3-10.2-32c-1-2.1-1.8-3.7-2.2-4.9c-0.8-2.1-0.1-7.5,0.6-14.4
		c1-9.1,2.3-20.4,1-29.9c-1.2-8.6-6.2-15-10.2-18.9c-4.3-4.2-8.4-6.3-8.5-6.3l-0.3,0.5c0,0,4.1,2.1,8.4,6.3
		c3.9,3.8,8.9,10.1,10,18.5c1.3,9.4,0,20.7-1,29.7c-0.8,6.9-1.4,12.4-0.6,14.6c0.4,1.2,1.2,2.9,2.2,5c3.1,6.7,8.4,18,10.1,31.9
		c2.3,18.3,3.8,29.6,5.6,32.2c1,1.4,2.2,1.6,3.7,1.8c1.5,0.2,3.3,0.5,5.9,1.9c5.5,3.1,30,21.9,38.1,29.8
		c7.2,7.1,18.5,11.9,24.6,14.4c0.8,0.3,1.4,0.6,2,0.8c0.8,0.3,1.8,0.7,2.9,1.2c6.3,2.4,17.9,6.8,23.6,15.9c4,6.4,6.7,12.8,8.7,17.5
		c1.4,3.3,2.4,5.7,3.2,6.6c2.1,2.2,8.5,14.9,8.4,19.5c-0.1,2.8-1.3,5.3-2.7,8c-1,1.9-1.9,3.9-2.6,6.1c-1.6,5.5-4.1,12-5.6,13.4
		c-1.4,1.2-3.5,1.6-5.9,2.1c-0.4,0.1-0.8,0.2-1.2,0.2c-1.4,0.3-3.9,1.2-5.7,2c-1.1,0.4-2,0.8-2.5,1.1c-0.3,0.1-0.5,0.2-0.7,0.3
		c-0.1,0-0.2,0-0.3,0c-0.9,0.2-3.5,0.6-5-0.2c-1.9-1.2-5.4-5.6-6.5-7.7c-0.3-0.7,0-1.6,0.8-2.3c1.5-1.4,4.4-1.8,7.4,0.2l3.2,2l0-0.5
		c0-0.2,0.5-4.2,5.5-5l-0.1-0.6c-4.5,0.7-5.6,3.8-5.9,5l-2.4-1.5c-3.3-2.2-6.5-1.6-8.1-0.1c-1,0.9-1.4,2.1-0.9,3
		c1.2,2.2,4.7,6.4,6.7,7.7C281,352.2,282,352,283,352z"/>
	<path class="st0" d="M210.6,202.1c0.7-7.5-1.6-13.2-3.6-16.7c-1.9-3.3-3.9-5.2-4.5-5.7c1.3-5.4-2.4-19.7-4-23.8
		c-1.6-4.1-4.1-7.6-4.4-8c-2.3-8.3-12.4-14.2-15.4-15.8c0,0-0.1,0-0.1,0l-0.1,0.2l0.1-0.3l-0.4,0.1c-0.1,0.3,0.1,0.4,0.2,0.5
		c1.4,0.7,4.2,2.3,7.1,4.7c4.3,3.5,7,7.1,8,10.8l0,0.1l0,0c0,0,2.7,3.6,4.3,7.9c1.5,4.1,5.3,18.5,3.9,23.6l0,0.2l0.1,0.1
		c0,0,2.4,2,4.5,5.7c2,3.4,4.2,9,3.5,16.3L210.6,202.1z"/>
	<path class="st0" d="M238.8,240.9c0.1-0.1,6.2-7,10.1-11.8c4-4.9,20.1-29.1,23.7-35.4c4.5-8,8.9-16.7,10.9-25.7
		c0.9-4.3,0.6-9.9-1-16.5c-1.1-4.7-2.9-9.9-5.3-15.6c-1.7-4.1-4.3-7.1-7-10.2c-2.9-3.3-5.8-6.7-7.8-11.7c-1.9-5-3.9-6.7-5.1-7.2
		c-1-0.4-1.7-0.2-1.7-0.2l0.2,0.6c0,0,3-1,6.1,7.1c2,5.1,5,8.5,7.9,11.9c2.7,3.1,5.2,5.9,6.9,10c5.7,13.6,7.9,24.5,6.3,31.8
		c-2.2,10.1-7.8,20.1-10.8,25.5c-3.6,6.4-19.7,30.5-23.6,35.4c-3.9,4.8-10,11.7-10.1,11.7L238.8,240.9z"/>
	<path class="st0" d="M195.6,210.7c7.2-1.9,15.1-8.5,22.7-15c3.5-2.9,6.8-5.7,10-8c7.1-5.1,13.7-13.5,19-20.1
		c2.4-3.1,4.5-5.7,6.2-7.5c2.7-2.7,5-4,6.4-4.5c1.6-0.6,2.5-0.5,2.5-0.5l0-0.6c-0.2,0-4.1-0.2-9.4,5.2c-1.7,1.7-3.8,4.4-6.3,7.5
		c-5.3,6.6-11.8,14.9-18.9,20c-3.2,2.3-6.5,5.1-10,8.1c-7.6,6.4-15.4,13-22.5,14.8L195.6,210.7z"/>
	<path class="st0" d="M230.8,132.4c0.1,0,8-2,9.6-2.3l-0.1-0.6c-1.6,0.3-9.4,2.2-9.7,2.3L230.8,132.4z"/>
	<path class="st0" d="M223.5,153.7"/>
	<path class="st0" d="M252.4,161.2l0.5-0.4c-1.5-1.9-3.8-5-4-5.6c0-0.1-0.2-0.4-0.4-0.9c-1.1-2.3-4.4-9.3-4.1-11.8
		c0.2-2.3-0.9-5.5-2.1-8.6c-0.4-1.1-0.8-2.1-1.1-3.1c-1.2-3.6,0-9.9,0-9.9l-0.6-0.1c0,0.3-1.2,6.4,0,10.2c0.3,1,0.7,2,1.1,3.1
		c1.1,3,2.3,6.2,2.1,8.4c-0.3,2.6,3,9.5,4.2,12.1c0.2,0.4,0.3,0.7,0.4,0.8C248.6,156.3,252,160.7,252.4,161.2z"/>
	<path class="st0" d="M251.9,161.2l0.3-0.5c0,0-4.8-2.7-7-5c-0.1-0.2-0.7-0.6-4.3-0.4c-3.9,0.2-9.6-0.3-10.4-0.9
		c-0.9-0.6-3.3-1.5-3.4-1.5l-0.2,0.6c0,0,2.4,0.9,3.3,1.5c0.6,0.4,3,0.7,4.3,0.8c2.1,0.2,4.6,0.2,6.4,0.2c3.1-0.1,3.7,0.1,3.8,0.2
		l0,0C247,158.5,251.7,161.1,251.9,161.2z"/>
	<path class="st0" d="M210,149.4c1.2,0,2.5-0.4,3.9-1.2c1.2-0.7,2-1.5,2-1.5l-0.4-0.4c0,0-3.1,3-6.1,2.6c-2.6-0.4-4.4-3.3-4.8-4
		l2.7-3.3c2.7-2.7,10.4-9.5,10.5-9.6l-0.4-0.5c-0.1,0.1-7.9,7-10.6,9.7l0,0l-3,3.6l0.1,0.2c0,0,0.5,1,1.4,2.1
		c1.2,1.4,2.6,2.3,3.9,2.5C209.6,149.4,209.8,149.4,210,149.4z"/>
	<path class="st0" d="M251.2,159.7l0.5-0.3c0-0.1-4.2-5.9-5.2-8.7c-1.2-3.2-2-6.2-2.1-8.1c-0.1-0.9,0.2-1.9,0.5-2.8
		c0.4-1.2,0.7-2.3,0-2.8l-0.4,0.5c0.3,0.3,0.1,1.2-0.2,2.2c-0.3,0.9-0.6,2-0.5,3c0.1,1.9,0.9,4.9,2.1,8.2
		C246.9,153.7,251,159.5,251.2,159.7z"/>
	<path class="st0" d="M229.1,232.7c4.1-1,14-20,22.7-36.7c5.3-10.2,9.9-19.1,12.3-22.1c6.3-7.9,8.3-19.3,8.3-19.5
		c0.8-12.7-11.6-28.6-17.6-36.2c-1-1.3-1.8-2.3-2.3-3c-2-2.8-4.3-3.9-5.8-4.2c-1.6-0.4-2.8-0.2-2.8-0.2l0,0.1c0,0,1.2-0.3,2.8,0.2
		c1.5,0.4,3.7,1.4,5.7,4.2c0.5,0.8,1.3,1.8,2.3,3c6,7.6,18.3,23.4,17.6,36.1c0,0.1-2,11.5-8.3,19.4c-2.4,3-7,11.9-12.3,22.1
		c-4.2,8-8.9,17.1-13,24.1C234.1,228.1,230.9,232.2,229.1,232.7L229.1,232.7z"/>
	<path class="st0" d="M253.7,156.4c0.2,0,0.3-0.1,0.4-0.2c1.1-1.1,7.9-6.9,9.4-5.7c0.1,0.1,0.3,0.1,0.4,0.1c0.1,0,0.2-0.2,0.2-0.4
		c0.2-1.9-2.3-8.8-5.3-10.9c-1.8-1.2-3.4-5.1-5-9.2c-1.7-4.3-3.5-8.6-5.7-10.1c-7.4-5-11.9-4.2-13.1-3.8l0,0.1
		c1.2-0.4,5.7-1.2,13.1,3.8c2.2,1.5,3.9,5.9,5.6,10.1c1.7,4.1,3.2,7.9,5,9.2c3,2,5.5,8.9,5.3,10.8c0,0.2-0.1,0.3-0.2,0.4
		c-0.1,0-0.2,0-0.3-0.1c-1.7-1.2-8.8,5-9.5,5.7C254,156.3,253.8,156.3,253.7,156.4c-1.5-0.2-4-3.2-5.9-6.1c-1.4-2.1-2-5-1.8-8
		c0.2-2.7,1-5.2,2.1-6.6c2.2-2.7,3.9-6.3,3.9-6.3l-0.1,0c0,0-1.7,3.6-3.9,6.3c-1.2,1.4-2,3.9-2.1,6.6c-0.2,3.1,0.5,5.9,1.8,8.1
		c2.8,4.3,4.9,5.9,5.8,6C253.6,156.4,253.7,156.4,253.7,156.4z"/>
	<path class="st0" d="M211.6,216.4c11.9,0,23.7-10.9,28.5-15.2c0.5-0.4,0.9-0.8,1.2-1.1c2.5-2.2,2.2-8.8,1.9-14.1
		c-0.1-2.6-0.2-5.6,0.1-6.6c0.1-0.3,0.3-1.3,0.4-1.3c0,0,0,0,0,0c0.6,0,1.6,2.6,2.5,4.4c0.9,1.7,1.7,3.7,2.4,4.2
		c0.1,0.1,0.3,0.3,0.5,0.2c2-0.5,6.7-8.3,8.4-11.3c0.1-0.2,0.3-0.4,0.4-0.6c0.2-0.3,0.2-0.6,0.1-0.8c-0.3-0.6-1.5-0.8-3-1
		c-1.6-0.2-3.4-0.5-4.2-1.4c-0.3-0.3-0.4-0.6-0.3-1c0.3-1.9,4.5-4.6,8-6.6c3.7-2.1,3-8,3-8l-0.1,0c0,0.1,0.7,5.9-3,7.9
		c-5.1,2.8-7.8,5.1-8,6.6c-0.1,0.4,0,0.8,0.3,1.1c0.8,0.9,2.7,1.2,4.3,1.4c1.4,0.2,2.7,0.4,2.9,1c0.1,0.2,0.1,0.5-0.1,0.8
		c-0.1,0.2-0.2,0.4-0.4,0.6c-1.8,3-6.5,10.9-8.4,11.3c-0.2,0-0.3,0-0.4,0c-0.7-0.4-1.5-2.1-2.4-3.8c-1-1.9-1.9-3.8-2.6-3.7
		c-0.2,0-0.4,0.2-0.5,0.6c-0.3,1-0.2,3.2-0.1,5.9c0.2,5,0.6,11.8-1.9,14c-0.3,0.3-0.8,0.7-1.2,1.1c-5.2,4.8-19.1,17.6-32.2,14.8
		l0,0.1C209.1,216.3,210.4,216.4,211.6,216.4z"/>
	<path class="st0" d="M197.1,206.9c1.8,0,3.7-0.7,5.4-2c3.1-2.5,4.7-6.5,4.6-11c-0.1-2-1.1-4.5-3.2-7.3c-1.6-2.3-3.9-4.8-6.7-7.5
		c-4.8-4.6-9.6-8.1-9.6-8.1l0,0.1c0,0,4.8,3.6,9.6,8.1c4.4,4.2,9.7,10.2,9.8,14.8c0.2,4.5-1.5,8.5-4.5,11c-2.2,1.7-4.7,2.4-7,1.8
		c-2.7-0.7-3.9-2.7-4.4-4.3c-0.6-1.7-0.5-3.2-0.5-3.2l-0.1,0c0,0-0.1,1.6,0.5,3.3c0.5,1.6,1.7,3.6,4.5,4.3
		C195.9,206.8,196.5,206.9,197.1,206.9z"/>
	<path class="st0" d="M153.6,57c0.3,0,9.8,2.8,14.4,8.2c4.5,5.4,8.6,12.3,9.1,12.7c0.5,0.4-5.9-12.8-9.3-15.3c-3.4-2.5-7.8-5-7.8-5
		L153.6,57z"/>
	<path class="st0" d="M179,131.2c0.1-2,9.8-15.2,13.2-19.7c3.5-4.6,3.3-23.1,3.2-29.2c0-0.6,0-1,0-1.3c0-1,0.8-2.9,4.7-6
		c0.2-0.2,0.2-0.2,0.2-0.2c0,0,0,0-0.1,0l0,0c0,0-0.1,0.1-0.1,0.1c-3.9,3.1-4.7,5-4.7,6c0,0.3,0,0.8,0,1.3
		c0.1,6.1,0.3,24.6-3.2,29.2C188.8,116,179.1,129.2,179,131.2L179,131.2z"/>
	<path class="st0" d="M244.1,144.4l0.5-0.3c0,0-1.3-2.8-1.6-4.2c-0.2-1-1.3-1.8-2.4-2.6c-0.6-0.4-1.1-1.2-1.4-1.6
		c-1.1-1.3-1.3-1.7-1.5-1.7h-0.1l-0.1,0.4c0,0-3.9,2.1-9.3,4.1l0.2,0.7c4.8-1.8,8.4-3.4,9.2-3.8c0.1,0.1,0.4,0.4,1,1.1
		c0.4,0.4,0.9,0.8,1.5,1.3c0.9,0.7,2,1.5,2.2,2.2C242.8,141.5,244.1,144.3,244.1,144.4z"/>
	<path class="st0" d="M218.5,165.7c0.4,0,0.7,0,0.8,0l0,0c2.4-0.5,4.4-2.7,6-6.4c1.1-2.7,1.6-5.4,1.6-5.4l-0.6-0.1
		c0,0.1-1.9,10.2-7.1,11.4c-0.7,0.1-2.7,0.1-3.2-0.8c-0.5-0.8-0.5-2.1-0.5-2.1l-0.6,0c0,0.1,0,1.4,0.5,2.4
		C216,165.5,217.5,165.7,218.5,165.7z"/>
	<path class="st0" d="M227.1,155.1"/>
	<path class="st0" d="M243.9,155.4l0.5-0.3c0,0-2.5-3.9-3.6-5.6c-0.4-0.5-0.7-1.1-1-1.7c-0.7-1.2-1.2-2.2-2-2.7
		c-1.2-0.7-2-1.3-3.3-2.7l-0.4,0.4c1.3,1.4,2.2,2,3.4,2.8c0.7,0.4,1.2,1.5,1.8,2.5c0.3,0.6,0.6,1.1,1,1.7
		C241.4,151.4,243.9,155.3,243.9,155.4z"/>
	<path class="st0" d="M223.2,152.9"/>
	<path class="st0" d="M227.3,141.6"/>
	<path class="st0" d="M231.1,130.6"/>
	<path class="st0" d="M217,162.6c0.6,0,1-0.1,1.1-0.1c2.2-0.4,4.7-2.5,7.2-6.3c1.7-2.5,2.8-4.9,3.1-5.4c0.7-0.4,4.7-2.5,5.6-3.6
		c0.9-1.1,2.9-2.3,2.9-2.4l-0.3-0.5c-0.1,0.1-2,1.3-3,2.5c-0.9,1.1-5.5,3.4-5.6,3.5l-0.1,0l0,0.1c0,0.1-4.9,10.6-9.9,11.5l0,0
		c0,0-2.5,0.6-4.6-1.2l2.4-9.7l-0.6-0.1l-2.5,10l0.1,0.1C214.4,162.3,216,162.6,217,162.6z"/>
	<path class="st1" d="M240.6,122.3c0,0-0.7,3.4-2.9,4.8c-2.3,1.4-7,3.8-7,3.8l0.5,0.9l9.2-1.7L240.6,122.3z"/>
	<path class="st1" d="M239.9,130.8c0,0-0.2,1.3,0.3,2s1.8,4.1,1.8,4.7s0.4,1.7,0.4,1.7s-2.9-2.6-3.4-2.9c-0.5-0.2-1.2-1.2-1.2-1.2
		l-8.7,3.7l-0.6,0.2l1.2-3.5c0,0,2.6-0.2,4.4-1.1c1.7-0.9,1.6-2.2,2.6-2.7S239.9,130.8,239.9,130.8z"/>
	<path class="st1" d="M216,142.7c0,0.2-4.5,6.3-6.6,6.4c0,0,5-0.1,6.3-2.6S216,142.7,216,142.7z"/>
	<path class="st1" d="M237.5,136.8c0,0-0.5,2.3,1,4.3c1.4,2,4.4,7.4,5,9.5c0.6,2.1,5.6,8.5,7,9.3c1.4,0.8-6-3.5-6.9-5
		s-5.9-9.5-5.9-9.5l-3.6-2.7C234.1,142.5,234,137.7,237.5,136.8z"/>
	<path class="st1" d="M240.6,149.6c0,0-0.1,0-0.3-0.1c-0.9-0.2-3.8-0.8-5.8-0.6c-2.4,0.3-4.1,0.2-4.1,0.2s4.1-2.8,4.5-2.9
		c0.4-0.2,5,1.2,5,1.2s0.2,1.9,0.5,2.1"/>
	<path class="st0" d="M219.4,152.4c0.8,0,1.5-0.2,2.2-0.5c1.8-0.8,3.2-2.6,4.3-5.4c0.7-1.9,1.1-3.5,1.1-3.8
		c2.6-4.9,3.9-11.7,3.9-11.8l-0.6-0.1c0,0.1-1.3,6.9-3.9,11.7l0,0l0,0c0,0.1-1.2,7.1-5.1,8.9c-1.6,0.7-3.4,0.5-5.5-0.7
		c0.1-1.8,1.3-15.8,2.1-18.8c0.8-2.9,5.1-9.6,6.9-10.5l-0.3-0.5c-1.9,0.9-6.3,7.5-7.2,10.9c-0.9,3.3-2.1,18.5-2.1,19.1l0,0.2
		l0.2,0.1C216.8,152,218.1,152.4,219.4,152.4z"/>
	<path class="st0" d="M219.2,150.9c3.8,0,4.7-3.8,5.3-6.1c0.2-1,0.4-1.7,0.7-1.7c0.7,0,1.8-3,2.2-4.2c0.8-2.3,1.4-4.8,1.5-6.1
		c0.1-1.5-0.5-2-0.9-2.3c-0.3-0.3-0.5-0.4-0.3-0.8c0.1-0.2,0.3-0.3,0.5-0.4c0.6-0.1,1.2,0.7,1.3,0.7l0,0l3.1-1.6
		c3-1.4,4.6-3.6,5.4-5.2c0.9-1.7,1.1-3.1,1.1-3.1l-0.1,0c0,0.1-0.7,5.5-6.4,8.3l-3.1,1.6c-0.1-0.1-0.7-0.8-1.3-0.8
		c-0.2,0-0.4,0.2-0.6,0.4c-0.3,0.5,0,0.7,0.3,0.9c0.4,0.3,1,0.8,0.9,2.2c-0.1,1.2-0.7,3.7-1.5,6c-0.9,2.5-1.7,4.1-2.1,4.2
		c-0.3,0-0.5,0.7-0.8,1.8C223.8,147,222.9,150.8,219.2,150.9c0-0.1-0.1-0.1-0.1-0.1c0,0-1.9-0.4-2.2-0.7c-0.2-0.2,0.2-2,0.4-2.7
		c0.3,0.2,2.5,1.4,3.6,0.7l0-0.1c-1.2,0.7-3.6-0.7-3.6-0.7l0,0l0,0c-0.1,0.3-0.7,2.5-0.4,2.8c0.3,0.3,2.2,0.7,2.3,0.7
		C219.1,150.9,219.1,150.9,219.2,150.9z"/>
	<path class="st0" d="M217.3,159.8c0.5,0,1-0.1,1.6-0.3c1.4-0.5,2.7-1.6,3.7-2.6c0.3-0.2,0.5-0.5,0.7-0.7c2.1-1.8,2.5-6.2,2.5-7
		c0-0.1,0-0.2,0.1-0.3c0.3-0.2,1.3,0.4,1.6,0.7l0,0l4.2-3.6c0.9-1.1,1-2.5,0.2-4.2c-0.6-1.3-1.5-2.3-1.5-2.3l-0.1,0
		c0,0,3.4,3.9,1.3,6.4l-4.2,3.6c-0.2-0.1-1.3-0.9-1.7-0.7c-0.1,0.1-0.2,0.2-0.2,0.3c0,0.8-0.4,5.2-2.5,7c-0.2,0.2-0.5,0.4-0.7,0.7
		c-2.1,1.9-4.9,4.4-8.3,1.5l0,0.1C215.1,159.3,216.2,159.8,217.3,159.8z"/>
	<path class="st0" d="M236.7,153.7c3.1,0,5.8-0.3,5.9-0.3l0-0.1c-0.1,0-11.7,1.3-14.5-1.5l-0.1,0.1
		C229.5,153.3,233.3,153.7,236.7,153.7z"/>
	<path class="st0" d="M218.2,164c1.2,0,2.3-0.8,3.4-2.2c1-1.4,1.6-3,1.6-3l-0.1,0c0,0.1-2.3,6.2-5.8,5l-1-1.5l-0.1,0l1,1.5l0,0
		C217.6,163.9,217.9,164,218.2,164z"/>
	<path class="st0" d="M206.6,146.8c1.9,0,4.2-0.6,5.3-3c0.8-1.8,0.5-3.9,0.4-4c0,0,0,0,0,0c0-0.4,3.3-3,4.6-3.9l0-0.1
		c-0.5,0.4-4.6,3.5-4.6,4c0,0,0,0.1,0,0.1c0.1,0.1,0.4,2.1-0.4,4c-1.2,2.6-3.7,3.1-5.6,3l0,0.1C206.3,146.8,206.5,146.8,206.6,146.8
		z"/>
	<path class="st0" d="M189.5,170.2c2.2,0,3.9-2,4.5-4.1c0.3-1,0.3-2,0.1-2.8c-0.3-0.9-0.8-1.5-1.7-1.9l0,0.1
		c1.2,0.5,2.3,1.9,1.5,4.6c-0.7,2.3-2.7,4.5-5.1,4c-3.6-0.7-3.7-8.9-3.8-14.9c0-1.4,0-2.6-0.1-3.7c-0.3-5.4-5.9-9.6-5.9-9.7l0,0.1
		c0.1,0,5.6,4.3,5.9,9.6c0.1,1,0.1,2.3,0.1,3.7c0.1,6,0.2,14.2,3.9,15C189.1,170.2,189.3,170.2,189.5,170.2z"/>
	<path class="st0" d="M180.9,46.6c2.3,0,5.2-1.4,7.5-3.7c3-3,8.8-6.5,12.7-8.9c0.8-0.5,1.6-1,2.2-1.4c3.6-2.3,1.4-6.8,1.4-6.8
		l-0.1,0c0,0,0.6,1.1,0.7,2.5c0.1,1.3-0.2,3-2,4.2c-0.6,0.4-1.4,0.9-2.2,1.4c-3.9,2.4-9.7,5.9-12.7,8.9c-2.4,2.4-5.4,3.9-7.7,3.7
		c-1.1-0.1-2-0.5-2.6-1.3l-0.1,0c0.6,0.8,1.5,1.2,2.7,1.3C180.6,46.6,180.7,46.6,180.9,46.6z"/>
	<path class="st0" d="M218.3,51c0,0-2.2,0.9-2.4,2.5c-0.2,1.6-0.4,5.1-1.4,5.3c-1,0.2-2.6-0.5-2.6-0.5c0.6,1.3-3-2.9-1.9-2.4
		c1.1,0.5,2.2,1.9,2.9,0.4S216.4,50.3,218.3,51z"/>
	<path class="st0" d="M272.7,85.7c1.5,0,2.4-0.9,2.5-1l-0.5-0.5c-0.1,0.1-1.3,1.3-3.3,0.5l-0.3,0.7
		C271.6,85.7,272.2,85.7,272.7,85.7z"/>
	<path class="st0" d="M272,84.7c0.6,0,1.1-0.2,1.4-0.6c0.7-0.8,0.6-2.3,0.5-3c-0.2-0.9,1.1-1.5,1.1-1.5c1-0.2,1.9,0.8,2.8,1.8
		c0.4,0.4,0.7,0.8,1.1,1.2c0.7,0.6,1.2,0.9,1.4,0.8c0.1,0,0.2-0.2,0.2-0.2l-0.1,0c0,0,0,0.1-0.1,0.1c-0.1,0-0.5,0-1.4-0.8
		c-0.4-0.4-0.8-0.8-1.1-1.2c-0.9-1.1-1.8-2.1-2.9-1.8c-0.1,0-1.4,0.7-1.2,1.6c0.2,0.7,0.2,2.2-0.5,2.9c-0.4,0.4-1,0.6-1.9,0.5l0,0.1
		C271.7,84.7,271.8,84.7,272,84.7z"/>
	<path class="st0" d="M259.5,86.7c0.1,0,0.1,0,0.2,0c3.1-0.1,4.4-3,4.5-3l-0.1,0c0,0-1.3,2.9-4.4,3c-1.1,0-2.3-0.2-3.6-0.5
		c-2.4-0.5-4.9-1-6.9,0.3l0,0.1c1.9-1.2,4.4-0.7,6.8-0.3C257.3,86.4,258.5,86.7,259.5,86.7z"/>
	<ellipse class="st0" cx="270.9" cy="40" rx="1.4" ry="1.1"/>
	
		<ellipse transform="matrix(-0.6212 -0.7837 0.7837 -0.6212 420.5653 339.9846)" class="st0" cx="292.5" cy="68.3" rx="1.4" ry="1.1"/>
	
		<ellipse transform="matrix(-0.6212 -0.7837 0.7837 -0.6212 302.7625 358.058)" class="st0" cx="237.9" cy="105.8" rx="0.8" ry="0.6"/>
	
		<ellipse transform="matrix(-0.6212 -0.7837 0.7837 -0.6212 345.856 359.9084)" class="st0" cx="259.9" cy="96.4" rx="0.8" ry="0.6"/>
	<ellipse class="st1" cx="259.6" cy="74.6" rx="2.1" ry="1.8"/>
	<path class="st1" d="M274,83.5c0,0-0.6,1.5-2.5,1.2l0.5-2.3L274,83.5z"/>
	<path class="st0" d="M258.4,101.3c0,0,0.6,2.5-0.5,1.7c-1.1-0.8,0.2-2.7-3.2-4.3c0,0-1.9-1-1.2-1.5
		C254,96.9,258.5,99.7,258.4,101.3z"/>
	<path class="st0" d="M258.5,103.8c0,0-1.8,0.4-2.3,2.4h-1C255.2,106.2,256.3,103,258.5,103.8z"/>
	<path class="st1" d="M240,102.5c0,0,5.7,4.7,4.2,5.5c-0.3,0.2-2,1.4-2,1.4s-2-6.6-2.6-6.8"/>
	<path class="st0" d="M255.9,103.2c0.9,0,1.8-1,1.8-1l-0.1-0.1C257.7,102.2,256.8,103.2,255.9,103.2c-0.5-0.1-0.8-0.3-1.1-0.7
		c-0.4-0.5-0.6-1.2-0.7-1.8c-0.4-1.3-0.7-2.4-2.4-2.1c-2.4,0.4-5.1,2.4-5.1,2.4l0,0.1c0,0,2.7-2,5.1-2.4c1.6-0.3,1.9,0.8,2.3,2.1
		c0.2,0.6,0.4,1.3,0.7,1.8c0.3,0.4,0.6,0.7,1,0.7C255.9,103.2,255.9,103.2,255.9,103.2z"/>
	<path class="st0" d="M193,209.8c1.7,0,4.2-1,4.3-1.1l0.1-0.1l-0.2,0c-2.2-0.2-4-4.1-5.2-11.5c-1.2-6.9-1.5-14.6-1.5-16.7
		c-0.1-3.9-2-8.3-3.5-11.4c-1.7-3.3-3.3-5.8-3.3-5.8l-0.1,0c0,0,1.7,2.5,3.3,5.8c1.5,3.1,3.4,7.5,3.5,11.3c0.1,2.8,1,27.4,6.7,28.3
		c-0.7,0.3-3.8,1.4-5,0.9c-0.5-0.2-1.3-1.9-2.2-5.7c-0.7-3-1.1-5.7-0.9-6.4l-0.1,0c-0.5,1.6,1.8,11.6,3.2,12.2
		C192.3,209.8,192.6,209.8,193,209.8z"/>
	<path class="st0" d="M177.9,104.8C177.9,104.8,178,104.8,177.9,104.8L177.9,104.8C178,104.8,178,104.8,177.9,104.8
		c0.1-0.1,0.3-0.3,0.8-0.7c0.6-0.5,1.6-1.4,2.9-2.6c2.4-2.2,2.9-6.6,1.3-13.4c-1.3-5.9-3.9-12.6-5.9-17.9c-1.9-5-3.4-8.9-3.4-10.5
		c0-0.6,0.2-1,0.5-1.1c1.1-0.4,4,2.8,6.9,5.8c2.3,2.5,4.4,4.8,5.7,5.4c0.7,0.3,1.3,0.3,1.8-0.1c1.7-1.4,1.6-6.7,1-10
		c-0.5-2.4,1.3-4.8,2.8-6.5c1.7-1.8,3.5-3,3.5-3l0-0.1c0,0-1.8,1.2-3.5,3c-1,1-1.7,2.1-2.2,3.1c-0.6,1.2-0.8,2.4-0.6,3.5
		c0.8,3.9,0.6,8.7-0.9,10c-0.5,0.4-1,0.4-1.7,0.1c-1.3-0.6-3.4-2.9-5.7-5.4c-2.8-3.1-5.8-6.3-6.9-5.9c-0.3,0.1-0.5,0.5-0.5,1.2
		c0,1.6,1.5,5.6,3.4,10.5c2.1,5.4,4.6,12.1,5.9,17.9c1.5,6.9,1.1,11.2-1.3,13.4c-0.2,0.2-0.4,0.3-0.5,0.5l0,0c0-0.1-2.7-10.8-8-21
		c-3.2-6-6.6-10.7-10.3-14c-4.6-4.1-9.6-5.9-14.7-5.4l0,0.1c5.1-0.5,10.1,1.3,14.7,5.3c3.7,3.3,7.1,8,10.3,14c5.2,10,7.9,20.5,8,21
		c-0.1,0.1-0.8,0.7-1.5,1.4C178.4,104.3,178.1,104.6,177.9,104.8C177.9,104.7,177.9,104.7,177.9,104.8L177.9,104.8
		C177.9,104.8,177.9,104.8,177.9,104.8C177.9,104.8,177.9,104.8,177.9,104.8z"/>
</g>
</svg>
