
<svg version="1.1" id="Layer_1" xmlns="http://www.w3.org/2000/svg" xmlns:xlink="http://www.w3.org/1999/xlink" x="0px" y="0px"
	 width="199px" height="243.8px" viewBox="0 0 199 243.8" style="enable-background:new 0 0 199 243.8;" xml:space="preserve">
<g>
	<g>
		<path class="st0" d="M121.7,243.8c-2.6,0-5.2-1.5-6.4-3.7c-1-1.9-0.8-3.9,0.7-5.5c-0.1-0.9-1.3-8.6-0.6-19.6
			c0.4-6.8,1.3-13.6,2.9-20.1c1.9-8.1,4.7-15.8,8.3-22.9c0.1-0.2,8.2-14.8,17.1-26.4c11.7-15.3,17.6-25.9,17.9-32.4l0,0
			c0,0,0.3-1.7-0.7-2.8c-0.7-0.8-1.9-1.2-3.6-1.1c-1.4,0.1-33.7,1.7-41.8-2.8l-0.8-0.4l0.9,0.1c0.1,0,0.9-0.3,1.7-4.3l0.4,0.1
			c-0.7,3-1.3,4-1.7,4.4c3.3,1.6,10.6,2.6,21.3,2.9c9.8,0.2,19-0.2,20-0.3c1.8-0.1,3.1,0.3,3.9,1.2c1.1,1.2,0.8,2.9,0.8,3.1
			c-0.2,3.7-2.1,8.7-5.8,14.9c-2.9,5-6.9,10.8-12.2,17.7c-8.9,11.6-17,26.2-17.1,26.3c-3.6,7.1-6.4,14.7-8.3,22.8
			c-1.5,6.5-2.5,13.2-2.9,20c-0.6,11.6,0.6,19.5,0.7,19.6l0,0.1l-0.1,0.1c-1.4,1.5-1.7,3.3-0.7,5.1c1.1,2.1,4,4,7.2,3.4
			c1.4-0.3,2.3-0.8,2.7-1.7c0.8-1.7-0.5-3.9-0.5-3.9l0,0l-0.3-2.2c-1-10.4,1.9-21.1,4.5-28.2c3.1-8.3,7.4-16.2,11.4-20.6
			c3.4-3.8,8-8.5,13.4-13.9c6-6.1,12.9-13,19.8-20.6c0.4-0.5,0.9-0.9,1.3-1.4c12.6-13.7,24.6-26.6,23.4-53.3
			c-0.3-6.6-1.4-12.6-3.4-17.7c-1.6-4.1-3.6-7.7-6.2-10.7c-4.3-5.1-8.5-6.7-8.6-6.7l0,0c-6.7-3.5-14.3-6-22.6-7.2
			c-6.6-1-13.6-1.3-20.9-0.9c-12.4,0.7-21.2,3.4-21.3,3.4l-0.1-0.4c0.1,0,9-2.7,21.4-3.4c7.3-0.4,14.3-0.1,21,0.9
			c8.3,1.3,15.9,3.7,22.7,7.3c0.3,0.1,4.4,1.8,8.7,6.8c2.6,3,4.7,6.7,6.2,10.8c2,5.2,3.1,11.2,3.4,17.8
			c1.2,26.9-10.8,39.9-23.5,53.6c-0.4,0.5-0.9,0.9-1.3,1.4c-7,7.5-13.8,14.5-19.9,20.6c-5.3,5.4-10,10.1-13.4,13.9
			c-3.9,4.4-8.2,12.2-11.3,20.5c-1.7,4.7-3,9.4-3.8,13.9c-0.9,5.1-1.1,9.8-0.7,14.1l0.3,2.2c0.2,0.3,1.3,2.5,0.5,4.2
			c-0.5,1-1.5,1.7-3,1.9C122.5,243.8,122.1,243.8,121.7,243.8z"/>
		<path class="st0" d="M115,106.5c-1.6,0-2.7-4-3.3-7.3c-0.8-4.6-1.3-10.8-1.3-17.4c0-6.6,0.5-12.7,1.3-17.4
			c0.6-3.3,1.7-7.3,3.3-7.3c1.6,0,2.7,4,3.3,7.3c0.8,4.6,1.3,10.8,1.3,17.4c0,6.6-0.5,12.7-1.3,17.4
			C117.7,102.5,116.6,106.5,115,106.5z M115,57.4c-2,0-4.2,9.8-4.2,24.4c0,14.6,2.2,24.4,4.2,24.4s4.2-9.8,4.2-24.4
			C119.2,67.2,117,57.4,115,57.4z"/>
		<ellipse class="st1" cx="114.3" cy="81.7" rx="1.8" ry="16.2"/>
		<path class="st0" d="M144.2,97.4c-1.5,0-3.1,0-4.7-0.1c-10.6-0.5-19.2-2.6-19.3-2.6l0-0.1c0.1,0,8.6,2.1,19.3,2.6
			c6.2,0.3,12,0,17-0.9c6.3-1.1,11.6-3.1,15.7-6c4.8-3.4,8.1-7,10-10.9c1.5-3.2,2-6.5,1.3-9.6c-0.9-3.9-3.7-6.9-6.8-7.4l0-0.1
			c1.5,0.2,3,1.1,4.2,2.4c1.3,1.4,2.2,3.1,2.7,5.1c0.7,3,0.3,6.4-1.3,9.6c-1.9,3.9-5.2,7.6-10,10.9c-4.1,2.9-9.4,4.9-15.8,6
			C152.8,97.1,148.6,97.4,144.2,97.4z"/>
		<path class="st0" d="M122.7,241.1c-0.2,0-0.4,0-0.7-0.1c-2.6-0.5-4.9-5.2-5-5.4l0,0l0,0c0,0,0.1-0.9,0.7-1c0.4-0.1,1,0.4,1.6,1.3
			c0.5,0.8,0.9,1.1,1.1,1.1c0.4-0.1,0.4-1.7,0.4-3c0-0.2,0-0.4,0-0.6c0-0.2-0.1-0.8-0.2-1.7c-0.5-4.4-1.8-16.1-0.7-29.3
			c0.7-7.5,2-14.2,4.1-20.2c2.5-7.2,6-13.2,10.4-17.8l0,0l0,0c0.1,0.1,4.5,3.9,8.6,6.9c1.6-1.4,3.2-2.8,4.9-4.2
			c9.9-8.2,16.9-18.9,21.1-26.3c4.6-8.2,8.1-17.1,9.1-22.7c0.5-3.3,0.1-5.7-1.3-7.2c-2.2-2.4-6.4-2-8.4-1.8c-1.4,0.1-2.2,0-2.5-0.5
			c-0.3-0.5,0.1-1.2,0.1-1.2l0,0l0,0c2.5-0.8,5.1-2.9,7.9-6.2c2.2-2.6,4.6-6.1,6.9-10.2c4-7,6.8-13.7,6.8-13.8l0.1,0
			c0,0.1-2.8,6.8-6.8,13.8c-2.4,4.1-4.7,7.6-7,10.2c-2.8,3.3-5.5,5.4-8,6.2c-0.1,0.1-0.4,0.7-0.1,1.1c0.3,0.5,1.1,0.6,2.5,0.5
			c2-0.2,6.2-0.6,8.5,1.8c1.4,1.5,1.9,4,1.3,7.3c-0.9,5.6-4.5,14.6-9.1,22.8c-4.2,7.5-11.2,18.1-21.1,26.4c-1.7,1.4-3.3,2.8-4.9,4.1
			c2.9,2.2,5.8,3.9,6.9,3.7l0,0.1c-0.1,0-0.1,0-0.2,0c-1.3,0-4-1.7-6.8-3.7c-6.4,5.6-11.6,10.9-15.1,19c-4.6,10.7-5.9,25.6-4.4,48.5
			c0,0.1,0.4,1.2-0.1,1.8C123.4,241,123.1,241.1,122.7,241.1z M117.1,235.7c0.1,0.3,2.5,4.8,4.9,5.3c0.7,0.2,1.2,0.1,1.5-0.2
			c0.5-0.6,0.1-1.7,0.1-1.7l0,0c-1.6-22.9-0.2-37.8,4.4-48.5c2-4.6,4.6-8.6,8.4-12.6c2.1-2.2,4.3-4.3,6.7-6.4
			c-4-2.9-8.1-6.5-8.6-6.9c-4.4,4.6-7.9,10.6-10.3,17.8c-2,5.9-3.4,12.7-4.1,20.1c-1.2,13.2,0.2,24.9,0.7,29.3
			c0.1,0.9,0.2,1.5,0.2,1.7c0,0.2,0,0.4,0,0.6c0,1.5,0,3-0.5,3.1c-0.3,0.1-0.7-0.3-1.2-1.1c-0.6-0.9-1.2-1.4-1.5-1.3
			C117.3,234.9,117.2,235.6,117.1,235.7z"/>
		<path class="st0" d="M145.6,167.5L145.6,167.5c-0.9-0.2-2.9-1.7-6-4.3c-2.3-1.9-4.4-3.8-4.4-3.8l0.1-0.1c0.1,0.1,8.2,7.5,10.3,8.1
			c0.4-0.4,5.9-6.4,11.8-13.9c5.6-7.1,12.6-17,14.3-23.8l0.1,0c-1.7,6.8-8.7,16.7-14.3,23.8C151.4,161.3,145.7,167.4,145.6,167.5
			L145.6,167.5z"/>
		<path class="st1" d="M159,109.2c0,0,13.5,2.9,4.1,16.1s-26.9,34-36,49c-9.1,15-11.7,50.8-9.4,60.8l-1.5-0.4c0,0-1.3-15.4-0.7-21.3
			c1.5-14.1,5.9-30.6,9.6-38c3.5-7,13.8-24,19.1-30.2c5.2-6.1,14.1-20.6,15.6-24.6C159.8,120.6,164.9,110.2,159,109.2z"/>
		<path class="st1" d="M117.5,234.9c0,0-0.4,0.8,1.1,2.6c1.5,1.8,3.7,4.7,6.1,3.1c0,0-6.3-3.9-6.1-5.1
			C118.9,234.4,118,234.4,117.5,234.9z"/>
		<path class="st1" d="M117,57.8c0,0,0.9,0.8,2.8,6.3c0.1,0.4,52.1-8.4,70.5,6.6c0,0-0.8-7.4-25.7-14.9
			C164.6,55.9,145.6,51.3,117,57.8z"/>
		<path class="st0" d="M84.7,76.1c-3.7,0-7.1-1.4-10.1-4.3c-0.5-0.4-0.9-0.9-1.4-1.4C67.6,65,59.3,56.7,43.9,65
			c-2.8,1.5-5.3,3-7.6,4.4C30,73.2,25.4,76,21,74.8c-3.5-0.9-6.8-4.3-10.7-11l0.3-0.2c3.8,6.6,7,9.9,10.4,10.8
			c4.3,1.1,8.8-1.6,15.1-5.4c2.2-1.3,4.8-2.9,7.6-4.4c3.6-2,7.1-3.1,10.4-3.5c2.8-0.3,5.6,0.1,8.2,1c4.8,1.7,8.3,5.2,11.1,8
			c0.5,0.5,1,1,1.4,1.4c2.9,2.8,6.2,4.2,9.8,4.2c4.1,0,8.8-2.1,14-5.6c3.9-2.6,7.6-4.3,11-4.3c0,0,0,0,0,0c2.7,0,4.4,1.1,5.1,1.5
			c0.1,0,0.2,0.2,0.2,0.3c0,0-0.1,0.1-0.2,0.1c0,0,0,0.1,0,0.2l0.3-0.2c0,0,0.1,0.2,0,0.3c-0.1,0.1-0.2,0.1-0.5-0.1
			c-5.6-2.7-11.7,0-15.8,2.8C93.6,74.3,88.9,76.1,84.7,76.1z"/>
		<ellipse class="st0" cx="11.8" cy="64.6" rx="4.4" ry="2.6"/>
		<ellipse class="st0" cx="22.6" cy="95" rx="2.6" ry="1.5"/>
		<ellipse class="st0" cx="24.3" cy="69.4" rx="2.6" ry="1.5"/>
		<ellipse class="st0" cx="3.6" cy="61" rx="3.2" ry="1.9"/>
		<path class="st0" d="M112.4,82.4c-0.1,0-0.2,0-0.3,0c-2.7-0.3-4.8-4.5-6.4-7.8c-0.8-1.6-1.5-2.9-2-3.5c-2.2-2.3-5.1-3.5-7.7-3.3
			c-2.2,0.2-4,1.5-5.3,3.5c-0.4,0.6-0.8,1.3-1.1,1.9C87,77.5,84.9,81,80.4,81c-1.3,0-2.8-0.3-4.5-0.9c-2.8-1-4.7-3.2-6.5-5.3
			c-1.8-2-3.6-4.1-6.1-5.1c-2.6-1-4.7-1.1-6.8-0.1c-1.9,0.9-3.4,2.5-5,4.2c-0.9,0.9-1.8,1.9-2.8,2.7c-2.1,1.8-5.3,2.6-8.9,2.4
			c-3.3-0.2-6.5-1.3-8.7-2.9c-1.2-0.9-2.3-2.1-3.3-3.2c-1.3-1.4-2.5-2.8-4-3.6l0.2-0.3c1.6,0.9,2.9,2.3,4.1,3.7
			c1,1.1,2.1,2.3,3.3,3.2c2.1,1.5,5.3,2.6,8.5,2.8c3.6,0.2,6.7-0.6,8.7-2.3c1-0.9,1.9-1.8,2.8-2.7c3.3-3.4,6.4-6.6,12.2-4.2
			c2.6,1.1,4.5,3.2,6.3,5.2c1.8,2.1,3.7,4.2,6.4,5.2c3.5,1.3,6.1,1.2,8.2-0.3c1.9-1.4,3.3-3.7,4.9-6.4c0.4-0.6,0.7-1.2,1.1-1.9
			c1.3-2.2,3.3-3.5,5.5-3.7c2.7-0.3,5.7,1,8,3.4c0.6,0.6,1.3,2,2.1,3.6c1.6,3.3,3.6,7.3,6.2,7.6c1,0.1,2.1-0.4,3.2-1.7
			c-0.3-0.5-0.7-1.1-1-1.6l0.3-0.2c0.4,0.6,0.7,1.2,1.1,1.7l0.1,0.1l-0.1,0.1C114.6,81.8,113.5,82.4,112.4,82.4z"/>
		<path class="st0" d="M25.9,97.9c-1.1,0-2.2-0.6-3.3-1.9l-0.1-0.1l0.1-0.1c0.4-0.6,0.7-1.2,1.1-1.7l0.3,0.2c-0.3,0.5-0.7,1.1-1,1.6
			c1.1,1.2,2.2,1.8,3.2,1.7c2.5-0.3,4.5-4.4,6.2-7.6c0.8-1.6,1.5-3,2.1-3.6c2.3-2.4,5.3-3.7,8-3.4c2.3,0.2,4.2,1.5,5.5,3.7
			c0.4,0.6,0.8,1.3,1.1,1.9c1.6,2.7,3,5.1,4.9,6.4c2.1,1.5,4.7,1.6,8.2,0.3c2.7-1,4.6-3.2,6.4-5.2c1.8-2,3.6-4.1,6.3-5.2
			c5.8-2.4,8.9,0.8,12.2,4.2c0.9,0.9,1.8,1.9,2.8,2.7c2,1.7,5.1,2.6,8.7,2.3c3.2-0.2,6.4-1.3,8.5-2.8c1.2-0.9,2.3-2,3.3-3.2
			c1.3-1.4,2.6-2.8,4.1-3.7l0.2,0.3c-1.5,0.9-2.7,2.2-4,3.6c-1,1.1-2.1,2.3-3.3,3.2c-2.2,1.6-5.4,2.7-8.7,2.9
			c-3.7,0.3-6.9-0.6-8.9-2.4c-1-0.9-1.9-1.8-2.8-2.7c-1.6-1.7-3.2-3.3-5-4.2c-2.1-1-4.2-1-6.8,0.1c-2.5,1-4.4,3.1-6.1,5.1
			c-1.8,2.1-3.8,4.3-6.5,5.3c-1.7,0.6-3.2,0.9-4.5,0.9c-4.5,0-6.6-3.6-9.1-7.8c-0.4-0.6-0.7-1.2-1.1-1.9c-1.3-2.1-3.1-3.3-5.3-3.5
			c-2.6-0.3-5.5,0.9-7.7,3.3c-0.6,0.6-1.2,2-2,3.5c-1.7,3.3-3.7,7.5-6.4,7.8C26.2,97.9,26.1,97.9,25.9,97.9z"/>
		<path class="st0" d="M87.1,94.6c-0.5,0-1,0-1.4-0.1c-3.7-0.5-7.1-3-10.9-7.8c-3.1-4-7.1-6.3-11.8-6.8c-3-0.3-6.2,0-9.3,1.1
			c-2.8,0.9-5.5,2.4-7.6,4.1c-3.5,2.9-8.9,4.4-12.7,5.2c-4.2,0.9-7.6,1.1-7.6,1.1c-0.4,0-0.8,0-1.2,0c-7.3,0-12.9-2.2-16.8-6.5
			c-4-4.4-5.4-10.3-5.8-14.5c-0.5-4.5,0-8,0-8.1l0.4,0c0,0-0.5,3.5,0,8c0.4,4.1,1.8,9.9,5.7,14.3c4,4.5,10,6.6,17.8,6.4
			c0,0,3.4-0.2,7.5-1.1c3.8-0.8,9.1-2.3,12.6-5.2c2.1-1.7,4.9-3.2,7.7-4.1c3.2-1.1,6.5-1.4,9.5-1.1c4.9,0.6,8.9,2.9,12.1,6.9
			c8,10.3,13.5,8.2,20.4,5.6c0.3-0.1,0.6-0.2,0.9-0.3c7.2-2.7,14.4-4.5,18.4,0.6l-0.3,0.2c-3.8-4.9-10.9-3.1-18-0.5
			c-0.3,0.1-0.6,0.2-0.9,0.3C92.7,93.6,89.9,94.6,87.1,94.6z"/>
	</g>
	<path class="st0" d="M114,67.1c-3.2-7.1-18.2-3.3-26.2-1.3c-6.1,1.5-9.3-1.2-15.1-6.1c-2.5-2.1-5.3-4.5-9-7.1
		c-7.5-5.4-14.5,1-20,6.1c-3.7,3.3-6.8,6.2-9.5,5.4c-1.6-0.5-2.8-1.5-3.5-2.9c-1.4-2.9-0.6-7.8,2.5-15.7c2-5.1-1.8-6.9-7.1-9.4
		c-4.5-2.1-10.2-4.7-13.6-10.4c-7.1-12.2,5-21.6,9.6-25.1c0.4-0.3,0.7-0.6,1-0.8l0.3,0.4c-0.3,0.2-0.6,0.5-1,0.8
		C17.9,4.4,6,13.6,12.9,25.4c3.3,5.6,8.9,8.1,13.3,10.2c5.4,2.5,9.6,4.4,7.4,10c-3.1,7.8-3.8,12.5-2.5,15.3c0.6,1.3,1.6,2.1,3.2,2.6
		c2.4,0.8,5.4-2,9-5.3C49,53,56.1,46.5,63.9,52.1c3.7,2.7,6.7,5.2,9,7.2c5.7,4.8,8.8,7.5,14.7,6c8.2-2,23.5-5.9,26.8,1.6L114,67.1z"
		/>
</g>
</svg>
