<svg version="1.1" id="Layer_1" xmlns="http://www.w3.org/2000/svg" xmlns:xlink="http://www.w3.org/1999/xlink" x="0px" y="0px"
	 width="341px" height="383px" viewBox="0 0 341 383" style="enable-background:new 0 0 341 383;" xml:space="preserve">
<g>
	<path class="st0" d="M120.6,73.2"/>
	<path class="st1" d="M59.7,185.7c0,0,1.4-0.2,2.5-0.9c1.1-0.7,2.4-2,3.9-1.6c1.5,0.4,1.8,0.3,3.5,2s2.8,4.1,5.1,3.8s3.1-1.3,3-1.1
		c-0.1,0.2-1.9,2.1-3.7,2.3c-1.8,0.3-4.4-2.1-5.1-3c-0.6-0.8-1.7-2.3-3.2-1.7s-2.3,1-3.4,1c-1.1,0-3.1-0.4-2.5-0.8"/>
	<g>
		<path class="st1" d="M59.2,228.1c0,0,1,0,4.4-1.2c3.3-1.2,3,1.5,5.7,2.6c2.7,1,5.9,2.1,10.2,2.2s6-0.4,8.2-1.5s5.8-3.6,5.7-5.4
			c-0.1-1.8,2.4-2.7,4.6-5.5s2.6-10.2,1.9-8.8s-2.8,2.6-6.8,3c-4,0.4-4.5-3.3-5.5-7.2s-2.3-3-2.3-3s-4.9-4.9-8-5.8
			c-3.1-0.9-4-2.4-5.1-4c-1.2-1.5-2.4-2.7-3.2-3.2s-2.2-0.6-3.3-0.8c-1.2-0.1-2.6-0.5-4.4,0.1c-1.8,0.6-4.4-1-4.4-1s-4.2-0.6-7.9,1
			c-3.8,1.7-11.1,9.6-11.5,19.4c0,0,0.8-4.9,3.8-7.1c0,0-6.6,11.8,3.5,20.5c0,0-1.9-3.9-0.6-4.5C45.2,217.2,45.1,227.6,59.2,228.1z"
			/>
	</g>
	<path class="st0" d="M171.5,208.2C171.5,208.2,171.5,208.2,171.5,208.2c0.1,0.1,0.1,0.2,0.1,0.2c0,0.1,0,0.2,0,0.2
		c0,0.1,0,0.3,0,0.4c0,0.3,0,0.6,0,0.8c0,0.6-0.1,1.1-0.2,1.9c0,0.2-0.1,0.5-0.1,0.9c0,0.2-0.1,0.4-0.1,0.6c0,0.1-0.1,0.3-0.1,0.4
		c0,0.2-0.1,0.4-0.1,0.5c-0.1,0.4-0.2,0.7-0.4,1.1c-0.3,0.7-0.6,1.4-1,2.1c-1.5,2.8-3.9,5.6-6.7,7.9c-2.8,2.4-5.8,4.7-8.8,7
		c-5.9,4.5-11.6,8.7-15.9,11.8c-2.1,1.5-3.9,2.8-5.1,3.7c-1.2,0.9-1.9,1.4-1.9,1.4s-0.7,0.5-1.9,1.4c-1.2,0.9-3,2.1-5.1,3.6
		c-2.1,1.5-4.7,3.3-7.4,5.1c-0.7,0.5-1.4,1-2.1,1.4c-0.4,0.2-0.7,0.5-1.1,0.7c-0.2,0.1-0.4,0.2-0.6,0.3c-0.2,0.1-0.4,0.2-0.5,0.3
		c-0.3,0.1-0.7,0.1-1.1,0c-0.4-0.1-0.8-0.2-1.3-0.3c-0.8-0.3-1.7-0.6-2.5-0.9c-1.7-0.7-3.4-1.5-5-2.4c-1.7-0.9-3.3-1.8-4.9-2.6
		c-1.6-0.9-3.2-1.8-4.7-2.7c-0.8-0.4-1.5-0.9-2.3-1.3c-0.7-0.4-1.4-0.8-2.1-1.2c-0.9-0.5-1.6-0.9-2-1.1c-0.7-0.4-1.3-0.6-1.8-0.7
		c-0.3-0.1-0.6-0.1-0.9-0.2c-0.3,0-0.6-0.1-0.9,0c0.3,0.1,0.6,0.3,0.8,0.4c0.2,0.2,0.5,0.3,0.7,0.5c0.5,0.3,1,0.6,1.7,1
		c0.4,0.2,1.1,0.6,2,1.1c0.7,0.4,1.4,0.8,2.1,1.2c0.7,0.4,1.5,0.8,2.3,1.3c1.5,0.9,3.1,1.8,4.7,2.7c1.6,0.9,3.3,1.8,4.9,2.7
		c1.7,0.9,3.4,1.7,5.1,2.4c0.9,0.4,1.7,0.7,2.6,1c0.5,0.1,0.9,0.3,1.4,0.3c0.5,0.1,1,0.1,1.6,0c0.3-0.1,0.5-0.2,0.7-0.4
		c0.2-0.1,0.4-0.2,0.6-0.4c0.4-0.2,0.7-0.5,1.1-0.7c0.7-0.5,1.4-1,2.1-1.4c2.8-1.9,5.3-3.7,7.5-5.2c2.1-1.5,3.9-2.8,5.1-3.6
		c1.2-0.9,1.9-1.4,1.9-1.4s0.7-0.5,1.9-1.4c1.2-0.9,3-2.1,5.1-3.7c4.2-3.1,10-7.3,15.9-11.8c3-2.3,6-4.6,8.8-7
		c2.9-2.4,5.3-5.2,6.9-8.2c0.4-0.7,0.7-1.5,1-2.3c0.1-0.4,0.3-0.8,0.4-1.1c0.1-0.2,0.1-0.4,0.2-0.6l0.1-0.3l0-0.2
		c0-0.2,0.1-0.4,0.1-0.6c0.1-0.4,0.1-0.7,0.1-0.9c0.1-0.8,0-1.4-0.1-2c-0.1-0.3-0.2-0.6-0.3-0.9c-0.1-0.1-0.1-0.3-0.2-0.4
		c0-0.1-0.1-0.1-0.1-0.2c0,0-0.1-0.1-0.1-0.1C171.6,208.2,171.5,208.1,171.5,208.2z"/>
	<path class="st0" d="M90.7,346.3L90.7,346.3c4.3-7.6,0.9-10.3,8.6-15c9.9-6,22.1-13.5,34.3-31.8l0.1,0.1
		c-12.2,18.3-24.5,25.8-34.4,31.8C91.7,336,95.1,338.6,90.7,346.3z"/>
	<path class="st0" d="M117.7,274.8c-1,0-2-0.1-3.1-0.5c-5.8-1.7-14-16-14.1-16.1l0.1-0.1c0.1,0.1,8.3,14.4,14,16.1
		c3.6,1,6.2,0.1,8.5-0.7c1.5-0.5,2.9-1,4.3-1c3,0.1,3.4-0.5,5.2-3.3c0.4-0.6,0.9-1.4,1.5-2.2c3.1-4.4,10.1-11,17-16
		c3-2.2,8.4-8.4,13.3-15.5c5.3-7.7,8.5-13.9,8.5-16.7h0.1c0,2.8-3.2,9.1-8.5,16.8c-4.9,7.1-10.2,13.3-13.3,15.5
		c-6.9,5-13.9,11.5-17,15.9c-0.6,0.9-1.1,1.6-1.5,2.2c-1.9,2.8-2.3,3.4-5.4,3.3c-1.4,0-2.8,0.4-4.3,0.9
		C121.6,274.2,119.8,274.8,117.7,274.8z"/>
	<path class="st0" d="M78.4,108.9c-0.6,0.3-1,0.5-1.6,1c-0.1,0.1-0.2,0.2-0.4,0.3c-0.1,0.1-0.2,0.1-0.2,0.2
		c-0.1,0.1-0.2,0.2-0.3,0.3c-0.1,0.1-0.3,0.2-0.4,0.3c-0.3,0.2-0.5,0.5-0.8,0.7c-0.5,0.5-1,1-1.5,1.6c-1,1.1-1.9,2.4-2.7,3.8
		c-0.4,0.7-0.8,1.4-1.1,2.2c-0.3,0.8-0.6,1.6-0.7,2.4c-0.1,0.4-0.1,0.8-0.2,1.3c-0.1,0.4-0.1,0.8-0.2,1.2c-0.1,0.4-0.1,0.8-0.2,1.2
		c-0.1,0.4-0.2,0.8-0.2,1.2c-0.2,0.8-0.4,1.6-0.8,2.3c-0.2,0.4-0.4,0.7-0.6,1c-0.3,0.3-0.5,0.6-0.8,0.9c-0.3,0.3-0.6,0.6-0.8,1
		c-0.3,0.3-0.5,0.7-0.7,1.1c-0.4,0.7-0.8,1.5-1.1,2.2c-0.3,0.8-0.6,1.5-0.7,2.3c0,0.2,0,0.4-0.1,0.6l0,0.3c0,0.1,0,0.2,0,0.3
		c0,0.2,0,0.4,0,0.6c0,0.2,0,0.4,0.1,0.6c0.2,1.6,0.9,2.9,1.7,4.1c0.4,0.6,0.8,1.1,1.2,1.6c0.4,0.5,0.9,0.9,1.3,1.4
		c1.7,1.7,3.2,2.9,4,4c0.2,0.3,0.3,0.5,0.4,0.7c0.1,0.2,0.2,0.4,0.2,0.6c0,0.1,0,0.1,0,0.2c0,0.1,0,0.1,0,0.2c0,0.1,0,0.1,0,0.1
		s0,0,0,0.1c0,0.1,0,0.2-0.1,0.4c-0.1,0.3-0.3,0.7-0.7,1.2c-0.9,1-2.1,2.5-3.7,4.3c-0.8,0.9-1.6,1.9-2.5,2.9
		c-0.9,1.1-1.8,2.2-2.7,3.4c-0.2,0.3-0.4,0.6-0.6,1c-0.2,0.3-0.4,0.6-0.7,1c-0.2,0.3-0.5,0.6-0.7,0.9c-0.2,0.3-0.5,0.6-0.7,0.9
		c-1,1.2-2.1,2.5-3.2,3.7c-0.6,0.6-1.1,1.2-1.7,1.8l-0.9,0.9c-0.3,0.3-0.6,0.7-0.8,1c-0.9,1.5-1.4,3.3-1.2,5
		c0.1,0.9,0.3,1.7,0.7,2.4c0.4,0.8,0.9,1.4,1.5,2c0.6,0.6,1.3,1,2,1.4c0.4,0.2,0.7,0.4,1.1,0.5c0.2,0.1,0.4,0.2,0.5,0.2
		c0.2,0.1,0.3,0.1,0.4,0.2c0.5,0.2,0.9,0.3,1.1,0.3c0.4,0.1,0.7,0.1,1,0.1c0.3,0,0.6,0,0.9,0c-0.3-0.1-0.6-0.2-0.8-0.3
		c-0.3-0.1-0.6-0.2-0.9-0.3c-0.2-0.1-0.6-0.2-1.1-0.3c-0.1,0-0.3-0.1-0.4-0.1c-0.2-0.1-0.3-0.1-0.5-0.2c-0.3-0.1-0.7-0.3-1-0.5
		c-0.7-0.4-1.3-0.8-1.9-1.3c-0.6-0.5-1-1.2-1.4-1.9c-0.4-0.7-0.6-1.5-0.7-2.3c-0.2-1.6,0.2-3.3,1.1-4.7c0.2-0.3,0.5-0.7,0.8-1
		l0.9-0.9c0.6-0.6,1.2-1.2,1.7-1.9c1.1-1.2,2.2-2.5,3.3-3.7c0.3-0.3,0.5-0.6,0.8-0.9c0.3-0.3,0.5-0.6,0.7-1c0.2-0.3,0.5-0.6,0.7-1
		c0.2-0.3,0.4-0.6,0.6-1c0.8-1.2,1.8-2.3,2.6-3.4c0.9-1,1.7-2,2.5-2.9c1.6-1.8,2.8-3.2,3.7-4.3c0.4-0.5,0.7-1,0.8-1.4
		c0-0.2,0.1-0.3,0.1-0.4c0-0.1,0-0.2,0-0.2s0-0.1,0-0.2c0-0.1,0-0.1,0-0.2c0-0.1,0-0.2,0-0.3c0-0.2-0.1-0.4-0.2-0.7
		c-0.1-0.3-0.3-0.5-0.5-0.8c-0.8-1.1-2.3-2.4-4-4c-0.4-0.4-0.8-0.9-1.3-1.3c-0.4-0.5-0.8-1-1.2-1.5c-0.8-1.1-1.4-2.4-1.6-3.9
		c0-0.2,0-0.4-0.1-0.5c0-0.2,0-0.4,0-0.6c0-0.1,0-0.2,0-0.3l0-0.3c0-0.2,0-0.4,0.1-0.6c0.1-0.8,0.3-1.5,0.6-2.2
		c0.3-0.7,0.7-1.4,1.1-2.1c0.2-0.4,0.4-0.7,0.7-1c0.2-0.3,0.5-0.6,0.8-0.9c0.3-0.3,0.6-0.6,0.9-1c0.3-0.4,0.5-0.7,0.7-1.1
		c0.4-0.8,0.6-1.6,0.8-2.5c0.1-0.4,0.2-0.8,0.3-1.3c0.1-0.4,0.1-0.8,0.2-1.3c0.1-0.4,0.1-0.8,0.2-1.3c0.1-0.4,0.1-0.8,0.2-1.2
		c0.2-0.8,0.4-1.6,0.7-2.3c0.3-0.7,0.7-1.5,1-2.1c0.8-1.4,1.7-2.6,2.6-3.7c0.5-0.6,1-1.1,1.5-1.6c0.2-0.2,0.5-0.5,0.7-0.7
		c0.1-0.1,0.2-0.2,0.4-0.3c0.1-0.1,0.2-0.2,0.3-0.3c0.1-0.1,0.2-0.1,0.2-0.2c0.1-0.1,0.3-0.2,0.3-0.3
		C77.7,109.7,77.9,109.4,78.4,108.9z"/>
	<path class="st1" d="M63.1,141.4c0,0-0.4-1.3-1.7,1c-1.3,2.3-3.5,4.5-4.7,4.1c-1.2-0.4,2.7,0.6,1.9,1.6s-2.3,1.9-0.9,2.8
		s1.8,1.4,4.5,1.6c2.7,0.1,1.9-1.8,4.4-0.5c2.5,1.3,1.6,0.9,1.7,2.1s0.4,2.5,0.4,2.5s2.6-1.4,2.6-3.8c0-2.3-1.7-3.1-3-4.4
		C67.1,147,62.7,142,63.1,141.4z"/>
	<path class="st1" d="M73.1,146.7c0,0,1.9-0.1,4.4-1.7c2.5-1.6,0.8,0,4.3,1c3.5,1,4.3,0,6.2,0.8c1.9,0.8,1.7,0.9,4.5,2.5
		c2.8,1.6,3.8,2.8,6.1,2.5c2.3-0.4,4.1,0,6.3,2.3c2.2,2.3,0.9,3.8,3.4,4c2.5,0.3-6.6-2.7-9.8-2.6c-3.2,0.1-4.3-3.6-7.5-3.1
		s-5.6-1.3-7.6-0.6s-5.7,1-6.2,0c-0.5-1-0.1,1.9-1.7,0.3s-4.4-3.4-2.8-5"/>
	<path class="st1" d="M79.7,144.4c0,0,1.3,1.2,3,1.2c1.7-0.1,2.7-0.3,3.6,0.1c0.9,0.3-2.5-1.3-3.8-1
		C81.3,144.8,79.9,144.8,79.7,144.4z"/>
	<path class="st1" d="M95.1,150c0,0,0.5,1.2,2,1.2s1.6-0.5,2.7,0.2c1,0.6,0.7-0.8-0.4-0.9C98.2,150.4,95.8,150.9,95.1,150z"/>
	<path class="st1" d="M102.1,155.8c0,0,1.3,0,2.1,1.2c0.8,1.2,1.7,1.9,3.3,1.9s-1-0.3-1.7-1.2c-0.7-0.8-0.7-2.1-1.6-2.3
		C103.2,155.4,102.1,155.8,102.1,155.8z"/>
	<path class="st1" d="M86,146.7c0,0,0.5-0.8,3.9,0.4c3.4,1.2,2.9,1.6,3.4,1.6s-1.4-0.8-3.5-0.7S86,146.7,86,146.7z"/>
	<path class="st1" d="M75.8,151.4c0,0-0.1,2.2,2.6,1.9s6.9-0.9,8.1-0.6c1.2,0.3-1.6-0.7-3.7-0.4c-2.1,0.3-6,0-6-1.4"/>
	<path class="st1" d="M62.5,141.1c0,0-0.8,2.7-2.2,3c-1.4,0.3-2.7-0.1-2.7-0.1s1.9,0.1,2.7-1S61,141.3,62.5,141.1z"/>
	<path class="st0" d="M103,163.7c0,0-3.7-2.1-7.8-5.6c-2.7-2.3-6.6-2.4-11.4-0.3c-0.8,0.3-1.5,0.4-2.1,0.1c-0.8-0.3-1.1-1.1-1.1-1.2
		l0.7-0.3c0,0,0.2,0.5,0.7,0.7c0.4,0.2,0.9,0.1,1.5-0.1c3.5-1.5,8.5-2.7,12.2,0.4c4.1,3.4,7.7,5.5,7.7,5.5L103,163.7z"/>
	<path class="st0" d="M89.5,164.5c-2.7,0-5.1-1.1-5.9-2.5c-0.7-1.2-0.7-1.2-1.3-1.4c-0.2-0.1-0.4-0.1-0.7-0.2
		c-0.2-0.1-0.9-0.3-1-0.9c0-0.5,0.7-0.6,0.8-0.7l0.2,0.6l-0.2-0.3h0.1c-0.1,0-0.1,0.4-0.2,0.4c0.1,0,0.2,0.1,0.4,0.2
		c0.3,0.1,0.5,0.2,0.7,0.2c0.9,0.3,1,0.4,1.7,1.8c0.8,1.4,4.5,2.8,8,1.6c1.6-0.5,2.3-1.3,3-2c0.8-0.8,1.5-1.6,3.1-1.5l0,0.8
		c-1.2-0.1-1.7,0.5-2.5,1.2c-0.7,0.7-1.6,1.6-3.3,2.2C91.5,164.3,90.5,164.5,89.5,164.5z"/>
	<path class="st0" d="M84.5,162.9c-1.2-1.2-1.7-2.4-1.4-3.6c0.4-2,2.8-3.2,2.9-3.2l0.3,0.7c0,0-2.2,1-2.5,2.6
		c-0.2,0.9,0.2,1.9,1.2,2.9L84.5,162.9z"/>
	<path class="st0" d="M89.7,168.5c-2.5,0-4.4-0.6-5.8-1.8c-2.1-1.9-2.1-4.4-2.1-4.5l0.8,0c0,0,0,2.3,1.8,3.9c1.7,1.5,4.5,2,8.2,1.4
		c5.4-0.9,7.5-2.6,8.9-3.7c1.3-1.1,2.2-1.8,4.6-0.7l-0.3,0.7c-1.9-0.9-2.5-0.5-3.8,0.6c-1.5,1.2-3.7,3-9.3,3.9
		C91.6,168.4,90.6,168.5,89.7,168.5z"/>
	<path class="st0" d="M107.1,162.3c-3.9,0-11.4-4-11.8-4.1l0.4-0.7c0,0,2.3,1.2,4.9,2.3c3.4,1.4,5.9,2,7.2,1.7
		c0.7-0.2,1.1-0.5,1.2-1c0.1-1.1-1.8-3.2-4.5-4.3l0.3-0.7c2.5,1,5.1,3.2,4.9,5c0,0.5-0.3,1.3-1.8,1.7
		C107.7,162.2,107.4,162.3,107.1,162.3z"/>
	<g>
		<path class="st0" d="M90.2,155.6c-1.4,0-2.5,1.6-2.5,3.6s1.1,3.6,2.5,3.6s2.5-1.6,2.5-3.6S91.5,155.6,90.2,155.6z M88.7,157.7
			c0,0-0.3,3.6,2.1,3.8C90.8,161.5,87.9,161.8,88.7,157.7z"/>
	</g>
	<path class="st0" d="M95.8,206.7c0,0-2.2-0.7-4.8-2.7c-2.4-1.8-5.7-5.1-7.6-10.6c-0.6-1.6-1-3-1.5-4.3c-0.7-2.2-1.3-4-2-5.5
		c0.1,0.7,0,1.3-0.2,1.9c-0.6,1.7-2.2,2.9-4.9,3.6c-2.9,0.7-4.5-0.7-5.8-1.8c-1.3-1.1-4.7-0.2-4.7-0.2c-4.6,0.4-7.9-0.4-9.7-2.2
		c-2-2-1.7-4.8-1.6-6c0-0.1,0-0.2,0-0.3c0.1-1.7,13.7-18.6,14.3-19.4l0,0c0,0,0.1-0.1,0.3-0.2c0.8-0.7,3.4-2.9,5.5-2.7
		c0.8,0.1,1.4,0.5,1.9,1.2c0.5,0.7,1.1,1.8,1.7,3c2.7,5,7.1,13.2,14.6,15.6c-0.3-0.8-1.3-3.4-0.4-5.7c0.5-1.3,1.6-2.2,3.1-2.8
		l0.1,0.2c-1.5,0.5-2.5,1.4-3,2.7c-1,2.5,0.4,5.7,0.5,5.7l0.1,0.3l-0.3-0.1c-7.8-2.3-12.3-10.8-15.1-15.8c-0.7-1.2-1.2-2.3-1.7-3
		c-0.5-0.7-1-1-1.7-1.1c-2-0.3-4.5,1.9-5.3,2.6c-0.1,0.1-0.2,0.2-0.3,0.2c-4.9,6.1-14.1,17.9-14.2,19.2c0,0.1,0,0.2,0,0.3
		c-0.1,1.2-0.4,3.9,1.5,5.8c1.8,1.8,5,2.5,9.5,2.1c0.1,0,3.5-0.9,4.9,0.3c1.3,1.1,2.9,2.4,5.6,1.7c2.6-0.6,4.2-1.8,4.7-3.4
		c0.3-0.8,0.3-1.6,0.1-2.6c-1.6-3.1-3.7-4.4-8.5-4.5c-2.6,0-4-0.4-4.2-1.1c-0.1-0.3,0.1-0.7,0.5-1c1.2-0.8,3.8-1.2,5.3,0l-0.2,0.2
		c-1.4-1.1-3.9-0.7-5,0c-0.2,0.1-0.5,0.4-0.4,0.7c0.1,0.2,0.5,0.9,4,0.9c4.4,0.1,6.6,1.3,8.2,3.8c-0.5-1.5-1.5-3.1-3-5l-0.2-0.2
		l0.3,0c0.1,0,5.3,0.6,7.1,7.3c0.2,0.9,0.5,1.8,0.7,2.9c1.6,6.7,3.8,15.8,11.6,19.6L95.8,206.7z M79.8,182.8
		c0.8,1.6,1.5,3.7,2.4,6.2c0.4,1.3,0.9,2.7,1.5,4.3c1.9,5.4,5.1,8.7,7.5,10.5c0.9,0.7,1.7,1.2,2.4,1.6C87.4,201,85.5,193,84,187
		c-0.2-1-0.5-2-0.7-2.9c-1.5-5.6-5.4-6.8-6.6-7.1C78.4,179.2,79.5,181.2,79.8,182.8z"/>
	<path class="st0" d="M112.5,163c-3.6,0-9.6-2.2-14.8-5.6c-6.3-4.1-9.7-2.8-13.2-1.4c-0.3,0.1-0.6,0.2-0.9,0.4
		c-1.3,0.5-2.4,0.4-3.3,0c0.7,0.5,1.2,1,1.4,1.6c0.1,0.4,0,0.9-0.3,1.3l-0.2-0.1c0.3-0.4,0.4-0.8,0.3-1.1c-0.3-1.1-2-2-3.3-2.6
		c-0.6-0.3-1.1-0.6-1.4-0.8c-0.3-0.3-0.5-0.6-0.4-0.8c0.1-0.4,0.9-0.6,0.9-0.6l0.1,0l0,0.1c0,0,0.6,1.1,1.6,2
		c1.4,1.2,2.9,1.4,4.5,0.8c0.3-0.1,0.6-0.2,0.9-0.4c3.6-1.4,7.1-2.8,13.5,1.4c7,4.6,15.3,6.9,17.2,4.8c0.3-0.3,0.3-0.8,0.2-1.3
		c-0.5-1.4-2.3-3.2-5-4.8c-2.9-1.8-6.4-3.2-9.7-3.8l0-0.3c7.2,1.4,13.9,5.9,14.9,8.8c0.2,0.6,0.1,1.2-0.2,1.6
		C114.7,162.7,113.8,163,112.5,163z M77.1,153.5c-0.2,0.1-0.6,0.2-0.6,0.4c0,0.2,0.2,0.4,0.3,0.5c0.3,0.2,0.8,0.5,1.4,0.8
		c0.2,0.1,0.5,0.2,0.7,0.4C77.9,154.8,77.3,153.8,77.1,153.5z"/>
	<path class="st0" d="M76.1,188.3c-0.1,0-0.2,0-0.3,0c-2.6-0.3-4.9-3.5-5.5-4.5c-1.7-2.7-4-1.9-5.5-1.2c-0.8,0.4-1.1,0.5-1.7,0.6
		c-0.5,0.1-1.1,0.3-2.4,0.8c-0.8,0.3-1.2,0.6-1.2,0.9c0,0.4,0.7,0.8,1,0.9l-0.1,0.2c0,0-1.1-0.5-1.1-1.1c0-0.4,0.5-0.8,1.4-1.2
		c1.3-0.5,1.9-0.7,2.4-0.8c0.6-0.2,0.9-0.3,1.6-0.6c1-0.5,3.8-1.9,5.9,1.3c0.6,1,2.8,4.2,5.3,4.4c0.9,0.1,2-0.1,2.8-0.9l0,0
		C77.8,187.9,77,188.3,76.1,188.3z"/>
	<path class="st0" d="M104.3,256.2c-7.1,0-12.5-3.6-15.9-5.9c-4.9-3.3-7.9-4.2-15.1-6.3c-1.8-0.5-3.7-1.1-6.1-1.8
		c-3.6-1.1-5.9-3-7-5.6c-1.9-4.6,0.8-9.8,0.9-10l0.7,0.4c0,0.1-2.6,5.1-0.9,9.3c1,2.4,3.2,4.1,6.5,5.1c2.3,0.7,4.3,1.3,6.1,1.8
		c7.2,2.1,10.2,3,15.3,6.4c2.7,1.8,7.3,4.8,12.8,5.6c6.4,0.9,12.9-1.5,19.3-6.9c0.8-0.8,40.4-40.1,28.8-52.3l0.6-0.5
		c5.2,5.4,1.8,16-9.9,31.6c-8.6,11.5-18.9,21.6-19,21.7l0,0C115.1,254.3,109.3,256.2,104.3,256.2z"/>
	<path class="st0" d="M165.3,172.6"/>
	<path class="st0" d="M151.6,196.2c-1.2,0-2.2-0.3-2.9-0.9c-1.8-1.3-1.2-3.6-1.7-3.7l0.8,0c0,0,0,2,1.4,3.1c1.3,0.9,3.3,0.9,6,0
		c9.8-3.3,13.5-9.8,14.4-11.7c1.4-3,2.9-13.2-0.1-19c-1.1-2.1-2.6-3.4-4.7-3.8c-5.6-1.1-8.9,0.9-10.4,2.2c-1.6,1.5-2.3,3.1-2.3,4.1
		c0.1,0.9,0.6,2.1,1.3,3.5c1,2.2,2.2,4.8,1.3,6.8c-0.3,0.7-0.3,1.2-0.2,1.4c0.1,0.1,0.3,0.1,0.4,0.1c0.8-0.1,2-1.4,2.6-3.4l0.6,0.5
		c-0.8,2.5-2.2,3.5-3.1,3.7c-0.5,0.1-0.9-0.1-1.2-0.4c-0.2-0.3-0.5-0.9,0.1-2.2c0.8-1.7-0.3-4-1.3-6.1c-0.6-1.4-1.3-2.7-1.3-3.7
		c-0.1-1.2,0.7-3.1,2.5-4.7c1.6-1.4,5.1-3.6,11.1-2.4c2.3,0.4,4,1.9,5.2,4.2c3,6,1.5,16.6,0.1,19.6c-0.9,2-4.8,8.7-14.9,12.1
		C154,195.9,152.7,196.2,151.6,196.2z"/>
	<path class="st0" d="M93.9,244.3c-2.8,0-5-0.3-6.2-0.8c-0.1-0.1-0.6-0.2-0.6-0.6c0.1-0.7,2.1-1.2,5.8-2.2c3.4-0.9,7.7-1.9,8.3-3.1
		c0.1-0.2,0.1-0.3,0-0.4c-0.5-1.3-5.7-0.9-11.2-0.3c-5.6,0.5-12,1.1-16.5,0.3c-9.2-1.7-9-10.5-9-10.6l0.3,0c0,0.1-0.2,8.6,8.7,10.3
		c4.4,0.8,10.8,0.3,16.4-0.3c6.1-0.6,10.9-1,11.5,0.5c0.1,0.2,0.1,0.4,0,0.7c-0.7,1.3-4.8,2.3-8.4,3.2c-2.6,0.7-5.6,1.4-5.6,1.9
		c0,0.1,0.1,0.2,0.4,0.3c3.4,1.5,21.1,1.6,28.5-7.6c2.9-3.6,6.3-6.8,9.7-9.2c3.1-2.2,6-3.5,7.8-3.5h0c0.8,0,1.3,0.2,1.7,0.7
		c0.1,0.1,0.3,0.2,0.5,0.1c2.5-0.4,10.7-9.3,13.5-17.7c1.6-4.9,1.2-8.8-1.2-11.4l0.2-0.2c2.5,2.7,3,6.7,1.3,11.7
		c-2.9,8.6-11.1,17.4-13.7,17.9c-0.3,0.1-0.6-0.1-0.8-0.3c-0.3-0.4-0.8-0.7-1.5-0.7h0c-3.4,0-10.9,5-17.3,12.8
		c-2.2,2.8-6.8,6.4-15.8,7.9C98.3,244.1,96,244.3,93.9,244.3z"/>
	<path class="st0" d="M187.4,148.3"/>
	<path class="st0" d="M191.3,155.1l-0.2-0.6c-2.6-7-25.1-18.7-25.3-18.8c-1.2-0.5-1.5-0.4-1.5-0.3c-0.4,0.6,4.6,4.9,8.5,8.3
		c5.5,4.8,8.9,7.8,8.5,8.4c-0.1,0.2-0.4,0.2-0.9,0c-3.9-1.2-10.3-1.2-18.3-1.2c-4.2,0-8.9,0-13.9-0.2c-3.6-0.1-8.9-1.7-13.6-8.6
		c-5-7.4-6.8-17-5.3-21.3c1.6-4.6-1.6-9-4.5-12.8c-0.8-1.1-1.5-2-2.1-3c0,0,0,0,0,0c-1.7,0-3.4-0.8-4.5-1.7
		c-1.4-1.2-1.8-2.6-0.9-4.1c2.6-4.5,14.6-5.4,14.7-5.4l0,0.1c-0.1,0-12.1,0.9-14.6,5.3c-0.8,1.4-0.5,2.8,0.9,3.9
		c1.1,0.9,2.7,1.5,4.4,1.6c-0.6-1-1.1-2-1.2-2.8c-0.2-1.4,0.5-1.9,1-2.1c1.5-0.5,4.1,0.5,5,1.9c0.3,0.5,0.5,1.3-0.4,2.1
		c-0.9,0.8-2.4,1.2-4.2,1.1c0.6,0.9,1.3,1.9,2.1,2.9c2.9,3.9,6.2,8.2,4.5,12.9c-1.5,4.3,0.2,13.9,5.2,21.2c4.7,6.9,9.9,8.5,13.5,8.6
		c5,0.2,9.7,0.2,13.9,0.2c8.1,0,14.4,0,18.4,1.2c0.6,0.2,0.7,0.1,0.7,0.1c0.3-0.6-4.6-4.8-8.5-8.3c-5.6-4.9-8.9-7.9-8.6-8.5
		c0.1-0.1,0.4-0.2,1.7,0.3c0.2,0.1,21.7,11.2,25.2,18.3c-0.3-1.3-1.3-4.7-3.9-8.4c-3.1-4.5-9.4-10.5-21.1-13.7
		c-10-2.7-19.4-8-26.3-14.9c-2-2-3.8-4.1-5.1-6.1c-0.7,0.4-1.5,0.6-2.6,0.6c-1.4-0.1-2.4-0.8-2.8-2.1c-1-3,1-8.3,1.8-9
		c0.1-0.1,0.2-0.1,0.3-0.1c0.1,0,0.3,0.2,0.1,1.6c-0.4,2.2,0.9,5.4,3.2,8.8c0.3-0.2,0.5-0.4,0.7-0.7c2.3-2.8,0.6-9.3,0.6-9.3l0.1,0
		c0,0,0.4,1.7,0.6,3.6c0.1,1.8,0,4.3-1.2,5.8c-0.2,0.3-0.5,0.5-0.8,0.7c1.4,2,3.1,4,5.1,6c6.9,6.8,16.2,12.1,26.3,14.9
		c11.8,3.2,18,9.3,21.2,13.7c2.7,3.9,3.9,7.7,4.1,9.1L191.3,155.1z M131.2,100.4c0,0-0.1,0-0.1,0.1c-0.8,0.7-2.8,5.9-1.8,8.8
		c0.4,1.3,1.3,2,2.7,2c1,0,1.8-0.1,2.5-0.5c-2.4-3.5-3.6-6.7-3.2-8.9C131.4,100.6,131.3,100.4,131.2,100.4
		C131.2,100.4,131.2,100.4,131.2,100.4z M122.8,104.9c1.6,0.1,3.2-0.1,4.2-1c0.8-0.7,0.7-1.5,0.4-2c-0.8-1.4-3.4-2.4-4.8-1.9
		c-0.8,0.3-1.1,1-1,2C121.6,102.9,122.1,103.9,122.8,104.9z"/>
	<path class="st0" d="M154.1,176.9c0,0-1.1-1.1-4.3-4.5l-0.2-0.3c-3.1-3.3-5.4-5.7-4.9-9.7c0.3-2.3-1.7-3.7-3.5-4.9
		c-1.1-0.7-2.1-1.4-2.5-2.3c-0.1-0.2-0.1-0.5,0-0.7c0.5-0.8,2.9-0.9,8.4-0.9c0.9,0,2,0,2.7,0c-0.4-0.1-0.8-0.2-1.4-0.3
		c-7-1.5-12.3-4.7-16-9.6c-1.1-0.8-2.1-1.7-3-2.7c-6.2-6.5-5.7-13.6-5.5-14.9c0.2-1.6,0.5-2.3,1.1-2.4c1-0.1,2.1,2.4,2.7,4.2
		c0.3,0.1,0.3,0.4,0.4,1.2c0.2,1.9,0.6,6.8,3.3,11.6c0.5,0.9,1,1.7,1.6,2.4c3,2.3,6.8,4,11.4,5.3c7.5,2.1,17.1,2.9,28.4,2.1l0,0.8
		c-11.4,0.7-21.1,0-28.7-2.2c-3.5-1-6.7-2.3-9.3-3.9c3.4,3.5,8,6,13.8,7.2c3,0.6,3.2,0.9,3.2,1.3c-0.1,0.6-0.6,0.6-4.7,0.6
		c-2.5,0-7,0-7.7,0.5c0.4,0.6,1.3,1.3,2.2,1.9c1.9,1.3,4.2,2.9,3.8,5.7c-0.5,3.7,1.6,5.8,4.7,9.1l0.2,0.3c3.2,3.4,4.3,4.5,4.3,4.5
		L154.1,176.9z M125.2,124.6c-0.1,0-0.3,0.3-0.5,1.7c-0.1,1.3-0.6,8.1,5.3,14.3c0.3,0.3,0.6,0.6,1,1c-0.1-0.1-0.1-0.2-0.2-0.3
		c-2.7-4.9-3.2-9.8-3.4-11.8l-0.2-0.7C126.5,126.6,125.6,124.7,125.2,124.6z"/>
	<path class="st0" d="M83.1,105.1l-0.6-0.5c10.1-11.4,52.8-13.3,71-14.1c3.6-0.2,6.3-0.3,7.6-0.4c7-0.8,18.4-4.8,19.9-6l0.1-0.7
		c0.7,0.1,0.8,0.5,0.8,0.7c0,0.3-0.2,0.8-2.4,1.8c-1.3,0.6-3.2,1.3-5.3,2c-4.8,1.6-9.7,2.8-12.9,3.1c-1.3,0.1-4,0.3-7.6,0.4
		C135.4,92,92.9,93.9,83.1,105.1z"/>
	<path class="st0" d="M166.7,80.1"/>
	<path class="st0" d="M84.6,103.3c-0.1-0.2-1.5-5.4,0.6-12c3.5-11,14-17.3,22.2-20.6c0.3-0.2,3.6-2.3,6.9-4.2c7.2-4.3,7.5-4,7.8-3.7
		c0.2,0.2,0.2,0.5-0.1,0.8l-0.6-0.4c0,0,0-0.2,0-0.2c0.1,0.1,0.2-0.2,0.2-0.2h0c-0.9,0-7.8,4.3-13.9,8.2l-0.1,0.2
		c-8,3.2-18.3,9.4-21.8,20.2c-2,6.4-0.6,11.3-0.6,11.3L84.6,103.3z"/>
	<path class="st0" d="M164.1,179.2c-2.2,0-4-1.9-5.4-3.3c-0.9-0.9-1.8-1.9-2.4-1.9c0,0,0,0,0,0c-0.2,0-0.4,0.3-0.6,0.5l-0.2-0.1
		c0.2-0.3,0.5-0.4,0.8-0.4c0.7,0,1.6,0.8,2.6,1.8c2,2,4.6,4.6,8,2c2.2-1.6,2.7-4.3,1.3-7.5c-1.6-3.8-5.3-6.7-7.8-6.2
		c-3,0.5-2.8,1.8-2.6,3.5c0.1,0.9,0.3,1.9-0.1,2.8c-0.2,0.6-0.6,1-1.2,1.1c-1.4,0.3-3.3-1.3-3.4-1.4l0.2-0.2c0,0,1.9,1.6,3.1,1.3
		c0.4-0.1,0.8-0.4,1-0.9c0.3-0.9,0.2-1.8,0.1-2.7c-0.3-1.7-0.5-3.2,2.8-3.8c2.4-0.4,6.2,2,8.1,6.4c1.4,3.3,0.9,6.1-1.4,7.8
		C166,178.9,165,179.2,164.1,179.2z"/>
	<path class="st0" d="M147.4,191.6c0,0-0.7-3.8,1.4-6.3c1.4-1.7,3.7-2.4,6.8-2.3c2.3,0.1,3.8,0.2,4.8,0.3c1.9,0.2,1.9,0.2,2.2-0.8
		c0-0.1,0.1-0.3,0.1-0.5c0.2-0.7-1.1-1.8-3-2.6c-3.6-1.6-10.8-2.5-14.6,4.1c-1.1,2-2.6,2.9-4.2,2.6c-3.3-0.5-6.5-5.6-7.5-10
		c-0.8-3.6-0.1-6.5,2-7.8c2.3-1.5,3.3-4.5,2.8-8.5c-0.7-5.9-4.5-12.2-8-13.4c-0.2-0.1-0.3-0.2-0.3-0.3c-0.1-0.3,0.4-0.8,1.2-1.4
		c0.4-0.3,1.1-0.9,1-1l0,0c0,0,0,0-0.1,0l0.1-0.3c0.2,0,0.3,0.2,0.3,0.2c0.1,0.3-0.4,0.7-1.1,1.3c-0.5,0.4-1.2,1-1.2,1.2
		c0,0,0.1,0.1,0.1,0.1c3.5,1.2,7.4,7.6,8.1,13.6c0.5,4.1-0.5,7.2-2.9,8.7c-1.9,1.3-2.6,4-1.9,7.5c0.9,4.3,4.1,9.3,7.2,9.8
		c1.5,0.2,2.9-0.6,3.9-2.5c3.9-6.7,11.2-5.8,14.9-4.2c2.1,0.9,3.4,2.1,3.1,2.9c-0.1,0.2-0.1,0.3-0.1,0.5c-0.3,1.2-0.5,1.2-2.4,1
		c-1-0.1-2.5-0.2-4.8-0.3c-3-0.1-5.2,0.6-6.6,2.2c-2.1,2.4-1.4,6-1.4,6.1L147.4,191.6z"/>
	<ellipse class="st1" cx="172.5" cy="150.5" rx="2.5" ry="1.8"/>
	<ellipse class="st1" cx="327.3" cy="101.9" rx="2.5" ry="1.8"/>
	<ellipse class="st1" cx="166.8" cy="94.4" rx="2.5" ry="1.8"/>
	<ellipse transform="matrix(0.7189 0.6951 -0.6951 0.7189 95.7297 -27.7684)" class="st0" cx="82.2" cy="104.5" rx="0.9" ry="2.1"/>
	<path class="st0" d="M171.8,209.1"/>
	<path class="st0" d="M95.6,206.6c-0.9-29.2,23-31.3,34.5-32.3c2.3-0.2,4-0.4,5.1-0.7c1.9-0.5,3-1.4,3.4-2.6
		c0.6-2.1-1.2-4.4-1.2-4.4l0.2-0.2c0.1,0.1,2,2.5,1.3,4.7c-0.4,1.3-1.6,2.2-3.6,2.8c-1.1,0.3-2.9,0.5-5.2,0.7
		c-5.8,0.5-14.6,1.3-21.8,5.5c-8.6,5.1-12.8,14-12.5,26.5L95.6,206.6z"/>
	<path class="st0" d="M101.8,166.4l0-0.3c3.4-0.5,4.8-4,4.8-4l0.2,0.1C106.8,162.3,105.4,165.9,101.8,166.4z"/>
	<path class="st0" d="M135.1,383c-6.6,0-14.1-1.8-22.6-5.3c-14.9-6.2-31-16.9-46.6-27.3c-10.6-7-20.5-13.7-30-18.8
		c-7.2-3.9-13.4-6-18.5-6.3c-3.5,11.7-7.6,21.1-12,22.9c-1.4,0.6-2.8,0.4-4.2-0.5c-1.2-0.8-1.5-10.1,2.3-16.4
		c2.3-3.7,6.3-7,13.4-6.8c3.1-10.6,5.9-22.9,8.1-32.8c2.4-10.9,4.2-18.8,5.5-20.5c3.4-4.4,5.5-4.9,8.4-5.7c0.7-0.2,1.5-0.4,2.3-0.7
		c1.8-0.6,2.1-1,3-1.9c1.2-1.3,3.1-3.4,10-7.9c9.8-6.3,16.9-6.7,21.2-6.9c1.1-0.1,2-0.1,2.7-0.2c3.6-0.7,5.5,0.3,5.6,0.4l-0.4,0.7
		l0.2-0.3l-0.2,0.3c0,0-1.8-1-5.1-0.3c-0.8,0.2-1.7,0.2-2.8,0.3c-4.2,0.2-11.2,0.6-20.8,6.8c-6.8,4.4-8.7,6.5-9.9,7.8
		c-0.9,1-1.4,1.5-3.3,2.1c-0.9,0.3-1.7,0.5-2.4,0.7c-2.9,0.7-4.7,1.2-8,5.4c-1.2,1.5-3.1,10.2-5.3,20.2c-2.3,10.3-5,22.4-8.1,32.7
		c4.8,0.3,10.9,2.2,18.6,6.4c9.5,5.2,19.5,11.8,30,18.9c15.5,10.3,31.6,21,46.5,27.2c16.7,6.9,29.5,6.9,39.1,0.1
		c5.5-3.9,7.6-7.3,6.2-10.1c-2-4.3-12-7.6-28.2-9.1c-13.4-1.3-26.3-1-29.4-0.2c-1.9,0.5-3.7,0.1-5.3-1.3c-5.4-4.8-7.4-20-8.1-31.9
		c-0.9-14-0.3-27.7,0.4-32.5c0.9-6.8,7.8-8.8,13.4-10.5c0.8-0.2,1.6-0.5,2.3-0.7c-0.4-3.2-1.3-8.9-2.4-13.9c-2.1-3-3.7-5.3-3.3-8.1
		c0.1-0.5,0.2-0.7,0.8-0.7c0,0,0,0,0,0c0.5,0,1.2-0.7,3.2,9.2c0.6,0.9,1.3,1.4,1.9,2.3c2.2,3,4.3,5.6,4.6,8.1
		c0.2,1.9-1.5,2.9-4.1,3.7c0.3,3.2-0.7,3.7-2.7,4.4c-1.3,0.5-3,1.1-5.1,3.1c-3.4,3.2-1.8,12.7-0.5,20.2c0.6,3.8,1.2,7.3,1.2,9.7
		c-0.1,3.9-2.6,6.3-4.6,8.3c-2,2-3,2.7-1.8,4.1c0,0,0.3,0,0.9,0c0,0,0,0,0,0c0.8,0,2.3-0.2,4.6-2.6l0,0.1
		c11.1-8.5,27.3-21.1,30.9-24.3l-0.2-0.3c5.3-3.3,8.2-6.7,8.6-10.4c0.4-3.1-0.9-5.9-2.1-8.4c-1-2.1-1.9-3.8-1.4-5.3
		c1-3.2,4.1-4.3,8.3-5.9c2.1-0.8,4.6-1.7,7.2-3c5.4-2.6,13.5-16.3,24-40.7c4.2-9.7,0-20.8,0-20.9l0.7-0.3c0,0.1,4.3,11.5,0,21.5
		c-3.9,9.1-15.9,37-24.4,41.1c-2.7,1.3-5.2,2.2-7.3,3c-4.2,1.5-7,2.6-7.9,5.4c-0.4,1.2,0.4,2.9,1.4,4.8c1.2,2.4,2.7,5.5,2.2,8.9
		c-0.5,3.6-3,6.9-7.7,10.1c-0.1,0.4-0.9,1.2-5,4.4c-2.6,2.1-6.3,5-10.9,8.7c-7.7,6-15.5,12-16,12.4c-2,2.1-3.8,3.1-5.2,3.1
		c-0.9,0-1.3-0.5-1.4-0.5c-1.8-2,0-3.6,1.8-5.4c1.9-1.9,4.3-4.2,4.4-7.7c0.1-2.3-0.5-5.8-1.1-9.5c-1.4-8.2-2.9-17.4,0.7-20.9
		c2.2-2.1,4-2.8,5.4-3.3c1.7-0.6,2.4-0.9,2.2-3.4c-0.7,0.2-1.4,0.4-2.2,0.7c-5.3,1.6-12,3.6-12.8,9.8c-1.3,9.7-2.2,55,7.5,63.6
		c1.4,1.2,2.9,1.6,4.6,1.2c3.1-0.8,16.1-1.1,29.6,0.2c21.1,2.1,27.3,6.3,28.8,9.6c1.5,3.2-0.7,7-6.5,11.1
		C147.5,381.2,141.7,383,135.1,383z M1.7,347c1.2,0.8,2.3,0.9,3.4,0.4c4.2-1.7,8.1-10.9,11.5-22.2c-4.8-0.1-8.6,1.5-11.3,4.8
		C0.2,336.3,1.1,346.2,1.7,347z M102,268.3c0.9,4.8,1.7,9.7,2,12.1c2.2-0.8,3.6-1.6,3.4-2.9c-0.3-2.2-2.3-5-4.5-7.9
		C102.6,269.2,102.3,268.7,102,268.3z M98.5,257.6c0,0.1-0.1,0.3-0.1,0.6c-0.3,2,0.7,4.3,2.1,6.6C99.7,261.2,99,258.4,98.5,257.6z"
		/>
	<path class="st0" d="M125.6,124.8l-0.7-0.3c2.8-5.9-0.4-9.3-7.4-17c-0.4-0.5-0.9-1-1.4-1.5c-2-2.2-2.7-4.3-2.1-6.3
		c0.6-2.1,2.7-4,6-5.6c2.5-1.2,4.7-1.8,4.8-1.8l0.2,0.8c-0.1,0-8.9,2.3-10.3,6.9c-0.5,1.7,0.1,3.6,1.9,5.5c0.5,0.5,0.9,1,1.4,1.5
		C125.1,114.6,128.6,118.5,125.6,124.8z"/>
	<path class="st0" d="M138.9,155.1c-2.9-4.5-12.1-6.9-20.3-9c-5.9-1.5-11.1-2.9-13-4.8c-0.6-0.5-0.8-1.1-0.6-1.7
		c1.2-3.9,18.7-7,19.5-7.1l0,0.3c-0.2,0-18.1,3.2-19.3,7c-0.2,0.5,0,1,0.5,1.5c1.9,1.8,7.3,3.2,12.9,4.7c8.2,2.1,17.5,4.6,20.4,9.1
		L138.9,155.1z"/>
	<path class="st0" d="M182.6,83.9c-0.2-0.1-0.3-0.1-0.4-0.2c-0.1,0-0.3-0.1-0.4-0.1c-0.3-0.1-0.5-0.2-0.9-0.3c0,0-0.1,0-0.2-0.1
		c-0.1,0-0.1-0.1-0.2-0.1c-0.1,0-0.1-0.1-0.2-0.2l0,0c0,0,0,0,0,0l0,0l-0.1-0.1c-0.1-0.1-0.1-0.2-0.2-0.4c-0.1-0.1-0.2-0.3-0.3-0.4
		c-0.1-0.1-0.2-0.3-0.3-0.4c-0.5-0.4-1.2-0.7-1.8-0.8c-0.3-0.1-0.6-0.2-0.9-0.2c-0.3-0.1-0.6-0.1-0.9-0.2c-0.3-0.1-0.6-0.2-0.9-0.3
		c-0.2-0.1-0.4-0.3-0.5-0.6c-0.1-0.3-0.2-0.6-0.4-1c-0.1-0.2-0.2-0.3-0.3-0.5l-0.3-0.4c-0.1-0.1-0.2-0.3-0.3-0.4
		c-0.1-0.1-0.2-0.3-0.4-0.4l-0.4-0.4c-0.1-0.1-0.3-0.2-0.4-0.4l-0.4-0.4l-0.4-0.3c-0.3-0.2-0.5-0.4-0.8-0.7
		c-0.6-0.4-1.1-0.9-1.8-1.2c-0.2-0.1-0.3-0.1-0.5-0.2c-0.2,0-0.4-0.1-0.6-0.1c-0.4-0.1-0.8-0.1-1.1-0.1c-0.7,0-1.4,0.1-2.2,0.1
		c-0.4,0-0.7,0-1.1-0.1l-0.5,0c-0.2,0-0.4,0-0.5-0.1c-0.2,0-0.4,0-0.5-0.1l-0.5-0.1c-0.4-0.1-0.7-0.2-1.1-0.3
		c-1.4-0.5-2.7-1.1-4-1.8c-1.3-0.7-2.6-1.5-3.9-2.2c-2.6-1.5-5.3-3-8-4.3c-2.7-1.3-5.8-1.9-8.7-1.8c-1.5,0-2.9,0.2-4.3,0.4
		c-1.4,0.3-2.7,0.7-4,1.2c-0.6,0.3-1.2,0.6-1.8,1c-0.3,0.2-0.6,0.4-0.8,0.7c-0.1,0.2-0.2,0.3-0.2,0.6c0,0.1,0,0.3,0.1,0.4
		c0.1,0.1,0.2,0.2,0.3,0.2c0.2,0.1,0.4,0.2,0.5,0.2c0.2,0,0.3,0.1,0.5,0.1c0.3,0,0.7,0,1,0c0.6,0,1.3-0.1,1.9-0.3
		c1.2-0.2,2.4-0.6,3.4-1.1c0.5-0.3,1-0.5,1.5-1c0.2-0.2,0.4-0.5,0.5-0.8c0-0.2,0-0.3,0-0.5c0-0.2-0.1-0.3-0.2-0.4
		c-0.2-0.3-0.4-0.4-0.6-0.6c-0.1-0.1-0.2-0.1-0.3-0.2c-0.1-0.1-0.2-0.1-0.3-0.2c-0.5-0.2-1-0.4-1.4-0.5c-0.5-0.1-1-0.1-1.4-0.2
		c-0.5,0-0.9,0-1.3,0.1c-1.7,0.2-3.1,0.7-4.3,1c-1.2,0.4-2.1,0.7-2.7,0.8c-0.6,0.2-0.9,0.3-0.9,0.3s-0.3,0.1-0.9,0.3
		c-0.6,0.2-1.5,0.5-2.7,0.8c-0.6,0.2-1.2,0.3-1.9,0.5c-0.7,0.2-1.5,0.4-2.3,0.7c-1.6,0.5-3.4,1.3-5.3,2.2c-1,0.4-1.9,0.9-3,1.4
		c-0.5,0.2-1.1,0.4-1.6,0.6c-0.6,0.1-1.1,0.2-1.7,0.2c-0.6,0-1.1-0.2-1.7-0.5c-0.3-0.2-0.5-0.3-0.7-0.5c-0.1-0.1-0.2-0.2-0.3-0.3
		l-0.1-0.2c0-0.1,0-0.1,0-0.2c0-0.2,0.1-0.5,0.3-0.7c0.2-0.2,0.4-0.4,0.7-0.6c0.5-0.4,1.1-0.6,1.7-0.8c0.6-0.2,1.3-0.3,1.9-0.4
		c0.3,0,0.7,0,1,0c0.3,0,0.6,0.1,0.8,0.3c0.1,0.1,0.2,0.2,0.2,0.3c0,0.1,0,0.1,0.1,0.2c0,0.1,0,0.1,0,0.2c0,0.3-0.2,0.6-0.4,0.8
		c-0.4,0.5-0.9,1-1.4,1.5c-1.1,0.9-2.2,1.8-3.5,2.6c-1.2,0.8-2.5,1.6-3.7,2.4c-0.6,0.4-1.3,0.8-1.9,1.1L93,76l-0.5,0.3
		c-0.2,0.1-0.3,0.2-0.5,0.3c-0.6,0.4-1.3,0.8-1.9,1.3c-0.6,0.4-1.2,0.9-1.8,1.3c-2.4,1.8-4.7,3.9-6.5,6.3c-0.9,1.2-1.7,2.4-2.4,3.8
		c-0.6,1.3-1.1,2.7-1.3,4.2c-0.2,1.4-0.2,2.9,0,4.3c0.1,0.3,0.1,0.7,0.2,1c0,0.2,0.1,0.3,0.1,0.5l0.2,0.5c0.1,0.2,0.1,0.3,0.2,0.5
		c0.1,0.2,0.1,0.3,0.2,0.5l0.2,0.5c0,0.1,0.1,0.2,0.1,0.2l0,0.1c0.1,0.2,0.2,0.4,0.3,0.6c0.1,0.2,0.2,0.3,0.2,0.4
		c0.4,0.7,0.8,1,1.3,1.3c-0.3-0.6-0.5-1-0.9-1.6c-0.1-0.1-0.1-0.2-0.2-0.4c-0.1-0.2-0.2-0.4-0.3-0.6l0-0.1c0-0.1-0.1-0.1-0.1-0.2
		l-0.2-0.4c-0.1-0.1-0.1-0.3-0.2-0.5c-0.1-0.2-0.1-0.3-0.2-0.5L79,99.1c-0.1-0.2-0.1-0.3-0.1-0.5c-0.1-0.3-0.2-0.7-0.2-1
		c-0.3-1.3-0.3-2.7,0-4.1c0.2-1.4,0.7-2.7,1.3-4c0.6-1.3,1.4-2.5,2.3-3.7c1.8-2.3,4-4.4,6.4-6.2c0.6-0.5,1.2-0.9,1.8-1.3
		c0.6-0.4,1.2-0.8,1.9-1.3c0.2-0.1,0.3-0.2,0.5-0.3l0.5-0.3l1-0.6c0.7-0.4,1.3-0.8,1.9-1.1c1.3-0.8,2.5-1.6,3.8-2.4
		c1.2-0.8,2.4-1.7,3.5-2.7c0.5-0.5,1.1-1,1.5-1.6c0.2-0.3,0.4-0.6,0.5-1.1c0-0.1,0-0.2,0-0.3c0-0.1,0-0.2-0.1-0.3
		c-0.1-0.2-0.2-0.4-0.4-0.5c-0.3-0.3-0.7-0.4-1.1-0.4c-0.4,0-0.7,0-1.1,0c-0.7,0.1-1.4,0.2-2.1,0.4c-0.7,0.2-1.3,0.5-1.9,0.9
		c-0.3,0.2-0.6,0.4-0.8,0.7c-0.2,0.3-0.4,0.7-0.4,1.1c0,0.1,0,0.2,0.1,0.3c0,0.1,0.1,0.2,0.1,0.3l0.2,0.2c0.1,0.1,0.1,0.1,0.2,0.2
		c0.2,0.3,0.5,0.4,0.8,0.6c0.6,0.3,1.2,0.5,1.9,0.6c0.6,0.1,1.3-0.1,1.9-0.2c0.6-0.2,1.1-0.4,1.7-0.6c1.1-0.4,2.1-0.9,3-1.4
		c1.9-0.9,3.7-1.7,5.3-2.2c0.8-0.3,1.5-0.5,2.3-0.7c0.7-0.2,1.4-0.4,1.9-0.5c1.2-0.3,2.1-0.6,2.7-0.8c0.6-0.2,0.9-0.3,0.9-0.3
		s0.3-0.1,0.9-0.3c0.6-0.2,1.5-0.5,2.7-0.8c1.2-0.3,2.6-0.8,4.2-1c0.4,0,0.8-0.1,1.3-0.1c0.4,0,0.9,0,1.3,0.1
		c0.4,0.1,0.9,0.3,1.3,0.5c0.4,0.2,0.9,0.5,1.1,0.9c0.1,0.2,0.2,0.4,0.1,0.6c0,0.2-0.2,0.4-0.4,0.6c-0.4,0.4-0.8,0.6-1.3,0.9
		c-1,0.5-2.1,0.8-3.3,1.1c-0.6,0.1-1.2,0.2-1.8,0.2c-0.3,0-0.6,0-0.9,0c-0.3,0-0.6-0.1-0.8-0.2c-0.1,0-0.1-0.1-0.1-0.1
		c0,0,0-0.1,0-0.1c0-0.1,0-0.2,0.1-0.3c0.2-0.2,0.4-0.4,0.6-0.6c0.5-0.4,1.1-0.7,1.7-0.9c1.2-0.5,2.5-0.9,3.9-1.2
		c1.4-0.3,2.8-0.4,4.2-0.4c2.8,0,5.8,0.5,8.5,1.8c2.7,1.3,5.3,2.7,7.9,4.3c1.3,0.8,2.6,1.5,3.9,2.3c1.3,0.7,2.7,1.4,4.1,1.9
		c0.4,0.1,0.7,0.2,1.1,0.3l0.6,0.1c0.2,0,0.4,0.1,0.6,0.1c0.2,0,0.4,0.1,0.6,0.1l0.6,0c0.4,0,0.7,0,1.1,0.1c0.7,0,1.5,0,2.2-0.1
		c0.7,0,1.4,0.1,2,0.4c0.6,0.3,1.2,0.7,1.7,1.1c0.3,0.2,0.5,0.4,0.8,0.7l0.4,0.3l0.4,0.3c0.1,0.1,0.3,0.2,0.4,0.3l0.4,0.4
		c0.1,0.1,0.2,0.2,0.3,0.4c0.1,0.1,0.2,0.3,0.3,0.4l0.3,0.4c0.1,0.1,0.2,0.3,0.2,0.4c0.1,0.3,0.2,0.6,0.3,0.9c0,0.1,0.1,0.2,0.1,0.3
		c0.1,0.1,0.1,0.2,0.2,0.3c0.1,0.2,0.3,0.3,0.4,0.4c0.3,0.2,0.7,0.3,1,0.4c0.3,0.1,0.6,0.2,1,0.2c0.3,0.1,0.6,0.1,0.9,0.2
		c0.6,0.2,1.2,0.4,1.6,0.7c0.1,0.1,0.2,0.2,0.3,0.3c0.1,0.1,0.2,0.2,0.2,0.4c0.1,0.1,0.1,0.3,0.2,0.4l0.1,0.1l0,0.1c0,0,0,0,0,0l0,0
		c0.1,0.1,0.2,0.2,0.3,0.3c0.1,0.1,0.2,0.1,0.2,0.2c0.1,0,0.1,0.1,0.2,0.1c0.4,0.2,0.7,0.2,1,0.2c0.1,0,0.3,0,0.4,0
		C182.2,83.9,182.4,83.9,182.6,83.9z"/>
	<g>
		<path class="st0" d="M188.1,87.4"/>
	</g>
	<g>
		<path class="st0" d="M199.6,161.8"/>
	</g>
	<g>
		<path class="st0" d="M173.7,205.4"/>
	</g>
	<g>
		<path class="st0" d="M172.6,204.1"/>
	</g>
	<path class="st0" d="M172.4,210.4c0-0.7-0.1-1.1-0.3-1.9c0-0.1-0.1-0.3-0.1-0.4c0-0.1-0.1-0.2-0.1-0.3c-0.1-0.4-0.2-0.8-0.3-1.3
		c-0.3-0.9-0.5-1.9-0.7-3c-0.1-0.5-0.2-1.1-0.3-1.6c-0.1-0.5-0.2-1.1-0.3-1.6c-0.3-2.1-0.6-4.2-0.6-5.7c-0.1-0.8-0.1-1.4-0.1-1.8
		c0-0.4,0-0.7,0-0.7s0-0.1,0-0.2c0-0.2,0-0.4,0-0.8c0-0.4,0-0.9,0-1.6c0-0.3,0-0.7,0.1-1.1c0-0.1,0-0.2,0-0.3l0-0.1l0,0l0,0l-0.1,0
		c-1-0.2,0.4-0.1-0.6-0.1v0l0.1,0c0,0.1,0,0.3,0,0.4c-0.1,0.2-0.1,0.9-0.2,0.9h0c-0.2,0-0.4,1.4-0.7,2.6c-0.2,1.2-0.5,2.5-0.5,4
		c0,0.7,0,1.4,0.2,2.1c0,0.1,0,0.1,0.1,0.2l0,0.1c0,0,0,0.1,0,0.1c0,0.1,0.1,0.2,0.1,0.2c0.1,0.2,0.1,0.3,0.2,0.4
		c0,0.1,0.1,0.1,0.1,0.2c0,0,0.1,0.1,0.1,0.1c0.1,0.1,0.1,0.2,0.2,0.2c0.1,0.1,0.1,0.1,0.2,0.2c0,0,0.1,0.1,0.1,0.1
		c0,0,0.1,0,0.1,0.1c0.1,0,0.1,0.1,0.2,0.1c0.1,0.1,0.3,0.1,0.4,0.1c0.2,0,0.3,0,0.5,0c-0.1-0.1-0.3-0.2-0.4-0.2
		c-0.1-0.1-0.2-0.2-0.3-0.2c0,0-0.1-0.1-0.1-0.1l-0.1-0.1c0,0,0-0.1-0.1-0.1c0-0.1-0.1-0.1-0.2-0.2c0-0.1-0.1-0.1-0.1-0.2
		c0,0,0-0.1-0.1-0.1c0,0,0-0.1-0.1-0.1c-0.1-0.1-0.1-0.2-0.2-0.4c0-0.1-0.1-0.1-0.1-0.2c0,0,0-0.1,0-0.1l0-0.1c0-0.1,0-0.2-0.1-0.2
		c-0.1-0.6-0.2-1.3-0.2-2c0-1.4,0.2-2.8,0.5-4c0.2-1.2,0.5-2.2,0.7-2.8l0,0c0.1-0.2,0.1-0.5,0.2-0.7c0-0.1,0.2-0.1,0.2-0.2l0.2,0v0
		c0-0.1,0.3,0.1-0.7-0.1l-0.1,0l0,0l0,0l0,0.1c0,0.1,0,0.2,0,0.3c0,0.4-0.1,0.8-0.1,1.1c0,0.7,0,1.2-0.1,1.6c0,0.4,0,0.7,0,0.9
		c0,0.2,0,0.3,0,0.3s0,0.2,0,0.7c0,0.4,0,1.1,0.1,1.8c0.1,1.5,0.3,3.6,0.6,5.7c0.1,0.5,0.2,1.1,0.3,1.6c0.1,0.5,0.2,1.1,0.3,1.6
		c0.2,1.1,0.5,2.1,0.7,3c0.1,0.5,0.2,0.9,0.3,1.3c0,0.1,0.1,0.2,0.1,0.3c0.1,0.2,0.1,0.3,0.1,0.4C171.8,209.4,172,209.8,172.4,210.4
		z"/>
	<path class="st0" d="M137.8,239.8c-0.2,0-0.3-0.1-0.4-0.2c-0.5-0.8,3.1-4.7,8.2-10c1.5-1.5,3-3.1,4.5-4.8c2-2.1,3.5-5,4.7-8.6
		c0.9-2.9,1.6-6.2,1.9-9.9c0.6-6.3,0.1-11.5,0.1-11.5l0.1,0c0,0.1,0.5,5.3-0.1,11.5c-0.4,3.7-1,7-1.9,9.9c-1.1,3.6-2.7,6.5-4.7,8.6
		c-1.6,1.7-3.1,3.3-4.5,4.8c-4.8,5.1-8.7,9.2-8.2,10c0.1,0.2,0.7,0.2,1.6-0.2c3.1-1.1,9.6-5.8,14.2-9.6c9-7.6,10.9-11.8,11.2-13.7
		c0.7-4.1,1.9-6.9,2.8-8.6c1.2-2.1,2-3,2.7-3l0.7-0.2c-0.7,0-2.3,1.3-3.4,3.3c-0.9,1.6-2.1,4.5-2.8,8.6c-0.3,1.9-2.2,6.1-11.2,13.7
		c-4.5,3.8-11.1,8.5-14.2,9.6C138.5,239.7,138.1,239.8,137.8,239.8z"/>
	<path class="st1" d="M150.5,195.7c0,0,6-0.5,8.5-2.1c0,0-6.4,6-6.6,7s-0.7-3.9-2.3-4.8"/>
	<path class="st1" d="M97.8,255.5c0,0-11.9-6.6-15.7-7.1c-3.8-0.5-5.7-1-8.5-0.2s10.7,2.9,11.2,6.4c0.5,3.5,1.7,4.1,6.4,7.4
		c4.7,3.3,5-1.7,6.4,4.3c1.4,6,4.3,3.8,4.1,3.1C101.6,268.8,100,256.6,97.8,255.5z"/>
	<path class="st1" d="M95.7,323.3c0,0,0.2,2.2,4.8-1.2c4.7-3.5,24.7-19.7,29.3-23.3c4.7-3.6,6.2-9.8,4.3-13.8c0,0,4.1,9.1,0.5,13.5
		s-33.7,27.4-36.4,29.3s-4.3,5.2-7.2,4c-2.9-1.2-1.9-3.1,0.2-4.5S95.7,323.3,95.7,323.3z"/>
	<path class="st1" d="M172,211.8c0,0-1.4,7.6-5.2,10.7c-3.8,3.1-30,23.5-30,23.5s18.6-12.4,20.4-10.9c1.7,1.6-11.7,18.8-14.3,20.9
		s20.7-26.2,22.8-23.8c2.1,2.4-2.6,17.4-2.6,17.4s10.4-18.6,10.5-22.6C173.7,223,174.3,213,172,211.8z"/>
	<path class="st1" d="M76,189.1c0,0,3.6-1.4,4.7,0.6c1,2.1,4.6,7.6,4.6,7.6s-4.2-12.4-5.4-13.5C79.9,183.8,79.4,187.8,76,189.1z"/>
	<path class="st1" d="M107.5,268.3c0,0,1.9,5.2,4.7,8.6c2.8,3.5,3.8,7.1,2.4,10.4c-1.4,3.3,4-10.2,6-7.1c2.1,3.1-8.1,15.7-11.4,18.3
		c-3.3,2.6,13.1-11,14.5-15.5c1.4-4.5,3.5-5.7,5-4.8c1.6,0.9,3.1-4,3.1-6.4l1.2-2.6c0,0-1.8,4-6.4,3.6c-4-0.3-6.1,2.9-9.7,1.6
		C113.3,272.9,109.4,270.4,107.5,268.3z"/>
	<path class="st0" d="M86.7,163.6c-1.6-0.6-2.2-1.8-2.5-2.5c-0.2-0.6-0.3-1.3-0.1-1.6c0.1-0.1,0.1-0.2,0.2-0.2
		c0.1,0,0.2,0.1,0.3,0.3c0,0,0,0.1,0.1,0.1c0-0.1,0.1-0.2,0.1-0.7c0.1-1.7,3.1-2.7,3.2-2.7l0,0.1c0,0-3,1-3.1,2.6
		c-0.1,0.7-0.1,0.8-0.2,0.8c-0.1,0-0.1-0.1-0.2-0.2c0-0.1-0.1-0.2-0.2-0.2h0c0,0,0,0-0.1,0.1c-0.1,0.2-0.1,0.8,0.1,1.5
		c0.2,0.6,0.9,1.8,2.4,2.4L86.7,163.6z"/>
	<path class="st0" d="M90.4,162.8C90.4,162.8,90.4,162.8,90.4,162.8l-0.1-0.1c0.1,0,2.1,0.1,2.5-2.6c0.3-1.8-0.1-2.7-0.5-3.2
		c-0.3-0.1-0.6-0.2-0.8-0.3c-0.6-0.2-0.7-0.2-0.7-0.3c0-0.1,0.1-0.1,0.2-0.1c0.5,0,1,0.2,1.3,0.6c0,0,0,0,0,0c1.1,0.4,2.5,1.1,2.5,2
		c0,0.8,0.2,1.4,0.6,1.8c0.3,0.2,0.6,0.3,1,0.3l0,0.1c-0.4,0.1-0.8,0-1.1-0.3c-0.3-0.3-0.6-0.8-0.6-1.9c0-0.8-1.2-1.4-2.2-1.8
		c0.4,0.5,0.7,1.5,0.4,3.2c-0.2,1.5-0.9,2.2-1.5,2.5C91,162.8,90.6,162.8,90.4,162.8z M91.1,156.3c0.1,0,0.3,0.1,0.5,0.2
		c0.2,0.1,0.4,0.1,0.6,0.2C91.9,156.4,91.5,156.2,91.1,156.3C91.1,156.3,91.1,156.3,91.1,156.3z"/>
	
		<ellipse transform="matrix(0.8076 0.5898 -0.5898 0.8076 111.9081 -17.4837)" class="st0" cx="82.7" cy="162.7" rx="1.2" ry="0.7"/>
	<path class="st0" d="M90,97.9l0-0.2c0,0,0.2-4.2,2.7-9.1c2.4-4.6,7.4-10.8,17.7-14.4l0.4-0.1l-0.3,0.2
		c-3.4,2.8-12.2,10.3-11.8,11.5c0,0,0,0.1,0.2,0.1c0,0,0,0,0,0c1.3,0,5-2.9,8.6-5.7c3.9-3,7.9-6.2,9.5-6.2c0.1,0,0.1,0,0.2,0
		c0.2,0,0.3,0.1,0.3,0.2c0.1,0.6-1.8,2.1-5,4.5c-3.3,2.5-7.3,5.5-7.3,6.9c0,0.2,0.1,0.3,0.2,0.5c0.2,0.1,0.4,0.2,0.6,0.2
		c1.4,0,4.2-1.5,7.5-3.3c4.4-2.4,9.5-5.2,13-5.2c1.2,0,2.1,0.3,2.8,0.9c4.5,4,12.8,5.4,16.3,6c0.4,0.1,0.8,0.1,1.1,0.2
		c0.1,0,0.2,0,0.4,0c1.1,0,2.1-0.8,3.3-1.6c1.1-0.8,2.3-1.7,3.5-1.7c0.5,0,1.1,0.3,1.5,0.7c2.5,1.9,9.3,4.7,12.3,4.7h0.3
		c1.1,0,1.1-0.1,1.1,0c0,0.1-0.1,0-0.1,0c-0.3,0.1-0.7,0-1.3-0.1c-11,0-68.4,2.1-77.5,10.9L90,97.9z M110.1,74.4
		c-10,3.7-14.9,9.7-17.2,14.2c-2.3,4.4-2.7,8.1-2.7,8.9c9.3-8.5,64.2-10.7,76.8-10.8c-3.3-0.6-9.3-2.7-11.6-4.5
		c-0.5-0.4-0.9-0.5-1.5-0.5c-1.1,0-2.3,0.9-3.4,1.7c-1.1,0.8-2.2,1.6-3.3,1.6c-0.1,0-0.3,0-0.4,0c-0.3-0.1-0.7-0.1-1.1-0.2
		c-3.6-0.6-11.9-2-16.4-6c-0.7-0.6-1.6-0.9-2.7-0.9c-3.5,0-8.5,2.7-12.9,5.2c-3.3,1.8-6.1,3.3-7.5,3.3c-0.3,0-0.5-0.1-0.7-0.2
		c-0.2-0.1-0.3-0.3-0.3-0.6c0-1.4,3.9-4.4,7.3-7c2.6-2,5.1-3.8,4.9-4.4c0,0,0-0.1-0.2-0.1c0,0-0.1,0-0.2,0c-1.5,0-5.5,3.1-9.4,6.2
		c-3.8,3-7.4,5.8-8.7,5.8c0,0,0,0-0.1,0c-0.2,0-0.3-0.1-0.4-0.2C98,84.4,108.2,76,110.1,74.4z"/>
	<path class="st0" d="M336.8,98.2"/>
	<path class="st0" d="M245.8,233.7c-3.6,0-8.4-1.8-11.3-6.9c-2.2-3.9-6.7-10.2-10.9-15.5c-5.9-7.4-8.3-9.4-8.7-9.3c0,0,0,0,0,0H214
		c0,0,0.3-0.7,0.6-0.8c0.5-0.1,1.3,0.2,3.8,2.7c1.5,1.6,3.5,4,5.7,6.8c4.3,5.4,8.6,11.7,10.9,15.6c2.9,5.1,7.7,6.7,11.2,6.5
		c2.4-0.1,4.4-1.1,5.1-2.5c1.8-4,6.7-4.6,7-4.6c0.1,0,4-0.3,9.6-3.1c5.2-2.6,13-7.9,20.4-18.5c0,0,3.3-5.2,7.1-12.5
		c3.4-6.7,8-16.5,10-25.4l0.1-0.4l0.4,0.2c0,0,1.1,0.4,2.7-0.3c1.9-0.9,4.7-3.5,7.2-10.8c3.6-10.6,2.1-20.7,1.3-25.6
		c-0.2-1.5-0.4-2.4-0.3-2.8c0.3-1.8,2.4-8.1,2.9-9c0.1-0.2,0.4-0.3,1-0.7c2.5-1.6,9.1-5.8,4.9-14l0.7-0.4c1.9,3.8,2,7.2,0.1,10.2
		c-1.5,2.4-3.9,4-5.2,4.8c-0.3,0.2-0.7,0.4-0.8,0.5c-0.4,0.7-2.5,6.8-2.8,8.6c0,0.3,0.1,1.3,0.3,2.6c0.8,4.9,2.3,15.2-1.3,26
		c-1.4,4.2-3.9,9.6-7.6,11.3c-1.3,0.6-2.3,0.5-2.8,0.4c-2.1,8.9-6.5,18.6-9.9,25.2c-3.8,7.3-7.1,12.5-7.1,12.6
		c-7.5,10.8-15.4,16.2-20.7,18.8c-5.8,2.8-9.7,3.1-9.9,3.1c0,0-4.7,0.6-6.3,4.2c-0.8,1.7-3,2.8-5.7,3
		C246.1,233.7,245.9,233.7,245.8,233.7z"/>
	<path class="st0" d="M208.2,183.1l-0.7-0.4c4.4-8.4,2.3-16,1.7-17.7c-0.8,0.3-1.7,0.2-2.5-0.2c-1.6-0.9-2.7-3.4-2.9-6.5
		c-0.2-3.7-0.7-4.9-1.6-6.9c-0.2-0.5-0.4-1-0.7-1.6c-0.3-0.7-0.8-1.4-1.4-2.1c-1.7-2.2-3.9-4.8,0.4-10.7c0.5-0.7,1-1.4,1.4-2.1
		c-3.7-1.1-8-4.1-8.4-6.2c-0.1-0.6,0.1-1.8,2.3-2.2c5-0.9,7,0.4,7.8,1.6c0.9,1.5,0.7,3.7-0.6,6.3c0.7,0.1,1.3,0.2,1.9,0.1
		c1.3-0.1,1.9-0.9,1.8-2.2c-0.3-4.8,2.5-6.4,5.5-8c2.2-1.2,4.4-2.4,5.9-4.9c2.2-3.5,0-6.6-2.6-10.2c-1.7-2.4-3.5-4.8-4.1-7.6
		c-0.4-1.7-0.3-2.9,0.3-3.7c0.8-1.1,2.3-1.3,4-1.6c2.1-0.3,4.4-0.6,6.5-2.4c3.6-3.1,24.4-2.2,42.8-1.4c8.8,0.4,16.3,0.7,20.7,0.5
		l0,0.8c-4.4,0.2-12-0.2-20.8-0.5c-17.3-0.7-38.9-1.7-42.3,1.2c-2.2,1.9-4.8,2.3-6.9,2.6c-1.6,0.2-2.9,0.4-3.5,1.2
		c-0.4,0.6-0.5,1.6-0.1,3.1c0.6,2.7,2.3,5.1,4,7.4c2.7,3.6,5.2,7.1,2.7,11.1c-1.7,2.7-4.1,4-6.2,5.2c-3,1.7-5.4,3-5.1,7.3
		c0.1,1.8-0.8,2.9-2.5,3c-0.7,0.1-1.5,0-2.3-0.2c-0.4,0.7-0.9,1.5-1.5,2.3c-3.9,5.4-2.1,7.7-0.4,9.8c0.6,0.7,1.2,1.4,1.5,2.2
		c0.2,0.6,0.5,1.1,0.7,1.5c0.9,2,1.5,3.3,1.7,7.1c0.2,2.8,1.1,5.1,2.5,5.9c0.7,0.4,1.4,0.4,2.1,0l0.4-0.2l0.2,0.4
		C209.8,164.5,213.4,173.2,208.2,183.1z M198.9,127.1c-0.9,0-1.8,0.1-2.9,0.3c-1.2,0.2-1.8,0.7-1.7,1.3c0.3,1.7,4.4,4.7,8,5.7
		c1.3-2.4,1.6-4.4,0.8-5.7C202.4,127.6,200.9,127.1,198.9,127.1z"/>
	<path class="st0" d="M315.6,85.1l-0.2-39.7c0.1-14.8-4.2-26.2-12.8-33.6c-6.5-5.6-15.6-9.2-27.1-10.6c-10.5-1.3-23.2-0.8-37.8,1.4
		c-32.9,4.9-31.4,33.7-30.3,54.7c0.4,7.3,0.7,13.6-0.5,17.5c-2,6.3-7.2,9.8-15.1,10.2c-5.9,0.3-11.3-1.4-11.4-1.4l-0.1,0l-0.1-0.1
		c-0.7-0.8-1.4-0.6-2.9-0.2c-0.7,0.2-1.4,0.4-2.2,0.5c-0.5,0.1-1,0.1-1.4,0.2c-1.8,0.3-3.7,0.7-5.5-1.5c-1.9-2.4-3.2-3.3-8.8-3.9
		c-1.3-0.1-2.3,0-3.1,0.1c-1.3,0.2-2.3,0.3-3.5-0.8c-1.2-1-2.6-3-5.1-7.2c-6.2-10.5-21.7-5.8-21.8-5.8l-0.2-0.7
		c0.2-0.1,4.1-1.3,8.8-1.1c6.4,0.2,11.2,2.7,13.9,7.2c4.7,8,5.5,7.9,7.8,7.6c0.8-0.1,1.9-0.2,3.3-0.1c5.6,0.5,7.2,1.4,9.3,4.2
		c1.5,1.9,2.9,1.6,4.7,1.3c0.5-0.1,1-0.2,1.5-0.2c0.8-0.1,1.5-0.3,2.1-0.5c1.3-0.4,2.6-0.7,3.6,0.4c0.8,0.2,5.7,1.6,11,1.3
		c7.7-0.3,12.5-3.6,14.4-9.6c1.2-3.8,0.9-10,0.5-17.3c-0.5-10.3-1.2-23,2.4-33.7c4.3-12.5,13.6-19.6,28.5-21.9
		c14.7-2.2,27.5-2.7,38-1.4c11.6,1.4,20.9,5.1,27.5,10.8c8.8,7.6,13.2,19.1,13.1,34.2l0.2,39.7L315.6,85.1z"/>
	<path class="st0" d="M111.1,93.6c-2.8,0-5-0.8-6.5-2.3c-2.3-2.4-2-5.6-2-5.9c0.2-9.1,5.4-14.7,9.7-17.7c4.7-3.3,9.2-4.4,9.4-4.5
		l0.3,0.6c0.1-0.4-4.8,1.3-9.3,4.6c-6.1,4.3-9.2,10.1-9.4,17.1l0,0c0,0-0.3,3.2,1.8,5.3c1.5,1.5,3.7,2.2,6.7,2
		c3.4-0.2,5.7-1,6.6-2.6c0.9-1.4,0.3-3,0.2-3.2c-5.6-7.9-3-13.9,0.1-17.6c2.9-3.4,6.6-5.2,6.8-5.2l0.4,0.7c0,0-2.2,1.3-2.3,2.8
		c0,0.7,0.4,1.3,1.2,2c1.9,1.4,2.5,1.3,4,1.1c1.2-0.2,2.8-0.5,5.8-0.1c6.6,0.7,12.7,2.4,13.2,9.2l0.1,1.8L147,80
		c0-0.1-3.4-6.2-8.1-4.9l-0.2-0.7c2.2-0.6,4.5,0.1,6.5,2.1c0.6,0.6,1.1,1.1,1.5,1.7c-1.1-4.5-5.7-6-12.2-6.7
		c-2.9-0.3-4.5-0.1-5.6,0.1c-1.5,0.3-2.4,0.4-4.6-1.2c-1.1-0.8-1.6-1.7-1.5-2.6c0-0.4,0.1-0.7,0.3-1.1c-1.2,0.8-2.6,2-3.8,3.4
		c-4.3,5-4.3,10.6-0.1,16.7l0,0.1c0,0.1,0.9,2.1-0.2,4c-1.1,1.8-3.5,2.7-7.2,2.9C111.6,93.6,111.3,93.6,111.1,93.6z"/>
	<path class="st0" d="M272.6,128.3c0,0,2.6,0.6,4.4,0.3c1.8-0.4-3.1-1.7-3.8-1.3C272.6,127.6,272.6,128.3,272.6,128.3z"/>
	<path class="st0" d="M284.7,125.3c0,0,4.8-0.5,7.4,0.6s1.4-1.4-0.5-1.4S284.5,125.4,284.7,125.3z"/>
	<path class="st0" d="M233.9,146.3c-2.1,0-4.3-0.4-6-1.8c-1.6-1.4-2.5-2.1-2.8-2.6c-1.3,0.5-3.3-0.1-3.6-0.2l0.2-0.7
		c0.6,0.2,2.2,0.6,3.1,0.2c0,0,0,0,0,0c0.1-0.1,0.2-0.2,0.3-0.2c0,0,0,0,0-0.1c0.1-0.2,0.2-0.4,0.3-0.7c0.9-2,2.8-6,10.1-6.3
		c0.2,0,5.6-0.3,8.1,4.1c0.7,1.3,1.6,2.8,2,3l0,0c0.2,0.1,1,0.5,0.9,1.2c-0.1,0.6-0.8,0.8-1.4,0.9c-2,0.4-3.2,1-5,1.9
		C239.4,145.5,236.8,146.3,233.9,146.3z M225.8,141.5c0.3,0.3,1,1,2.7,2.4c3.5,2.9,10.1,1.2,11.5,0.5c1.7-0.9,3-1.5,5.1-2
		c0.5-0.1,0.7-0.2,0.7-0.3c-0.1-0.1-0.3-0.3-0.4-0.4c-0.8-0.4-2-2.7-2.4-3.3c-2.2-3.9-7.3-3.7-7.3-3.7c-6.9,0.2-8.6,4-9.4,5.8
		c-0.1,0.3-0.2,0.5-0.4,0.7C225.9,141.4,225.8,141.4,225.8,141.5z"/>
	<path class="st0" d="M247.1,142.3c-0.6,0-1-0.1-1.1-0.1l0.1-0.8c0.7,0.1,2.4,0.2,2.7-0.5c0-0.1,0.1-0.2,0-0.2
		c-0.1-0.2-0.7-0.5-1.1-0.5l0-0.3h0c-1.7,0-2.8-1.5-4-3.4c-0.4-0.6-0.8-1.1-1.2-1.6c-1.5-2.1-6.2-1.9-6.2-1.9l0-0.1h0
		c-7.9,0-10,3.4-11.5,5.9c-0.2,0.3-0.4,0.7-0.5,0.9c-1.5,2.3-2.7,1.8-2.9,1.7l0.2-0.3l-0.2,0.3l0.4-0.6c0.1,0.4,0.7,0.4,1.9-1.4
		c0.2-0.3,0.3-0.5,0.5-0.8c1.6-2.7,3.8-6.3,12.1-6.1c0.4,0,5.2-0.2,6.9,2.1c0.4,0.6,0.8,1.2,1.2,1.8c1.1,1.7,2.1,3.2,3.3,3.3
		c0.3,0,1.4-0.1,1.8,0.5c0.1,0.2,0.2,0.5,0,1C249.1,142.1,247.9,142.3,247.1,142.3z"/>
	<path class="st0" d="M234.2,148.9c-5.2,0-7.4-2.7-8.7-4.2c-0.3-0.3-0.5-0.6-0.7-0.8c-0.8-0.7-2.6-0.7-3.2-0.6l-0.1-0.8
		c0.1,0,2.5-0.2,3.7,0.8c0.2,0.2,0.5,0.5,0.8,0.9c1.6,1.9,4.8,5.9,14.7,2.8l0.2,0.7C238.3,148.6,236.1,148.9,234.2,148.9z"/>
	<path class="st0" d="M238.3,132.2"/>
	<path class="st0" d="M270.4,139.1c0,0,3.5-7.2,11.3-7.2c7.9,0,9.6,3.4,11.5,7.1c0,0,1.2,1.9,1.8,2c0.6,0.1-3.1,0-4-0.9
		c-0.9-0.9-1.6-4.3-6.3-5.2c-4.7-0.9-10,0.1-12.9,5C271.8,139.9,270.7,140.1,270.4,139.1z"/>
	<path class="st0" d="M295.4,140.9c-1.1-0.1-1.8-1.8-2.8-4c-0.7-1.6-1.4-3.2-2.2-4.1c-1.8-2.2-7.3-2.7-12.6-1.3
		c-5.1,1.4-6.9,6.6-6.8,7.2c0-0.1-0.1-0.2-0.2-0.2l-0.2,0.7c-0.1,0-0.3-0.1-0.3-0.5c0-1,1.9-6.4,7.4-7.9c5.7-1.6,11.4-0.9,13.4,1.5
		c0.9,1,1.6,2.7,2.3,4.3c0.7,1.5,1.7,4.1,2.3,4.1L295.4,140.9z"/>
	<path class="st0" d="M293.8,140.7"/>
	<path class="st0" d="M280.3,145.8c-6.3,0-8.9-6.6-8.9-6.6l0.7-0.3c0,0,0.7,1.7,2.1,3.3c1.9,2.1,4.2,3,6.9,2.8
		c4.4-0.4,6.5-2.1,8.2-3.4c0.9-0.7,1.7-1.3,2.6-1.7l0.3,0.7c-0.8,0.3-1.6,0.9-2.4,1.5c-1.8,1.4-4,3.2-8.6,3.6
		C280.9,145.8,280.6,145.8,280.3,145.8z"/>
	<path class="st0" d="M281.1,148c-0.1,0-0.1,0-0.2,0c-4.4,0-7-1.9-8.3-3.5c-1.1-1.3-1.6-2.6-1.8-3.2c-0.6-0.1-1.8-0.4-2-1.2
		c-0.2-0.6,0.3-1.2,1.3-1.9l0.4,0.6c-0.8,0.5-1,0.9-1,1.1c0.1,0.3,0.9,0.5,1.6,0.6l0.3,0l0.1,0.3c0.1,0.3,1.6,6.2,9.4,6.3
		c4.7,0,7.5-2.2,9.8-4c1.1-0.9,2.2-1.7,3.2-2.2c-1.1-0.4-2.1-0.9-2.3-1.4c-0.1-0.2,0-0.5,0.2-0.6l0.5,0.5c0,0,0-0.1,0-0.1
		c0.1,0.3,1.7,0.9,3.3,1.4l-0.1,0.8c-1.5-0.1-2.8,1-4.4,2.3C288.9,145.6,286,148,281.1,148z"/>
	<path class="st0" d="M299.2,134.2C299.2,134.2,299.3,134.2,299.2,134.2c-1-0.1-1.8-1.6-1.9-1.6c-4.4-6.4-14.4-5.4-22.3-2.3
		c-3.6,1.4-5.4,1.2-6.3,0.7c-0.8-0.4-1-1-1-1l0.3-0.1c0,0,0.2,0.5,0.9,0.8c0.9,0.4,2.6,0.6,6.1-0.7c8-3.1,18.2-4.2,22.7,2.4
		c0,0,0.8,1.4,1.8,1.5c0.3,0,0.4-0.1,0.7-0.4c-0.7-1.9-2.1-6.4-4.1-6.4v-0.3c2,0,3.9,6,4.1,6.6l-0.1,0.1v0.1
		C300,134,299.6,134.2,299.2,134.2z"/>
	<path class="st0" d="M249.7,161c-0.7-0.1-1.1-0.2-1.9,0c-0.1,0-0.3,0.1-0.5,0.2c-0.1,0-0.2,0.1-0.3,0.1c-0.1,0-0.1,0.1-0.2,0.1
		c-0.1,0-0.2,0.1-0.2,0.1c-0.1,0.1-0.3,0.2-0.5,0.3c-0.3,0.2-0.6,0.4-0.9,0.7c-0.5,0.5-1,1.1-1.3,1.9c-0.3,0.7-0.6,1.5-0.6,2.3
		c-0.1,0.8,0.1,1.7,0.4,2.5c0.4,0.8,1,1.5,1.7,1.9c0.7,0.4,1.6,0.6,2.4,0.7c0.2,0,0.4,0,0.6,0c0,0,0,0,0.1,0l0.1,0c0,0,0.1,0,0.1,0
		c0.1,0,0.2,0,0.2,0c0.3,0,0.6,0.2,0.9,0.4c0.2,0.2,0.4,0.5,0.6,0.8c0.1,0.2,0.1,0.3,0.2,0.4c0.1,0.2,0.1,0.3,0.2,0.5
		c0.2,0.7,0.5,1.2,0.9,1.7c0.4,0.5,0.8,0.8,1.2,1.1c0.2,0.1,0.4,0.2,0.6,0.3c0.2,0.1,0.4,0.2,0.5,0.2c0.2,0.1,0.3,0.1,0.4,0.1
		c0.1,0,0.2,0.1,0.3,0.1c0.2,0,0.3,0.1,0.3,0.1s0.1,0,0.3,0c0.2,0,0.4,0,0.8,0.1c0.2,0,0.4,0,0.6,0c0.2,0,0.4,0,0.6,0
		c0.5,0,1-0.1,1.5-0.1c0.6-0.1,1.2-0.1,1.8-0.3c0.3-0.1,0.7-0.2,1-0.3c0.3-0.2,0.7-0.4,0.9-0.7l0.2-0.2l0.1-0.3
		c0.1-0.2,0.2-0.3,0.2-0.5c0.2-0.3,0.4-0.7,0.6-1c0.4-0.6,0.9-1.3,1.4-1.8c0.3-0.3,0.6-0.5,0.9-0.7c0.3-0.2,0.7-0.3,1-0.4
		c0.3,0,0.7,0.1,1,0.3c0.3,0.2,0.5,0.5,0.6,0.8c0.1,0.3,0,0.6-0.2,0.9c-0.2,0.3-0.5,0.5-0.8,0.7c-0.3,0.2-0.6,0.4-0.9,0.5
		c-0.2,0.1-0.3,0.1-0.5,0.2c-0.1,0-0.2,0-0.3,0.1l-0.1,0c0,0-0.1,0-0.1,0c-0.2,0-0.5,0.1-0.6,0.1c-0.2,0-0.4,0-0.5,0
		c-0.2,0-0.4,0.1-0.6,0.1c-0.2,0.1-0.3,0.1-0.5,0.3c0,0-0.1,0.1-0.1,0.1c0,0,0,0.1,0,0.2c0,0.1,0,0.2,0.1,0.3
		c0.1,0.1,0.2,0.2,0.4,0.3c-0.1-0.1-0.2-0.3-0.2-0.4c0-0.1,0-0.2,0.1-0.2c0.1-0.1,0.4-0.2,0.8-0.2c0.1,0,0.3,0,0.4,0
		c0.2,0,0.5,0,0.7-0.1c0,0,0.1,0,0.1,0l0.1,0c0.1,0,0.2,0,0.3-0.1c0.2-0.1,0.4-0.1,0.5-0.2c0.4-0.1,0.7-0.3,1-0.6
		c0.3-0.2,0.6-0.5,0.9-0.9c0.1-0.2,0.2-0.4,0.3-0.6c0.1-0.2,0.1-0.5,0-0.7c-0.1-0.5-0.5-0.8-0.8-1.1c-0.4-0.3-0.8-0.4-1.3-0.4
		c-0.5,0-0.9,0.2-1.3,0.4c-0.4,0.2-0.7,0.5-1,0.8c-0.6,0.6-1.1,1.2-1.5,1.9c-0.2,0.3-0.4,0.7-0.6,1c-0.1,0.2-0.2,0.4-0.2,0.5
		l-0.1,0.2l-0.1,0.2c-0.4,0.5-1,0.8-1.6,0.9c-0.6,0.1-1.2,0.2-1.8,0.2c-0.6,0-1.1,0.1-1.5,0.1c-0.2,0-0.4,0-0.6,0
		c-0.2,0-0.4,0-0.5,0c-0.3,0-0.6,0-0.7-0.1c-0.2,0-0.3,0-0.3,0s-0.1,0-0.2-0.1c-0.1,0-0.2,0-0.3-0.1c-0.1,0-0.2-0.1-0.4-0.1
		c-0.1,0-0.3-0.1-0.5-0.2c-0.2-0.1-0.4-0.2-0.5-0.3c-0.4-0.2-0.7-0.5-1.1-1c-0.3-0.4-0.6-0.9-0.8-1.5c-0.1-0.2-0.1-0.3-0.2-0.5
		c0-0.2-0.1-0.3-0.2-0.5c-0.2-0.3-0.4-0.7-0.7-0.9c-0.3-0.3-0.7-0.5-1.1-0.5c-0.1,0-0.2,0-0.3,0c-0.1,0-0.1,0-0.2,0l-0.1,0l0,0
		c-0.2,0-0.4,0-0.6,0c-0.7-0.1-1.5-0.2-2.1-0.6c-0.7-0.4-1.2-0.9-1.5-1.6c-0.3-0.7-0.4-1.5-0.4-2.2c0.1-0.8,0.3-1.5,0.6-2.2
		c0.3-0.7,0.7-1.2,1.2-1.7c0.2-0.2,0.5-0.4,0.8-0.6c0.1-0.1,0.3-0.2,0.4-0.2c0.1,0,0.1-0.1,0.2-0.1c0.1,0,0.1,0,0.2-0.1
		c0.1,0,0.2-0.1,0.3-0.1c0.2-0.1,0.3-0.1,0.4-0.1C248.7,161.3,249.1,161.2,249.7,161z"/>
	<path class="st0" d="M242.5,163h-0.1l0,0.2c0-0.3,5.3-5.3,8.4-5.6c0.6-0.1,1-0.3,1.3-0.9c1.6-3.1-0.5-11.9-0.9-12.6
		c-0.2-0.4,0.2-1.7,1-3.8c0.8-2,1.7-4.5,1.3-5.1l-0.1-0.1l0.1-0.1c0,0,0.1-0.1,0.3-0.1c0.1,0,0.2,0,0.3,0.1c0.3,0.3,0.4,1,0.3,2.3
		c-0.1,3-0.8,23.8-0.8,24l0,0.2l-0.2,0c0,0-2-0.6-4.2-0.6c-2.4,0-4.3,0.3-5.6,1.5C242.7,163.3,242.6,163,242.5,163z M253.8,135.2
		c0.4,0.8-0.5,3.1-1.3,5.2c-0.6,1.5-1.2,3.2-1,3.6c0.4,0.7,2.5,9.6,0.9,12.9c-0.4,0.7-0.9,1.1-1.5,1.1c-2,0.2-4.9,2.4-6.7,4
		c1.3-0.9,3-1.3,5.1-1.3c1.9,0,3.6,0.4,4.2,0.6c0.1-2,0.7-21,0.8-23.8c0-1.6-0.2-2-0.3-2.2C253.8,135.2,253.8,135.2,253.8,135.2
		C253.8,135.2,253.8,135.2,253.8,135.2z"/>
	<path class="st1" d="M246.1,170.9c0,0,3.9-1.8,4.9,0.3s2.6,5.3,3.7,5.5c0,0-2.6,0-4.1-1.6c-1.5-1.6-2.3-4.4-4.6-3.9"/>
	<path class="st1" d="M262.6,175.1c0.2-0.3,2.6-5,5-4c2.2,0.9,0.3,3.4-1.3,3.6c-1.6,0.3-3.9,1.1-4.2,1.6
		C261.8,176.8,262.6,175.1,262.6,175.1z"/>
	<path class="st1" d="M247.3,171.3c0.1,0.3,2.2,0.8,0.3,2.3c-1.8,1.6-7.5,6.4-7.6,10.9c-0.1,3.9,1.5,4,4.5,4.5c3,0.5,6-0.8,8,0
		c2.1,0.8,4.2,0.9,5.9,0.9s5-1.2,7.3-0.3s8.8,0.9,9.7-3.1c0.9-4-4.5-13.9-8.5-12.8c-4.1,1.1-4.1,2.6-6.3,2.9
		c-2.2,0.3-5.5,0.9-7.2-0.2c-1.7-1.1-3.3-4-3.7-4.1C249.2,172.3,247.3,171.3,247.3,171.3z"/>
	<path class="st0" d="M238.3,193.5c0.2,0.3,0.4,0.5,0.7,0.6c0.3,0.1,0.6,0.2,1.1,0.2c0.1,0,0.3,0,0.5-0.1c0.1,0,0.2-0.1,0.3-0.1l0,0
		c0,0,0.1,0,0.1,0l0.2-0.1c0.1-0.1,0.2-0.1,0.3-0.2c0.2-0.1,0.4-0.3,0.7-0.4c0.4-0.3,0.9-0.6,1.4-0.8c1-0.5,2.1-1,3.2-1.2
		c1.2-0.3,2.4-0.3,3.6-0.2c0.2,0,0.3,0,0.5,0.1l0.5,0.1c0.3,0.1,0.6,0.1,0.9,0.2c0.6,0.2,1.2,0.3,1.9,0.5c0.3,0.1,0.6,0.2,0.9,0.3
		c0.3,0.1,0.6,0.2,1,0.2c0.6,0.2,1.3,0.2,2,0.1c0.7-0.1,1.3-0.4,1.9-0.6c0.6-0.2,1.1-0.5,1.7-0.6c1.1-0.3,2.3-0.4,3.4-0.1
		c0.3,0,0.5,0.1,0.8,0.2c0.3,0.1,0.5,0.1,0.8,0.2c0.5,0.1,1.1,0.3,1.6,0.4c1,0.3,2,0.5,2.9,0.7c0.4,0.1,0.9,0.2,1.3,0.2
		c0.2,0,0.4,0,0.6,0c0.2,0,0.4,0,0.5-0.1c0.3,0,0.7,0,0.9,0.1c0.1,0,0.2,0.1,0.3,0.1c0.1,0.1,0.2,0.1,0.2,0.2c0,0,0,0.1,0,0.1
		c0,0,0,0.1,0,0.1c0,0,0,0.1,0,0.1c0,0,0,0.1,0,0.1c-0.1,0.1-0.2,0.2-0.3,0.2c-0.2,0.1-0.3,0.2-0.3,0.2s-0.1,0.1-0.4,0.1
		c-0.3,0.1-0.6,0.2-1.1,0.2c-1,0.2-2.5,0.3-4.3,0.3c-0.9,0-1.9-0.1-2.9-0.1c-0.5,0-1.1,0-1.6-0.1c-0.6,0-1.1,0-1.7,0
		c-0.6,0-1.2,0-1.8,0c-0.6,0-1.2,0-1.8,0c-1.2,0-2.5,0.1-3.8,0.1c-2.5,0-5.1-0.3-7.7-0.4l-0.5-0.1l-0.5-0.1h-0.5
		c-0.2,0-0.3,0.1-0.5,0.1c-0.3,0-0.6,0.1-1,0.1c-0.3,0.1-0.6,0.1-0.9,0.2c-0.6,0.1-1.2,0.3-1.7,0.4c-0.3,0.1-0.6,0.1-0.8,0.2
		c-0.1,0-0.3-0.5-0.4-0.5l-0.2-0.5h-0.1c-0.5,0-0.9,0.4-1,0.4c-0.1-0.1-0.2,0.1-0.3,0c-0.1-0.1-0.2-0.1-0.2-0.2
		C238.4,194,238.4,193.8,238.3,193.5c-0.1,0.3-0.2,0.6-0.1,0.9c0,0.2,0.1,0.3,0.2,0.5c0.1,0.2,0.3,0,0.5,0.1
		c0.2,0.1,0.7-0.1,1.2-0.1h0.2l0.2,0.3c0.1,0,0.3,0.1,0.4,0.1c0.3,0,0.6,0,0.9-0.1c0.6-0.1,1.2-0.2,1.8-0.4c0.3-0.1,0.6-0.1,0.9-0.2
		c0.3-0.1,0.6-0.4,0.9-0.4c0.1,0,0.3-0.3,0.5-0.3h0.5h0.5h0.5c2.5,0,5.1,0.8,7.7,0.7c1.3,0,2.5,0.1,3.8,0.1c0.6,0,1.2,0.1,1.8,0.1
		c0.6,0,1.2,0.1,1.8,0.1c0.6,0,1.1,0,1.7,0c0.5,0,1.1,0.1,1.6,0.1c1,0,2,0.1,2.9,0.1c1.8,0,3.3-0.1,4.3-0.3c1-0.2,1.6-0.4,1.6-0.4
		s0,0,0.1,0c0.1,0,0.2-0.1,0.3-0.2c0.1-0.1,0.3-0.2,0.5-0.4c0-0.1,0.1-0.1,0.1-0.2c0-0.1,0-0.1,0-0.2c0-0.1,0-0.2,0-0.2
		c0-0.1,0-0.2-0.1-0.3c-0.1-0.2-0.2-0.3-0.4-0.4c-0.2-0.1-0.3-0.2-0.5-0.2c-0.3-0.1-0.7-0.1-1.1-0.1c-0.2,0-0.4,0-0.6,0.1
		c-0.2,0-0.3,0-0.5,0c-0.4,0-0.8-0.1-1.2-0.2c-0.9-0.2-1.8-0.4-2.8-0.7c-0.5-0.1-1-0.3-1.6-0.4c-0.3-0.1-0.5-0.1-0.8-0.2
		c-0.3-0.1-0.6-0.2-0.9-0.2c-1.2-0.2-2.4-0.2-3.7,0.2c-0.6,0.2-1.2,0.4-1.8,0.7c-0.6,0.2-1.2,0.5-1.7,0.6c-0.6,0.1-1.2,0-1.8-0.1
		c-0.3-0.1-0.6-0.2-0.9-0.2c-0.3-0.1-0.6-0.2-0.9-0.3c-0.6-0.2-1.2-0.3-1.9-0.5c-0.3-0.1-0.6-0.2-0.9-0.2l-0.5-0.1
		c-0.2,0-0.3,0-0.5-0.1c-1.3-0.2-2.6-0.1-3.8,0.2c-1.2,0.3-2.3,0.8-3.4,1.3c-0.5,0.3-1,0.6-1.4,0.9c-0.2,0.1-0.4,0.3-0.7,0.4
		c-0.1,0.1-0.2,0.1-0.3,0.2l-0.2,0.1c0,0-0.1,0-0.1,0l0,0c-0.1,0-0.2,0.1-0.3,0.1c-0.2,0.1-0.3,0.1-0.4,0.1c-0.3,0.1-0.6,0-0.9,0
		C238.9,193.8,238.6,193.7,238.3,193.5z"/>
	<path class="st0" d="M262.4,206.5L262.4,206.5c-0.1,0-0.1-0.1-0.2-0.3c-0.5-1-2.9-1.4-8.4-1.6c-2.5-0.1-4.4-1.3-5.7-2.3
		c-1.4-1.1-2.1-2.2-2.1-2.3v0l-0.1,0c0,0,0,0,0,0c0.4,0.4,3.7,1.2,6.3,1.2c0.4,0,0.8,0,1.2-0.1c1.2-0.2,2.1-0.2,3.1-0.2
		c1.3,0,2.7,0.1,4.9,0.4c0.5,0.1,1.1,0.1,1.6,0.1c3.2,0,5.9-1.1,5.9-1.1l0,0l0,0c0,0,0.1,0.1,0.1,0.2c0,0.3-0.2,0.7-1.4,1.7
		c-1,0.7-1.4,0.8-1.8,0.9c-0.4,0.1-0.9,0.2-1.9,0.9c-1.3,0.9-1.5,1.9-1.5,2.3C262.5,206.5,262.5,206.5,262.4,206.5z M245.9,200.2
		c0.2,0.3,0.9,1.2,2.1,2.2c1.2,1,3.2,2.1,5.7,2.2c5.5,0.2,8,0.7,8.5,1.7c0,0.1,0.1,0.2,0.2,0.3c0,0,0-0.1,0-0.2
		c0.1-0.4,0.3-1.5,1.6-2.4c1-0.7,1.5-0.8,1.9-0.9c0.4-0.1,0.8-0.2,1.8-0.9c1.2-0.9,1.4-1.4,1.4-1.6c0-0.1,0-0.1-0.1-0.1
		c-0.2,0.1-2.9,1.1-5.9,1.1c-0.6,0-1.1,0-1.6-0.1c-2.2-0.3-3.6-0.4-4.9-0.4c-1,0-2,0.1-3.1,0.2c-0.3,0-0.7,0.1-1.2,0.1
		C249.9,201.3,246.6,200.6,245.9,200.2z"/>
	<path class="st0" d="M241.2,195.6c0.1,0.3,0.2,0.6,0.4,0.8c0.2,0.2,0.4,0.5,0.7,0.7c0.1,0.1,0.2,0.2,0.4,0.3
		c0.1,0.1,0.2,0.1,0.3,0.2c0.1,0.1,0.2,0.1,0.2,0.2c0.1,0.1,0.2,0.1,0.3,0.2c0.2,0.1,0.4,0.2,0.6,0.4c0.2,0.1,0.4,0.2,0.7,0.3
		c0.2,0.1,0.5,0.2,0.7,0.3c0.5,0.2,1,0.4,1.5,0.5c1,0.3,2.1,0.5,3.2,0.6c0.5,0,1.1,0.1,1.6,0.1c0.5,0,1,0.1,1.5,0.1
		c1,0.1,1.9,0.1,2.6,0.2c1.5,0.1,2.5,0.2,2.5,0.2s0.2,0,0.7,0c0.4,0,1.1,0,1.8,0.1c1.5,0,3.6,0,5.7-0.4c1.1-0.2,2.2-0.5,3.2-0.9
		c0.5-0.2,1-0.5,1.4-0.8c0.2-0.2,0.4-0.3,0.6-0.5c0.1-0.1,0.2-0.2,0.3-0.3c0,0,0.1-0.1,0.1-0.1l0.1-0.1c0.1-0.1,0.2-0.2,0.2-0.3
		c0.1-0.1,0.1-0.2,0.2-0.3c0.1-0.2,0.2-0.3,0.3-0.4c0.1-0.2,0.2-0.3,0.2-0.5c0.1-0.2,0.1-0.3,0.1-0.5c0-0.1,0.1-0.3,0.1-0.4
		c0-0.2,0-0.3,0-0.5c-0.1,0.1-0.2,0.3-0.2,0.4c-0.1,0.1-0.1,0.3-0.2,0.4c-0.1,0.1-0.1,0.2-0.2,0.4c-0.1,0.1-0.2,0.3-0.3,0.4
		c0,0.1-0.1,0.2-0.2,0.4c-0.1,0.1-0.1,0.2-0.2,0.3c-0.1,0.1-0.1,0.2-0.2,0.3l-0.1,0.1c0,0-0.1,0.1-0.1,0.1c-0.1,0.1-0.2,0.2-0.3,0.2
		c-0.2,0.2-0.4,0.3-0.6,0.5c-0.4,0.3-0.8,0.5-1.3,0.8c-0.9,0.4-2,0.7-3,0.9c-2.1,0.4-4.1,0.4-5.7,0.4c-0.8,0-1.4,0-1.8-0.1
		c-0.4,0-0.7,0-0.7,0s-1,0-2.5-0.2c-0.8-0.1-1.6-0.1-2.6-0.2c-0.5,0-1-0.1-1.5-0.1c-0.5,0-1-0.1-1.6-0.1c-1.1-0.1-2.1-0.3-3.1-0.6
		c-0.5-0.1-1-0.3-1.5-0.5c-0.2-0.1-0.5-0.2-0.7-0.3c-0.2-0.1-0.4-0.2-0.6-0.3c-0.2-0.1-0.4-0.2-0.6-0.3c-0.1-0.1-0.2-0.1-0.3-0.2
		c-0.1-0.1-0.2-0.1-0.2-0.2c-0.1-0.1-0.2-0.1-0.3-0.2c-0.2-0.1-0.3-0.2-0.3-0.3c-0.3-0.2-0.5-0.4-0.7-0.6
		C241.7,196,241.5,195.8,241.2,195.6z"/>
	<path class="st0" d="M253.1,221.2c-3.3,0-5.4-0.3-5.4-0.3c-5.9-1.3-11.5-4.3-16.7-9c-4.2-3.8-8.1-8.6-11.7-14.4
		c-6.1-9.8-9.1-19.1-9.1-19.2l0.1,0c0,0.1,3,9.4,9.1,19.2c3.6,5.8,7.5,10.6,11.7,14.4c5.2,4.7,10.8,7.7,16.7,9
		c0.1,0,5.8,0.9,13.4-0.3c4.4-0.7,8.6-1.9,12.3-3.6c4.7-2.2,8.8-5.2,12.2-8.9l0,0c-3.4,3.7-7.5,6.7-12.2,8.9
		c-3.8,1.7-7.9,3-12.4,3.7C258,221.1,255.3,221.2,253.1,221.2z"/>
	<path class="st0" d="M309.7,146.2c-0.7,0-1.2-0.2-1.3-0.2l-0.3-0.1l0-0.3c0-0.2,1.7-18.6-0.2-22.6c-1.3-2.8-3.3-2.5-6.1-2.1
		c-1,0.2-2,0.3-3.2,0.4c-4,0.1-7.1-3.3-9.3-10.1c-1.2-3.8,0-6.3,1-8.6c0.6-1.2,1.1-2.4,1.2-3.6c0.1-1.8-1.9-3.3-2.7-3.8
		c-1.4-0.9-2.7-1.2-2.9-1.1c0,0,0.1-0.1,0.1-0.1l-0.8-0.1c0-0.2,0.1-0.7,1-0.6c1.9,0.1,6.2,2.7,6.1,5.7c-0.1,1.4-0.6,2.6-1.2,3.9
		c-1,2.2-2.1,4.5-1,8c1.4,4.4,4.1,9.7,8.6,9.6c1.1,0,2.1-0.2,3.1-0.3c2.8-0.4,5.3-0.8,6.9,2.5c0.8,1.7,1,5.6,1,9.8
		c0.1-0.8,0.5-1.4,1.1-1.7c0.3-0.1,0.3-0.3,0.4-0.3c0.1-0.3-0.3-1-0.6-1.5c-0.5-0.8-0.9-1.6-0.6-2.4c0.2-0.5,0.7-0.8,1.6-1
		c3.5-0.7,5.4-2.1,7.5-5.4l0.7,0.4c-2.2,3.5-4.3,5-8,5.7c-0.4,0.1-0.9,0.2-1,0.5c-0.2,0.4,0.2,1.1,0.6,1.7c0.4,0.7,0.9,1.5,0.6,2.2
		c-0.1,0.3-0.4,0.6-0.8,0.8c-1.4,0.6-0.5,5,0.2,8.2c0.3,1.4,0.6,2.6,0.7,3.6c0.1,1.2-0.1,2-0.7,2.5
		C310.8,146.1,310.2,146.2,309.7,146.2z M309,145.3c0.5,0.1,1.3,0.2,1.7-0.2c0.4-0.3,0.5-0.9,0.4-1.8c-0.1-0.9-0.4-2.2-0.7-3.5
		c-0.4-1.8-0.8-3.6-0.9-5.2C309.5,139.5,309.1,144.1,309,145.3z"/>
	<path class="st0" d="M210.7,167.9l-0.8,0c0.5-8.3-2.1-19.8-3.3-21.4c-0.5-0.6-0.6-1.3-0.2-2c0.4-0.9,1.6-1.6,2.3-1.8
		c0.3-1,0.6-6.9,0.5-11.1c-0.1-3.7,1.8-3.9,4-4.2c0.6-0.1,1.3-0.2,2-0.3c2.4-0.6,3-5.9,3.1-7.9l0.8,0c0,0.3-0.2,7.8-3.7,8.7
		c-0.7,0.2-1.5,0.3-2.1,0.4c-2.2,0.3-3.4,0.4-3.3,3.4c0.1,2.2,0.1,11-0.7,11.8c-0.1,0.1-0.2,0.1-0.3,0.1c-0.2,0-1.4,0.6-1.8,1.4
		c-0.2,0.4-0.1,0.7,0.2,1.1C208.6,147.8,211.2,159.6,210.7,167.9z"/>
	<path class="st0" d="M263.4,165.3c-0.1,0-0.2,0-0.3,0c-0.9-0.3-1.2-2.3-1.2-2.4c0-0.2-0.1-13.6-0.3-22c-0.1-4.5,1.7-7,3.2-8.4
		c1.6-1.5,3.2-1.9,3.3-1.9l0.1,0.3c-0.1,0-6.4,1.7-6.2,10c0.1,4.9,0.1,11.4,0.2,16c0-0.1,0-0.2,0.1-0.3l0.2,0.1
		c-0.3,0.7,0.4,2.1,1,3.5c0.8,1.9,1.7,3.8,0.8,4.7C264,165.1,263.7,165.3,263.4,165.3z M262.2,157.3c0,3.2,0.1,5.5,0.1,5.5
		c0.1,0.5,0.4,1.9,1.1,2.1c0.2,0.1,0.5,0,0.8-0.3c0.8-0.7,0-2.6-0.8-4.4C262.7,159.2,262.2,158.1,262.2,157.3z"/>
	<path class="st0" d="M255.7,175.4c-1.8,0-3.5-2.4-3.7-5.1c-0.1-1.5-1.3-2-2.4-2.2c-0.2,0.1-0.4,0.1-0.6,0.1h0
		c-0.2,0-0.5-0.1-0.7-0.2l-0.4-0.2l0.4,0c0,0,0.2,0,0.4,0c0.3,0,0.5,0,0.8,0.1c1.6-0.7,3.1-4,3.1-4l0.3-0.7l-0.1,0.7
		c-0.4,5.9,1.8,8.8,2.9,10.2c0.4,0.5,0.6,0.8,0.5,1.1c-0.1,0.2-0.3,0.2-0.5,0.2C255.9,175.4,255.8,175.4,255.7,175.4z M250.2,167.9
		c1,0.2,2.1,0.8,2.2,2.3c0.2,2.6,1.9,5,3.6,4.9c0.2,0,0.3-0.1,0.3-0.1c0-0.1-0.2-0.5-0.5-0.8c-1-1.4-3.1-4.2-2.9-9.7
		C252.3,165.4,251.3,167.1,250.2,167.9L250.2,167.9L250.2,167.9z"/>
	<path class="st0" d="M251.6,199c-0.6,0-5.9-0.1-8.7-3.4l0,0l0,0c0,0,1.6-0.4,2.7-0.4c0.6,0,0.9,0.1,1.1,0.3c0.5,0.7,3,3.5,4.9,3.5
		c0.1,0,0.2,0,0.2,0c0.1,0,0.1,0,0.1,0C252,199,252,199,251.6,199z M243,195.6c2.5,2.9,6.9,3.3,8.2,3.3c-0.9-0.2-1.9-0.8-2.6-1.4
		c-0.9-0.8-1.7-1.7-1.9-2c-0.1-0.2-0.5-0.3-1-0.3C244.6,195.2,243.3,195.5,243,195.6z"/>
	<path class="st0" d="M261.9,197c-0.6,0-1.1,0-1.4-0.1c-0.9-0.2-2.1-0.2-3.5-0.2c-1.2,0-2.6,0-4-0.1c-3.1-0.3-4.4-1.9-4.4-2l0.1,0
		c0,0,1.3,1.7,4.4,1.9c1.4,0.1,2.8,0.1,4,0.1c1.4,0,2.6,0,3.5,0.2c1.7,0.4,6.2-0.3,7.6-0.6c1.5-0.4,2.7-1,2.7-1l0,0.1
		c0,0-1.2,0.7-2.7,1C267,196.6,264,197,261.9,197z"/>
	<path class="st0" d="M247.2,218.4L247.2,218.4c-8.4-1.9-15.2-7.1-15.3-7.1c-4.2-3.2-7.6-7.2-10.2-12.1c-2.1-4-3.7-8.6-4.7-13.5
		c-0.7-3.7-1.1-7.8-1.1-11.7c0-3.1,0.3-5.6,0.5-6.7c0.6-3.2,0-4-1.5-6.1c-0.4-0.6-0.9-1.3-1.5-2.2c-1.9-3-1.7-8.9-1.7-11.8
		c0-0.8,0-1.4,0-1.5c-0.2-0.3,0.5-1.7,0.8-2.3c1.1-2.1,3.1-4.9,4-4.9c0.2,0,0.3,0.1,0.4,0.3c0.2,0.6,0.2,2,0.1,3.7
		c-0.1,3.8-0.2,9.5,2.1,11.4c2.5,2,6.7,6.5,7.1,11c0.1,1.9-0.4,3.6-1.8,5.1c-1.5,1.7-2.4,5.1-2.5,9.2c0,4,0.8,8.3,2.2,11.4
		c1.1,2.5,3.1,5.5,6.3,5.5c0.3,0,0.5,0,0.8-0.1c0.9-0.1,1.9-0.2,2.9-0.2c3.5,0,6.1,1,7.8,1.8c1.8,0.9,3,2,3,2.5c0,0.1,0,0.1-0.1,0.2
		c-0.1,0-0.2,0.1-0.3,0.1c0,0,0,0-0.1,0c-1,0-3.5,1.6-4.2,4c-0.5,1.5-0.4,3.6,2.5,5.8c1.8,1.3,4.1,3.4,4.7,5.8
		C247.6,217.5,247.2,218.4,247.2,218.4L247.2,218.4z M216.4,138.7c-0.8,0-2.7,2.6-3.9,4.9c-0.6,1.2-0.9,2-0.8,2.2
		c0.1,0.1,0,0.5,0,1.5c-0.1,2.8-0.2,8.7,1.7,11.7c0.6,0.9,1.1,1.6,1.5,2.2c1.4,2,2.1,2.9,1.5,6.1c-0.2,1.1-0.5,3.6-0.5,6.7
		c0,3.9,0.4,8,1.1,11.7c1,5,2.5,9.5,4.7,13.5c2.6,4.9,6,8.9,10.2,12.1c0.1,0.1,6.9,5.2,15.2,7.1c0.1-0.1,0.4-1,0-2.2
		c-0.6-2.3-2.9-4.4-4.7-5.7c-3-2.2-3-4.4-2.5-5.9c0.8-2.4,3.3-4,4.3-4c0,0,0,0,0.1,0c0.1,0,0.2,0,0.2,0c0,0,0.1-0.1,0.1-0.1
		c0-0.8-4.3-4.3-10.7-4.3c-0.9,0-1.9,0.1-2.8,0.2c-0.3,0-0.6,0.1-0.8,0.1c-1.8,0-4.4-1-6.4-5.5c-1.4-3.1-2.2-7.4-2.2-11.5
		c0-4.2,0.9-7.6,2.5-9.3c1.3-1.4,1.9-3.1,1.7-5c-0.3-4.4-4.6-9-7-11c-2.3-1.9-2.2-7.4-2.1-11.4c0-1.8,0.1-3.2-0.1-3.7
		C216.7,138.7,216.6,138.7,216.4,138.7z"/>
	<path class="st0" d="M281.7,209.8l0-0.2c0-0.1,2.1-8.5,3.2-17.9c0.6-5.6,0.8-10.4,0.6-14.4c-0.3-5-1.4-8.7-3.1-10.9
		c-1.5-1.9-3.5-2.8-6-2.7l-0.1,0l0-0.1c0,0,1.5-2.5,4.3-2.5c1.7,0,3.5,0.9,5.4,2.5c1.2,1,2.5,1.5,4.1,1.5c3,0,6.7-1.9,10.1-5.2
		c3.3-3.3,5.9-7.4,7-11.2c0.1-0.5,0.2-0.7,0.2-0.7l0.1,0c-0.1,0.2-0.1,0.5-0.2,0.7c-0.8,3-3.8,13.6-8.2,25.9
		c-5.8,15.8-11.6,27.6-17.4,35.1L281.7,209.8z M276.8,163.7c2.3,0,4.2,0.9,5.6,2.7c1.8,2.3,2.8,5.9,3.2,10.9c0.3,4,0.1,8.9-0.6,14.4
		c-1,8.8-2.9,16.6-3.2,17.8c5.7-7.5,11.5-19.3,17.3-34.9c4-10.8,6.7-20.5,7.9-24.6c-1.3,3.5-3.6,7.1-6.6,10
		c-3.4,3.3-7.1,5.3-10.2,5.3h0c-1.6,0-3-0.5-4.2-1.5c-1.9-1.7-3.7-2.5-5.4-2.5c-2.6,0-4,2.1-4.3,2.5
		C276.5,163.7,276.7,163.7,276.8,163.7z"/>
	<path class="st0" d="M270.1,174L270.1,174c2.4-2.6,3.4-4.9,3.1-7.1c-0.4-2.7-2.9-4.2-2.9-4.2l0-0.1c2.5,1.2,3.9,2.7,4,4.5
		C274.7,170.6,270.2,174,270.1,174z M270.8,163c0.7,0.5,2.2,1.9,2.5,3.9c0.3,2.1-0.7,4.4-2.9,6.8c1.1-0.9,4.2-3.7,3.9-6.5
		C274.2,165.5,273,164.1,270.8,163z"/>
	<path class="st0" d="M324.6,177.2"/>
	<path class="st0" d="M263.6,194.4c-0.3,0-0.5,0-0.6,0c-1.2-0.2-4.1-0.2-5.2-0.2c-0.2,0-0.4,0-0.7,0c-0.4,0-0.8,0-1.3,0
		c-2.1,0-3.4-0.1-4.1-0.5c-0.5-0.2-1.5-0.4-2.7-0.4c-1.3,0-2.9,0.1-4.3,0.4c-2.1,0.3-3.4,0.4-3.4,0.4l0,0l0,0c0-0.1,0-0.2,0-0.3
		c0.4-0.6,2.7-1.2,4.6-1.6c0.5-0.1,1-0.2,1.4-0.3c0.3-0.1,0.6-0.1,1-0.1c1.6,0,4.2,0.5,6.2,0.9c1.2,0.3,2.3,0.5,2.9,0.5
		c0.1,0,0.2,0,0.4,0c1.2,0,2.6-0.5,3.9-1c0.8-0.3,1.5-0.5,2.2-0.7c0.2,0,0.4-0.1,0.7-0.1c1.8,0,5,1,7.1,1.7c0.9,0.3,1.5,0.5,1.8,0.5
		c0.1,0,0.2,0,0.2,0.1c0,0.2-2.1,0.3-3.2,0.3c-0.4,0-1,0-1.3-0.1c-0.2,0-0.4-0.1-0.8-0.1c-0.7,0-1.6,0.1-2.5,0.1
		C265.1,194.4,264.2,194.4,263.6,194.4z M257.8,194.2c1.1,0,4,0,5.2,0.2c0.1,0,0.3,0,0.6,0c0.6,0,1.5-0.1,2.4-0.1
		c0.9-0.1,1.8-0.1,2.5-0.1c0.4,0,0.6,0,0.8,0.1c0.2,0.1,0.7,0.1,1.3,0.1c1.3,0,3-0.2,3.2-0.3c0,0-0.1,0-0.1,0c-0.3,0-1-0.3-1.8-0.5
		c-2.1-0.7-5.3-1.7-7.1-1.7c-0.3,0-0.5,0-0.7,0.1c-0.7,0.2-1.4,0.4-2.2,0.7c-1.4,0.5-2.8,1-4,1c-0.1,0-0.2,0-0.4,0
		c-0.6-0.1-1.7-0.3-2.9-0.5c-2-0.4-4.6-0.9-6.2-0.9c-0.4,0-0.7,0-1,0.1c-0.4,0.1-0.9,0.2-1.4,0.3c-1.9,0.4-4.2,0.9-4.6,1.6
		c0,0.1-0.1,0.1,0,0.2c0.2,0,1.4-0.1,3.3-0.4c1.4-0.2,3-0.4,4.3-0.4c1.2,0,2.2,0.1,2.7,0.4c0.7,0.3,2,0.5,4.1,0.5c0.5,0,0.9,0,1.3,0
		C257.4,194.2,257.6,194.2,257.8,194.2z"/>
	<path class="st0" d="M222,68.8v-0.1c4,0,9.8-3.5,14.1-9c2.3-3,4.2-6.3,5.2-9.5c1.2-3.7,1.4-7.2,0.6-10.4c-0.3-1.2,0-2,0.6-2.5
		c3.6-2.5,19.5,4.7,32.1,11.2c14.7,7.5,29.2,16,33.1,18.7c0.9,0.6,1.5,0.7,2,0.3c1.6-1.5,0.2-10-3.7-22.6
		c-3.5-11.2-8.1-22.7-11-27.5c-1.1-1.9-2.7-3-4.6-3.5c-6.3-1.4-15.8,4.8-23.5,9.8c-2.7,1.8-5.3,3.5-7.3,4.5
		c-3.5,1.8-8.2,1.3-14.4-1.6c-5.3-2.5-10.8-6.4-15.7-9.8c-1.9-1.3-3.6-2.5-5.2-3.6c-0.9-0.6-1.8-0.7-2.6-0.3
		c-3.1,1.6-5.9,10.4-8,25.6c-1.6,11.5-2.3,28.9-2.3,29l-0.1-6.3c0-0.1,0.7-11.3,2.2-22.8c2.1-15.4,4.8-24.1,8.1-25.7
		c0.9-0.4,1.8-0.4,2.7,0.3c1.6,1,3.3,2.3,5.2,3.6c4.9,3.4,10.4,7.3,15.7,9.8c6.1,2.9,10.8,3.5,14.3,1.6c2-1.1,4.6-2.7,7.3-4.5
		c7.7-5,17.2-11.3,23.6-9.8c2,0.4,3.6,1.6,4.7,3.5c2.9,4.8,7.5,16.4,11,27.6c1.8,5.8,3.1,10.9,3.8,14.8c0.8,4.5,0.8,7.2-0.1,8
		c-0.5,0.5-1.2,0.4-2.1-0.3c-3.9-2.7-18.4-11.2-33.1-18.7c-12.7-6.4-28.5-13.6-32-11.2c-0.6,0.4-0.8,1.2-0.6,2.3
		c0.8,3.2,0.6,6.8-0.6,10.5c-1,3.3-3,6.6-5.3,9.5C231.8,65.2,226,68.8,222,68.8z"/>
	<path class="st0" d="M313.9,121c-0.1,0-0.3,0-0.4-0.1c-0.6-0.2-1-0.7-1.2-1.5c-0.4-1.7-4.4-2.1-8.5-2.5c-2.4-0.2-4.9-0.4-7-0.9
		c-1.3-0.3-2.2-1-2.7-2.1c-1.8-3.7,1.4-10.6,1.5-10.9c1.2-2.5-2.9-11.9-2.9-12l0.1-0.1c0.2,0.4,4.1,9.6,2.9,12.1
		c-0.1,0.3-3.3,7.1-1.5,10.8c0.5,1.1,1.4,1.8,2.7,2.1c2.1,0.5,4.5,0.7,6.9,0.9c4.2,0.4,8.2,0.7,8.6,2.6c0.2,0.7,0.6,1.2,1.1,1.4
		c0.5,0.1,1.1,0,1.5-0.5c0.6-0.6,0.8-1.6,0.5-2.6c-0.3-1.1-3.5-3.7-6.9-6.5c-5-4-8.5-7-8-8.1c0.2-0.5,1.2-0.6,2.9-0.3
		c5.7,0.9,9,4.3,11.5,6.8c2.1,2.1,3.6,3.7,5.4,2.5c2.1-1.4,1.2-3.1,0.3-4.8c-0.8-1.5-1.5-2.8-0.2-3.8c0.2-0.2,0.3-0.3,0.3-0.5
		c0-0.2-0.3-0.5-0.6-0.8c-2.3-0.8-5-2-7.3-3c-0.2-0.1-0.5-0.2-0.7-0.3c-0.3-0.1-0.7-0.2-1-0.3c-2.4-0.8-2.9-1-2.9-1.1
		c0-0.1,0.1-0.1,0.1-0.1c0.4,0,1.8,0.6,3.8,1.4c2.9,1,6.5,2.2,8,3.3c2.6,0.9,4.8,1.3,5.3,0.3c0.6-1.3,0.2-2.6-0.1-3.6
		c-0.2-0.8-0.4-1.4-0.1-1.9c0.2-0.3,0.6-0.5,1.3-0.6c1.4-0.1,2.4,0.2,3.3,0.6c1.3,0.5,2.3,0.8,3.7-0.4c2.5-2,2.6-6.4,2.6-6.4h0.1
		c0,0,0,4.4-2.6,6.5c-1.5,1.2-2.6,0.9-3.9,0.4c-0.9-0.3-1.9-0.7-3.2-0.5c-0.6,0.1-1,0.2-1.2,0.5c-0.3,0.4-0.1,1,0.2,1.8
		c0.3,1.1,0.7,2.4,0.1,3.7c-0.5,1.1-2.6,0.8-5.1-0.1c0.2,0.2,0.4,0.4,0.4,0.7c0,0.2-0.1,0.5-0.3,0.7c-1.2,0.9-0.5,2.2,0.2,3.7
		c0.9,1.7,1.8,3.5-0.4,5c-1.9,1.2-3.4-0.3-5.5-2.5c-2.4-2.5-5.8-5.9-11.4-6.8c-1.6-0.3-2.6-0.2-2.8,0.3c-0.5,1.2,4,4.8,7.9,8
		c3.4,2.8,6.7,5.4,7,6.5c0.3,1.1,0.1,2.1-0.5,2.7C314.8,120.8,314.4,121,313.9,121z M313.5,99.3c1.9,0.9,4.2,1.9,6.3,2.6
		C318.5,101,315.9,100.1,313.5,99.3z M308.6,97.4c0.3,0.2,1.3,0.5,2.5,0.9C309.9,97.8,308.9,97.4,308.6,97.4z"/>
	<path class="st0" d="M207.9,182.9l-0.1,0c0-0.2-1.2-3.8-2.4-7.2c-0.9-2.5-1.8-5.1-2.5-7.2c-0.5-1.5-1.5-3.3-2.7-5.3
		c-2.8-4.8-6.2-10.8-4.7-17c1-4.4,0-11.5-4.5-17.7c-2.8-3.8-7.8-8.3-16.3-9.5c6.2,3.8,11.4,7.4,12.9,10.4c0.4,0.8,0.4,1.4,0,1.7
		c-1.1,0.9-4.5-0.3-6.5-1.1c-3.1-1.3-6.6-3.1-9.3-5c-1.9-1.3-5-3.7-4.5-5.2c0.3-1,2.1-1.4,5.3-1.2c0.6,0,1.1,0.1,1.6,0.1
		c-1.3-0.8-2.6-1.6-4-2.4c-9.4-5.7-19.2-11.6-19.1-16.1c0-0.5,0.2-0.9,0.6-1.1c2.8-1.8,15.2,3.3,28.3,8.7
		c14.1,5.8,28.7,11.8,32.4,9.6c0.5-0.3,0.8-0.7,0.8-1.2c0-2.9-9.2-8.4-18.1-13.7c-8.3-5-16.1-9.7-16.2-12.1c0-0.4,0.2-0.7,0.6-1
		c2.6-1.6,10.5-1.1,23.4,1.3c9.6,1.8,18.6,4.2,18.7,4.2l0,0.1c-0.4-0.1-35.9-9.3-42.1-5.5c-0.4,0.2-0.5,0.5-0.5,0.8
		c0,2.3,7.8,7,16.1,11.9c8.9,5.3,18.1,10.9,18.1,13.9c0,0.5-0.3,1-0.9,1.3c-0.5,0.3-1.3,0.5-2.3,0.5c-5.7,0-18.1-5.1-30.2-10.1
		c-13.1-5.4-25.5-10.5-28.2-8.7c-0.4,0.2-0.5,0.6-0.5,1c-0.1,4.5,9.6,10.4,19.1,16c1.4,0.9,2.9,1.7,4.2,2.6
		c8.7,1.1,13.9,5.7,16.7,9.6c4.6,6.2,5.6,13.4,4.5,17.8c-1.5,6.2,2,12.1,4.7,16.9c1.2,2,2.2,3.8,2.7,5.3c0.7,2.1,1.6,4.7,2.5,7.2
		C207,180,208,182.7,207.9,182.9z M170.9,118.8c-2.2,0-3.4,0.4-3.7,1.1c-0.4,1.1,1.3,2.9,4.5,5.1c2.7,1.8,6.2,3.7,9.3,4.9
		c3.3,1.3,5.7,1.7,6.4,1.1c0.3-0.3,0.3-0.8,0-1.6c-1.4-3-6.8-6.6-13-10.5c-0.6-0.1-1.3-0.1-1.9-0.2
		C171.8,118.8,171.3,118.8,170.9,118.8z"/>
	<path class="st1" d="M311.7,158.6c0,0-4.9,0.3-6.2,7.8C305.5,166.3,304.4,156.8,311.7,158.6z"/>
	<path class="st0" d="M202.7,83.4"/>
	<path class="st0" d="M307.8,91.6c-10.7,0-23.8-0.3-39.6-0.9c-48.1-1.9-69.2-5.8-70.2-6.2v0l-0.1,0c-0.4-0.1-0.4-0.5-0.4-0.5
		c0,0,0.1-0.4,0.5-0.3c2.1,0.4,22,4.3,70.2,6.2c29.9,1.2,66.6,1.8,71.4-1.8c0.3-0.3,0.9-0.8,0.6-1.4c-0.7-1.7-6.8-3.9-25.2-1.3
		c-13.2,1.8-34.6,2.7-54.5,2.3c-31.9-0.6-48.5-4.2-56.8-7l0.3-0.7c8.3,2.8,24.8,6.3,56.6,7c19.9,0.4,41.3-0.5,54.4-2.3
		c8.2-1.1,14.7-1.4,19.3-0.9c3.8,0.4,6.1,1.4,6.7,2.7c0.3,0.8,0,1.7-0.9,2.3C337.5,90.6,326.7,91.6,307.8,91.6z"/>
	<path class="st0" d="M256.1,70.9c-23,0-48.4-3.5-48.7-3.5l0.1-0.8c0.4,0.1,39.9,5.5,65,2.8c13.1-1.4,24.3-1.2,31.4-0.8
		c7.7,0.5,12.3,1.3,12.4,1.3l-0.1,0.8c0,0-4.7-0.8-12.3-1.3c-7-0.4-18.2-0.6-31.3,0.8C267.5,70.7,261.9,70.9,256.1,70.9z"/>
	<path class="st0" d="M228,317.2L228,317.2c-0.6-0.2-12.9-4.8-18.4-11.8c-1.6-2-4-5.4-6.8-9.4c-6.8-9.5-16.1-22.6-19.8-25
		c-5.7-3.7-23.2-10.2-26.2-6.8c-1,1.1-1.3,2.1-1.1,3.1c0.4,1.8,2.9,3.5,7.4,5.3c1.7,0.7,3.6,1.3,5.7,2c6.5,2.2,10.8,3.7,11.3,5.5
		c0.7,2.1,8.5,8.7,9.5,9l-0.2,0.8c-1.2-0.3-9.2-7.1-10-9.5c-0.5-1.5-6.2-3.4-10.8-5c-2.1-0.7-4.1-1.4-5.8-2
		c-4.9-1.9-7.4-3.8-7.9-5.8c-0.3-1.2,0.1-2.5,1.2-3.8c2-2.3,8.2-1,13.1,0.5c5.8,1.8,11.6,4.5,14.1,6.1c3.8,2.4,12.7,15,20,25.2
		c2.8,3.9,5.2,7.3,6.8,9.3c5.1,6.5,16.8,11.1,17.9,11.5c20.9-2.1,38.7-12.4,50-20.7c11.8-8.7,20.3-18.1,22.4-21.1
		c2.6-3.7,1-8.1-5.1-14.3c-0.9-0.9-1.2-1.8-0.9-2.7c1.3-3.5,13.2-4.7,15.8-4.9c0-3.2-0.2-27.2-2.3-42.3c-0.7-4.6-2.3-11.3-6.2-17.2
		c-2.4-3.5-4.5-5.1-4.5-5.1l0.5-0.6c0.1,0.1,2.2,1.6,4.7,5.2c2.2,3.3,4.6,9,5.9,17.5c2.3,16.2,1.8,42.5,1.8,42.8v0.4l0.2,0
		c-4,0.3-14.2,1.7-15.2,4.4c-0.2,0.6,0.2,1.2,0.9,1.9c4.4,4.4,9,10,5.3,15.3c-1.4,2-9.4,11.5-22.5,21.3
		C267.2,304.7,249.2,315.1,228,317.2L228,317.2z"/>
	<path class="st0" d="M181.4,297.9c-1.1-0.9-2.5-1.8-3.9-2.7c-2.5-1.6-5.2-3.3-7-5.6c-1.5-1.9-3.9-2.4-6.7-2.9
		c-2.3-0.4-4.6-0.9-6.9-2.2c-0.9-0.5-1.8-1-2.7-1.5c-3.2-1.6-6.5-3.4-7.3-5.9c-0.3-1.2-0.1-2.5,0.7-3.8c1.4-2.4,4.6-3.3,9.2-2.5
		c3.4,0.6,6.4,1.8,6.5,1.9l-0.3,0.7c-0.1,0-11.7-4.9-14.7,0.3c-0.7,1.2-0.9,2.2-0.6,3.2c0.7,2.3,3.8,3.9,6.9,5.5
		c0.9,0.5,1.9,1,2.8,1.5c2.1,1.2,4.4,1.7,6.6,2.1c2.8,0.5,5.5,1.1,7.2,3.2c1.8,2.2,4.3,3.9,6.8,5.4c1.5,0.9,2.8,1.8,4,2.8
		L181.4,297.9z"/>
	<path class="st0" d="M261.9,369.5c-6.1,0-11.6-0.9-16.4-2.7c-6-2.3-11.1-6-15.1-11.2c-7.2-9.3-9.6-21.2-11.3-29.8
		c-0.9-4.5-1.6-8.1-2.7-9.3c-0.8-0.8-1.4-1.2-2-1c-2.8,0.9-4.1,12.4-5,20.8c-0.1,1.2-0.3,2.4-0.4,3.5c-0.7,5.6-4.2,7.2-6.2,7.7
		c-3.8,0.8-8.5-0.9-10.2-3.8c-1.7-2.8-7.6-7.6-11.9-11.1c-4.3-3.5-5.1-4.2-5-4.7c-0.4-0.5-3.2-1.6-6.5-3c-2.7-1.1-6.1-2.5-9.8-4.2
		c-5.8-2.6-7.3-5.6-7.5-7.7c-0.3-2.5,1.2-4.5,2.5-5.4c1.9-1.4,8.1,1,15.4,4.5c2.2,1.1,4.5,1.9,5,1.9c0,0,0,0,0,0
		c0.8,0,3-1.8,4.6-3.2c-1.5-0.3-4.9-1.2-7-4c-1.6-2.2-6.9-4.5-12-6.9c-3-1.3-5.8-2.6-7.8-3.8c-4.1-2.4-6.4-5.2-6.4-7.7
		c0-1.5,0.9-2.8,2.5-3.9c2-1.2,7.1-0.2,15.1,3c5.9,2.4,11.2,5.2,11.3,5.2l-0.4,0.7c-5.9-3-21.9-10.5-25.6-8.2
		c-1.4,0.9-2.2,2-2.1,3.2c0,2.2,2.3,4.8,6,7c2,1.2,4.8,2.5,7.8,3.8c5.2,2.4,10.6,4.8,12.3,7.2c2.5,3.4,7.2,4,7.2,4l0.8,0.1l-0.6,0.6
		c-0.4,0.4-4.3,4-5.6,4.2c-0.5,0.1-1.8-0.5-5.5-2.2c-4.8-2.3-12.9-6.1-14.6-4.8c-1.1,0.8-2.4,2.6-2.2,4.7c0.2,1.9,1.6,4.6,7,7
		c3.8,1.7,7.1,3.1,9.8,4.2c5.6,2.3,7.1,2.9,7,3.7c0.3,0.5,2.6,2.3,4.7,4.1c4.4,3.6,10.3,8.5,12.1,11.3c1.6,2.6,6,4.2,9.4,3.4
		c3.2-0.7,5.1-3.2,5.6-7c0.1-1.1,0.3-2.3,0.4-3.5c1-9.5,2.2-20.4,5.5-21.4c0.9-0.3,1.8,0.1,2.8,1.2c1.3,1.4,2,4.9,2.9,9.7
		c3.3,16.7,9.5,47.7,50.9,42.5l0.1,0.8C267.7,369.3,264.7,369.5,261.9,369.5z"/>
	<path class="st0" d="M191.4,291c-0.8,0-1.8-0.1-2.8-0.5c-3.1-1.2-12.5-9.8-13.3-10.5c-0.4,0.5-3.5,4.2-5.1,4.2c0,0-0.1,0-0.1,0
		c-0.3,0-0.5-0.2-0.6-0.4c-0.6-1,0.8-2.1,1.9-3c0.6-0.5,1.2-0.9,1.1-1.2c0-0.1-0.2-0.2-0.4-0.2c-2-0.4-14.2-5.5-15.5-6.1
		c0,0.4-0.4,1.7-2.7,3.2c-0.6,0.4-1.6,0.4-2.6-0.1c-1-0.4-1.8-1-2.3-1.7c-0.5-0.8-0.5-1.5,0.2-2c0.8-0.6,0.8-0.8,0.8-0.9
		c0,0,0-0.1-0.1-0.1c-0.3-0.1-1.2,0.1-1.5,0.4l-0.1-0.1c0.4-0.3,1.3-0.5,1.7-0.4c0.1,0.1,0.2,0.1,0.2,0.2c0,0.2-0.3,0.6-0.9,1
		c-0.8,0.6-0.4,1.4-0.2,1.8c0.9,1.4,3.2,2.5,4.4,1.7c2.7-1.6,2.4-3.1,2.4-3.1v-0.1l0.4,0c0.1,0.1,13.6,5.7,15.7,6.1
		c0.3,0.1,0.5,0.2,0.6,0.3c0.1,0.3-0.4,0.8-1.1,1.3c-1.1,0.8-2.4,1.9-1.8,2.8c0.1,0.2,0.3,0.3,0.5,0.3c0,0,0.1,0,0.1,0
		c1.6,0,5-4.2,5-4.2l0-0.1l0.1,0c0.1,0.1,10.1,9.2,13.3,10.5c2.9,1.2,5.2,0.1,5.6-0.1c-0.7-1-9.9-13.1-11.5-15.1
		c-1-1.2-1.7-0.6-2.5,0c-0.6,0.4-1.3,1-2.1,0.9c-0.3,0-0.5-0.1-0.6-0.4c-0.6-1.1,1.1-4.4,1.4-5l-14.3-4.9c-2-0.4-3,3.5-3,3.6l0,0.1
		l-4.5-1.3l0,0c-0.5-0.6-0.7-1.2-0.6-1.9c0.3-1.9,2.9-3.3,3-3.4l0.1,0.1c0,0-2.6,1.5-2.9,3.3c-0.1,0.6,0.1,1.2,0.5,1.8l4.3,1.3
		c0.1-0.5,1.1-4,3.1-3.6l14.5,4.9l0,0.1c0,0-2.1,3.8-1.5,4.9c0.1,0.2,0.3,0.3,0.5,0.3c0.8,0.1,1.4-0.4,2-0.9c0.9-0.7,1.7-1.3,2.7,0
		c1.7,2,11.4,15,11.5,15.1l0,0.1l-0.1,0C194.4,290.3,193.2,291,191.4,291z"/>
	<path class="st0" d="M190.5,306c0,0,0,0.2-0.1,0.2l0,0.1c0,0-0.1,0-0.1,0c-0.8-0.5-4.5-2.8-5.3-3.3c-2.6-1.7-5.9-3.9-6.9-5
		c-1.5-1.5-2.6-1.1-3.6-0.8c-0.4,0.1-0.7,0.3-1.1,0.3c-0.5,0.1-1.3,0.4-2.1,0.7c-1.2,0.5-2.6,1.1-3.5,0.8c-0.2-0.1-0.3-0.2-0.4-0.4
		c-0.2-0.7,0.5-2,1.3-3.2c0.5-0.9,1-1.7,1.1-2.2c0.2-1.1-8.8-3.8-12.3-4.7c-0.3,0.3-2.1,2.3-3.7,2.4c-1.6,0.1-4.5-0.7-5.5-2.5
		c-0.3-0.5-0.3-1.1-0.1-1.6c0.6-1.4,2.9-2.2,3-2.3l0,0.1c0,0-2.4,0.8-2.9,2.2c-0.2,0.5-0.2,1,0.1,1.5c0.9,1.7,3.7,2.5,5.3,2.4
		c1.6-0.1,3.6-2.4,3.6-2.4l0,0l0,0c1.3,0.3,12.7,3.4,12.5,4.9c-0.1,0.5-0.6,1.4-1.1,2.2c-0.7,1.2-1.5,2.5-1.3,3.1
		c0.1,0.1,0.2,0.2,0.3,0.3c0.9,0.3,2.3-0.3,3.4-0.8c0.8-0.4,1.5-0.7,2.1-0.7c0.4,0,0.7-0.2,1.1-0.3c1-0.3,2.2-0.7,3.7,0.8
		c1.7,1.7,8.9,6.3,11.4,7.9c-0.6-0.6-1-1.3-1.4-2.1c-0.9-1.7-2-3.9-6.7-6.9l0.1-0.1c4.8,3,5.9,5.2,6.8,7c0.6,1.1,1,2,2.2,2.7l0,0
		l0,0l0-0.2L190.5,306L190.5,306z"/>
	<path class="st0" d="M200.7,339c-0.2,0-0.3,0-0.5-0.1c-3.3-0.7-9.2-7.1-10.4-10c-0.6-1.5-0.5-4-0.3-6.4c0.2-3.1,0.4-5.9-1.1-6.2
		c-1.3-0.2-3.3,0.9-5.2,2c-2.3,1.2-4.4,2.4-5.4,1.7c-1.1-0.8-1.4-0.5-1.8,0c-0.3,0.3-0.7,0.8-1.4,0.9c-0.4,0.1-0.6,0-0.9-0.2
		c-0.6-0.7-0.4-2.3-0.4-2.6c-0.8-0.3-9.5-3.9-10.9-4.8c-0.2-0.1-0.4-0.2-0.7-0.1c-1.3,0.3-3,2.9-3,2.9l0,0l0,0c0,0-2.1-0.5-4.1-2.1
		c-0.5-0.4-0.8-1-0.8-1.6c0-2,2.9-4.2,3.1-4.3l0.1,0.1c0,0-3,2.3-3,4.2c0,0.6,0.3,1.1,0.8,1.5c1.8,1.4,3.7,2,4,2
		c0.2-0.3,1.8-2.7,3.1-2.9c0.3-0.1,0.6,0,0.8,0.1c1.4,0.9,10.8,4.7,10.9,4.8l0,0l0,0.1c0,0-0.3,1.9,0.3,2.6c0.2,0.2,0.4,0.3,0.7,0.2
		c0.7-0.1,1-0.5,1.3-0.8c0.4-0.5,0.8-0.9,2-0.1c1,0.7,3.2-0.5,5.3-1.7c2-1.1,4-2.2,5.3-2c1.6,0.3,1.4,3.2,1.2,6.3
		c-0.1,2.4-0.3,4.9,0.3,6.4c0.6,1.4,2.3,3.7,4.4,5.8c2.3,2.3,4.5,3.8,5.9,4.1c0.6,0.1,1.1,0,1.4-0.3c0.7-0.7,1.9-4.3,3.1-8.5
		c2.6-8.5,5.8-19.1,9.4-18.3l0,0.1c-3.4-0.8-6.8,10.2-9.2,18.2c-1.3,4.4-2.4,7.9-3.2,8.6C201.4,338.9,201.1,339,200.7,339z"/>
	
		<ellipse transform="matrix(0.7929 0.6094 -0.6094 0.7929 218.9367 -48.8024)" class="st1" cx="181.3" cy="297.7" rx="1.5" ry="0.9"/>
	
		<ellipse transform="matrix(0.7929 0.6094 -0.6094 0.7929 215.5531 -55.9372)" class="st1" cx="190.1" cy="289.1" rx="1.5" ry="0.9"/>
	<path class="st0" d="M209.3,288.8c-0.7,0-1.2-0.2-1.6-0.6c-1.6-1.9,1.9-7.5,2.3-8.1l0,0c5.5-7.3,8.8-16.9,9.7-28.5
		c0.8-9.4,0.1-20.1-2-31.9c-3.6-20.1-10.3-36.4-10.4-36.6l0.7-0.3c0.1,0.2,6.8,16.6,10.4,36.7c2.1,11.8,2.8,22.6,2,32.1
		c-1,11.8-4.3,21.6-9.9,28.9c-1.4,2.2-3.3,6.1-2.4,7.2c0.4,0.5,1.7,0.4,3.5-0.3c13.9-5.5,24.7-13,31.3-18.3
		c18.1-14.6,30.8-33.3,37.9-55.5l1-0.6c-7.1,22.3-20.2,41.9-38.4,56.6c-6.7,5.4-17.5,13-31.5,18.5
		C211,288.6,210.1,288.8,209.3,288.8z"/>
	<path class="st0" d="M196.6,287c-1.2-10.1,3.8-20.7,8.6-31.1c3.5-7.5,6.8-14.5,7.2-20.5c0.8-11.1-0.6-18.4-3.9-21.2
		c-1.6-1.3-3.7-1.6-6.2-0.9c-4.8,1.3-6.2,6.4-7.4,10.8c-1,3.7-1.9,6.8-4.6,6.8c-5.5,0-7.6-13.2-8.5-18.9c-0.1-0.3-0.1-0.6-0.1-0.9
		c-0.7-4.1-1.5-4.3-5.1-5.4c-0.3-0.1-0.5-0.2-0.8-0.2c-4.5-1.3-6.6-6-6.7-6.2l0.7-0.3c0,0,2.1,4.5,6.2,5.7c0.3,0.1,0.5,0.2,0.8,0.2
		c3.8,1.1,4.9,1.4,5.7,6c0,0.3,0.1,0.6,0.1,0.9c0.8,5,3,18.2,7.8,18.2c2.1,0,2.9-2.9,3.9-6.3c1.2-4.4,2.7-9.9,8-11.3
		c2.8-0.8,5.1-0.4,6.9,1.1c4.5,3.7,4.8,13.9,4.2,21.9c-0.4,6.1-3.8,13.3-7.3,20.8c-4.8,10.2-9.7,21.1-8.6,31L196.6,287z"/>
	<path class="st0" d="M217.8,121.4c-0.1-0.2-7.5-19.9-23.7-27.1c-8.2-3.6-17.3-3.5-27,0.4l-0.3-0.7c9.9-4,19.2-4.1,27.6-0.4
		c8.6,3.8,14.8,11.1,18.4,16.6c3.9,5.9,5.8,10.9,5.8,11L217.8,121.4z"/>
	<path class="st1" d="M217.9,217.7c0,0,2.7,9.7,19.7,15.8c0,0-21.5-22.2-24.3-34.7l-1.3-3.5L217.9,217.7z"/>
	<path class="st1" d="M277.1,217.3c0,0-11.9,19.4-31.7,27.4c0,0,25.7-8.1,34-29.3L277.1,217.3z"/>
	<path class="st1" d="M242.6,248.3c0,0,3.5,5.8,0.8,9.3c-2.7,3.5-14.2,21.9-14.2,21.9l8.4-5.2l9.3-20.6l-1.4-8.9L242.6,248.3z"/>
	<path class="st1" d="M147.4,278.1c0,0-0.5,2.2,2,3.6c2.5,1.5,5.4,3.2,5.4,3.2s5.6,1.6,6,1.6c0.3,0.1,7.9,3.9,8.3,3.9
		s4.2,1.8,4.2,1.8s-3-4.1-4.6-4.6c-1.6-0.4-3.8-1.1-5.1-1.1c-1.3,0-5.2-1.7-6.2-2.1C156.4,284.1,147.4,278.1,147.4,278.1z"/>
	<path class="st1" d="M146.3,288.5c0,0-4.1,5.8,3.9,9.2c8,3.5,15.8,6.8,16.7,7.4c0.9,0.6,3.7,4.9,5.6,5.6c1.9,0.7,4.1,1.6,4.4,1.6
		s1.4,0.4,1.4,0.4l1.3-1.7c0,0-4.5-2.7-6.2-3.7c-1.7-1-5.1-4.1-6-4.5c-0.9-0.3-11.6-5.7-12.2-5.8C154.5,297,146,291.7,146.3,288.5z"
		/>
	<path class="st1" d="M175.4,315.6c0,0,3.6,0.6,5.5,0.9c1.9,0.3,8.3,0.3,8.3,0.3s-7.2-6.6-8.5-6.2c-1.2,0.3-2.8,1.2-2.8,1.2
		l-1.4,1.6l-1.9,1.6C173.6,315,175.4,315.6,175.4,315.6z"/>
	<path class="st1" d="M152.1,311.4c0,0-2,2.2,0.2,7.1s18.6,11.7,20.6,16.7c2.1,4.9,1.6-6.5,4.1-6.1c2.4,0.3-2.8-3.2-6.9-3.8
		l-9.1-4.4l-6.4-2.9C154.6,317.9,150.7,314.9,152.1,311.4z"/>
	<path class="st0" d="M217,268.6l-0.8-0.2c4.8-23.9,14.5-27.7,19.2-29.5c1-0.4,1.9-0.7,2.3-1.1c0.4-0.4,0.6-0.9,0.6-1.4
		c-0.1-2-3-4.2-3-4.2l0.5-0.6c0.1,0.1,3.2,2.4,3.3,4.8c0,0.8-0.3,1.5-0.9,2c-0.5,0.5-1.4,0.8-2.5,1.3c-2.3,0.9-5.8,2.2-9.3,6.3
		C222.2,250.8,219.1,258.4,217,268.6z"/>
	<path class="st0" d="M310,155.3L310,155.3c0-0.1,2.3-0.5,3.2-1.4c1.8-2,1.4-6,1-10c-0.3-3.1,0.4-5.1,1.2-7.1
		c0.7-1.6,1.2-3.2,1.2-5.2c-0.1-1.3-0.4-2.1-1.1-2.5c-1.1-0.5-2.7,0.6-2.7,0.6l0-0.1c0.1,0,1.6-1.1,2.8-0.6c0.7,0.3,1,1.2,1.1,2.5
		c0.1,2.1-0.6,3.6-1.2,5.2c-0.8,1.9-1.6,3.9-1.4,7c0.4,4,1.1,8-0.8,10C312.4,154.9,310,155.3,310,155.3z"/>
	<path class="st0" d="M254.9,221.5c-9.5,0-16.3-3.3-16.4-3.4l0,0c-13.2-7.8-20.3-18.8-24-26.7c-4-8.5-4.9-15.3-4.9-15.3l0.8-0.1
		c0,0.1,0.9,6.7,4.8,15.1c3.6,7.7,10.7,18.6,23.7,26.3c0.3,0.2,7.9,3.7,18,3.2c6-0.3,11.8-2,17.2-5c6.7-3.8,12.7-9.7,18-17.5
		l0.6,0.4c-5.3,8-11.4,14-18.2,17.8c-5.5,3.1-11.4,4.8-17.5,5.1C256.3,221.5,255.6,221.5,254.9,221.5z"/>
	<path class="st0" d="M210.3,177.1"/>
	<path class="st1" d="M210,176.4l-1.7,5.6c0,0,5.4,16.4,16.1,24.6C224.4,206.6,212.1,191.3,210,176.4z"/>
	<g>
		<path class="st0" d="M233.3,135.2c-2.1,0-3.8,1.9-3.8,4.1c0,2.3,1.7,4.1,3.8,4.1c2.1,0,3.8-1.9,3.8-4.1
			C237,137,235.3,135.2,233.3,135.2z M236.5,139.4c0,1.3-0.9,2.4-2.1,2.4c-1,0-1.8-0.8-2-1.8c-0.4,0-0.7-0.3-0.7-0.7
			c0-0.4,0.3-0.7,0.7-0.7c0,0,0,0,0.1,0c0.3-0.9,1.1-1.6,2-1.6C235.5,137.1,236.5,138.1,236.5,139.4z"/>
		<path class="st0" d="M279.3,134.9c-2.1,0-3.8,1.9-3.8,4.1s1.7,4.1,3.8,4.1c2.1,0,3.8-1.9,3.8-4.1S281.4,134.9,279.3,134.9z
			 M280.5,141.6c-1,0-1.8-0.8-2-1.8c-0.4,0-0.7-0.3-0.7-0.7c0-0.4,0.3-0.7,0.7-0.7c0,0,0,0,0.1,0c0.3-0.9,1.1-1.6,2-1.6
			c1.2,0,2.1,1.1,2.1,2.4C282.6,140.5,281.6,141.6,280.5,141.6z"/>
	</g>
	<path class="st0" d="M235.3,150.4c-1.3,0-2.7-0.1-4.3-0.3c-4.9-0.7-8.3-2.4-10.2-5.1c-1.8-2.5-1.7-5.2-1.6-6
		c-0.2-0.1-0.4-0.3-0.6-0.4c-1.6-1.4-1.5-3.9-1.5-4l0.3,0c0,0,0,2.5,1.4,3.8c0.2,0.1,0.4,0.3,0.5,0.4l0.2,0c0,0,0,0,0,0.1
		c0.7,0.3,1.5,0.4,2.5,0.3c0.3-0.7,2.8-6,10.2-7c0.1,0,7.9-1.6,12,1.8c3.2,2.7,3.9,2.4,4.8,2c0.3-0.1,0.7-0.3,1.2-0.3
		c0.6-0.1,1.1-0.2,1.6-0.4c0.9-0.2,1.6-0.4,1.9-0.1c0.2,0.2,0.2,0.5,0.1,0.9c-0.2,0.7-0.5,1-0.9,1.4c-0.6,0.6-1.2,1.2-1.3,3.3
		c-0.1,1.9-1.2,2.1-2.5,2.3c-1.2,0.2-2.5,0.5-3.5,2.1C244.1,147.8,241.6,150.4,235.3,150.4z M219.4,139c-0.1,0.9-0.2,3.3,1.5,5.7
		c1.9,2.6,5.3,4.3,10.1,5c9.4,1.4,12.5-1.6,14.4-4.7c1-1.8,2.5-2,3.7-2.2c1.3-0.2,2.2-0.4,2.2-2.1c0.1-2.2,0.8-2.9,1.4-3.5
		c0.4-0.4,0.7-0.7,0.8-1.3c0.1-0.3,0.1-0.5,0-0.6c-0.2-0.2-0.9,0-1.7,0.2c-0.5,0.1-1.1,0.3-1.6,0.4c-0.5,0.1-0.8,0.2-1.1,0.3
		c-1,0.4-1.8,0.7-5.1-2c-4-3.3-11.7-1.8-11.8-1.8c-7.7,1-10,6.8-10,6.9l0,0.1l-0.1,0C221.1,139.4,220.2,139.3,219.4,139z"/>
	<path class="st1" d="M268.9,127.7c0,0-1.6,1.5-0.4,2.1c1.2,0.6,3.9,0.5,7.3-0.6c3.4-1.2,10.7-3.6,14.6-3c0,0,5.6,0.1,8.9,4.6
		c0,0-0.7-6.7-7.2-8.2s-8.5-1.4-16.9,1.6C275.3,124.1,270.6,126,268.9,127.7z"/>
	<path class="st1" d="M224,126.1c0,0-7.6,3.2-7.3,9c0,0,0.3,1.2,0.9,0.4c0.6-0.8,2.7-7.7,12.4-6.4c9.7,1.3,13.9,5.1,17.3,4
		c0,0,1.6-0.5,0.5-2.3c-1-1.9-11.2-5.2-16.1-5.7C231.8,125,228.1,124.7,224,126.1z"/>
	<path class="st0" d="M224,141.4c0,0,0.9,0.1,1.9-1.8c0.8-1.4,2.7-5.2,8.5-5.8c0,0,5-0.6,7.9,2.6c0,0,1,0.9,1.5,2s1.7,3.1,3.5,3.2
		c0,0-1.2,1.3-2.9,0.6s-2.7-5.9-6.6-6.7c-3.6-0.7-8,0.7-9.7,3.1S225,142.7,224,141.4z"/>
	<path class="st0" d="M234.1,144.6c-0.5,0-1,0-1.5-0.1c-3-0.3-5.1-1.7-6.3-3.9l0.1,0c1.2,2.2,3.3,3.6,6.3,3.9c3.8,0.4,7.7-1,8.1-1.4
		c0.3-0.4,0.7-0.3,1-0.3c0.4,0,0.8,0.1,1.2-0.2c0.3-0.2,0.4-0.4,0.4-0.5c-0.1-0.3-0.6-0.5-0.8-0.6c-0.1,0-0.1,0-0.2,0
		c-0.4,0-1,0-1.8-2.4c-0.9-2.7-5-2.8-5-2.8l0-0.1c0,0,4.2,0.1,5.1,2.9c0.8,2.4,1.3,2.4,1.7,2.4c0.1,0,0.1,0,0.2,0
		c0.3,0,0.8,0.3,0.9,0.7c0,0.2-0.1,0.4-0.4,0.6c-0.5,0.3-0.9,0.3-1.3,0.2c-0.4,0-0.7-0.1-1,0.2C240.4,143.5,237.4,144.6,234.1,144.6
		z"/>
	<path class="st0" d="M280.9,144.3c-1.4,0-2.7-0.4-3.4-0.6c-1.2-0.4-2.2-1.1-2.4-1.5c-0.3-1-0.6-1.5-1.3-1.9
		c-0.3-0.2-0.5-0.4-0.5-0.7c0-0.3,0.3-0.6,0.9-0.7c1-0.3,2-2.2,2-2.2l0.1,0c0,0.1-1,1.9-2,2.2c-0.5,0.1-0.8,0.4-0.8,0.6
		c0,0.2,0.1,0.4,0.5,0.6c0.7,0.4,1.1,0.9,1.4,1.9c0.1,0.4,0.9,1,2.3,1.5c1.3,0.5,4.7,1.4,7.8-0.8c4.4-3.1,4.7-3.1,5.7-3.1v0.1
		c-1,0-1.2,0-5.6,3.1C283.9,144,282.3,144.3,280.9,144.3z"/>
	<path class="st0" d="M290,139.8c-1,0-0.9-0.7-1.8-1.5c-0.7-0.7-0.9-1.5-1.8-2.1c-2-1.3-4.4-0.7-4.4-0.7v-0.1c0,0,2.6-0.6,4.6,0.7
		c0.9,0.6,1.2,1.4,1.9,2.1C289.3,139,290,139.7,290,139.8L290,139.8z"/>
	<path class="st0" d="M230.4,183L230.4,183c-0.7,0-1-0.7-1-0.8l0,0c-0.3-4.7,3.2-9.5,6.3-12.7c3.3-3.4,6.6-5.8,6.7-5.8l0.3-0.2
		l-0.3,0.3c-6.7,7.6-8.8,13.4-10,16.5c-0.5,1.2-0.7,2-1.1,2.3C231,182.8,230.7,183,230.4,183z M229.5,182.2c0,0.1,0.3,0.8,0.9,0.8h0
		c0.3,0,0.6-0.2,0.9-0.4c0.4-0.3,0.7-1.1,1.1-2.3c1.1-3.1,3.2-8.8,9.7-16.2c-0.9,0.7-3.7,2.8-6.3,5.6
		C232.8,172.7,229.3,177.5,229.5,182.2z"/>
	<path class="st0" d="M196.6,247.3c-7.5,0-12.9-1.9-16-5.6c-6-7.2-1.4-19-1.3-19.1l0,0c17.7-24.6,28.8-40.4,28.9-40.6l0.3,0.2
		c-0.1,0.2-11.2,16-28.9,40.6c-0.2,0.5-4.5,11.8,1.3,18.7c4.7,5.6,14.5,6.9,29.3,3.9l0.1,0.4C205.1,246.7,200.5,247.3,196.6,247.3z"
		/>
</g>
</svg>
