
<svg version="1.1" id="Layer_1" xmlns="http://www.w3.org/2000/svg" xmlns:xlink="http://www.w3.org/1999/xlink" x="0px" y="0px"
	 width="547.6px" height="315.6px" viewBox="0 0 547.6 315.6" style="enable-background:new 0 0 547.6 315.6;" xml:space="preserve"
	>

<g>
	<g>
		<g>
			<path class="st0" d="M192.3,288.5c0,0,12.9,5.8,26.4,2.2c0,0-7.7,4.1-3.6,4.1c4.1,0,29.2-9.1,29.7-6.3s-9.6,7.2-4.1,6.6
				c5.5-0.6,23.7,1.4,23.7,1.4l-58.7,0.8c0,0-6.4-1.3-13.4-9"/>
			<g>
				<path class="st0" d="M217.6,59.9c0,0-2.4,1.7-1.5,3.3c0.9,1.7,1.8,3.7,1.8,4.2c0,0.5-2.9-0.9-3.7-0.4c-0.7,0.6-2.4,0.1-2.3-0.1
					c0.2-0.1,0.7-3.9,1.9-4.5C215.1,61.8,217.6,59.9,217.6,59.9z"/>
				<path class="st0" d="M218.1,37.8c0.2-0.2-4.7,5.8-6.9,10.7c-2.2,4.9-8.4,9.2-11.8,9.2s-7.3-1.6-7.3-1.6l1.3-3.8
					c0,0,4.9,1.4,7.9,0c3-1.4,6.9-3.1,8-4.7S216.9,38.5,218.1,37.8z"/>
				<path class="st0" d="M207.8,76.1c0,0,1.8,16.9-6,22.2c0,0,7.8-3.6,8.8-9.7c1-6.1,1.8-9.9,1.8-9.9l0.2-4.9l-0.9-2.3
					c0,0-3.6,1.8-3.8,4.2"/>
				<path class="st1" d="M197.1,52.9c-4.1,0-8.3-1.2-11.5-5.5c-2.3-3.1-3-7.2-2.2-11.7c0.8-4,2.8-8,5.9-12
					c3.6-4.5,8.7-8.8,15.1-12.8c11.6-7.2,21.9-9.6,28.4-10.2c7-0.7,11.2,0.2,11.5,0.3c4.9,0.7,8.3,2.9,10.3,6.4
					c4.5,8.1-0.6,20.4-0.8,20.9l-0.7-0.3c0.1-0.1,5.2-12.5,0.9-20.3c-1.8-3.3-5.1-5.3-9.8-6l0,0c0,0-4.4-1-11.3-0.3
					c-6.4,0.7-16.5,3-28,10.1c-6.3,3.9-11.3,8.2-14.9,12.7c-3.1,3.9-5,7.8-5.8,11.7c-0.8,4.3-0.1,8.2,2.1,11.2
					c5,6.8,12.4,5.4,18.3,4.3l0.1,0c1.7-0.3,3.6-2.7,6.1-5.8c5.8-7.2,14.5-18,32.2-18.5l0,0.7C225.6,28.3,217,38.9,211.3,46
					c-2.6,3.3-4.6,5.6-6.5,6l-0.1,0C202.4,52.4,199.8,52.9,197.1,52.9z"/>
				<path class="st1" d="M205.1,76.7c-0.8,0-1.6-0.2-2.3-0.6c-2-1.1-2.7-3.3-3-4.1c-2.2-0.2-3.8-0.9-4.8-2.3c-1.7-2.4-1-5.7-0.8-6.6
					c-4.7-5.8-1-10.6-1-10.6l0.6,0.5l-0.3-0.2l0.3,0.2c-0.1,0.2-3.4,4.4,1.1,9.8l0.1,0.1l-0.1,0.2c0,0-1,3.7,0.7,6.1
					c0.9,1.3,2.4,1.9,4.5,2l0.3,0l0.1,0.3c0,0,0.6,2.8,2.6,3.9c1.2,0.7,2.8,0.6,4.6-0.1c0.3-0.6,1.5-2.8,2.8-4
					c0.2-0.2,0.3-0.3,0.5-0.5l0.6,0.4c-0.1,0.2-0.3,0.4-0.6,0.6c-1.4,1.3-2.7,3.9-2.7,3.9l-0.1,0.1l-0.1,0.1
					C207.1,76.5,206.1,76.7,205.1,76.7z"/>
				<path class="st1" d="M250.9,100.9c-3.6,0-6.8-1.6-7.5-2c-0.9,0.2-1.9,0.4-2.8,0.4c-5,0-9.1-3.4-9.8-4c-5.6,0.3-8.5-2.3-10-4.6
					c-1.3-2-1.7-4.1-1.8-4.8c-2.8-0.3-4.8-1.3-6-3.1c-2-3.1-0.9-7.3-0.7-7.9c-0.7-4.1-4.1-5.7-4.1-5.7l0.3-0.7
					c0.2,0.1,3.8,1.8,4.5,6.3l0,0.1l0,0.1c0,0-1.4,4.4,0.5,7.4c1.1,1.6,3,2.6,5.7,2.8l0.3,0l0,0.3c0,0,0.2,2.5,1.7,4.8
					c2,3.1,5.2,4.5,9.4,4.2l0.2,0l0.1,0.1c0.1,0.1,5.8,5.3,12.1,3.6l0.1,0l0.1,0.1c0,0,1.7,1,4.1,1.6c2.1,0.5,5.2,0.8,7.8-0.8l0.1,0
					l0.1,0c0,0,4.4-0.7,5.6-3.5c0.5-1.2,0-2-0.6-2.9c-0.7-0.9-1.4-1.9,0-3.3c0.2-0.2,0.4-0.4,0.7-0.6c2.1-2,4.1-4,2.4-7.4
					c-0.8-1.7-1.6-2.5-2.2-3.2c-0.8-1-1.4-1.6-1.2-3.4c0.3-2.5-1.7-4.4-2.5-4.8c-0.4-0.2-0.6-0.7-0.7-1.2c-0.3-1.1-0.7-2.5-3.7-2.1
					l-0.1-0.7c3.6-0.6,4.1,1.4,4.5,2.6c0.1,0.3,0.2,0.7,0.3,0.7c1,0.4,3.4,2.6,3,5.5c-0.2,1.4,0.2,1.9,1,2.8
					c0.6,0.7,1.4,1.7,2.3,3.4c1.9,3.9-0.4,6.2-2.5,8.2c-0.2,0.2-0.4,0.4-0.7,0.6c-0.9,0.9-0.5,1.5,0.1,2.4c0.6,0.9,1.4,2,0.7,3.6
					c-1.3,2.9-5.4,3.8-6.1,3.9C254.3,100.5,252.6,100.9,250.9,100.9z"/>
				<path class="st1" d="M252.6,66.9l-0.2-0.7c2.7-0.9,3.5-2.3,3.7-2.7c-0.7-1-4.3-6-5.1-7.7c-0.5-0.5-3.4-3.3-3.1-5
					c0.1-0.4,0.3-0.8,0.7-1l0.3,0.7c-0.2,0.1-0.3,0.3-0.4,0.5c-0.1,1.1,1.7,3.2,2.9,4.4l0.1,0.1l0,0.1c0.7,1.8,5.1,7.8,5.2,7.8
					l0.1,0.1l0,0.2C256.8,63.6,256.2,65.7,252.6,66.9z"/>
				<path class="st1" d="M253,51.3"/>
				<path class="st1" d="M253.4,38.8"/>
				<path class="st1" d="M250.8,29.6"/>
				<path class="st1" d="M234.7,87.8c-1.7-3.1-1.4-5.9-0.9-7.7c0.7-2.2,2-3.8,2.6-4.3c0.4-0.3,0.7-0.5,1-0.7
					c0.6-0.3,0.9-0.5,1.1-2.4c0.2-3.1,4.1-4.7,4.3-4.7l0.3,0.7c0,0-3.6,1.4-3.8,4.1c-0.1,2.2-0.6,2.6-1.4,3
					c-0.3,0.1-0.6,0.3-0.9,0.6c-1.1,0.9-4.6,5.7-1.6,11.1L234.7,87.8z"/>
				<path class="st1" d="M212.1,67.5l-0.5-0.5c0.9-0.9,1.2-2.2,1.5-3.3c0.2-0.9,0.4-1.5,0.8-1.8c0.1,0,0.2-0.1,0.3-0.1
					c0.9-0.4,2.9-1.2,4.3-5.5c1.5-4.4-1.3-6.8-3.8-9c-0.2-0.1-0.3-0.3-0.5-0.4c-0.2-0.2-0.4-0.5-0.4-0.9c0-1.6,2.9-4.7,8.6-9.6
					c4.2-3.6,8.4-6.7,8.4-6.8l0.4,0.6c-6.7,5-16.7,13.4-16.8,15.8c0,0.2,0.1,0.2,0.1,0.3c0.1,0.1,0.3,0.3,0.4,0.4
					c2.5,2.2,5.7,4.8,4.1,9.7c-1.5,4.6-3.8,5.6-4.7,6c-0.1,0-0.2,0.1-0.2,0.1c-0.2,0.1-0.3,0.8-0.4,1.3
					C213.5,65,213.2,66.5,212.1,67.5z"/>
				<path class="st1" d="M251.6,56.2"/>
				<path class="st1" d="M249.2,50.7"/>
				<path class="st1" d="M259,71.3c-1.2-1.9-1.2-2.9-1-6.8c0.2-3.7-2.2-6.7-2.2-6.7l0.2-0.1v-0.1c0-0.2-0.3-1.8,0.8-2.1l0.1,0.7
					c-0.4,0.1-0.6,0.9-0.6,1.3c0.5,0.6,2.7,3.5,2.5,7.1c-0.2,3.8-0.2,4.7,0.8,6.4L259,71.3z"/>
				<path class="st1" d="M256,50c1.7,0.9,2.2-3.3,1.7-3.7c-0.6-0.4-2.2,2-5,1.5c-2.8-0.6-4,0.9-4,0.9s-1.2,2.8,1.2,2.4
					C252.3,50.7,253.9,48.9,256,50z"/>
				<path class="st1" d="M253.9,27.9"/>
				<path class="st1" d="M260.2,48.4l-1.1-2.1c0,0-0.5-1-1.5-1.7c-1.2-0.8-2.7-4.4-3.1-9.5c-0.3-4.6-3.6-5.2-3.7-5.2l0.1-0.7
					c0,0,4,0.7,4.4,5.8c0.4,5.1,1.9,8.3,2.8,8.9c1.2,0.8,1.8,1.9,1.8,2l0.8,1.5c0.5-0.2,1.8-0.9,3.9-2.7c0.2-0.8,1.7-6.3-2.4-8.3
					l0,0l0,0c0,0-0.5-0.5-0.9-1.1c-0.5-0.9-0.5-1.8,0-2.5c0.4-0.6,0.5-3-0.7-4.9c-0.8-1.3-2.3-2.7-5.4-2.3l-0.1-0.7
					c3.4-0.4,5.2,1.3,6.1,2.7c0.6,0.9,0.9,2.1,1,3.3c0.1,1-0.1,2-0.4,2.5c-0.7,1.1,0.5,2.4,0.8,2.7c2,1,3.1,2.9,3.2,5.6
					c0,2-0.5,3.6-0.5,3.7l0,0.1l-0.1,0.1c-3.1,2.6-4.5,3-4.5,3L260.2,48.4z"/>
				<path class="st1" d="M238.4,91.1c0,0-0.1,0-0.1,0c-0.8-0.1-1.4-0.8-2.1-1.6c-0.7-0.8-1.4-1.6-2.2-1.6c-2,0-3.1-2.4-4.8-6.1
					l-0.1-0.3c-0.9-2-2.3-1.9-4-1.8c-1.1,0.1-2.3,0.2-3.6-0.4c-2.4-1-2.4-3.3-2.3-5.9c0-1,0-2-0.1-3c-0.2-2.6-2.3-2.9-4.5-2.8
					c-0.4,0-0.6,0-0.8,0l0.2-0.7l0,0c0.1,0,0.3,0,0.5,0c1.5-0.1,4.9-0.2,5.2,3.4c0.1,1.1,0.1,2.2,0.1,3.1c0,2.5,0,4.4,1.9,5.2
					c1,0.5,2.1,0.4,3.2,0.3c1.8-0.1,3.6-0.2,4.7,2.3l0.1,0.3c1.5,3.3,2.6,5.7,4.1,5.7c1.2,0,2,1,2.8,1.8c0.5,0.6,1.1,1.2,1.6,1.3
					c0-0.4-0.5-1.4-0.8-2.1c-0.8-1.8-1.2-2.9-0.9-3.6c0.1-0.1,0.3-0.3,0.6-0.4l0.1,0.7c0,0,0,0,0,0c-0.2,0.3,0.6,2,0.9,2.9
					c0.7,1.6,1.1,2.5,0.7,2.9C238.8,91,238.7,91.1,238.4,91.1z"/>
				<path class="st1" d="M245.1,77.7"/>
				<path class="st1" d="M173.4,310.4c-0.7,0-1.3-0.2-1.3-0.2c-0.4-0.1-0.7-0.7-3.1-6.4c-1-2.5-2.3-5.5-2.7-6
					c-0.2-0.1-0.3-0.2-0.5-0.4c-0.3-0.3-0.9-0.9-3.3-1.4c-3.7-0.8-5.9-1.6-12.1-6.1c-4.7-3.4-8.5-10.3-11.6-15.9
					c-1.1-2-2.2-3.9-3.1-5.4c-3.5-5.5-7.4-15.9-7.7-16.7c-9.6-13.2-9.7-30.5-9.8-41.9c0-3.2-0.1-5.9-0.3-7.8
					c-0.9-7,1.8-11.8,3.3-14.6c0.4-0.7,0.7-1.3,0.9-1.7c0.9-2.2,3.3-8.1,7.2-18.2c3-7.8,15.5-20.3,16.7-21.5
					c1.6-8.2,7.7-23.4,14.2-32.9c5.1-7.5,14.8-8.9,19.4-9.6c1-0.2,2.1-0.3,2.4-0.5c0.2-0.7,1.3-2,7.5-5.1c0.9-0.5,1.7-0.8,2.5-1.1
					c2.4-1,4.4-1.9,8.2-5.4c4.9-4.6,3.6-14.5,3.6-14.6l0.7-0.1c0.1,0.4,1.4,10.3-3.8,15.2c-3.9,3.6-6,4.5-8.4,5.6
					c-0.8,0.3-1.6,0.7-2.5,1.1c-6.4,3.2-7.1,4.4-7.1,4.7c-0.1,0.5-0.9,0.7-3,1c-4.5,0.7-14,2-18.9,9.3c-6.5,9.5-12.5,24.6-14.1,32.7
					l0,0.1l-0.1,0.1c-0.1,0.1-13.6,13.4-16.6,21.4c-3.9,10-6.2,16-7.2,18.2c-0.2,0.5-0.5,1.1-0.9,1.8c-1.5,2.8-4.1,7.5-3.3,14.2
					c0.3,1.9,0.3,4.7,0.3,7.9c0.1,11.4,0.3,28.5,9.7,41.5l0,0l0,0c0,0.1,4.1,11,7.7,16.6c1,1.5,2,3.4,3.2,5.4
					c3.1,5.5,6.9,12.3,11.4,15.6c6.1,4.5,8.2,5.3,11.8,6c2.7,0.6,3.3,1.2,3.7,1.7c0.1,0.1,0.2,0.2,0.2,0.2c0.4,0.1,0.7,0.7,3.1,6.4
					c1,2.5,2.3,5.5,2.7,6c0.3,0.1,1.7,0.4,2.5-0.3c0.8-0.7,0.9-2.2,0.4-4.4c-0.3-1.3-0.5-2.4-0.7-3.4c-0.8-4.2-1.1-6.3-5.5-8.3
					l0.3-0.7c4.8,2.1,5.2,4.7,6,8.8c0.2,1,0.4,2.1,0.7,3.4c0.6,2.5,0.3,4.2-0.7,5.1C174.8,310.2,174.1,310.4,173.4,310.4z"/>
				<path class="st1" d="M180,315.6c-1,0-2.4-0.2-3.5-1.5c-1.7-1.9-1.6-5.1-1.6-5.2l0.7,0c0,0-0.2,3,1.4,4.7c1.3,1.4,3,1.3,3.8,1.2
					c0.1,0,0.1,0,0.2,0c0.4-1.5,0.7-12.7,0-15.5c-0.7-3.1-2-6-2-6l0.7-0.3c0,0,1.3,3,2,6.1c0.7,2.8,0.5,15.4-0.2,16.3
					c-0.1,0.1-0.2,0.2-0.3,0.2c-0.1,0-0.2,0-0.3,0C180.7,315.6,180.4,315.6,180,315.6z"/>
				<path class="st1" d="M181,313.7V313c2,0,2.5-0.1,3-0.2c1.3-2.8,4.6-9.8,4.6-11.2c0-1.8-2.1-8.5-2.1-8.5l0.7-0.2
					c0.1,0.3,2.2,6.9,2.2,8.7c0,1.9-4.1,10.7-4.6,11.7l-0.1,0.2l-0.5,0C184.2,313.5,183,313.7,181,313.7z"/>
				<path class="st1" d="M188.8,308.3c-0.7,0-1.1-0.2-1.2-0.2l0.3-0.7c0.1,0,1.6,0.6,3.1-0.8c1.7-1.7,4.8-5.3,5.3-6.2
					c0.3-0.7-2.5-7.4-4.2-9.5c-0.2-0.3-0.5-0.7-0.8-1c-1.4-1.9-3.3-4.4-6.4-6c-2.2-1.1-9.8-4.9-17.5-6.4l0,0l0,0
					c-0.2-0.1-5-2.3-5.5-6c-0.5-3.3-4-23-7-31.3c-2.3-6.6-1.3-12.1-0.4-16.6c0.2-1.2,0.4-2.3,0.6-3.2c0.5-4.3-0.5-21.1-2.6-26.6
					l-0.1-0.2l0.1-0.2c0.1-0.1,6.3-7,9.3-11.7c1.5-2.3,2.5-6.3,3.5-9.9c1.1-4.4,1.9-7.1,3.2-7.6c1-0.3,3.7-1.3,6.1-2.3
					c4-1.8,4.1-2.6,4.1-2.8l0-0.3l0.3-0.1c0.1,0,3.1-1,5.2,0.2c1,0.6,1.7,1.7,1.9,3.1c0.3,0.8,5.3,13.5,14,13.5
					c5.3,0,10.6-0.6,14.9-1.2c3.3-0.4,6.1-0.8,9.1-0.8v0.7c-3,0-5.7,0.4-9,0.8c-4.3,0.5-9.5,1.2-14.8,1.2c-4,0-7.9-2.4-11.1-7.1
					c-2.4-3.4-3.7-6.8-3.8-7l0-0.1c-0.2-1.2-0.7-2.1-1.5-2.7c-1.5-0.9-3.7-0.4-4.4-0.2c-0.1,0.6-1,1.6-4.5,3.2
					c-2.4,1.1-5.1,2-6.2,2.4c-0.9,0.3-1.9,3.9-2.7,7c-0.9,3.6-2,7.7-3.6,10.1c-2.8,4.3-8.3,10.6-9.3,11.6c2,5.9,3,22.4,2.5,26.8
					c-0.1,1-0.3,2.1-0.6,3.3c-0.9,4.4-1.9,9.8,0.4,16.2c3,8.4,6.5,28.2,7,31.5c0.5,3.1,4.6,5.2,5.1,5.4c7.8,1.5,15.5,5.3,17.7,6.5
					c3.3,1.7,5.3,4.3,6.7,6.3c0.3,0.4,0.5,0.7,0.8,1c0.7,0.9,1.9,3.1,2.9,5.4c1.2,2.7,1.7,4.4,1.3,5c-0.6,1-3.7,4.7-5.4,6.3
					C190.6,308.1,189.6,308.3,188.8,308.3z"/>
				<path class="st1" d="M202.4,298l-0.4-0.6c0.4-0.3,0.8-0.7,0.7-1.1c-0.1-0.5-1-0.9-1.5-1c-3.1-0.4-4.6-1.4-7.2-4.7
					c-2.5-3.2-6-4.3-6.1-4.3l0.2-0.7c0.2,0,3.8,1.2,6.4,4.5c2.5,3.2,3.9,4.1,6.7,4.5l0.1,0c0.2,0.1,1.8,0.5,2,1.6
					C203.5,296.8,203.1,297.4,202.4,298z"/>
				<path class="st1" d="M373.9,197.9c-0.3,0-0.7,0-1-0.1c-0.6-0.1-1.5-0.1-2.8,0c-2.2,0.1-5.2,0.2-8.2-0.5
					c-2.8-0.6-8.8-4.8-15.2-9.2c-4.7-3.3-9.6-6.6-13.2-8.5c-6.2-3.3-14.2-3.9-20.1-4.3c-1.8-0.1-3.4-0.2-4.6-0.4
					c-2.9-0.4-7.7-3.7-13.9-16.7c-3.2-6.8-18.1-18.8-18.3-19l-0.2-0.2l0.1-0.2c0,0,0.3-1.7-0.7-14c-1-11.9-9.3-17.1-13.2-19.6
					c-0.3-0.2-0.5-0.3-0.8-0.5c-3.6-2.3-9.9-3.2-10-3.3l0.1-0.7c0.3,0,6.6,1,10.2,3.4c0.2,0.1,0.5,0.3,0.7,0.5
					c4.1,2.6,12.5,7.9,13.6,20.2c0.9,10.4,0.8,13.2,0.8,14c1.7,1.4,15.1,12.4,18.3,19.1c6.1,12.8,10.6,15.9,13.3,16.3
					c1.2,0.2,2.8,0.3,4.5,0.4c5.9,0.4,14,1,20.4,4.4c3.6,1.9,8.5,5.3,13.3,8.6c6,4.1,12.3,8.4,14.9,9c3,0.7,5.9,0.6,8.1,0.5
					c1.3,0,2.3-0.1,3,0.1c1.3,0.3,2.8-0.2,4.7-0.8c0.3-0.1,0.7-0.2,1-0.3c2.2-0.7,4.6-1.3,6.2-1.1c1.5,0.2,3.3,1.1,3.4,1.1l-0.3,0.7
					c0,0-1.8-0.9-3.2-1.1c-1.5-0.2-3.8,0.4-5.9,1.1c-0.3,0.1-0.7,0.2-1,0.3C376.4,197.5,375.1,197.9,373.9,197.9z"/>
				<path class="st1" d="M407,202l-0.1-0.7c0.7-0.1,1.4-0.5,1.8-0.7l-6.5-4.5c-2.9-2.1-5.1-2.6-6.3-2.6c-1.4,0-2.1,0.4-2.1,0.4
					c-3.5,2.2-8.8,4.1-8.9,4.1l-0.2-0.7c0.1,0,5.3-1.8,8.7-4c0.1-0.1,3.2-2.1,9.2,2.2l7.4,5l-0.4,0.3
					C409.5,200.9,408.3,201.8,407,202z"/>
				<path class="st1" d="M383.5,217.1c-0.1,0-0.2,0-0.3-0.1l0.3-0.7c-0.1,0-0.2,0-0.2,0.1c0,0,0.1-0.2,0.1-0.3
					c0.1-0.7,0.3-1.9,1.9-2.3c2-0.5,5.8-3.4,8.1-6.3c1.8-2.3,3.7-2.5,5.1-2.7c0.4,0,0.7-0.1,1-0.2c0.8-0.2,1.9,0.3,3.5,1.1
					c1.5,0.7,3.5,1.7,5.9,2.2c3.6,0.8,5.2-1,5.7-1.7c-1.1-0.7-4.7-2.9-6.8-3.8c-5-2.2-8.6-3.5-9.6-3.6c-1-0.1-2,0.4-3,0.9
					c-0.4,0.2-0.7,0.4-1.1,0.5c-0.6,0.3-1.5,0.3-2.6,0.4c-1.3,0.1-2.8,0.2-4.6,0.7c-2.8,0.8-3.7,0.2-4.2-0.2
					c-0.1-0.1-0.2-0.1-0.2-0.1l0.2-0.7c0.2,0.1,0.3,0.1,0.4,0.3c0.4,0.3,1.1,0.8,3.6,0.1c1.8-0.5,3.5-0.6,4.8-0.7
					c1-0.1,1.8-0.1,2.4-0.4c0.3-0.1,0.7-0.3,1-0.5c1-0.5,2.2-1.1,3.4-1c1.5,0.2,6.8,2.4,9.8,3.7c2.6,1.1,7,3.9,7.2,4.1l0.3,0.2
					l-0.1,0.3c0,0-1.7,3.6-6.7,2.4c-2.5-0.6-4.5-1.5-6-2.3c-1.3-0.6-2.4-1.2-3-1c-0.3,0.1-0.7,0.1-1.1,0.2c-1.3,0.2-3,0.4-4.6,2.4
					c-2.1,2.7-6.1,6-8.5,6.6c-1.1,0.3-1.3,1.1-1.4,1.8c-0.1,0.4-0.1,0.7-0.4,0.8C383.7,217.1,383.6,217.1,383.5,217.1z"/>
				<path class="st1" d="M385.1,240.2l-0.2-0.4c0,0-1.8-4.4-3.6-6.7c-1.9-2.4-6.6-6.5-7.5-6.9c-1.3-0.4-10.5-4.8-12.7-10.7
					c-1.7-0.5-16.1-5-31.6-4c-16.8,1.1-25.4-4.7-32.2-10.2c-3.6-2.9-7.1-5.3-9.9-7.1c-2.5-1.7-4.3-2.9-5.1-3.8
					c-0.5-0.5-2.2-2.3-4.5-4.5c-6.1-6.1-16.2-16.2-18.1-19c-2.5-3.7-4.9-4.6-5-4.6l0.2-0.7c0.1,0,2.7,1,5.3,4.9
					c1.8,2.8,12,12.9,18,18.9c2.4,2.4,4.1,4.1,4.5,4.6c0.7,0.8,2.6,2.1,4.9,3.6c2.8,1.9,6.3,4.2,9.9,7.2c3.4,2.7,7.2,5.5,12.2,7.5
					c5.6,2.2,12,3,19.5,2.5c16.6-1.1,31.9,4,32.1,4.1l0.2,0.1l0.1,0.2c1,3,4.1,5.6,6.4,7.2c2.7,1.9,5.3,3.1,5.8,3.2
					c1.2,0.4,6.1,4.8,7.9,7.1c1.5,2,3,5.3,3.5,6.5l1.7-1.1c1.3-0.9,2-2,2.2-3.3c0.4-2.7-1.4-5.6-3.1-7.9c-2-2.7-2.4-3.5-3.2-7.1
					c-0.4-2.1-0.4-4.6,0.1-7.6c0-0.1,0-0.2,0-0.2l0.2,0h0.5c0,0,0,0.1,0,0.3c-0.5,2.9-0.6,5.3-0.1,7.3c0.7,3.5,1.1,4.2,3.1,6.8
					c1.8,2.4,3.7,5.5,3.2,8.5c-0.2,1.5-1.1,2.8-2.6,3.8L385.1,240.2z"/>
				<path class="st1" d="M245.5,259.1"/>
				<path class="st1" d="M236.3,271.5c-1.7-2.6,2.7-12.3,3.3-13.6c3.5-10.9,4.3-20.9,2.6-29.6c-1.4-7.1-4.2-11.6-5.7-14
					c-0.8-1.2-1.1-1.8-1-2.2c0-0.1,0.1-0.3,0.3-0.3c1.1-0.6,3.1-8.7,3.1-15.8c0-0.7,0-1.5,0-2.2c0-6.9-0.1-15.4,2.4-17.2
					c0.7-0.5,1.3-0.8,1.8-1c1.5-0.7,3.1-1.4,7.7-7.4c3.4-4.3,3.8-9.5,4.3-14.9c0.4-4.7,0.8-9.6,3-14.8c4.6-11,1.2-15.4,1.2-15.4
					l0.6-0.5c0.2,0.2,3.8,4.7-1,16.2c-2.1,5.1-2.6,9.9-3,14.6c-0.5,5.5-0.9,10.8-4.4,15.3c-4.7,6.1-6.3,6.8-7.9,7.6
					c-0.5,0.3-1.1,0.5-1.7,1c-2.1,1.5-2.1,10.6-2.1,16.6c0,0.8,0,1.5,0,2.2c0,6.2-1.7,15.2-3.4,16.4c0.1,0.3,0.5,0.9,0.9,1.5
					c1.5,2.4,4.3,7,5.8,14.2c1.8,8.9,0.9,19-2.6,30l0,0c-1.4,2.9-4.6,11-3.3,12.9L236.3,271.5z"/>
				<path class="st1" d="M268.4,296.9c-16.8-17.1-36.4-27.8-49.3-34.9c-2.7-1.5-5.1-2.8-7.2-4c-11.4-6.6-13-12.8-13-13.1l0.7-0.2
					c0,0.1,1.6,6.2,12.7,12.6c2.1,1.2,4.4,2.5,7.2,4c13,7.1,32.6,17.9,49.5,35L268.4,296.9z"/>
				<path class="st1" d="M158,295.3c-45.6-3.6-84.7-9.9-113-18.4c-14.2-4.3-25.2-8.9-32.7-13.9c-8-5.3-12.1-10.9-12.1-16.6
					c0-4.9,3-9.6,8.9-14.2c5.6-4.3,13.7-8.4,24.3-12.2c20.6-7.5,49.8-13.9,84.5-18.4l0.3,2c-34.5,4.5-63.6,10.8-84,18.3
					c-20.9,7.6-31.9,16.1-31.9,24.6c0,5,3.8,10.1,11.2,14.9c7.4,4.9,18.2,9.5,32.2,13.7c28.2,8.5,67.1,14.8,112.5,18.4L158,295.3z"
					/>
				<path class="st1" d="M240,298.4c-12.4,0-24.9-0.2-37.1-0.6l0.1-2c12.2,0.4,24.6,0.6,37.1,0.6c63.7,0,123.6-5.3,168.6-14.9
					c21.8-4.7,39-10.1,50.9-16.1c6-3,10.6-6.2,13.6-9.4c3-3.2,4.6-6.4,4.6-9.6c0-3.5-1.9-7.1-5.6-10.6c-3.7-3.5-9.3-7-16.6-10.3
					c-14.4-6.5-35.6-12.4-61.3-17.1l0.4-2c25.9,4.7,47.3,10.7,61.8,17.2c15.6,7,23.4,14.7,23.4,22.7c0,7.3-6.5,14.3-19.3,20.8
					c-12.1,6.1-29.4,11.6-51.4,16.3C363.9,293,303.8,298.4,240,298.4z"/>
				<path class="st1" d="M290.5,197.7c-15.8-0.7-32.5-1.1-51.5-1.1v-2c19,0,35.6,0.4,51.5,1.1L290.5,197.7z"/>
				<path class="st1" d="M153.7,198.7"/>
				<path class="st1" d="M154.8,238.5l-0.5-0.6c0,0,2.2-1.9,3.5-5.6c1.3-3.7,1.4-25.7,0.5-32.1c-0.8-6.3,1.1-13.8,1.1-13.9l0.7,0.2
					c0,0.1-1.9,7.4-1.1,13.6c0.4,3.1,0.6,10,0.6,17.1c0,3.8-0.2,12.8-1.1,15.3C157.1,236.5,154.9,238.4,154.8,238.5z"/>
				<path class="st1" d="M32.4,271.6c-4.7-2-7-4-7-6.4c0-4.6,9.5-8.5,15.1-10.9c1.3-0.5,2.4-1,3.1-1.4c1.2-0.6,1.6-1.3,1.4-2.2
					c-0.6-2.1-5.1-4.7-8.9-4.5c-1.4,0.1-3.6,0.7-6.1,1.5c-5.3,1.5-11.9,3.5-14.9,1.1c-1.2-0.9-1.7-2.5-1.6-4.6
					c0.1-2.2,1.1-4.1,3-5.4c3.6-2.6,9.8-3,14.4-2.9c5,0.1,10.9,1,15.9,2.3c10.2,2.6,17.9,4.2,22.8,0.3c1.5-1.2,1.4-1.5,1.4-1.5
					c-0.2-0.3-2.2-0.3-4.7,0.3l-1.8,0.4l0.6-0.4c0,0-0.1,0-0.1,0c-2.8,0.7-8.1,2.1-10.9,0.4c-0.9-0.6-1.5-1.4-1.7-2.6
					c-0.1-0.5,0-1.1,0.4-1.5c2.7-2.9,17.6-1.2,35.4,1c7.4,0.9,13.8,1.7,15.2,1.4c0.2,0,0.3-0.1,0.4-0.1c-0.4-0.2-1.3-0.5-2.1-0.7
					c-2.4-0.7-5.6-1.7-6.5-3.4c-0.3-0.5-0.3-1.1-0.1-1.6c0.6-1.9,4.7-3,12.4-3.3c5.6-0.2,11,0,11.1,0l0,0.7c-0.1,0-5.5-0.3-11,0
					c-9.5,0.4-11.5,1.9-11.7,2.8c-0.1,0.4-0.1,0.7,0.1,1.1c0.7,1.4,3.9,2.4,6,3c1.9,0.6,2.8,0.8,2.8,1.4c0,0.5-0.6,0.7-1.2,0.8
					c-1.5,0.4-7.7-0.4-15.5-1.4c-12.8-1.6-32.1-4.1-34.7-1.2c-0.2,0.2-0.3,0.5-0.2,0.8c0.2,0.9,0.6,1.6,1.4,2.1
					c2.6,1.6,7.8,0.2,10.4-0.5c1.5-0.4,1.8-0.5,2-0.2c1.7-0.3,4.3-0.7,4.8,0.3c0.3,0.6-0.2,1.3-1.6,2.4c-5.2,4.1-13,2.5-23.5-0.2
					c-8.6-2.2-23.6-3.9-29.6,0.6c-1.7,1.2-2.6,2.9-2.7,4.9c-0.1,1.9,0.3,3.2,1.4,4c2.7,2.2,9.1,0.3,14.3-1.2
					c2.6-0.8,4.8-1.4,6.3-1.5c4-0.2,9,2.4,9.7,5.1c0.2,0.7,0.2,2.1-1.8,3.1c-0.7,0.4-1.9,0.8-3.2,1.4c-5.1,2.1-14.6,6.1-14.7,10.2
					c0,2,2.2,3.9,6.5,5.7L32.4,271.6z"/>
				<path class="st1" d="M229.3,239.6c-1.8,0-4.1-0.8-6.9-2.4c-3.5-2-10.8-3-10.9-3l-0.1,0l-0.1,0c-5.1-2.7-12.9-5.4-21-2.9
					c-4.8,1.5-7.5,4.2-7.5,4.2l-0.5-0.5c0.1-0.1,2.8-2.8,7.8-4.4c4.6-1.4,12-2.1,21.5,2.9c0.8,0.1,7.6,1.1,11.1,3.1
					c3.5,2,6.2,2.7,8,2c1.8-0.6,2.5-2.4,3-3.9c0.4-1.1,0.8-2,1.5-2.3c0.4-0.1,0.8,0,1.3,0.2c1.1,0.7,1.8,1.3,2.4,1.8
					c1.3,1.2,1.9,1.7,5,1.1c1-0.2,3.5-0.9,6.8-1.9c11.8-3.6,31.6-9.5,36.4-6.2c0.7,0.5,1,1.1,1.1,1.9l0,0.1l0,0.1
					c-0.1,0.1-1.6,3.5-10.5,4.9c-2.6,0.4-3.1,0.9-3.1,1c0.1,0.3,1.5,0.8,4.3,1c2.9,0.2,6.3-0.1,9.1-0.8c2.6-0.6,6.7-2.4,11.4-4.5
					c11.7-5.1,26.2-11.5,32.1-6.2c0.2,0.2,0.4,0.4,0.6,0.6l0.1,0.2l-0.1,0.2c0,0-0.8,2.6,0.3,4c0.6,0.8,1.8,1,3.4,0.8
					c1.9-0.3,4-1.2,6.2-2.1c4.5-2,9.7-4.2,14.8-1.1c7.4,4.4,21.9,7.9,26.9,7.9v0.7c-5,0-19.8-3.6-27.3-8c-4.8-2.9-9.6-0.8-14.1,1.2
					c-2.2,1-4.4,1.9-6.4,2.2c-1.9,0.3-3.3-0.1-4.1-1.1c-1.2-1.4-0.7-3.7-0.6-4.4c-0.1-0.1-0.3-0.3-0.4-0.4
					c-5.6-4.9-20.5,1.6-31.4,6.3c-4.7,2.1-8.8,3.9-11.6,4.5c-6.3,1.5-13,0.8-14.1-0.5c-0.3-0.3-0.2-0.6-0.2-0.7
					c0.1-0.4,0.7-1,3.7-1.4c7.7-1.2,9.6-3.9,9.9-4.4c-0.1-0.5-0.3-0.9-0.8-1.2c-4.5-3.1-24.8,3-35.7,6.3c-3.4,1-5.8,1.8-6.8,1.9
					c-3.4,0.6-4.3-0.1-5.6-1.3c-0.6-0.5-1.3-1.1-2.3-1.8c-0.4-0.3-0.6-0.2-0.6-0.2c-0.4,0.1-0.7,1-1.1,1.8c-0.6,1.5-1.4,3.6-3.5,4.3
					C230.5,239.5,229.9,239.6,229.3,239.6z"/>
				<path class="st1" d="M467.3,258.5c-0.4,0-0.8,0-1.2,0c-0.6-0.1-1-0.2-1.2-0.6c-0.4-0.7,0.1-1.7,0.8-2.9c0.9-1.6,2-3.7,0.9-5.2
					c-0.9-1.4-3.4-2.1-7.2-2.1c-3.2,0-7.4,0.6-11.4,1.7c-5.8,1.5-8.4-0.5-10.5-2.1c-0.6-0.5-1.2-0.9-1.8-1.3
					c-0.3-0.1-0.6-0.3-0.5-0.7c0.1-0.4,0.4-0.3,1.9-0.1c2.2,0.3,6.8,1.1,7.9-0.4c0.3-0.4,0.3-1.1-0.1-2c-1.9-4.4-14.5-1.9-22.8-0.2
					c-3.2,0.6-6,1.2-7.7,1.3c-2.6,0.1-3.9-0.2-4.5-1c-0.7-1-0.1-2.5,0.9-4.7c0.2-0.4,0.3-0.7,0.5-1.1c0.2-0.4,0-0.7-0.1-0.8
					c-0.5-0.6-2.6-1.7-11-1.3c-4.9,0.2-9.5,0.7-9.5,0.7l-0.1-0.7c1.9-0.2,18.8-2.2,21.2,0.9c0.2,0.3,0.5,0.8,0.2,1.5
					c-0.2,0.4-0.3,0.8-0.5,1.2c-0.8,2-1.4,3.4-1,4c0.4,0.5,1.6,0.8,3.9,0.6c1.6-0.1,4.4-0.6,7.6-1.3c9.1-1.8,21.5-4.3,23.6,0.7
					c0.5,1.2,0.5,2.1,0,2.8c-1.4,1.8-6,1.1-8.5,0.7c0.3,0.2,0.6,0.5,1,0.7c2.1,1.6,4.4,3.4,9.9,2c6-1.6,16.8-3.2,19.4,0.7
					c1.3,1.9,0.1,4.1-0.9,6c-0.5,0.9-1,1.9-0.8,2.2c0.1,0.1,0.3,0.2,0.6,0.2c3.2,0.3,7.8-0.8,7.9-0.8l0.2,0.7
					C474,257.6,470.4,258.5,467.3,258.5z"/>
				<path class="st1" d="M376.7,277c-1,0-1.9-0.1-2.7-0.2c-1.5-0.2-2-0.5-2.1-1c-0.1-0.7,0.9-1.2,2.8-2c2.5-1.2,6.2-2.9,6.4-5.4
					c0.1-0.8-0.1-1.3-0.4-1.6c-1.1-0.9-4.5-0.2-9.1,0.9c-3.3,0.8-7.5,1.8-12.4,2.5c-15,2.3-30,1.1-33.4-2.7
					c-0.4-0.4-0.5-0.8-0.4-1.2c0.4-1.1,2.7-1.5,6.5-2.1c3.2-0.5,7.2-1.1,7.5-2.4c0.2-0.6-0.6-1.4-1.2-1.9c-4.9-4.2-21.4,0.1-36,3.9
					c-5.4,1.4-10.6,2.7-14.8,3.5c-7.5,1.4-14,1-19.4-1.3c-5-2.1-9-5.8-11.9-11c-4.1-7.5-13-4.1-22.3-0.5c-2.7,1-5.4,2.1-8.1,2.9
					c-1.9,0.6-3.7,0.8-5.2,0.8c-7.1,0-11.1-5.1-14.8-9.8c-0.8-1-1.6-2-2.4-2.9c-5-5.7-26.6-2.1-26.8-2.1c-0.1,0-14.5,2.6-17,9.3
					l-0.7-0.3c2.6-7.1,16.9-9.7,17.5-9.8c0.9-0.2,22.3-3.6,27.5,2.3c0.8,0.9,1.6,1.9,2.4,3c4.3,5.5,9.2,11.7,19.2,8.7
					c2.7-0.8,5.4-1.9,8-2.9c4.8-1.9,9.4-3.6,13.4-3.9c4.6-0.4,7.8,1.2,9.8,4.8c2.8,5.1,6.7,8.7,11.5,10.7c5.2,2.2,11.6,2.6,18.9,1.2
					c4.2-0.8,9.3-2.1,14.7-3.5c14.7-3.8,31.4-8.1,36.6-3.7c1.2,1,1.6,1.9,1.4,2.6c-0.5,1.8-4.2,2.3-8.1,3c-2.5,0.4-5.7,0.9-5.9,1.6
					c-0.1,0.2,0.1,0.4,0.2,0.5c3.2,3.5,18.2,4.6,32.7,2.5c4.9-0.7,9-1.7,12.3-2.5c5.2-1.2,8.4-2,9.8-0.8c0.5,0.5,0.8,1.2,0.7,2.2
					c-0.2,2.9-4,4.7-6.8,6c-0.9,0.4-2.1,1-2.3,1.3c0.1,0.1,0.4,0.2,1.5,0.4c4.6,0.8,12.4-1,18-2.2c2.4-0.5,4.3-1,5.4-1.1
					c0.8-0.1,1.8-0.3,2.9-0.5c3.6-0.7,8-1.5,12,0.5c5,2.5,16.6,2.9,16.7,2.9l0,0.7c-0.5,0-11.9-0.4-17-3c-3.8-1.9-8.1-1.1-11.6-0.4
					c-1.1,0.2-2.1,0.4-2.9,0.5c-1.1,0.1-3,0.5-5.3,1.1C387.6,275.6,381.4,277,376.7,277z"/>
				<path class="st1" d="M87.6,285.5c-0.3-0.4-6.7-8.9-4.5-14.1c0.9-2.1,3.1-3.4,6.6-3.8c6.5-0.7,10.7,0.2,14,0.9
					c3.8,0.8,6.5,1.4,10.5-0.9c3.3-1.9,5.3-3.5,6.7-4.6c1.9-1.5,3-2.4,5.2-2.4c3.7,0,6.7,1.4,6.8,1.5l-0.3,0.7c0,0-2.9-1.4-6.4-1.4
					c-1.9,0-2.9,0.7-4.7,2.2c-1.5,1.2-3.4,2.8-6.8,4.7c-4.3,2.4-7.1,1.8-11,1c-3.3-0.7-7.3-1.6-13.7-0.9c-3.2,0.3-5.2,1.4-6,3.3
					c-2.1,4.8,4.3,13.3,4.4,13.4L87.6,285.5z"/>
				<path class="st1" d="M242.8,49.1c0,0,1.8,2.7-0.5,3.6s-10-0.4-13,1.8S226,58,226,58s0.7-5.1,5.6-6.2
					C236.6,50.6,242.2,49.7,242.8,49.1z"/>
				<path class="st1" d="M244.5,69.4c-0.6,0-1.3-0.2-1.5-0.3l0,0l0,0c-1.1-0.7-1.7-1.6-1.7-2.6c0-2.2,3-4.2,3.1-4.3l0.4,0.6
					c0,0-2.8,1.8-2.8,3.7c0,0.7,0.4,1.4,1.3,1.9c0.4,0.1,1.1,0.2,1.4,0.2c0.2-0.2,0.5-0.6,0.9-1.1c0.8-0.8,1.6-1.2,2.3-1.2l0.2,0
					c1.3,0.1,3.6,0.3,4.8-0.3l0.3,0.7c-1.4,0.8-3.7,0.6-5.2,0.4l-0.2,0c-1-0.1-2.3,1.4-2.7,2l-0.1,0.1l-0.1,0
					C244.9,69.4,244.7,69.4,244.5,69.4z"/>
				<path class="st1" d="M230.6,61.2c-0.8,0-1-0.8-1-1.2l0-0.3l0.3-0.1c0.6-0.1,0.9-1.7,1.1-2.5c0-0.2,0.1-0.3,0.1-0.5
					c0.2-0.9,1.9-1.4,4.4-2.1c0.5-0.1,1-0.3,1.4-0.4c0.4-0.1,0.8-0.2,1.2-0.2c1.1,0,1.9,0.4,2.6,0.8c0.2,0.1,0.3,0.2,0.5,0.2
					c0.3,0.2,0.7,0.2,1.1,0.2c0.1,0,0.3,0,0.4,0c0.2,0,0.3,0,0.4,0l0.5,0.2l-0.4,0.4c0,0-1.5,1.7-2.3,2.6c-0.8,0.8-3.2,1-4.5,1h0
					c-0.7,0-1.4,0-1.9-0.1c-0.1,0-0.2,0-0.2,0c-0.7,0-1.2,0.4-1.7,0.9c-0.3,0.3-0.7,0.6-1.1,0.8C231.1,61.1,230.8,61.2,230.6,61.2z
					 M230.3,60.2c0,0.1,0.1,0.3,0.3,0.3c0.1,0,0.2,0,0.4-0.2c0.4-0.2,0.7-0.5,1-0.8c0.6-0.5,1.3-1.1,2.2-1.1c0.1,0,0.2,0,0.3,0
					c0.5,0.1,1.1,0.1,1.8,0.1h0c2,0,3.6-0.3,4-0.7c0.5-0.6,1.3-1.4,1.8-1.9c-0.5,0-0.9-0.1-1.3-0.3c-0.2-0.1-0.3-0.2-0.5-0.3
					c-0.6-0.3-1.3-0.7-2.2-0.7c-0.3,0-0.6,0-1,0.1c-0.4,0.1-0.9,0.3-1.5,0.4c-1.3,0.3-3.8,1-3.9,1.5c0,0.1-0.1,0.3-0.1,0.5
					C231.4,58.3,231.1,59.7,230.3,60.2z"/>
				<path class="st1" d="M252.3,55.8c0,0,0-0.8,0-0.8h-0.7c0,0,1.1-0.1,2.7-0.1c0.8,0,1.8,0.3,2.1,0.2c0.4-0.2,0.5-1.1,0.6-1.6
					c0-0.1,0,0,0-0.1c-0.4,0-0.9,0.1-1.3,0.1c-0.5,0.1-1.3,0-2.1-0.1c-0.4-0.1-0.9-0.1-1.3-0.1c-0.9-0.1-1.8,0.7-1.8,0.7l-0.5-0.6
					c0,0,1.1-1,2.3-0.9c0.4,0,0.9,0.1,1.4,0.1c0.7,0.1,1.5,0.2,1.9,0.1c0.6-0.1,1.6,0,1.9,0c0,0,0,0.1,0,0.1h0.4l0,0.2l0,0.3l-0.1,0
					c0,0.1,0,0.2,0,0.2c-0.1,0.8-0.2,1.9-0.9,2.3c-0.4,0.3-1.2-0.1-2.4-0.1C253.6,56,252.5,55.7,252.3,55.8z"/>
				<path class="st1" d="M236.4,57.8c-1.9,0-2.6-2.1-2.6-2.2l0.2-0.1c0,0,0.2,0.6,0.7,1.2c0.6,0.7,1.4,1,2.4,0.8
					c0.6-0.1,1.1-0.5,1.4-0.9c0.6-0.9,0.3-2.2,0.3-2.2l0.2,0c0,0.1,0.3,1.3-0.3,2.3c-0.3,0.5-0.8,0.9-1.5,1
					C236.8,57.7,236.6,57.8,236.4,57.8z"/>
				<path class="st1" d="M253.8,55c-0.7,0-1.1-0.4-1.3-0.6c-0.3-0.3-0.5-0.7-0.4-1c0-0.1,0.1-0.2,0.2-0.2l0,0.2c0,0-0.1,0-0.1,0.1
					c0,0.1,0.1,0.5,0.4,0.8c0.2,0.2,0.8,0.7,1.7,0.5c1.5-0.4,1.7-1.3,1.7-1.3l0.2,0c0,0-0.2,1-1.8,1.4C254.1,55,254,55,253.8,55z"/>
				<path class="st1" d="M257.6,53.4l-0.4-0.6c-0.1,0-0.1,0.1-0.1,0.1c0-0.1-0.1-0.4-0.1-0.7c-0.1-0.4-0.2-1-0.3-1.7
					c-0.1-1.3,0.2-2.3,0.5-3.1c0.1-0.3,0.2-0.5,0.3-0.8c0.3-0.9,0.1-1.8,0.1-1.8l0.7-0.2c0,0,0.3,1.1-0.1,2.2
					c-0.1,0.3-0.2,0.5-0.3,0.8c-0.3,0.8-0.6,1.7-0.5,2.8c0.1,0.7,0.2,1.2,0.3,1.6C257.9,52.7,258,53.2,257.6,53.4z"/>
				<path class="st1" d="M257,50l-0.2-0.7c0,0,2.4-0.7,3.8-1.5l0.4,0.6C259.6,49.3,257.1,49.9,257,50z"/>
				<path class="st1" d="M258.5,64.8l-0.2-0.7c1.1-0.4,1.8-0.8,2-1.4c0.2-0.4,0.2-0.7,0-1.2c-0.7-1.8-1.1-4.1,1.5-7.8
					c2.3-3.3-0.4-6.1-0.5-6.1l0.5-0.5c0,0,3.1,3.3,0.5,7.1c-2.2,3.3-2.2,5.2-1.4,7.1c0.3,0.6,0.3,1.2,0,1.8
					C260.6,63.8,259.7,64.4,258.5,64.8z"/>
				<ellipse class="st1" cx="251.1" cy="29.2" rx="1.7" ry="1.1"/>
				<ellipse class="st1" cx="243.4" cy="26.8" rx="1.1" ry="0.7"/>
				<ellipse class="st1" cx="216.9" cy="111.7" rx="1.1" ry="0.7"/>
				<path class="st1" d="M242.8,49.1c0,0-1.3-0.2-3.2,0.2c-2,0.5,0.1,0.5-0.8,0.6c-0.9,0.1-1.8,0.6-2.7,0.6c-0.9,0,0.7,0.6-0.4,0.6
					s3.1-0.2,4-0.4c0.9-0.2,2-0.6,2.3-0.6S242.8,49.1,242.8,49.1z"/>
				<path class="st1" d="M253,47.2c0,0,0.9,0.4,1.7-0.1c0.7-0.4,1.5-0.7,1.8-0.7s-2.8,0.2-3.2,0.7"/>
				<path class="st1" d="M234.2,50.3c0,0,0.7,0.2,0.1,0.4c-0.7,0.2-4.9,1.3-5.3,1.8S231.2,50.5,234.2,50.3z"/>
				<path class="st1" d="M257.6,98.9c-2.8,0-8.5-2.7-10.3-4.7c-0.3-0.4-0.4-0.7-0.3-1c0.4-1.1,3.2-1.5,5.9-2
					c1.9-0.3,3.6-0.6,4.4-1.1c0.9-0.5,1.1-1.3,1.1-1.9c0-1-0.6-2.2-1.2-2.5c-0.2-0.1-0.5-0.1-0.7,0c-1.3,1-1.7,1-5.3-0.5
					c-3.9-1.7-6.2,0.5-6.9,1.2c-0.1,0.1-0.2,0.3-0.2,0.4c0,0.3,0.4,0.6,0.7,0.9c0.3,0.2,0.4,0.3,0.4,0.4c0,0.1-0.2,0.1-0.5,0.1
					c-1.4,0-2.1,0.5-2.8,2c-0.2,0.4-0.1,1.1,0,1.8c0.1,1.1,0.3,2.3-0.4,3.1c-0.5,0.6-1.4,1-2.7,1.1c-0.1,0-0.2,0-0.3,0
					c-2.8,0-4.8-2.9-6.6-5.5c-1.3-1.9-2.4-3.6-3.7-4c-0.4-0.1-0.7-0.1-0.9,0c-0.2,0.2,0,0.7,0.2,1.3c0.3,0.8,0.6,1.9,0.1,2.6
					c-0.4,0.5-1.1,0.7-2.2,0.8c-1.1,0-1.9-0.3-2.4-0.9c-1.2-1.5-0.4-4.4,0.2-6.6c0.2-0.8,0.4-1.5,0.4-1.9c0-0.3,0-0.5-0.2-0.6
					c-0.3-0.2-1.1,0.1-2,0.5c-1,0.4-2.2,0.9-3.3,0.9c-0.5,0-0.9-0.2-1.2-0.5c-1.5-1.7-1.5-7.1-1.1-10.3c0.1-0.9,0-1.6-0.4-2.1
					c-0.6-0.7-1.8-0.7-2.4-0.6c-0.3,0-0.4,0-0.4,0l0.1-0.2c0,0,0.2,0,0.3,0c0.6,0,1.8-0.1,2.5,0.7c0.5,0.5,0.6,1.2,0.5,2.2
					c-0.4,3.2-0.5,8.5,1,10.2c0.3,0.3,0.7,0.5,1.1,0.5c1.1,0,2.3-0.5,3.3-0.9c1-0.4,1.8-0.7,2.2-0.4c0.2,0.1,0.3,0.4,0.2,0.8
					c0,0.5-0.2,1.2-0.4,2c-0.6,2.1-1.4,5-0.2,6.4c0.5,0.6,1.2,0.9,2.3,0.9c1,0,1.7-0.2,2-0.7c0.4-0.6,0.1-1.6-0.1-2.4
					c-0.2-0.7-0.4-1.2-0.1-1.5c0.2-0.2,0.5-0.2,1-0.1c1.4,0.4,2.6,2.1,3.8,4c1.8,2.6,3.8,5.6,6.7,5.4c1.3-0.1,2.1-0.4,2.6-1
					c0.6-0.8,0.5-1.9,0.4-3c-0.1-0.8-0.2-1.5,0.1-1.9c0.7-1.5,1.5-2.1,2.9-2.1c0.2,0,0.2,0,0.3,0c0-0.1-0.2-0.2-0.3-0.2
					c-0.3-0.3-0.8-0.6-0.8-1c0-0.2,0.1-0.4,0.2-0.5c0.7-0.7,3.1-2.9,7.1-1.2c3.7,1.6,3.9,1.4,5.1,0.6c0.3-0.2,0.5-0.2,0.8,0
					c0.7,0.4,1.3,1.6,1.3,2.7c0,1-0.4,1.7-1.2,2.1c-0.9,0.5-2.6,0.8-4.5,1.1c-2.6,0.4-5.5,0.9-5.8,1.9c-0.1,0.2,0,0.5,0.3,0.8
					c1.9,2.1,8.5,5.1,10.8,4.6c0.4-0.1,0.7-0.3,0.8-0.7l0.2,0c-0.1,0.4-0.4,0.7-0.9,0.8C258.1,98.9,257.9,98.9,257.6,98.9z"/>
				<path class="st1" d="M234.9,84.1"/>
				<path class="st1" d="M237.4,84.9c0,0,0-0.3,0-0.3l0-0.5c0,0,0,0,0,0c1.2,0,2.8-4.4,3.6-6.7c0.2-0.5,0.3-0.7,0.4-1
					c0.4-1,2.1-1.3,4-1.6c1.5-0.3,3-0.5,4.1-1.2c2.5-1.4,1.5-4.5,1.5-4.6l0.2,0c0,0,1,3.3-1.6,4.8c-1.1,0.7-2.7,0.9-4.2,1.2
					c-1.8,0.3-3.5,0.7-3.9,1.6c-0.1,0.3-0.2,0.7-0.4,1.1C240.1,81.2,238.7,84.9,237.4,84.9z"/>
				<path class="st1" d="M260.4,85.8c-0.4,0-0.7-0.2-0.9-0.5c-0.9-1.3-0.3-5,0.5-7.1c0.3-0.7,0.3-1.3,0.1-1.7
					c-0.4-0.9-1.6-1.2-2.9-1.6c-0.3-0.1-0.6-0.2-0.8-0.3c-0.9-0.3-1.5-1.2-1.7-2.6c-0.1-1,0-1.9,0-2l0.2,0c0,0-0.6,3.6,1.5,4.3
					c0.3,0.1,0.6,0.2,0.8,0.3c1.3,0.4,2.6,0.8,3.1,1.7c0.3,0.5,0.2,1.1-0.1,1.9c-1.1,2.9-1.1,6-0.5,6.9c0.2,0.3,0.4,0.4,0.8,0.4
					c1.9,0,3.6-0.5,3.6-0.5l0,0.2C264,85.3,262.3,85.8,260.4,85.8z"/>
				<path class="st1" d="M252.1,72.2c0,0-0.2,1.6-1.7,2.1s-0.8,0.8-1.9,1.1c-1.1,0.3-3.6,0.3-3.5,0.7c0.1,0.5-2,0.7-2.2,1.6
					c-0.2,0.8-0.7,1.3-0.9,2.1c-0.2,0.8-1.6,2.4-2,2.4c-0.5,0,1.3,0.3,2.1-0.8s0.7-3.1,2.1-3.4c1.4-0.3,1.7-1,2.3-1.3
					c0.6-0.3,1.7-0.6,2.8-0.8C250.3,75.6,252.2,73.4,252.1,72.2z"/>
				<path class="st1" d="M252,72.6c0,0,0.5,2,1.2,2s1.4,1.5,2.9,1.6c1.6,0.1,1.8-0.1,2.1,1.4c0.3,1.5-0.1,2.3,0.7,2.3
					c0.8,0,1-0.8,0.9-1.9s-0.9-2.3-2.1-2.5c-1.2-0.2-2.3,0.4-3.1-0.8c-0.8-1.2-2.6-2.4-2.6-2.4"/>
				<path class="st0" d="M249.7,81.2c0,0,1.1,0.3,2.2,0c1.1-0.3,1.6-0.9,2.6-0.6s0.6-0.1,0.6,0.8c-0.1,0.9-0.6,2,0.9,1.6
					c1.5-0.5,2.1,0.9,2.2,1.8c0.1,0.9-2.3-0.6-3.6-0.1c-1.3,0.6-3-1.1-4.2-1c-1.2,0.1-4.7,0.1-3.8-0.4c0.9-0.5,5.8,0.1,4.4-0.7
					c-1.4-0.8-7.1,0.2-4.9-0.5C248.3,81.6,249.7,81.2,249.7,81.2z"/>
				<path class="st1" d="M207.5,70.4c-0.1,0-0.1,0-0.2,0c-1.8-0.2-7.9-4.6-9.5-9c-0.7-1.8-0.5-3.3,0.6-4.5l0.1,0.1
					c-1,1.2-1.2,2.6-0.6,4.4c1.6,4.2,7.6,8.6,9.3,8.8c0.2,0,0.3,0,0.4-0.1c0.3-0.5,0.5-1,0.7-1.7c0.3-1.1,0.6-2.4,2.3-3.4
					c2.5-1.5,1.6-10.3,1.1-13.3c-0.6-2.9,1.1-5.2,1.4-5.4l0.1,0.2c-0.3,0.2-1.9,2.5-1.3,5.2c0.3,1.6,0.6,4.6,0.6,7.2
					c0,3.5-0.6,5.6-1.8,6.3c-1.6,1-1.9,2.2-2.2,3.3c-0.2,0.6-0.3,1.2-0.7,1.7C207.8,70.3,207.7,70.4,207.5,70.4z"/>
				<path class="st1" d="M232.5,73c-0.4,0-0.8-0.1-1.1-0.4c-1.2-0.9-2-3-1.9-4.4c0-0.7-1-2-2.3-3.4c-1.9-2.2-4.3-4.8-4.4-7.6
					c-0.2-3.2,2.8-4.9,4.9-6.2c0.9-0.6,1.8-1,2.1-1.5c0.4-0.6-0.7-1.9-2.1-3.3c-1.9-2-4.3-4.6-4-7.1c0.5-4.2,14.6-9.9,16.4-10.6
					c-0.4-0.3-1.2-1-1.4-2.1c-0.2-0.8,0.1-1.7,0.7-2.4c0.9-1.2,3-2.3,5-3.2c-2.9,0.3-7.4,0.2-13.7-0.3c-7.4-0.6-9.6,3.7-11.5,7.4
					c-0.8,1.5-1.5,3-2.6,3.9c-0.4,0.4-0.9,0.8-1.5,1.4c-4.5,4.4-13.8,13.5-24.3,8.6c-1.6-0.7-2.4-1.9-2.5-3.4
					c-0.1-2.7,2.4-7.9,14.3-17.7c7.8-6.4,16.8-12.3,21.3-14.6c10.6-5.4,28.9-0.4,29.1-0.4l0,0.2c-0.2-0.1-18.5-5-29,0.4
					c-4.5,2.3-13.4,8.2-21.3,14.6c-5.4,4.4-14.4,12.6-14.3,17.5c0,1.4,0.8,2.5,2.4,3.2c10.4,4.8,19.6-4.3,24.1-8.6
					c0.6-0.6,1.1-1,1.5-1.4c1-0.9,1.7-2.3,2.5-3.8c2-3.8,4.2-8.1,11.7-7.5c6.7,0.5,11.4,0.6,14.3,0.2c1.8-0.8,3.3-1.2,3.4-1.3
					l0.3-0.1l-0.2,0.3c-0.5,0.6-1.7,1-3.4,1.3c-2.1,0.9-4.5,2.1-5.5,3.4c-0.6,0.8-0.8,1.5-0.6,2.3c0.2,1.2,1.2,2,1.5,2.1l0.2,0.1
					l-0.2,0.1c-0.2,0.1-15.9,6.3-16.4,10.5c-0.3,2.4,2.1,4.9,3.9,6.9c1.5,1.6,2.6,2.8,2.1,3.5c-0.4,0.5-1.2,1-2.2,1.6
					c-2.1,1.2-5,2.9-4.8,6c0.1,2.7,2.5,5.3,4.4,7.5c1.3,1.5,2.4,2.7,2.3,3.5c-0.1,1.3,0.7,3.4,1.8,4.3c0.5,0.4,1.1,0.5,1.7,0.2
					c0.8-0.3,1.7-1.5,2.9-2.9c1.9-2.4,4.2-5.4,7.1-5.8l0,0.2c-2.8,0.4-5.1,3.3-7,5.7c-1.1,1.4-2.1,2.7-2.9,3
					C233,73,232.8,73,232.5,73z M248,19.6c-0.5,0.2-1.3,0.4-2.2,0.8C246.7,20.3,247.5,20,248,19.6z"/>
				<path class="st1" d="M255.3,65l-0.1-0.2c0,0-0.1,0.1-0.1,0.1c-0.1-0.5-6.1-9.5-7.8-11.7c-1.5-2-4.6-1.4-4.7-1.4l0-0.2
					c0,0,3.3-0.6,4.9,1.5C248.5,54.4,255.5,64.5,255.3,65L255.3,65L255.3,65z"/>
				<path class="st0" d="M234.6,55.4c0,0,0.7,2.3,2.5,1.5s0.6-2.5,0.6-2.5L234.6,55.4z"/>
				<path class="st0" d="M253,53.1c0,0,0.3,2.4,2.5,0.5"/>
				<path class="st1" d="M245.9,68.2c0,0-0.9,1.5,1,0.9c2-0.6,3.4-2.1,4.6-2.2c1.2-0.1-4.6-0.8-5.4,1.2"/>
				<path class="st1" d="M236.6,84.2c0,0-1.2,1.3-0.7,2.6c0.5,1.3,0.5,2.4,0.5,2.4s1.3,2.1,1.8,1.3c0.4-0.7,0-1.3,0-1.6
					s-1.2-5-1.2-5"/>
				<path class="st1" d="M237.2,116.5c-0.1-0.2-1.9-5.9-1.4-10.9c0.4-3.8,2.5-5.7,3.4-6.4c0.8-0.6,1.5-0.9,2-0.8l-0.1,0.7
					c-0.2,0-0.7,0.1-1.5,0.6c-0.8,0.6-2.7,2.3-3.1,5.8c-0.5,4.8,1.3,10.5,1.4,10.6L237.2,116.5z"/>
				<path class="st1" d="M197.7,113.6c-3.2,0-7.1-3.8-10.3-6.9c-0.5-0.5-1-1-1.4-1.4c-2.1-2-2.9-2-3.1-2c-0.1,0-0.1,0.1-0.1,0.1
					l-0.7-0.2c0-0.1,0.1-0.5,0.6-0.7c0.8-0.2,2.1,0.4,3.8,2.1c0.5,0.4,0.9,0.9,1.4,1.4c3.2,3.1,7.5,7.3,10.5,6.6
					c3.9-1,13.9-2.8,18.5-1.8l-0.1,0.7c-4.3-0.9-14,0.8-18.2,1.8C198.3,113.6,198,113.6,197.7,113.6z"/>
				<path class="st1" d="M189,307.4v-0.2c0,0,1.9-2,3.3-3.8c0.7-0.9,1-2,0.8-2.6c-0.1-0.2-0.3-0.3-0.5-0.3c-0.2,0-0.3-0.1-0.3-0.2
					c-0.2-0.6,1-2.1,1.3-2.5c-0.4-0.8-5.2-9.3-7.6-10.3c-2.5-1.1-8.9-3.6-9-3.7l0,0c-1.8-1.7-5.5-2.8-9.1-3.8
					c-2.3-0.7-4.5-1.3-6.2-2.1c-4.5-2.1-10.9-15.2-11.1-22.7c-0.2-7.8-2.9-42.6-5.7-49.6c-2.9-7.3,1-9.1,2.6-9.9
					c0.9-0.4,3.4-4.3,6.2-9.9c3-5.8,5.5-11.6,6.6-15.2c2-6.7,4.9-7.8,8.2-9c0.6-0.2,1.3-0.5,1.9-0.8c4-1.7,7.2-4.2,7.5-4.4
					c0.1-0.3,1.2-3.4,0-6.2c-1.1-2.4,0.6-6.7,1.9-10.1c0.3-0.8,0.6-1.6,0.8-2.3c0.8-2.2,0.1-4.9-0.4-6.7c-0.3-1.1-0.5-1.8-0.3-2.1
					c0-0.1,0.1-0.1,0.2-0.1l0,0.2c0,0-0.1,0-0.1,0.1c-0.1,0.2,0.1,1,0.3,1.9c0.5,1.8,1.2,4.5,0.4,6.8c-0.2,0.7-0.5,1.5-0.8,2.3
					c-1.3,3.4-2.9,7.6-1.9,10c1.3,2.9,0,6.3,0,6.3l0,0l0,0c0,0-3.4,2.6-7.5,4.4c-0.7,0.3-1.3,0.5-2,0.8c-3.4,1.3-6.1,2.3-8.1,8.9
					c-2.3,7.8-10.8,24.3-12.9,25.2c-2.6,1.2-5,3.3-2.5,9.6c2.7,7,5.5,41.8,5.7,49.6c0.2,7.4,6.5,20.5,11,22.5
					c1.7,0.8,3.8,1.4,6.1,2.1c3.6,1,7.3,2.1,9.1,3.8c0.4,0.1,6.5,2.6,9,3.7c2.6,1.1,7.5,10.1,7.8,10.4l0,0.1l0,0
					c-0.6,0.7-1.5,1.9-1.3,2.3c0,0,0,0.1,0.2,0.1c0.3,0,0.5,0.2,0.6,0.4c0.3,0.6,0,1.8-0.7,2.8C192.4,303.6,189,307.4,189,307.4z"/>
				<path class="st1" d="M387,235.3l-0.2,0c0.2-1.2,0.1-1.9-0.3-2.2c-0.5-0.3-1.3,0.3-1.4,0.3l-0.1,0l-0.1,0c0,0-3.3-3-5-6.3
					c-1.1-2.2-4.9-4-8.2-5.7c-1.7-0.8-3.3-1.6-4.5-2.4c-1.5-1-2-3.2-1.2-6.4c0.5-2.1,1.3-4,1.5-4.4c-0.8-0.1-4.8-0.7-7.3-2.4
					c-2.6-1.7-14.3-6.4-27-7.3c-10.2-0.8-15.3-2.2-20.7-3.7c-1.1-0.3-2.2-0.6-3.4-0.9c-4.4-1.2-7.8-8.5-11-15.6
					c-1.9-4.1-3.7-8.1-5.6-10.5c-3.3-4.3-11.8-8.2-17.9-11c-3.5-1.6-6.2-2.9-7.4-3.8c-2.8-2.4-1.6-15.7-0.6-25.5
					c0.2-1.7,0.3-3.3,0.4-4.7c0.2-2-0.4-3.7-1.7-5.1c-3.5-4-11.4-4.3-11.5-4.3l0-0.2c0.1,0,8.1,0.4,11.6,4.4
					c1.3,1.5,1.9,3.2,1.7,5.3c-0.1,1.4-0.3,3-0.4,4.7c-0.9,9.2-2.2,23,0.6,25.3c1.1,1,4,2.3,7.4,3.8c6.2,2.8,14.6,6.8,18,11.1
					c1.9,2.5,3.7,6.4,5.6,10.5c3.2,7.1,6.5,14.4,10.9,15.5c1.2,0.3,2.3,0.6,3.4,0.9c5.4,1.5,10.4,2.9,20.6,3.7
					c12.7,0.9,24.5,5.6,27,7.4c2.7,1.8,7.3,2.4,7.3,2.4l0.1,0l-0.1,0.1c0,0.1-4,8.4-0.4,10.7c1.2,0.8,2.8,1.5,4.4,2.4
					c3.5,1.7,7.1,3.5,8.3,5.7c1.5,3,4.5,5.8,4.9,6.2c0.2-0.1,1-0.6,1.5-0.2C387,233.2,387.2,234,387,235.3z"/>
				<path class="st1" d="M235,117.1c-1.6-0.9-8.7-2.3-12.6-3c-2.4-0.5-2.4-0.5-2.4-0.6c0,0,0-0.1,0.1-0.1c0.7,0,2.1-2.2,3.4-8.4
					c1.3-6.2,7.9-9.8,7.9-9.8l0.1,0.2c-0.1,0-6.6,3.5-7.8,9.7c-1.1,5.2-2.4,7.9-3.3,8.4c0.4,0.1,1.1,0.2,2,0.4
					c3.9,0.7,11.1,2.1,12.6,3L235,117.1z"/>
				<path class="st1" d="M219.7,205.8l-0.2-0.1c1.4-2.7,2.2-16.6,1.8-23.1c-0.2-3.7,0.7-6.4,2-10.3c1-2.9,2.1-6.4,3.2-11.4
					c1.3-6.4,1.2-18.8,1.1-28.7c-0.1-8.6-0.1-13.5,0.5-13.9c0.1,0,0.1-0.1,0.2,0c1.6,0.5,10.1-1.7,12-3.5c2-1.8,13.4-1.5,13.9-1.5
					l0,0.2c-0.1,0-11.8-0.3-13.8,1.4c-1.8,1.6-8.7,3.6-11.4,3.6c-0.3,0-0.6,0-0.8-0.1c0,0,0,0,0,0c-0.6,0.4-0.5,6.6-0.4,13.8
					c0.1,10,0.2,22.3-1.1,28.7c-1,5-2.2,8.6-3.2,11.4c-1.3,3.8-2.2,6.6-2,10.2C221.9,189.1,221.1,203,219.7,205.8z"/>
				<path class="st1" d="M203.4,172.3c-5.6,0-10.2-5.9-13.6-10.2c-1.4-1.8-2.6-3.3-3.6-4.2c-2.8-2.4-2.2-6.5-1.5-11.3
					c0.3-2,0.6-4,0.6-6.1c0.1-3.7-1.2-6.1-2.3-7.6c-1.2-1.5-2.5-2.2-2.5-2.2l0.1-0.2c0.1,0,5.3,2.8,5,9.9c-0.1,2.1-0.4,4.1-0.7,6.1
					c-0.7,4.7-1.2,8.8,1.4,11.2c1.1,0.9,2.3,2.4,3.6,4.2c3.6,4.6,8.5,10.9,14.5,10.1c4.4-0.6,9.5-1.8,12.9-2.8c4-1.1,7-2.1,7.5-2.4
					l0.1,0.2c-1.1,0.6-12.2,4.1-20.5,5.2C204.1,172.3,203.7,172.3,203.4,172.3z"/>
				<path class="st1" d="M182.5,235.2l-0.1-0.2c0.9-0.4,1.5-1.1,1.9-2.2c1.4-4.4-2.1-14.7-9.8-28.1c-4.1-7.3-3-17.6-1.4-25
					c1.8-8,4.6-14.4,4.7-14.4l0.2,0.1c0,0.1-2.8,6.4-4.6,14.4c-1.7,7.4-2.8,17.7,1.3,24.9c7.7,13.5,11.2,23.8,9.8,28.3
					C184.2,234,183.5,234.7,182.5,235.2z"/>
				<path class="st1" d="M235.9,213.6c-0.2-1.5-1-2.9-2.4-4c-8.5-6.5-36.7-2.2-37-2.2l0-0.2c0.1,0,7.2-1.1,15.3-1.4
					c7.5-0.3,17.4,0.2,21.8,3.6c1.5,1.1,2.3,2.5,2.5,4.1L235.9,213.6z"/>
				<path class="st1" d="M185.5,311.5l-0.2-0.1c0-0.1,0-0.2,0-0.2c-0.2-0.3-1.2-0.5-1.5-0.5l-0.1,0l0.1-0.1c0-0.1,3.3-6.5,3.5-7.3
					c0-0.1,0-0.2,0-0.3c-0.3-0.5-1.5-0.7-2.6-0.9l-0.2,0c-0.3,0-0.4-0.1-0.5-0.3c-0.1-0.2,0.2-0.4,0.5-0.7c0.6-0.5,1.4-1.2,1.4-2.2
					c0.1-1.9-2.8-7.5-2.8-7.5l0.2-0.1c0.1,0.2,2.9,5.7,2.8,7.6c-0.1,1.1-0.9,1.8-1.5,2.3c-0.2,0.2-0.5,0.4-0.5,0.5
					c0,0,0,0.1,0.3,0.1l0.2,0c1.2,0.2,2.4,0.4,2.8,0.9c0.1,0.1,0.1,0.3,0.1,0.5c-0.2,0.8-3,6.3-3.5,7.2c0.4,0,1.3,0.2,1.5,0.6
					C185.5,311.2,185.5,311.3,185.5,311.5z"/>
				<path class="st1" d="M181.6,312h-0.2c0,0-0.1-0.1-0.2-0.2c-0.4-0.4-1.4-0.1-1.4-0.1l-0.1,0.1l0-0.1c0,0,0.2-4.7,0-5.5
					c-0.2-0.5,0.1-0.6,0.6-0.8c0.3-0.2,0.8-0.4,1.3-0.9c0.1-0.1,0.3-0.3,0.2-0.5c-0.2-0.4-1.7-0.3-2.1-0.2c-0.1,0-0.2,0-0.3-0.1
					c-0.4-0.4-0.6-2.2-0.1-4.2c0.6-2.1-2.2-5.8-2.2-5.8l0.1-0.1c0.1,0.2,2.8,3.7,2.2,6c-0.5,1.9-0.3,3.6,0,4c0.1,0.1,0.1,0,0.1,0
					c0.4-0.1,2-0.2,2.3,0.3c0.1,0.2,0,0.4-0.3,0.7c-0.5,0.5-1,0.7-1.3,0.9c-0.4,0.2-0.6,0.3-0.5,0.6c0.2,0.7,0,4.7,0,5.4
					c0.3,0,1-0.4,1.4,0C181.5,311.8,181.6,312,181.6,312z"/>
				<path class="st1" d="M175.6,307.3c0-0.3-0.1-0.6-0.4-0.7c-0.5-0.3-1.2-0.1-1.2-0.1l-0.1,0l0-0.1c0,0-1.1-3.2-1.6-4.4
					c-0.3-0.7,0.2-1.3,0.6-1.9c0.4-0.6,0.8-1.2,0.6-1.8c-0.2-0.6-0.6-0.5-1.1-0.5c-0.6,0-1.3,0.1-1.6-0.8c-0.6-1.5-2.9-2.5-2.9-2.5
					l0.1-0.2c0.1,0,2.4,1,3,2.6c0.3,0.8,0.8,0.7,1.4,0.7c0.5,0,1.1-0.1,1.3,0.7c0.2,0.7-0.2,1.3-0.7,1.9c-0.4,0.6-0.8,1.1-0.6,1.7
					c0.4,1.1,1.4,3.8,1.6,4.3c0.2-0.1,0.9-0.2,1.3,0.1c0.3,0.2,0.4,0.5,0.4,0.8L175.6,307.3z"/>
				<ellipse transform="matrix(0.823 0.568 -0.568 0.823 195.7555 -43.9988)" class="st1" cx="168.5" cy="292.1" rx="2" ry="1.1"/>
				<path class="st1" d="M409.8,205.1L409.8,205.1c-0.1,0-3-1.4-3.7-1.6c-0.1,0-0.4-0.2-0.9-0.3c-1.8-0.7-5.9-2.2-6.9-2.1
					c-1,0.1-6.3,1.5-9.8,2.4c-0.7,0.2-1.4,0.4-1.9,0.5c-2.8,0.7-4.6-1-4.6-1l0.1-0.1c0,0,1.7,1.7,4.4,1c0.5-0.1,1.2-0.3,1.9-0.5
					c3.5-0.9,8.9-2.3,9.9-2.4c1-0.1,5.1,1.4,7,2.1c0.4,0.2,0.7,0.3,0.9,0.3c0.7,0.2,3.2,1.4,3.6,1.6c0.3-0.2,1.5-1.1,2.9-0.3
					l-0.1,0.2C411.2,203.9,409.9,205.1,409.8,205.1L409.8,205.1z"/>
				<path class="st1" d="M385.4,199l0-0.2c0,0,3.4-0.4,5.5-1.7c0.5-0.3,1.1-0.7,1.6-1.1c1.5-1.1,2.7-2,3.4-1.3
					c0.8,0.8,2.4,1.4,3.5,1.4c0.6,0,2.2,0.6,3.6,1c0,0,2.3,0.8,2.7,1.1l0,0l0,0c0,0,0.1,0,0.1,0l0,0.1l-0.1,0.1l-0.1,0l0,0l0,0
					c-0.2-0.1-5.2-2.1-6.2-2.1c-1.2,0-2.8-0.7-3.6-1.5c-0.6-0.6-1.8,0.3-3.2,1.3c-0.5,0.4-1,0.8-1.6,1.1
					C388.9,198.6,385.5,199,385.4,199z"/>
				<path class="st0" d="M383.2,217.8c0.1,0.4,2.6-0.7,4.2-1.6c1.6-0.9,3.4-2.4,4.7-2.9c1.2-0.5,2.6-2.4,5-2.6
					c2.4-0.1,7.8-1.1,7.8-1.1l-10.5-1.8c0,0-3.1,3.6-4.5,3.9S382.9,215.2,383.2,217.8z"/>
				<path class="st0" d="M360.7,215.3c0,0-0.2,6.1,2.6,7.7c2.8,1.6,14,7,15.9,9.4c2,2.4,2.4,0.4,2.4,0.4s-4.1-5.4-7.7-7
					c-3.6-1.5-7.7-4.1-8.9-5.4C363.8,219.1,360.7,215.3,360.7,215.3z"/>
				<path class="st1" d="M187.6,99.7"/>
				<ellipse class="st1" cx="355.4" cy="244.7" rx="9.2" ry="2.1"/>
				<ellipse class="st0" cx="428.1" cy="263.6" rx="9.2" ry="4"/>
				<ellipse class="st0" cx="306" cy="304.7" rx="9.2" ry="4"/>
				<ellipse class="st0" cx="101.1" cy="251.5" rx="9.2" ry="4"/>
				<ellipse class="st0" cx="83.1" cy="293.3" rx="9.2" ry="4"/>
				<ellipse class="st1" cx="25.8" cy="255.1" rx="5.9" ry="2.6"/>
				<ellipse class="st1" cx="286.4" cy="246.7" rx="4.3" ry="1"/>
				<ellipse class="st1" cx="212.4" cy="244.5" rx="4.3" ry="1.9"/>
				<ellipse class="st1" cx="177.1" cy="248.9" rx="4.3" ry="1.9"/>
				
					<ellipse transform="matrix(0.7644 -0.6448 0.6448 0.7644 -59.3641 184.8211)" class="st1" cx="223.2" cy="173.6" rx="4.3" ry="1.9"/>
				<path class="st1" d="M81.3,276.6c-0.5-0.2-1.2-0.2-1.8-0.1c-0.7,0-1.4,0.1-2-0.2c-1.1-0.5-1.5-0.7-1.5-0.9
					c-0.1-0.2,0-0.3,0.2-0.5c0.1-0.2,0.4-0.6,0.4-1.2c0.1-0.7,0.3-1.1,0.4-1.5c0.1-0.3,0.2-0.5,0.1-0.7c-0.1-0.2-0.6-0.4-1.7-0.7
					c-0.7-0.2-1.7,0.1-2.7,0.3c-1.2,0.3-2.4,0.6-3.6,0.3l0,0v-0.1c0-1.7,1.9-2.4,3.8-3.1c1.1-0.4,2.1-0.8,2.7-1.3
					c-1.7-2.4-6.1-1.5-9.3-0.9c-0.8,0.2-1.6,0.3-2.3,0.4c-0.3,0-0.6,0.1-0.9,0.1c-2,0.3-5.1,0.7-6-1.3c-0.6-1.4,0.8-3.2,4-5.3
					c3.5-2.3,6.8-2.4,10.4-2.4c1.4,0,2.9-0.1,4.5-0.2c0.2,0,0.4,0,0.6-0.1c2-0.2,5.1-0.5,5.6-2.6c-2.1-0.1-4.2,0.1-6.2,0.3
					c-1.4,0.1-2.9,0.2-4.4,0.3c-0.3,0-0.7,0-1,0c-2.1,0.1-4.3,0.2-5-0.9c-0.3-0.5-0.3-1.3,0.3-2.3c1-2.1,3.3-3.7,6.6-4.7
					c3.4-1.1,6.9-1.3,8.2-1.3h0.2c3.2,0,6.2,0,9.4-0.2c2.3-0.2,2.9-0.3,4.6-1.8c0.5-0.4,0.7-0.7,1-1c0.6-0.7,1-1.2,2.5-1.6
					c0.8-0.2,1.6-0.3,2.5-0.4c0.5-0.1,1-0.1,1.4-0.2c0.5-0.1,1-0.2,1.5-0.3c4.6-0.8,8.6-1.6,13.3-0.8l0,0.2c-4.6-0.7-8.6,0-13.2,0.8
					c-0.5,0.1-1,0.2-1.5,0.3c-0.5,0.1-0.9,0.1-1.4,0.2c-0.8,0.1-1.7,0.2-2.5,0.4c-1.5,0.4-1.9,0.9-2.4,1.6c-0.3,0.3-0.6,0.7-1,1.1
					c-1.8,1.6-2.4,1.6-4.7,1.8c-3.1,0.3-6.2,0.1-9.4,0.1h-0.2c-1.3,0-4.7,0.3-8.1,1.3c-3.3,1-5.5,2.6-6.5,4.6
					c-0.5,0.9-0.6,1.7-0.3,2.2c0.6,1,2.8,0.9,4.8,0.8c0.3,0,0.7,0,1,0c1.5,0,3-0.2,4.4-0.3c2.1-0.2,4.2-0.4,6.4-0.3l0.1,0l0,0.1
					c-0.5,2.3-3.7,2.6-5.8,2.8c-0.2,0-0.4,0-0.6,0.1c-1.6,0.2-3.1,0.2-4.5,0.2c-3.5,0.1-6.8,0.1-10.3,2.4c-3.2,2.1-4.5,3.8-4,5.1
					c0.8,1.9,3.8,1.5,5.8,1.2c0.3,0,0.6-0.1,0.9-0.1c0.6-0.1,1.4-0.2,2.3-0.4c3.3-0.6,7.7-1.5,9.5,1l0,0.1l-0.1,0.1
					c-0.6,0.6-1.7,1-2.8,1.4c-1.8,0.7-3.7,1.3-3.8,2.9c1.1,0.2,2.3-0.1,3.5-0.3c1.1-0.3,2.1-0.5,2.8-0.3c1.2,0.3,1.7,0.5,1.9,0.8
					c0.1,0.2,0,0.5-0.1,0.9c-0.1,0.4-0.3,0.8-0.4,1.4c-0.1,0.6-0.3,1-0.4,1.2c-0.1,0.2-0.2,0.3-0.1,0.4c0.1,0.2,0.6,0.4,1.4,0.8
					c0.6,0.2,1.3,0.2,1.9,0.2c0.6,0,1.3-0.1,1.8,0.1L81.3,276.6z"/>
				<path class="st1" d="M426.7,275.2c-2.1,0-4.1-0.3-5.1-1.4c-0.7-0.8-0.9-1.3-0.8-1.9c0.1-0.6,0.7-1,1.6-1.5
					c1.3-0.7,4.3-0.6,6.7-0.3c1.2,0.1,2.2-0.1,2.8-0.1c0,0,0,0,0.1,0c0.7,0,1.4,0.3,2.1,0.4c1.7,0,3.4,0.2,5,0.1
					c1.6-0.1,3.5-0.3,5-1.1c1.6-0.8,2.3-2.1,2.3-3.9c-0.2-3.8-5.2-5.8-8.6-7l-0.1,0c-3.2-1.2-6.4-1.4-9.7-1.6
					c-1.4-0.1-2.9-0.2-4.4-0.3c-1.4-0.2-2.9-0.4-4.2-0.6c-3.6-0.6-7.1-1.1-10.8-0.8c-0.5,0-1,0.1-1.5,0.1c-1.4,0.1-3,0.1-4.2,0.6
					c-0.7,0.2-1.3,0.6-1.8,1c-0.8,0.5-1.5,1-2.6,1.2c-4.4,0.9-10-0.4-13.3-3.1c-1.5-1.2-2.3-2.8-3-4.3c-0.6-1.2-1.2-2.5-2.3-3.6
					c-4.7-5.1-10.1-8.3-17.1-10.1c-2.8-0.7-16.2-2-18.9,0.6c-0.4,0.4-0.6,0.9-0.5,1.4c0.6,3,6,2.1,9.2,1.6c0.8-0.1,1.5-0.2,2-0.3
					c4.6-0.3,8.9,0.1,12.7,1.1c2.2,0.6,3.4,1.3,3.7,2.3c0.3,1-0.1,2.3-1.5,4c-2.5,3.1-6.6,4-9.5,4.2c-9.8,0.5-18.8-1.4-27.5-3.3
					c-0.5-0.1-1.1-0.2-1.6-0.4c-2.9-0.7-5.9-1.4-9-1c-2.3,0.3-4,1.2-5.6,2.2c-1.1,0.6-2.2,1.3-3.6,1.7c-0.8,0.2-1.5,0.5-2.2,0.8
					c-1.9,0.7-3.7,1.4-6,1.3c-0.9,0-1.7-0.1-2.6-0.2c-1.8-0.1-3.4-0.3-5.3-0.1c-2.5,0.3-4.9,1-7.2,1.6c-2.6,0.8-5.3,1.5-8.1,1.7
					c-1.6,0.1-7-0.4-7.6-2.2c-0.2-0.7,0.4-1.6,1.9-2.5c1.8-1,4.5-1.1,7.1-1.1c1.3,0,2.5,0,3.6-0.2c0.4-0.1,0.9-0.1,1.4-0.2
					c3-0.4,7.1-0.9,8.9-2.9c0.7-0.8,0.9-1.5,0.7-2.2c-0.3-1-1.6-1.8-3.4-2.2c-4.1-0.9-9.6,0-14,0.8c-0.6,0.1-1.2,0.2-1.8,0.3
					c-2.2,0.4-4.8,0.9-6.9,1.9c-0.5,0.2-1,0.7-1.5,1.1c-0.5,0.5-1.1,0.9-1.6,1.1c-2.5,1-3.6-0.5-4.8-2c-0.5-0.7-1-1.3-1.6-1.8
					c-2.8-2.3-6.8-2.1-10.6-2c-1.6,0.1-3.1,0.1-4.5,0l0,0l0,0c-0.1-0.1-0.2-0.2-0.1-0.3c0.1-0.1,0.2-0.2,0.8,0l0,0.2
					c-0.4-0.1-0.5-0.1-0.6-0.1c0,0,0,0,0.1,0.1c1.4,0.1,2.9,0.1,4.4,0c3.9-0.1,7.9-0.3,10.7,2c0.6,0.5,1.2,1.2,1.7,1.9
					c1.2,1.6,2.2,2.9,4.6,2c0.5-0.2,1-0.6,1.5-1.1c0.5-0.5,1-0.9,1.6-1.2c2.1-1,4.7-1.5,6.9-1.9c0.6-0.1,1.2-0.2,1.8-0.3
					c4.4-0.8,10-1.7,14.1-0.8c1.9,0.4,3.2,1.3,3.5,2.4c0.2,0.8,0,1.6-0.8,2.4c-1.8,2-6,2.5-9,2.9c-0.5,0.1-1,0.1-1.4,0.2
					c-1,0.2-2.3,0.2-3.6,0.2c-2.5,0-5.3,0.1-7,1.1c-1.4,0.9-2.1,1.6-1.9,2.3c0.5,1.5,5.3,2.1,7.4,2c2.8-0.2,5.5-0.9,8.1-1.7
					c2.3-0.7,4.8-1.4,7.3-1.6c1.8-0.2,3.5-0.1,5.3,0.1c0.8,0.1,1.7,0.1,2.6,0.2c2.2,0.1,4-0.6,5.9-1.3c0.7-0.3,1.4-0.5,2.2-0.8
					c1.3-0.4,2.5-1.1,3.6-1.7c1.6-0.9,3.3-1.9,5.6-2.2c3.1-0.3,6.1,0.4,9,1c0.5,0.1,1.1,0.2,1.6,0.4c8.7,1.9,17.7,3.9,27.4,3.3
					c2.9-0.2,6.9-1,9.4-4.1c1.3-1.6,1.8-2.9,1.5-3.8c-0.3-0.9-1.5-1.6-3.6-2.2c-3.8-1-8.1-1.3-12.7-1c-0.5,0-1.2,0.1-2,0.3
					c-3.3,0.5-8.7,1.4-9.4-1.7c-0.1-0.6,0.1-1.1,0.5-1.6c2.8-2.7,16.3-1.4,19.1-0.7c7,1.8,12.5,5,17.2,10.2c1,1.1,1.7,2.4,2.3,3.7
					c0.8,1.6,1.5,3.1,3,4.2c3.3,2.7,8.8,3.9,13.2,3c1-0.2,1.7-0.7,2.5-1.1c0.6-0.3,1.2-0.7,1.8-1c1.2-0.4,2.8-0.5,4.2-0.6
					c0.5,0,1.1-0.1,1.5-0.1c3.8-0.3,7.2,0.2,10.9,0.8c1.4,0.2,2.8,0.4,4.2,0.6c1.5,0.2,3,0.3,4.4,0.4c3.4,0.2,6.6,0.4,9.8,1.6l0.1,0
					c3.4,1.3,8.6,3.3,8.7,7.2c0.2,4.1-3.9,5-7.4,5.3c-1.7,0.2-3.4-0.3-5.1-0.3c-0.7,0-1.5-0.4-2.2-0.4c0,0,0,0,0,0
					c-0.7,0-1.7,0.3-2.9,0.2c-2.4-0.3-5.4-0.4-6.6,0.2c-0.8,0.5-1.4,1-1.5,1.5c-0.1,0.5,0.2,1,0.8,1.8c1.8,2.1,7.8,1.3,10.3,0.9
					l0.3,0c2.9-0.4,5.7-1.3,8.4-2.3c2.1-0.7,4.4-1.5,6.6-1.9c0.7-0.1,1.5-0.1,2.2,0c1,0.1,1.9,0.2,2.7-0.2l0.1,0.2
					c-0.8,0.4-1.8,0.3-2.8,0.2c-0.7-0.1-1.5-0.1-2.2,0c-2.2,0.5-4.4,1.2-6.5,1.9c-2.7,0.9-5.6,1.9-8.5,2.3l-0.3,0
					C430.7,275,428.7,275.2,426.7,275.2z"/>
				<path class="st1" d="M337.9,293.6c-1.3,0-2.5-0.2-3.5-0.6c-0.7-0.3-1.3-0.9-1.8-1.4c-0.6-0.5-1.2-1.1-1.9-1.5
					c-2.7-1.2-5.5-0.2-8.2,0.7c-2.7,0.9-5.5,1.8-8.1,0.7c-1.3-0.5-1.8-1-1.8-1.5c0-0.6,1-1.1,2.2-1.6c0.9-0.4,1.9-0.8,2.4-1.4
					c-3.6-2.6-10-0.2-15.1,1.7c-1.7,0.6-3.3,1.2-4.5,1.5c-1.6,0.4-7.9,1.5-10.1-0.2c-0.5-0.4-0.7-0.9-0.7-1.5c0-1.7,3-2.2,4.9-2.5
					c0.4-0.1,0.7-0.1,0.9-0.2l0.3-0.1c2-0.5,7.4-1.7,7.5-3c0-0.4-0.4-0.9-2.6-1.6c-2.4-0.7-6.4-0.3-8.5,0.9c-0.8,0.5-1.2,1-1.6,1.5
					c-0.3,0.4-0.6,0.8-1.1,1.2c-2.5,2.2-6.7,2.4-10,2.6l-0.5,0c-5.1,0.3-11.4,0.6-16-1.1c-3.3-1.3-5.3-3-5.6-5.1
					c-0.4-2,0.8-4.3,3.3-6.5c3.3-2.9,9.3-2.2,14.1-1.7c1.3,0.1,2.4,0.3,3.5,0.3c3.6,0.2,6.3,0.6,9.9,2.2c0.4,0.1,1.2,0.4,1.8,0.6
					c1.1,0.3,1.1,0.3,1.1,0.4l0,0.1l-0.1,0l0-0.1l0,0.1c-0.1,0-0.5-0.2-1-0.3c-0.7-0.2-1.5-0.4-1.8-0.6c-3.6-1.5-6.2-1.9-9.9-2.2
					c-1.1-0.1-2.2-0.2-3.5-0.3c-4.8-0.5-10.8-1.2-14,1.6c-2.5,2.2-3.6,4.4-3.3,6.4c0.4,2,2.3,3.7,5.5,4.9c4.6,1.7,10.9,1.4,15.9,1.1
					l0.5,0c3.3-0.2,7.4-0.4,9.9-2.5c0.5-0.4,0.8-0.8,1.1-1.2c0.4-0.6,0.8-1.1,1.6-1.6c2.1-1.2,6.1-1.7,8.6-0.9
					c1.8,0.5,2.7,1.1,2.7,1.8c0,1.3-3.9,2.4-7.6,3.2l-0.3,0.1c-0.2,0-0.5,0.1-0.9,0.2c-1.6,0.3-4.7,0.8-4.7,2.3c0,0.6,0.2,1,0.6,1.4
					c2.1,1.6,8.4,0.5,9.9,0.2c1.2-0.3,2.8-0.9,4.5-1.5c5.2-1.9,11.8-4.3,15.4-1.6l0.1,0.1l-0.1,0.1c-0.6,0.6-1.6,1.1-2.6,1.5
					c-1.1,0.5-2.1,0.9-2.1,1.5c0,0.4,0.6,0.8,1.7,1.3c2.5,1.1,5.2,0.2,8-0.7c2.8-0.9,5.6-1.9,8.4-0.7c0.8,0.4,1.4,0.9,2,1.5
					c0.6,0.5,1.1,1,1.8,1.3c2.2,1,5.2,0.6,7.6,0.2l0.4-0.1c0.4-0.1,0.8-0.2,1.1-0.3c0.8-0.2,1.6-0.5,2.4,0l-0.1,0.2
					c-0.8-0.4-1.5-0.2-2.3,0c-0.4,0.1-0.7,0.2-1.2,0.3l-0.4,0.1C340.8,293.4,339.3,293.6,337.9,293.6z"/>
				<path class="st1" d="M287.4,280.4c-0.2,0-0.5,0-0.6-0.1l-0.1,0l0-0.1c0.1-0.5,0.1-0.9,0.2-1.3c-0.6-1.4,1.2-3.3,3.4-4.7
					c2.6-1.6,5.8-2.4,6.8-0.9c0.5,0.8,0.5,1.7-0.2,2.6c-0.8,1.2-2.7,2.4-5.1,3.3C290.1,280,288.4,280.4,287.4,280.4z M286.9,280.2
					c1.8,0.3,8-1.7,9.9-4.3c0.6-0.9,0.7-1.7,0.2-2.4c-0.7-1.1-3.2-1.1-6.5,0.9c-0.6,0.4-1.2,0.8-1.7,1.2l0.1,0.1
					c-0.8,0.7-1.3,1.8-1.7,3.2c0,0,0,0,0,0l0,0C287,279.4,286.9,279.8,286.9,280.2z M288.1,276.3c-0.7,0.8-1.2,1.6-1.1,2.3
					C287.3,277.7,287.6,276.9,288.1,276.3z"/>
				<path class="st1" d="M291.8,229.3c-0.1,0-0.2,0-0.2-0.1c-0.1-0.1-0.2-0.2-0.2-0.3l0,0l0,0c0.4-1.9,4-6,6.7-6.6
					c1-0.2,1.8,0,2.3,0.8c0.6,0.8,0.5,1.8-0.5,2.9c-1.9,2.1-6.2,3.7-7.6,2.8l0.1-0.2c1.3,0.8,5.6-0.8,7.4-2.8
					c0.6-0.7,1.2-1.7,0.5-2.6c-0.5-0.7-1.2-0.9-2.1-0.7c-2.6,0.6-6.1,4.6-6.5,6.5c0,0.1,0.1,0.2,0.1,0.2c0.1,0,0.2,0,0.3,0l0.1,0.2
					C292,229.3,291.9,229.3,291.8,229.3z"/>
				<path class="st1" d="M85.1,295.9c-2.9,0-5.7-0.6-6.8-2.8c-0.5-1.1-0.4-2,0.3-2.6c1.8-1.6,7.4-1,9.4,0.3c1.1,0.7,1.7,1.5,2.2,2.2
					c0.6,0.8,1,1.5,2.2,1.8c1.9-0.6,3.2-1.8,4.4-3c1.6-1.5,3.3-3.1,6.5-3.4c0.5,0,1.4,0,2.4,0c3.5,0.1,8.7,0.2,9.4-2.1
					c0.5-1.7-1.2-2.4-3.1-3.2c-2.2-0.8-4.7-1.8-4.3-4.5c0.7-5.4,11.9-7.2,19.6-6.8c7.5,0.4,10.3,2.5,10.3,4.2l-0.2,0
					c-0.1-2.1-4-3.7-10.1-4.1c-4.4-0.2-9,0.2-12.6,1.3c-5.3,1.5-6.6,3.8-6.8,5.4c-0.4,2.6,2,3.5,4.2,4.3c2,0.8,3.8,1.5,3.2,3.4
					c-0.8,2.5-6.1,2.3-9.6,2.2c-1,0-1.8,0-2.4,0c-3.1,0.3-4.7,1.8-6.4,3.3c-1.2,1.1-2.4,2.3-4.2,2.9c0.5,0.1,1.1,0.2,1.8,0.2l0,0.2
					c-0.9,0-1.6-0.1-2.2-0.2c-0.5,0.1-1,0.3-1.5,0.3l-0.4,0.1C89.1,295.6,87.1,295.9,85.1,295.9z M82.4,289.7c-1.7,0-3,0.3-3.7,0.9
					c-0.6,0.6-0.7,1.4-0.2,2.4c1.8,3.7,8.7,2.7,12,2.2l0.4-0.1c0.4-0.1,0.8-0.1,1.2-0.3c-1.1-0.4-1.5-1.1-2-1.8
					c-0.5-0.7-1-1.5-2.1-2.2c-1-0.6-2.8-1.1-4.7-1.2C83,289.7,82.7,289.7,82.4,289.7z"/>
				<path class="st1" d="M304.6,311.8c-0.4,0-0.7,0-1,0c-7.1-0.2-13.5-1.9-19-5.1c-1.7-1-2.3-1.9-3-2.9c-0.4-0.7-0.9-1.4-1.7-2.1
					c-4.4-4-15.6-3.7-23-3.4c-0.8,0-1.6,0-2.3,0.1l0-0.1c0.7,0,1.5,0,2.3-0.1c7.4-0.2,18.7-0.6,23.1,3.5c0.8,0.7,1.3,1.4,1.7,2.1
					c0.6,1,1.2,1.9,2.9,2.9c5.4,3.2,11.8,4.9,18.9,5c6.5,0.2,19.1-1,20.4-4.4c0.4-1-0.2-2.1-1.7-3.3c-6-4.9-15.6-4.9-24.9-4.9
					c-6.8,0-13.8,0-19.1-1.9l0-0.1c5.3,1.9,12.3,1.9,19.1,1.9c9.4,0,19,0,25,4.9c1.6,1.3,2.2,2.5,1.8,3.5
					C322.8,310.8,310.3,311.8,304.6,311.8z"/>
				<path class="st1" d="M236.3,110.6c0,0,0.5,1.5,2.7,1.2c2.2-0.2,3.6-1.2,7.3-1.3l3.8-0.1c0,0,0.1,1.3-1.2,1.5
					c-1.3,0.1-9.9,1.6-9.9,1.6l-2.2,0.4C236.8,113.8,235.8,110.7,236.3,110.6z"/>
				<path class="st0" d="M261.6,132.6c0,0,1.6,2.2,0.7,6.1c-0.9,3.9-3.4,13.6-2.7,18.1c0,0,0.9,10.2,2.3,12.1
					c1.3,1.8-5.1-7.1-7.5-7.2c-2.3-0.1,2.2-18.7,2.7-19.7c0.5-1,3.7-9.5,3.6-9.9s0.6-4.8,0.6-4.8L261.6,132.6z"/>
				<path class="st0" d="M180.4,158.8c0,0-1.8,1.7-2.3,2.1c-0.5,0.4-9.1,3.6-9.5,3.7c-0.4,0.2-3.1,6.6-3.1,7.4c0,0.9-5.9,14-5.9,14
					s4.2-1.3,7-5.1c2.8-3.8,4.7-9.1,7-10.5s6.7-4.3,8-4.4c1.2-0.1,4.2-3.7,4.2-3.7S185.3,158.4,180.4,158.8z"/>
				<path class="st0" d="M190,243.2c0,0,3.9-2,7.2,2c3.3,4,14.5,13.2,21.5,16.5c6.1,2.9,18,9.6,18,9.6s1.5-10.1,3.1-12.5
					c1.7-2.4,3.1-11.4,2.8-14.1c-0.4-2.8-6.8-5.7-12.1-1.8s-12.3,7-16.9,4c-4.6-2.9-4.4-6.2-9.4-7c-5-0.7-5.1-3.1-10.7-2.8
					s-9.7,4-11,4C181.2,241.2,185.6,244.8,190,243.2z"/>
				<path class="st0" d="M155.1,240c0,0,2.3-0.9,3.7-3.2c1.3-2.3,4.3-7.5,4.4-9.4c0.1-2,2.1,9.4,5.4,9.8s4.9-1,7.3,0.6
					c2.4,1.6,3.9,2.7,6.5,1.6s6.1,2.3,6.1,2.3s-14.6,1.1-18.4,2.8c-3.8,1.7-11.5,7.6-11.9,9.1S156.6,241,155.1,240z"/>
			</g>
			<path class="st1" d="M168.7,250.2"/>
			<path class="st1" d="M263.4,292.4c-3-0.6-5.2-1.6-8-3.6c-0.9-0.7-1.7-1.4-2.4-2.1c-1.2-1.1-2.3-2.2-4-2.9
				c-3.1-1.3-6.4-0.9-9.6-0.6c-3.3,0.3-6.5,0.7-9.3-0.7l-0.1-0.1l0.1-0.1c0.4-0.4,1-0.8,1.6-1.2c1.6-1.1,3.7-2.5,3.3-4
				c-1.2-0.3-3.8-0.1-6.7,0.1c-5.9,0.4-12.5,0.9-13.1-1.7l0,0l0,0c0.6-0.6,1.7-1,2.7-1.4c1.3-0.5,2.6-1,2.8-1.8
				c0.1-0.4-0.1-0.8-0.5-1.3c-0.9-1.1-5.2-0.6-7.8-0.3c-0.8,0.1-1.4,0.2-1.7,0.2c-0.2,0-0.4,0-0.7,0c-3.4,0.2-7.4,0.4-7.9-0.8
				c-0.2-0.4,0.2-0.9,1-1.6c1.5-1.2,4-1.3,6.5-1.4c1.9-0.1,3.6-0.2,5-0.7c0.1-1.2-0.1-2.2-0.8-3c-2.1-2.2-7.4-1.9-11-1.7
				c-0.8,0-1.5,0.1-2.1,0.1c-3.6,0-7.4,1.2-11.1,2.3c-5.5,1.6-11.2,3.4-16.5,1.6l-0.1,0l0-0.1c-1-6.4,5.9-8,12.1-9.5
				c2.9-0.7,5.6-1.3,7.4-2.4c1.5-1,4.2-3.4,3.4-6c-0.4-1.2-1.3-1.7-2.2-2.3c-0.4-0.2-0.7-0.4-1.1-0.7l0.1-0.1
				c0.3,0.3,0.7,0.5,1.1,0.7c1,0.6,1.9,1.2,2.3,2.4c0.3,1.1,0.1,2.4-0.8,3.6c-0.6,1-1.6,1.9-2.7,2.6c-1.7,1.1-4.5,1.8-7.4,2.5
				c-6.1,1.4-12.9,3.1-12,9.3c5.2,1.7,10.9,0,16.3-1.6c3.7-1.1,7.5-2.3,11.1-2.3c0.6,0,1.2,0,2-0.1c3.6-0.2,9-0.5,11.1,1.8
				c0.7,0.8,1,1.9,0.9,3.2l0,0.1l0,0c-1.4,0.6-3.2,0.7-5.1,0.8c-2.4,0.1-4.9,0.3-6.4,1.4c-0.7,0.6-1.1,1-0.9,1.4
				c0.4,1.1,5.9,0.8,7.7,0.7c0.3,0,0.5,0,0.7,0c0.4,0,1-0.1,1.7-0.2c2.8-0.3,7-0.8,7.9,0.3c0.5,0.6,0.6,1,0.5,1.5
				c-0.2,0.9-1.6,1.4-3,1.9c-1,0.4-2.1,0.8-2.6,1.3c0.7,2.4,7.5,1.9,12.9,1.5c3-0.2,5.6-0.4,6.8-0.1l0.1,0l0,0.1
				c0.5,1.7-1.6,3.1-3.3,4.3c-0.6,0.4-1.1,0.8-1.5,1.1c2.7,1.2,5.8,0.9,9.1,0.6c3.3-0.3,6.6-0.7,9.7,0.6c1.7,0.7,2.9,1.8,4.1,2.9
				c0.7,0.7,1.5,1.4,2.4,2.1c2.8,2,4.9,3,7.9,3.6L263.4,292.4z"/>
			<circle class="st1" cx="254.8" cy="69.8" r="0.8"/>
			<circle class="st1" cx="244.7" cy="62.3" r="0.8"/>
			<ellipse class="st1" cx="251.1" cy="69.1" rx="0.8" ry="0.4"/>
		</g>
		<path class="st1" d="M199,298.6c1.9,0,3.6-0.7,3.7-0.7l-0.3-0.7c0,0-4.3,1.7-6.4-0.4l-0.6,0.6C196.4,298.3,197.7,298.6,199,298.6z
			"/>
	</g>
	<path class="st2" d="M320,302.4l0-0.7c1.2-0.1,124-7.4,161.4-40.9c0,0,6-6.5,14.1-9.1c7.4-2.4,11,0.7,14.1,3.4
		c3.8,3.2,6.8,5.8,15.7-3.1c3.2-3.2,6.7-4.7,10.2-4.4c4.2,0.4,8.3,3.3,12.1,8.6l-0.6,0.4c-3.7-5.2-7.5-8-11.5-8.3
		c-3.3-0.3-6.5,1.1-9.6,4.2c-9.4,9.4-12.8,6.5-16.8,3.1c-3-2.6-6.4-5.4-13.4-3.2c-8,2.6-13.8,8.8-13.8,8.9
		C444.3,295,321.3,302.3,320,302.4z"/>
</g>
</svg>
