<svg version="1.1" id="Layer_1" xmlns="http://www.w3.org/2000/svg" xmlns:xlink="http://www.w3.org/1999/xlink" x="0px" y="0px"
	 width="417.9px" height="403.1px" viewBox="0 0 417.9 403.1" style="enable-background:new 0 0 417.9 403.1;" xml:space="preserve"
	>
<g>
	<path class="st0" d="M12.8,352.4c-1.2-0.8-10-5.8-10.1-5.8l0.4-0.6c0.4,0.2,8.9,5.1,10.1,5.9L12.8,352.4z"/>
	<g>
		<path class="st0" d="M170.9,135.7c-1,0-1.8-0.2-2.1-0.5c-0.4-0.3-4.1-1-6-1c-0.1,0-0.2,0-0.3,0c-1.9,0.1-6.1-2.2-7.5-4.1
			c-1.4-1.8-2.9-2.9-4.4-3.3c-1.7-0.4-5.4-3-5.8-5.1c-0.2-0.9-1-1.5-1.9-2.2c-0.9-0.7-1.9-1.5-2.7-2.7c-1.5-2.4-2.1-3.3-2.1-3.3
			c-0.1-0.1-1.4-2.4-2.1-4.2c-0.2-0.5-0.3-1-0.5-1.4c-0.3-1.1-0.5-1.9-1.7-3.1c-1.9-1.9-2-8-1.5-9.8c0.3-1-2.4-8.5-4.3-13.5
			c-1.1-2.9-2-5.4-2.3-6.6c-0.8-2.8-3.3-5.1-4.4-6.2c-0.4-0.4-0.6-0.5-0.7-0.7c-0.4-0.6-0.7-3.1-0.4-4.6c0.2-0.8-1.9-3.5-3.2-5.3
			c-0.6-0.9-1.3-1.7-1.6-2.2c-1.2-2-2.6-7.5-3.2-9.8c-0.2-0.8-0.7-1.5-1.3-2.3c-1-1.4-2.2-3-1.3-5.9c0.7-2.2,2.1-4,3.4-5.8
			c1.2-1.7,2.4-3.3,3-5.1c0.3-0.8,0.5-1.6,0.7-2.4c0.7-2.6,1.3-5,5-9.2c2.3-2.6,5.9-5.3,10.5-7.8c4.3-2.4,8.9-4.3,13.1-5.5
			C150,0.7,156,0,162.3,0c4.6,0,8.8,0.4,12.4,1.2c2.4,0.5,6.6,2.1,12.6,6.3c3.2,2.3,5.6,4.4,6,4.9c3.1,0.5,5.3,4.5,5.6,5.2
			c0.7,0.5,4,2.8,4.3,4.2c0.1,0.7,0.6,1.3,1,1.9c0.3,0.5,0.6,0.9,0.8,1.4c0.5,1.3,1.6,3.4,2.4,4c1.2,0.8,1.9,3.4,1,5.8
			c-0.4,1.1,0.2,3,1.6,5.3c0.1,0.2,0.2,0.3,0.1,0.5l-0.1,0.2l-0.2,0c-0.2,0-0.2-0.1-0.3-0.2c-0.5-0.6-1.6-1.2-2.1-1.5
			c-0.5,0.7-1.4,1.9-1.5,2.5c0,0.3,0,0.7,0,1.2c0,1,0.1,2.1-0.3,3.1c-0.6,1.3-0.7,2.8-0.5,3.6c0,0.3,0.2,0.7,0.3,1.2
			c0.4,1.4,1,3.6,0.9,5.7c-0.1,2.2,2.7,5.3,4.3,7c0.4,0.4,0.7,0.7,0.9,1c1.2,1.5,1.4,2.2,1.4,4.9c0,1.9,1.9,4.7,3.2,6.6
			c0.4,0.6,0.8,1.2,1,1.6c0.6,1.1,0.6,1.5,0.6,2.4c0,0.3,0,0.7,0.1,1.3c0.1,0.7,0.1,1.3,0,1.7c0,0.7,0,1.3,0.3,2.4
			c0.5,1.9,0.5,3.1-0.8,5.9c-0.8,1.7-0.1,2.3,0.4,2.8c0.3,0.2,0.5,0.4,0.5,0.8c0,0.6-0.3,2.4-1,4c-0.2,0.5-0.3,0.8-0.4,1.2
			c-0.2,0.9-0.5,1.9-2,3.7c-1.2,1.4-1,1.9-0.7,2.5c0.2,0.5,0.4,1.1,0.2,2c-0.5,2.2-0.9,2.5-2.2,2.9c-0.8,0.2-4,5.9-5.1,8.4
			c-0.8,1.9-1.3,2.4-2.8,2.9c-0.8,0.3-1.6,1.5-2.3,2.4c-0.4,0.5-0.7,1-1,1.2c-0.6,0.5-4.6,3.4-8.9,3.6c-3.3,0.2-6.3,2.1-8.4,3.4
			c-0.4,0.3-0.8,0.5-1.1,0.7c-1.4,0.8-2.5,0.9-3.9,1c-1,0.1-2.1,0.1-3.6,0.5C173.4,135.5,172,135.7,170.9,135.7z M162.8,133.6
			c1.8,0,5.9,0.6,6.5,1.1c0.2,0.2,0.7,0.3,1.7,0.3c1.1,0,2.4-0.2,3.9-0.5c1.6-0.3,2.7-0.4,3.7-0.5c1.4-0.1,2.3-0.1,3.6-0.9
			c0.3-0.2,0.7-0.4,1.1-0.7c2.2-1.4,5.3-3.3,8.7-3.5c4-0.2,7.9-2.9,8.5-3.5c0.2-0.2,0.5-0.6,0.9-1.1c0.7-1,1.6-2.2,2.6-2.6
			c1.2-0.5,1.6-0.8,2.4-2.6c0.4-0.8,4.1-8.4,5.5-8.8c1-0.3,1.3-0.3,1.7-2.4c0.2-0.8,0-1.2-0.2-1.6c-0.4-0.9-0.5-1.6,0.8-3.2
			c1.5-1.7,1.7-2.6,1.9-3.5c0.1-0.4,0.2-0.8,0.4-1.4c0.7-1.5,0.9-3.2,1-3.8c0-0.1-0.2-0.2-0.3-0.3c-0.6-0.5-1.6-1.4-0.6-3.5
			c1.2-2.6,1.2-3.7,0.7-5.5c-0.3-1.2-0.3-1.8-0.3-2.6c0-0.5,0-1,0-1.7c0-0.6-0.1-1-0.1-1.3c0-0.8,0-1.1-0.5-2.1
			c-0.2-0.4-0.6-0.9-1-1.5c-1.3-1.9-3.3-4.8-3.3-6.9c0-2.7-0.2-3.2-1.2-4.5c-0.2-0.2-0.5-0.6-0.9-1c-1.7-1.9-4.6-5-4.5-7.5
			c0.1-2.1-0.5-4.1-0.9-5.5c-0.2-0.5-0.3-1-0.3-1.3c-0.2-1.2,0.1-2.7,0.6-3.9c0.3-0.8,0.3-1.9,0.3-2.8c0-0.5,0-0.9,0-1.3
			c0.1-0.9,1.6-2.8,1.8-3l0.2-0.2l0.2,0.1c0,0,0.6,0.3,1.1,0.6c-0.9-1.8-1.2-3.3-0.8-4.4c0.8-2.2,0.1-4.4-0.8-5
			c-1.1-0.8-2.3-3.3-2.6-4.3c-0.2-0.4-0.4-0.9-0.7-1.3c-0.4-0.7-0.9-1.3-1.1-2.2c-0.2-0.9-2.6-2.8-4.1-3.8l-0.1,0l0-0.1
			c0,0-2.2-4.5-5.2-4.9l-0.1,0l-0.1-0.1c-0.1-0.1-10.1-9.3-18.4-11.1c-3.5-0.8-7.7-1.2-12.2-1.2c-6.2,0-12.1,0.7-16.8,2.1
			c-8.9,2.5-18.9,8.1-23.3,13.1c-3.6,4.1-4.2,6.3-4.9,8.9c-0.2,0.8-0.4,1.6-0.7,2.4c-0.6,1.9-1.8,3.5-3.1,5.2
			c-1.3,1.7-2.6,3.6-3.3,5.7c-0.8,2.5,0.2,3.9,1.2,5.3c0.6,0.8,1.1,1.5,1.4,2.5c0.6,2.3,1.9,7.8,3.1,9.7c0.3,0.5,0.9,1.3,1.6,2.2
			c2.1,2.8,3.5,4.8,3.3,5.9c-0.3,1.4,0.1,3.7,0.3,4.1c0,0.1,0.3,0.3,0.5,0.5c1.2,1.1,3.8,3.5,4.6,6.5c0.4,1.2,1.3,3.7,2.3,6.6
			c2.7,7.4,4.6,12.8,4.3,13.9c-0.5,1.7-0.3,7.5,1.3,9.2c1.3,1.4,1.6,2.3,1.9,3.4c0.1,0.4,0.2,0.9,0.4,1.4c0.7,1.8,2,4.1,2,4.1v0
			c0,0,0.6,0.9,2.1,3.3c0.7,1.1,1.7,1.9,2.5,2.6c1,0.8,1.9,1.5,2.1,2.6c0.3,1.6,3.7,4.1,5.4,4.5c1.7,0.4,3.3,1.6,4.8,3.5
			c1.4,1.8,5.4,3.9,7,3.8C162.6,133.6,162.7,133.6,162.8,133.6z"/>
		<path class="st0" d="M213.5,72.1l-0.2-0.6c0.5-0.2,0.8-0.5,0.9-1c0.2-0.9-0.3-1.9-0.7-2.3c-0.6-0.5-0.6-2.1-0.5-2.7
			c0.1-1,0.3-2.3,0.8-3.1c0.6-0.9,0.2-3-0.1-5.1c-0.1-0.5-0.2-0.9-0.2-1.4c-0.2-1.2-0.1-2.4-0.1-3.7c0.1-1.7,0.2-3.7-0.2-6
			c-0.7-4-3.5-5.4-3.5-5.4l0.3-0.6c0.1,0.1,3.1,1.6,3.9,5.9c0.4,2.4,0.3,4.4,0.3,6.2c-0.1,1.3-0.1,2.5,0.1,3.6
			c0.1,0.5,0.2,0.9,0.2,1.4c0.4,2.3,0.8,4.4,0,5.6c-0.3,0.5-0.6,1.6-0.7,2.8c-0.1,1.2,0.1,2,0.3,2.2c0.6,0.5,1.1,1.9,0.9,2.9
			C214.7,71.3,214.2,71.8,213.5,72.1z"/>
		<path class="st0" d="M210.7,61.9l-0.5-0.4c0.6-0.8,1.3-4.7,0.6-6.6c-0.6-1.6-0.3-2.9,0-4.4c0.1-0.5,0.2-1,0.3-1.6
			c0.2-1.5-0.5-4.2-1.8-5.2c-0.5-0.4-1-0.5-1.5-0.2c-0.8,0.4-1.3,1.9-1.4,4.2c-0.1,1.9,0.2,3.7,0.2,3.7l-0.7,0.1
			c0-0.1-0.2-1.9-0.2-3.8c0.1-2.7,0.7-4.4,1.8-4.8c0.7-0.3,1.5-0.2,2.2,0.3c1.5,1.2,2.3,4.1,2,5.8c-0.1,0.6-0.2,1.1-0.3,1.7
			c-0.3,1.5-0.6,2.6,0,4.1C212.3,56.8,211.6,60.9,210.7,61.9z"/>
		<path class="st0" d="M131.8,93.5c-0.5,0-1-0.2-1.6-0.6c-2.8-2-5.6-8.5-5.8-10.8c-0.1-1.3-1.2-2.7-2.3-4.1c-1.2-1.5-2.4-3.1-2.9-5
			c-1-3.9,1.8-4.8,1.9-4.8l0.2,0.6c-0.1,0-2.2,0.7-1.4,4c0.4,1.7,1.6,3.3,2.7,4.7c1.2,1.5,2.3,2.9,2.4,4.4c0.2,2.2,2.9,8.5,5.5,10.4
			c0.5,0.4,1,0.5,1.4,0.5l0.1,0.6C132,93.5,131.9,93.5,131.8,93.5z"/>
		<path class="st0" d="M153.1,111.8c-0.1,0-0.3,0-0.4-0.1c-1-0.5-1.5-2.8-1.6-4c-0.2-1.6-1.6-3.3-2.8-3.5c-1.2-0.1-1.7-2-2.2-3.7
			c-0.2-0.8-0.5-1.6-0.7-1.8c-0.3-0.4-1.3-0.1-2.1,0.2c-0.4,0.1-0.8,0.3-1,0.3c-0.9,0.1-6.3-1.9-6.9-5.1c-0.4-2.3-4.6-11.4-6.4-15.3
			c-0.5-1.1-0.7-1.6-0.8-1.7c-0.3-0.7-0.5-4.2-0.3-6.7c0.1-1.8-0.9-4.6-1.7-6.6c-0.3-0.7-0.5-1.3-0.7-1.8c-0.6-2-0.5-4,0.3-6
			c0.8-1.9-0.3-6.1-1.7-8.5c-1.2-2,0.1-3.7,1-4.4c1-1.5,4.4-2.5,8.4-3.6c2.9-0.8,5.9-1.7,8.3-2.8c3.8-1.8,7.8-6,11.6-10
			c2-2.1,3.9-4.1,5.7-5.8c5.4-4.8,9.3-2.9,12.3-1.3l0.2,0.1c3.2,1.6,6.6,3,13,2c5.1-0.8,6,0.3,6.3,1.4c0,0,0,0.1,0,0.1
			c0-0.1-0.1-0.1-0.2-0.1l0,0.7c-0.3,0-0.4-0.3-0.4-0.4c-0.1-0.4-0.4-1.7-5.6-0.9c-6.7,1-10.2-0.4-13.4-2l-0.2-0.1
			c-3-1.5-6.5-3.3-11.6,1.2c-1.8,1.6-3.7,3.6-5.7,5.7c-3.9,4.1-7.8,8.3-11.8,10.1c-2.5,1.1-5.5,2-8.4,2.8c-3.8,1.1-7.3,2.1-8.1,3.4
			l0,0.1l-0.1,0c-0.1,0.1-2,1.6-0.9,3.6c0.7,1.2,1.4,2.9,1.7,4.6c0.4,1.9,0.4,3.5,0,4.5c-0.8,1.9-0.8,3.7-0.3,5.5
			c0.1,0.4,0.4,1,0.7,1.7c0.8,2.1,1.9,4.9,1.8,6.9c-0.2,2.5,0.1,5.9,0.3,6.5c0,0.1,0.4,0.8,0.8,1.7c1.8,3.9,6,13,6.5,15.4
			c0.5,2.8,5.6,4.6,6.2,4.5c0.2,0,0.5-0.1,0.9-0.3c0.9-0.3,2.2-0.8,2.8,0c0.3,0.4,0.5,1.2,0.8,2.1c0.4,1.3,0.9,3.2,1.7,3.3
			c1.4,0.1,3.2,1.9,3.4,4.1c0.1,1.4,0.7,3.1,1.3,3.4c0.1,0,0.2,0.1,0.3,0l0.3,0.6C153.5,111.7,153.3,111.8,153.1,111.8z"/>
		<path class="st0" d="M130.3,73.1"/>
		<path class="st1" d="M165.8,60.2c0,0,1.4-0.1,1.5-1c0.1-1,0.6-1.4,1-1.8c0.3-0.4,0.4,0.8,0.9,0.5c0.5-0.3,0.6-1.4,2.6-2.9
			c1.9-1.4,3.1-3.5,7.4-4.4c4.3-0.8,6-0.5,7.7,0s2.5,1.3,3,1.2s1.3,0.8,1.3,0.8s-2.8-0.7-5.3-0.1s2.7,0.3,2.8,0.6
			c0.1,0.3-4.6-1.2-7.8,0c-3.2,1.2-3.4,1.8-4.1,2.5c-0.7,0.7-2.5,1.5-3.6,2.9c-1.1,1.4-5,4.8-4.7,4.6c0.3-0.2,1-2.6,0.2-2.3
			C167.7,61.2,165.8,60.2,165.8,60.2z"/>
		<path class="st1" d="M131.7,71.3c0,0,2.5-3.9,3.3-4.7c0.8-0.8,3.9-4,3.3-2.9s1.7-0.7,1.7-0.7s1.2-0.6,3.9-0.9
			c2.7-0.3,3.9-1.5,5.7-0.5c1.8,1,1.4,0.9,2.9,1c1.5,0.1,2.1,1,2.9,1.4c0.7,0.4,1,2.1,1,2.1s-3.5-2-8.4-1c-4.9,0.9-9.3,1.5-10.2,2.6
			c-0.9,1-1.1,1.8-2.4,3c-1.3,1.2-1.7,2.8-2.3,3.7c-0.7,1-1.6,1.2-1.5,0.8C131.7,74.8,131.7,71.3,131.7,71.3z"/>
		<path class="st0" d="M145,77.1c-1.2,0-2-0.4-2.6-0.8c-0.7-0.4-1.1-0.5-1.6-0.3l-0.3-0.6c0.9-0.4,1.5-0.1,2.2,0.3
			c0.7,0.4,1.4,0.8,2.7,0.7c2.5-0.2,5.5-2.2,6.4-3.2c0.7-0.8,1.7-1,2.5-1.1c0.2,0,0.5-0.1,0.7-0.1c-0.1,0-0.3,0-0.4,0
			c-0.2,0-2.1,0.3-3.5-0.4c-1.1-0.6-3.1-1-3.1-1l0.1-0.6c0.1,0,2.1,0.4,3.3,1c1,0.5,2.4,0.5,3.1,0.3c0.3,0,1.3-0.1,1.5,0.4
			c0.1,0.2,0,0.4-0.4,0.7c-0.3,0.2-0.7,0.2-1.2,0.3c-0.7,0.1-1.6,0.3-2.1,0.9c-1,1.1-4.1,3.3-6.8,3.5
			C145.3,77.1,145.1,77.1,145,77.1z"/>
		<path class="st0" d="M173.8,65.8c-0.3,0-0.6-0.1-0.6-0.3c0-0.1-0.1-0.5,0.9-1.2l0.4,0.6c-0.1,0.1-0.3,0.2-0.4,0.3
			c0.3,0,0.6,0,0.9-0.1c0.4,0,0.9-0.1,1.8-0.1c1.8-0.1,5.4-0.2,8-2.6c2.1-2,3.6-3,4.3-3.1l0.1,0.7c-0.3,0-1.2,0.4-4,2.9
			c-2.7,2.5-6.7,2.7-8.4,2.7c-0.9,0-1.4,0.1-1.8,0.1C174.6,65.8,174.3,65.8,173.8,65.8C173.8,65.8,173.8,65.8,173.8,65.8z"/>
		<path class="st2" d="M167.3,60.5"/>
		<path class="st0" d="M169.2,94.1c-1.2,0-2.3-0.4-2.9-1c-0.5-0.5-2.1,0.1-3,0.6l-0.1,0.1l-0.1,0c-2.6-0.3-3.7-1.8-3.8-2.1
			c-2.4-2.9,0.6-6.6,1.2-7.3c0-0.6-0.1-2.8-0.6-4.2c-0.8-2-1.1-10.4-1.1-10.7c-0.1-2.2-2.4-3.4-2.4-3.4l0.3-0.6
			c0.1,0.1,2.7,1.4,2.8,4c0.1,3,0.5,9,1.1,10.5c0.6,1.7,0.7,4.5,0.7,4.6l0,0.1l-0.1,0.1c0,0-3.6,3.7-1.2,6.5l0,0.1
			c0,0.1,0.8,1.5,3.2,1.7c0.5-0.3,2.7-1.4,3.7-0.5c1.4,1.2,3.7,0.8,4.8,0.1c0.9-0.6,1.6-1.8,2.2-2.7c0.6-1,1.1-1.9,1.9-2.1
			c0.4-0.1,2.6-0.6,3.4-0.2c0.5-0.4,2.2-2.3,1.7-3.7c-0.7-1.9-1.7-3.2-2.9-3.7c-0.9-0.4-1.8-0.3-2.9,0.1l-0.3-0.6
			c1.2-0.5,2.4-0.6,3.4-0.1c1.4,0.6,2.5,2,3.3,4c0.6,1.5-0.5,3-1,3.6c-0.3,0.3-0.9,1.1-1.3,1c-0.1,0-0.2-0.1-0.2-0.1
			c-0.3-0.1-1.7-0.1-2.9,0.3c-0.5,0.1-1,1-1.5,1.8c-0.6,1-1.3,2.2-2.4,2.9C171,93.9,170.1,94.1,169.2,94.1z"/>
		<path class="st0" d="M192,91.2c-3.4-1.1-9-6.3-10.6-8.6c-1.4-2-4-2.5-4-2.5l0.1-0.6c0.1,0,2.8,0.6,4.4,2.8
			c1.6,2.2,7.1,7.3,10.3,8.4L192,91.2z"/>
		<path class="st0" d="M152.2,115c-0.5-2.7,1.1-4.3,1.5-4.6c0.7-1.4,0.9-2.2,1.1-3.8c0.3-1.7,0.9-3,2.2-4.3c1-1,1.7-2.1,2.2-3.5
			c0.3-0.8,0.7-1.2,1.1-1.6c0.3-0.3,0.5-0.5,0.7-0.8c0.4-0.8,2.8-3.8,3.3-4l0.2,0.6c0,0,0,0,0,0c-0.4,0.2-2.6,2.9-3,3.7
			c-0.2,0.4-0.5,0.7-0.8,1c-0.4,0.3-0.7,0.7-1,1.3c-0.5,1.4-1.3,2.6-2.4,3.7c-1.2,1.2-1.8,2.4-2,3.9c-0.3,1.8-0.4,2.6-1.2,4.1l0,0.1
			l-0.1,0c-0.1,0.1-1.7,1.5-1.3,4L152.2,115z"/>
		<path class="st0" d="M162.4,110.2c-0.5,0-0.8-0.1-0.9-0.2l-0.3-0.1l0.1-0.3c0.1-0.2,2.1-4.6,4.3-5.5c0.8-0.4,2.2-0.7,3.6-1
			c1.9-0.4,4.1-0.9,5-1.7c1.5-1.2,6.6-3.4,9-3.4c0.2,0,0.4,0,0.6,0c1.8,0.4,5.1,0.9,6.4,0.9c0.3,0,0.4,0,0.4,0
			c0.2-0.1,0.4-0.1,0.6-0.1c0.6,0,1.1,0.3,1.1,0.3l0.9,0.5l-1,0.1c0,0-4.5,0.5-7.5,1.2c-4.3,1-7.2,1.9-8.3,2.7
			c-0.9,0.7-2.2,0.9-3.5,1.2c-0.8,0.1-1.5,0.3-2.1,0.5c-1.5,0.6-4.7,2.7-6.2,4C163.7,110.1,162.9,110.2,162.4,110.2z M162.1,109.6
			c0.1,0,0.2,0,0.3,0c0.4,0,1.1-0.1,1.8-0.8c1.4-1.2,4.8-3.5,6.4-4.1c0.6-0.2,1.4-0.4,2.2-0.5c1.2-0.2,2.5-0.5,3.3-1
			c1.4-1,5.4-2.1,8.5-2.8c1.3-0.3,2.8-0.6,4.2-0.8c-1.7-0.2-3.9-0.6-5.1-0.8c-0.1,0-0.3,0-0.4,0c-2.3,0-7.2,2.1-8.6,3.3
			c-1,0.8-3.1,1.3-5.3,1.8c-1.4,0.3-2.7,0.6-3.4,1C164.3,105.4,162.6,108.5,162.1,109.6z"/>
		<path class="st0" d="M165.3,110.8c-1.3,0-2.1-0.4-2.2-0.4l0.3-0.6l-0.1,0.3l0.1-0.3c0,0,1.9,0.9,4.7-0.3c1-0.4,2.3-1,3.6-1.6
			c2.4-1.1,5.2-2.4,7.4-3.2c1.4-0.5,2.8-1,4.2-1.4c2-0.7,3.8-1.3,5-1.7c1.7-0.6,3.5-2.1,3.6-2.3c-0.1,0.1-0.1,0.2,0,0.4
			c0.1,0.1,0.3,0.2,0.4,0.1l-0.2-0.6c0.2-0.1,0.3,0,0.4,0l0.1,0.3c0,0.2-0.5,0.6-1.4,1.3c-0.6,0.5-1.6,1.1-2.6,1.5
			c-1.2,0.4-3,1.1-5,1.7c-1.4,0.5-2.8,0.9-4.2,1.4c-2.2,0.8-4.9,2-7.3,3.1c-1.3,0.6-2.6,1.2-3.6,1.6
			C167.2,110.6,166.2,110.8,165.3,110.8z"/>
		<path class="st0" d="M190.2,61.1c-0.2,0-0.4-0.1-0.6-0.2c-0.4-0.4-0.2-1.1-0.2-1.1L190,60l-0.3-0.1L190,60c-0.1,0.2-0.1,0.4,0,0.4
			c0.1,0.1,0.4,0.1,1.1-0.3c0.9-0.4,1.6-1.3,2.2-2.2c0.8-1,1.5-2,2.6-2.1c1.7-0.2,2.7-1.8,2.7-1.8l0.6,0.3c0,0.1-1.2,2-3.2,2.2
			c-0.8,0.1-1.5,0.9-2.2,1.9c-0.7,0.9-1.4,1.9-2.5,2.4C190.9,61,190.5,61.1,190.2,61.1z"/>
		<path class="st0" d="M155.4,101.9c-0.9,0-1.7-0.2-2.4-0.6c-1.5-0.8-2.5-2.2-2.9-4.1c-0.7-3.7-9-11-12.1-13.3
			c-1.2-0.8-1.7-1.7-1.7-2.5c0-0.9,0.7-1.3,0.7-1.4l0,0c1.2-0.3,2,0.3,2.9,1c1.3,1,2.9,2.2,6.4,1.8c6.1-0.6,7.4-3.1,8.1-5.4
			c0.7-2.4,2.4-3.7,2.4-3.8l0.1,0.1c0,0-1.6,1.3-2.3,3.7c-0.7,2.4-2,4.9-8.2,5.5c-3.6,0.3-5.2-0.9-6.5-1.9c-0.9-0.7-1.7-1.2-2.8-1
			c-0.1,0.1-0.6,0.5-0.6,1.2c0,0.8,0.6,1.5,1.7,2.3c3.2,2.3,11.5,9.7,12.2,13.4c0.3,1.8,1.3,3.2,2.8,3.9c1.5,0.8,3.4,0.7,5.3-0.2
			l0.1,0.1C157.4,101.7,156.4,101.9,155.4,101.9z"/>
		<path class="st0" d="M169,92.7c-0.4,0-0.9-0.1-1.3-0.4c-1.7-0.9-3-3.4-3.1-4.4c-0.2-1.3-0.7-4.2-1.4-5.9
			c-0.7-1.6-2.8-12.3-2.8-14.1c0.1-1.6-2.9-3.9-2.9-3.9l0.1-0.1c0.1,0.1,3,2.3,3,4c-0.1,1.8,2,12.3,2.8,14c0.8,1.7,1.3,4.7,1.4,5.9
			c0.1,1,1.4,3.4,3,4.3c0.8,0.4,1.6,0.4,2.3,0.1l0.1,0.1C169.8,92.6,169.4,92.7,169,92.7z"/>
		<path class="st3" d="M165,91.5"/>
		<path class="st3" d="M161.3,85.3"/>
		<path class="st0" d="M173.9,90.6c0,0,0.5-2.4,2.1-2.8s3.5-0.6,2.9,0.2C178.2,88.8,174.2,89.7,173.9,90.6z"/>
		<path class="st0" d="M161.7,93.1c0,0,0.2-0.7,1.4-1.2s2.4-0.6,3.2,0.6c0.8,1.1-1.2,0.7-2.2,0.7S161.7,93.1,161.7,93.1z"/>
		<path class="st0" d="M132.9,75.7l-0.1-0.1c0.1,0,0.3-0.4,0.6-0.8c1.1-1.5,3.3-4.7,5.2-5.9l0,0c0,0,0.9-0.8,2-1.5
			c1.5-0.9,2.9-1.1,4-0.7c0.7,0.3,1.3,0.6,1.9,0.8c1.3,0.6,2,0.9,2.7,0.7c0.6-0.2,1.9,0.1,3.1,0.4c1.1,0.3,2.3,0.5,2.7,0.4
			c0.7-0.2,1.9-0.1,2.4,0.5c0.3,0.3,0.5,0.7,0.4,1.2l-0.2,0c0.1-0.4,0-0.8-0.3-1c-0.5-0.5-1.6-0.6-2.3-0.4c-0.5,0.1-1.6-0.1-2.8-0.4
			c-1.2-0.3-2.5-0.6-3-0.4c-0.8,0.2-1.5-0.1-2.8-0.7c-0.5-0.2-1.1-0.5-1.8-0.8c-2.4-1-5.8,2.1-5.8,2.1c-1.9,1.3-4.1,4.4-5.2,5.9
			C133.1,75.5,133,75.7,132.9,75.7z"/>
		<path class="st0" d="M144.4,78.9c-1,0-1.9-0.2-2.5-0.4C140,78.1,140,76,140,76l0.2,0c0,0.1,0,2,1.7,2.4c1.8,0.5,4.7,1.2,10.6-3
			c0.1-0.1,2.8-3,4.3-2.5l-0.1,0.2c-1.4-0.5-4.1,2.4-4.2,2.4C148.8,78.3,146.2,78.9,144.4,78.9z"/>
		<path class="st0" d="M136.8,51.3l-0.1-0.1c0.1,0,6.7-4.2,11.2-4.7c4.4-0.5,15.1-3.7,18-5.8c2.7-2.1,6.5-3.8,8.4-4.4
			c1.7-0.5,6.6-0.2,7.4,0.1l-0.1,0.2c-0.6-0.3-5.6-0.7-7.3-0.1c-1.8,0.6-5.6,2.3-8.3,4.3c-2.9,2.2-13.7,5.3-18.1,5.8
			C143.5,47.1,136.9,51.2,136.8,51.3z"/>
		<path class="st0" d="M158,64.4c-1.3-1.2-6.9-5.5-10.3-6c-0.8-0.1-1.3-0.4-1.3-0.7c0-1,4.3-2.7,11.6-4.4c4.2-1,9.9-3.2,15.3-6
			c5.2-2.6,8.7-5.1,9.1-6.3c0.1-0.2,0-0.4-0.1-0.5c-1.8-1.8-10.4,2.5-14.7,5.4c-4,2.7-13.6,5-20.8,6c-7.1,1-13.6,7.3-13.6,7.3
			l-0.1-0.1c0.1-0.1,6.6-6.4,13.7-7.4c7.2-1,16.8-3.2,20.8-5.9c4.1-2.8,12.9-7.3,14.9-5.4c0.2,0.2,0.2,0.4,0.1,0.6
			c-0.8,2.8-15.7,10.3-24.5,12.5c-8.5,2-11.5,3.6-11.5,4.3c0,0.2,0.4,0.4,1.1,0.6c3.5,0.6,9.1,4.8,10.4,6.1L158,64.4z"/>
		<path class="st0" d="M157.5,102.8l-0.1-0.1c1.4-1.3,1.1-3.9,0.8-6.8c-0.2-1.5-0.3-3.1-0.3-4.7c0.1-4.6,3.4-6.9,3.4-6.9l0.1,0.1
			c0,0-3.2,2.2-3.4,6.8c0,1.6,0.1,3.1,0.3,4.7C158.7,98.9,159,101.5,157.5,102.8z"/>
		<path class="st0" d="M161.9,91.7l-0.1-0.1c0.3-0.1,0.8-0.3,1.4-0.4c0.5-0.1,1.3-0.3,1.4-0.4c0,0-0.1,0-0.3-0.1
			c-1.2-0.3-2.5-3.6-3-4.9c-0.1-0.3-0.1-0.4-0.1-0.4l0.2-0.1c0,0,0.1,0.2,0.1,0.4c0.4,1.1,1.7,4.5,2.9,4.8c0.3,0.1,0.4,0.2,0.4,0.3
			c0,0.2-0.4,0.3-1.5,0.6C162.8,91.5,162.2,91.6,161.9,91.7z"/>
		<path class="st0" d="M169.5,64.9c0,0-0.1,0-0.1,0c-0.5-0.2-0.5-1.4-0.5-1.6l0.2,0c0,0.5,0.1,1.3,0.4,1.4c0.1,0,0.2,0,0.4-0.2
			c0.2-0.2,0.4-0.6,0.8-1c1.4-2,4.3-6.3,8.5-6.1c1.9,0.1,3.9,0.4,5.8,0.7c3.1,0.4,6,0.9,6.6,0c0.5-0.8,1.4-1.6,2.4-2.3
			c0.6-0.5,1.3-1.1,1.9-1.7c0.7-0.8,0.4-1.6,0.1-2.1c-0.4-0.7-1.2-1.1-1.5-1l-0.1-0.2c0.4-0.1,1.2,0.4,1.7,1.1
			c0.5,0.8,0.5,1.6-0.1,2.3c-0.6,0.6-1.3,1.2-1.9,1.7c-0.9,0.8-1.8,1.5-2.3,2.3c-0.6,0.9-3.3,0.5-6.7,0c-2-0.3-4-0.6-5.8-0.6
			c-4-0.2-6.9,4-8.3,6.1c-0.3,0.5-0.6,0.9-0.8,1.1C169.8,64.8,169.7,64.9,169.5,64.9z"/>
		<path class="st0" d="M145.1,76l0-0.2c1.9-0.1,3.2-1,3.9-2.7c0.5-1.2,0.5-2.5,0.5-2.5l0.2,0C149.6,70.8,149.8,75.8,145.1,76z"/>
		<path class="st0" d="M181.4,68.4c-2.5,0-4.7-0.7-5.8-1.4c-0.9-0.5-1.5-0.5-2.1-0.4c-0.3,0-0.7,0-1.1,0c-0.3,0-0.5-0.1-0.6-0.3
			c-0.1-0.4,0.5-1.1,0.6-1.1l0.1,0.1c-0.2,0.2-0.7,0.7-0.6,1c0,0.1,0.2,0.2,0.4,0.2c0.4,0,0.7,0,1.1,0c0.7,0,1.3-0.1,2.2,0.4
			c2.1,1.2,7.4,2.6,12.6-0.6l0.1,0.1C186,67.8,183.6,68.4,181.4,68.4z"/>
		<path class="st0" d="M169.3,56.7l-0.1-0.1c0,0,1-1.6,2.6-3.2c1.5-1.5,3.9-3.4,6.8-3.8c4.5-0.6,6.6-0.1,8.8,0.3
			c0.5,0.1,1,0.2,1.5,0.3c2.4,0.4,3.1-0.5,3.8-1.5c0.1-0.2,0.2-0.3,0.4-0.5l0.1,0.1c-0.1,0.1-0.2,0.3-0.3,0.5
			c-0.7,0.9-1.4,2-3.9,1.5c-0.5-0.1-1.1-0.2-1.6-0.3c-2.2-0.5-4.2-0.9-8.7-0.3c-2.8,0.4-5.2,2.2-6.7,3.7
			C170.2,55.2,169.3,56.7,169.3,56.7z"/>
		<path class="st0" d="M145,98.1c-0.8,0-1.7-0.4-2.6-1.2c-4.1-3.7-8.3-14.6-8.4-17.2c0-0.5,0-0.9,0-1.2c0-1.9,0-2.3-2.5-3.1
			c-0.6-0.2-1.1-0.7-1.5-1.6c-1.7-3.5-1.7-11.2-1-13.2c0.9-2.5-0.8-9.5-2.2-13.6c-1-2.9,0.5-4.4,1.4-4.9l0.1,0.2c0,0-0.6,0.3-1.1,1
			c-0.6,0.9-0.7,2.2-0.2,3.7c1.2,3.5,3.2,11,2.2,13.7c-0.7,2-0.7,9.7,1,13.1c0.4,0.8,0.9,1.3,1.4,1.5c2.6,0.9,2.6,1.3,2.6,3.3
			c0,0.3,0,0.7,0,1.2c0.1,2.5,4.4,13.6,8.3,17.1c1,0.9,1.8,1.3,2.6,1.2l0,0.2C145.2,98.1,145.1,98.1,145,98.1z"/>
		<path class="st0" d="M174.3,87.2C174.3,87.2,174.3,87.1,174.3,87.2c-1.3-0.3-7.1-16.7-7.9-20.4c-0.8-3.9,0.7-5.4,1.3-5.6l0.1,0.2
			c0,0-2.2,1-1.2,5.5c1,4.6,6.7,20,7.7,20.3c0,0,0,0,0,0c0.3-0.4-0.2-1.6-0.7-2.8c-0.5-1.1-1-2.2-0.7-2.7c0.1-0.1,0.2-0.2,0.3-0.3
			l0.1,0.2c-0.1,0-0.2,0.1-0.2,0.2c-0.2,0.5,0.3,1.6,0.7,2.6c0.6,1.3,1.1,2.4,0.7,3C174.4,87.1,174.3,87.2,174.3,87.2z"/>
		<path class="st0" d="M197.8,85.6c-4.7,0-16.3-5.8-18.7-7.4c-1.2-0.8-2.4-0.9-3.6-0.3c-0.9,0.4-1.5,1.1-1.5,1.1l-0.1-0.1
			c0,0,2.4-2.8,5.3-0.8c3.2,2.2,17.7,9.2,20.1,7l0.1,0.1C199.1,85.5,198.5,85.6,197.8,85.6z"/>
		<path class="st2" d="M188.2,30.1"/>
		<path class="st0" d="M205,75.9c-0.5-0.9-0.4-2.4-0.3-4.8c0.1-1.6,0.2-3.7,0.1-6c-0.2-5.1-2.6-10.8-5.9-13.9
			c-2.2-2.1-4-4.2-5.7-6.3c-0.7-0.9-1.5-1.8-2.2-2.7c-2.2-2.5-2.3-7.4-2.4-11c0-0.7,0-1.4-0.1-2c-0.2-3.3-3-3.6-3.1-3.6l0.1-0.7
			c1.2,0.1,3.5,1.2,3.7,4.2c0,0.6,0,1.3,0.1,2c0.1,3.5,0.2,8.2,2.2,10.6c0.8,0.9,1.5,1.8,2.3,2.7c1.7,2.1,3.5,4.2,5.6,6.3
			c3.4,3.2,5.9,9.1,6.1,14.3c0.1,2.3,0,4.4-0.1,6c-0.1,2.2-0.2,3.8,0.2,4.5L205,75.9z"/>
		<path class="st0" d="M200.8,100.5c-1.1,0-1.6-1.4-2.2-2.9c-0.4-1.1-0.9-2.4-1.7-3.4c-1.2-1.5-2.8-2-4.6-2.6
			c-0.8-0.3-1.7-0.5-2.6-0.9c-2.6-1.2-10.8-2.2-10.9-2.3l0.1-0.7c0.3,0,8.4,1.1,11.1,2.3c0.8,0.4,1.7,0.6,2.5,0.9
			c1.8,0.6,3.6,1.1,4.9,2.8c0.8,1.1,1.4,2.4,1.8,3.6c0.5,1.3,1,2.5,1.6,2.5L200.8,100.5z"/>
		<path class="st0" d="M198.3,103.7c-0.9,0-1.7-0.4-2.4-1.5c-1.2-2.3-4.3-2.5-4.3-2.5l0-0.7c0.1,0,3.5,0.3,4.8,2.9
			c0.9,1.7,2.5,1.2,3.9,0.6c0.2-0.1,0.3-0.1,0.4-0.2l0.2,0.6c-0.1,0-0.2,0.1-0.3,0.2C200.1,103.3,199.2,103.7,198.3,103.7z"/>
		<path class="st0" d="M157.4,117.5l-0.2-0.6c1.5-0.4,2.9-2.4,3.4-5.3c0.6-3.1,3.6-7,3.7-7.2l0.5,0.4c0,0-3,4-3.6,6.9
			C160.6,114.9,159.2,117.1,157.4,117.5z"/>
		<path class="st0" d="M198.5,95.9l-0.6-0.3c0,0,1.2-2.8,1.4-4.6c0.2-1.4,1.2-2.3,2.1-3.1c0.4-0.4,0.8-0.7,1-1.1
			c0.8-1.1,0.6-3.3-0.7-6.4c-0.4-1-0.4-1.9,0-2.7c0.8-1.9,3.3-2.7,3.4-2.7l0.2,0.6c0,0-2.3,0.8-3,2.4c-0.3,0.7-0.3,1.4,0,2.2
			c1.4,3.4,1.6,5.7,0.6,7c-0.3,0.4-0.7,0.8-1.1,1.2c-0.8,0.8-1.7,1.6-1.9,2.7C199.7,93.1,198.6,95.8,198.5,95.9z"/>
		<path class="st0" d="M168.8,122.6c-0.4,0-0.7,0-1.2-0.1c-1.4-0.3-2.3-1.7-2.4-4.1c-0.1-1.9,0.2-3.9,0.4-5c0.1-0.3,0-0.5-0.1-0.7
			c-0.5-0.5-1.7-0.4-2.5-0.4c-0.7,0-0.9,0-0.9-0.1l0.2-0.1c0,0,0,0,0,0c0.1,0,0.4,0,0.8,0c0.9-0.1,2.2-0.1,2.7,0.4
			c0.2,0.2,0.2,0.5,0.2,0.8c-0.2,1.1-0.5,3.1-0.4,5c0.2,2.4,0.9,3.7,2.3,3.9c3.1,0.6,4.5-1.2,5.8-4c1.1-2.5,2.8-5.8,4.9-6.2
			c0.7-0.1,1.5-0.2,2.2-0.2c1.3-0.1,2.7-0.2,4.1-0.8c1.6-0.7,2.2-1.7,2.8-2.6c0.2-0.3,0.4-0.6,0.6-0.9c0.3-0.3,0.2-0.6,0.1-0.8
			c-0.1-0.2-0.1-0.4,0-0.6c0.2-0.3,0.8-0.6,2.1-0.9c3-0.7,3-0.8,3.6-1.9c0.1-0.2,0.2-0.4,0.3-0.6l0.1,0.1c-0.1,0.2-0.2,0.4-0.3,0.6
			c-0.6,1.3-0.7,1.3-3.7,2c-1.2,0.3-1.8,0.6-2,0.8c-0.1,0.2-0.1,0.3,0,0.5c0.1,0.3,0.1,0.6-0.2,1c-0.2,0.3-0.4,0.5-0.6,0.9
			c-0.5,0.9-1.2,2-2.8,2.7c-1.4,0.6-2.8,0.7-4.1,0.8c-0.8,0-1.5,0.1-2.2,0.2c-1.5,0.3-3,2.3-4.8,6.1
			C172.5,121,171.2,122.6,168.8,122.6z"/>
		<path class="st0" d="M126,74.1l-0.1-0.1c0.5-0.4,0.6-4.6-0.5-7.1c-1-2.2-3.6-8.3-2.6-10c0.5-0.8-0.4-3.1-1.4-5.5
			c-0.9-2.2-1.9-4.6-2-6.5c-0.3-3.9,6.1-7,12.3-7.9c5.3-0.8,10.3-6.6,14.3-11.2c0.6-0.7,1.2-1.4,1.8-2.1c4.7-5.3,8.6-8,15.5-7.1
			c6.9,0.9,11.5,0.8,16.2-1.9c3.7-2.2,7.3-2,8.5-1.8c-2.3-1.4-15.1-8.8-21.6-9c-0.7,0-1.6-0.1-2.4-0.1C157,3.4,146.6,2.9,144.6,5
			c-0.2,0.2-0.3,0.5-0.3,0.8c0.1,1.6,4.6,2.3,9,2.9c3.8,0.5,7.4,1,8,2.2c0.1,0.2,0.1,0.5,0,0.8c-0.7,1.5-4.6,1.3-9.6,1.2
			c-6.3-0.2-14.2-0.4-17.2,2.8c-3.1,3.4-2,6.7-1.1,9.2c0.6,1.7,1,3-0.3,3.6c-1.1,0.5-2.6,0.8-4.2,1.2c-2.9,0.6-5.8,1.2-5.9,2.8
			c-0.2,2.6-2,8-4.6,8.9c-0.5,0.2-0.9,0-1.2-0.4c-1.4-1.7-0.8-8.1,0.5-10.2l0.1,0.1c-1.3,2.1-1.9,8.3-0.5,10c0.3,0.4,0.6,0.5,1,0.3
			c2.5-0.9,4.3-6.1,4.5-8.7c0.1-1.7,3.2-2.3,6.1-2.9c1.6-0.3,3.2-0.7,4.2-1.1c1.2-0.5,0.7-1.7,0.2-3.4c-0.8-2.5-2-5.9,1.2-9.3
			c3.1-3.3,11-3.1,17.4-2.9c4.7,0.1,8.8,0.3,9.5-1.1c0.1-0.2,0.1-0.5,0-0.7c-0.6-1.1-4.3-1.6-7.9-2.1c-4.4-0.6-9-1.3-9.2-3
			c0-0.4,0.1-0.7,0.4-0.9c2.1-2.1,12.5-1.6,19.4-1.3c0.9,0,1.7,0.1,2.4,0.1c3.8,0.1,9.6,2.7,13.8,4.7c4.5,2.3,8.2,4.5,8.3,4.5
			l0.4,0.3l-0.5-0.1c0,0-4.4-0.9-8.8,1.7c-4.7,2.8-9.4,2.8-16.3,2c-6.9-0.9-10.7,1.8-15.4,7c-0.6,0.7-1.2,1.4-1.8,2.1
			c-4,4.7-9.1,10.5-14.4,11.3c-6.1,0.9-12.4,3.9-12.1,7.7c0.1,1.8,1.1,4.3,2,6.4c1,2.5,1.9,4.7,1.4,5.6c-0.4,0.7-0.2,2.3,0.5,4.6
			c0.6,1.9,1.5,4,2.1,5.3C126.7,69.3,126.6,73.6,126,74.1z"/>
		<path class="st0" d="M192.4,61.4c-0.2,0-0.4-0.1-0.6-0.1c-0.4-0.2-0.7-0.7-0.7-0.8l0.2,0c0,0.1,0.2,0.5,0.6,0.7
			c0.3,0.2,0.8,0.2,1.5-0.3c0.6-0.5,0.7-0.9,0.9-1.3c0.2-0.6,0.5-1,1.5-1.3c0.5-0.1,0.9-0.2,1.2-0.3c0.9-0.2,1.4-0.3,1.7-0.8
			c0.5-0.8,0.7-2,0.7-2l0.2,0c0,0.1-0.2,1.3-0.8,2.1c-0.4,0.6-0.9,0.7-1.8,0.9c-0.3,0.1-0.7,0.1-1.2,0.3c-1,0.3-1.2,0.7-1.4,1.2
			c-0.2,0.4-0.4,0.9-1,1.3C193.1,61.3,192.7,61.4,192.4,61.4z"/>
		<path class="st0" d="M135.2,85.2l-0.2,0c0.4-1.7-1.5-4.3-2.6-5.5c-1-1.1-1.9-4.3-1.9-4.5l0.2,0c0,0,0.9,3.3,1.9,4.4
			C133.8,80.8,135.6,83.4,135.2,85.2z"/>
		<path class="st0" d="M172.6,139.2c-2.3,0-3-0.4-4-0.9c-0.5-0.3-1.2-0.6-2.2-1c-1-0.3-1.9-0.5-2.7-0.7c-1.9-0.4-3.3-0.7-4.9-2.1
			c-1.2-1.1-2-2.2-2.5-2.9c-0.4-0.5-0.7-0.9-0.9-1l0.1-0.2c0.3,0.1,0.6,0.5,1,1.1c0.5,0.7,1.3,1.8,2.5,2.9c1.5,1.4,3,1.7,4.8,2.1
			c0.8,0.2,1.7,0.4,2.8,0.7c1.1,0.3,1.7,0.7,2.3,1c1.2,0.7,2.1,1.2,6.5,0.8c2.4-0.2,3.9-0.2,4.9-0.3c2-0.1,2.8-0.1,5.4-0.9
			c1.9-0.5,3.2-0.8,4.6-1.1c1.6-0.3,3.2-0.7,5.4-1.4c2.3-0.8,3.3-1.6,4.4-2.5c0.9-0.7,1.8-1.5,3.4-2.2c3.6-1.7,7.2-6.2,11.7-11.9
			c4.6-5.7,1.3-17.8,1.3-17.9l0.2,0c0,0.1,3.3,12.2-1.3,18c-4.5,5.7-8.1,10.2-11.7,11.9c-1.6,0.8-2.5,1.5-3.3,2.2
			c-1.1,0.9-2.1,1.8-4.4,2.5c-2.2,0.8-3.8,1.1-5.4,1.4c-1.3,0.3-2.7,0.6-4.6,1.1c-2.6,0.8-3.5,0.8-5.4,0.9c-1.1,0-2.6,0.1-4.9,0.3
			C174.1,139.1,173.3,139.2,172.6,139.2z"/>
		<path class="st0" d="M164.6,162.3c-1,0-1.9-0.2-2.7-0.4c-0.8-0.2-1.5-0.4-2.1-0.3c-1.9,0.2-5.5-0.2-6.9-1.4
			c-0.3-0.2-0.6-0.6-1.1-1c-1.4-1.4-3.6-3.5-5.5-3.6c-1.7-0.1-3.9-2.4-5.9-4.4c-1.1-1.1-2.1-2.2-2.7-2.5c-0.4-0.2-0.9-0.3-1.3-0.4
			c-1.1-0.2-2.2-0.4-3.3-3.8c-0.9-3.1-0.8-6.2-0.7-8.8c0-1.2,0.1-2.3,0-3.2c-0.2-2.2-0.4-10.8,1-12.9c2.9-4.5,4-5.8,4.7-5.5
			l-0.3,0.6c0,0,0.1,0,0.1,0c-0.4,0.1-1.8,1.8-4,5.2c-1.1,1.7-1.2,9.2-0.9,12.5c0.1,1,0,2.1,0,3.3c-0.1,2.6-0.2,5.6,0.7,8.5
			c0.9,3,1.7,3.2,2.7,3.4c0.4,0.1,0.9,0.2,1.4,0.4c0.7,0.4,1.7,1.4,2.9,2.6c1.8,1.8,4,4.1,5.4,4.2c2.1,0.1,4.4,2.3,5.9,3.8
			c0.4,0.4,0.7,0.7,1,1c1.2,1,4.4,1.5,6.4,1.3c0.7-0.1,1.5,0.1,2.4,0.3c1.6,0.4,3.5,0.8,5.5-0.5l0.2-0.1l0.2,0.1c0,0,4.6,2,9.1-0.7
			l0.1-0.1l0.1,0c0.1,0,7,0.6,10.1-2.4l0.1-0.1l0.2,0.1c0.1,0,5.3,1.7,9.1-2.1l0.1-0.1l0.1,0c0.1,0,8.1-1.2,10.8-4.8l0.1-0.1l0.1,0
			c0.1,0,7.5-1.3,9.6-4.7l0.1-0.1l0.1,0c0.1,0,6.7-1.2,9.2-6.1l0.1-0.1l0.1,0c0.1,0,6.5-1.7,8.7-6.4l0-0.1l0.1-0.1
			c0.1,0,5.8-3.8,6.2-8.2l0-0.1l0.1-0.1c0,0,3.5-3.9,2.6-7.6l-0.1-0.3l0.3-0.1c0.1,0,2.7-1.1,2.1-4.7l0-0.1l0.1-0.1
			c0,0,2.1-3.9,1.1-7c-0.1-0.3-0.2-0.7-0.3-1.2C246.6,99,243.7,89,232.2,85c-6.6-2.3-10.6-3.6-13-4.3c-1-0.3-1.6-0.5-2-0.7
			c-0.5-0.2-0.8-0.3-0.8-0.6c0-0.1,0.1-0.3,0.3-0.4l0.2,0.6c0.1,0,0.2-0.1,0.2-0.2c0-0.1-0.1-0.2-0.1-0.3c0.1,0.1,1.1,0.4,2.5,0.9
			c2.4,0.8,6.4,2,13,4.4c11.8,4.1,14.7,14.3,16,18.7c0.1,0.4,0.2,0.8,0.3,1.1c1,3.1-0.7,6.8-1.1,7.5c0.5,3.4-1.5,4.8-2.3,5.2
			c0.7,3.6-2.2,7.2-2.7,7.8c-0.2,1.9-1.3,4-3.4,6c-1.4,1.4-2.7,2.3-3,2.5c-1.3,2.6-3.7,4.3-5.5,5.2c-1.7,0.9-3.1,1.3-3.5,1.4
			c-2.6,4.7-8.4,6.1-9.5,6.3c-2.2,3.3-8.8,4.6-9.8,4.8c-2.8,3.5-10,4.8-11,4.9c-3.6,3.6-8.5,2.5-9.5,2.2c-3.1,2.9-9.4,2.6-10.3,2.5
			c-4.3,2.6-8.6,1.2-9.5,0.8C166.6,162.1,165.6,162.3,164.6,162.3z"/>
		<ellipse transform="matrix(0.9343 -0.3565 0.3565 0.9343 3.2325 67.9625)" class="st0" cx="186" cy="25.2" rx="1.1" ry="0.8"/>
		<circle class="st0" cx="191.3" cy="23" r="1.1"/>
		<path class="st0" d="M210.7,95.1l-0.2-0.1c1.6-4.4-3.7-11.4-5-12.2c-1.1-0.7,0.1-2.8,1.5-5.4c0.5-1,1.1-2,1.6-3.1
			c1.8-3.7-4.8-20.7-5.7-22.7c-1.2-2.5-7.5-10-9.4-12.3c-2.1-2.5-1.3-6.9,2.4-13.1c1.4-2.4-1-5.6-1-5.6l0.1-0.1c0,0,2.5,3.4,1,5.8
			c-3.6,6.2-4.5,10.6-2.4,13c1.9,2.2,8.2,9.8,9.4,12.3c1,2,7.5,19,5.7,22.8c-0.5,1-1.1,2.1-1.6,3.1c-1.3,2.5-2.5,4.6-1.6,5.2
			C207,83.5,212.4,90.6,210.7,95.1z"/>
		<path class="st0" d="M171.1,98.6c-0.8,0-1.4-0.4-1.8-0.7c-0.6-0.5-1.7-0.5-2.8-0.5c-1,0-2,0.1-2.6-0.3c-0.2-0.1-0.4-0.3-0.4-0.6
			c-0.2-1.1,1.5-2.9,1.6-3l0.1,0.1c0,0-1.7,1.9-1.5,2.9c0,0.2,0.1,0.4,0.3,0.5c0.6,0.3,1.6,0.3,2.5,0.3c1.1,0,2.3-0.1,2.9,0.5
			c0.4,0.4,1,0.8,1.9,0.7c1-0.1,2-0.9,3-2.2c2-2.9,1.9-7.3,1.9-7.4l0.2,0c0,0,0.1,4.6-1.9,7.5c-1,1.4-2.1,2.2-3.1,2.3
			C171.2,98.6,171.2,98.6,171.1,98.6z"/>
		<path class="st0" d="M142.2,71.2c0,0,2.3-2.2,5-2.3s-0.2,1.1-0.6,1.2C146.2,70.3,142.2,71.2,142.2,71.2z"/>
		<path class="st0" d="M180,64.5c-0.4,0-0.8-0.1-1.2-0.2c-1.8-0.6-2.7-2.4-2.7-2.4l0.1-0.1c0,0,0.8,1.7,2.6,2.3
			c1.2,0.4,2.6,0.1,4.1-0.8c1-0.6,1.6-1.4,1.7-2.5c0.1-0.8-0.2-1.3-0.2-1.3l0.2-0.1c0,0,1,2.5-1.5,4C182,64.2,181,64.5,180,64.5z"/>
		<path class="st0" d="M145,76.1c-2.2,0-3.7-2.8-3.7-2.8l0.1-0.1c0,0,1.7,3.2,4,2.7l0,0.2C145.3,76.1,145.2,76.1,145,76.1z"/>
		<g>
			<path class="st0" d="M138.5,79.1c0,0,0.1-0.5,0.3-1.2C138.5,78.3,138.4,78.7,138.5,79.1z"/>
			<path class="st0" d="M147.2,70.5c0,0,0.3,0,0.8,0.1c0-0.2-0.1-0.3-0.1-0.3L147.2,70.5z"/>
			<path class="st1" d="M155.7,70.6c-1.1-0.1-2.9-0.9-3.3-1c-0.4-0.1-3.3-0.6-3.9-0.5c-0.6,0.1-1.8-0.1-1.8-0.1s-1.2,0.8-1.8,0.9
				c-0.6,0.1-1.9,1.1-2.4,1c-0.5,0-1.4,1.6-1.7,1.8s-0.9,1.9-1.4,2.8c-0.3,0.5-0.5,1.5-0.7,2.3c0.6-1.1,1.9-2.1,1.9-2.1l0.9-0.5
				l-0.4-0.9c0,0,1-2,1-1.3c0,0.7,1.4,3.4,4.1,1.8c2.2-1.2,1.9-3.5,1.7-4.3c-0.5,0-0.8-0.1-0.8-0.1l0.7-0.3c0,0,0,0.1,0.1,0.3
				c0.8,0.1,2,0.2,3.6,0.3c2.5,0.2,4.6,0.5,4.6,0.5S156.8,70.7,155.7,70.6z M145.4,73.4c-0.4,0.1-0.8,0-1-0.4c-0.1-0.4,0-0.8,0.4-1
				c0.4-0.1,0.8,0,1,0.4C146,72.9,145.8,73.3,145.4,73.4z"/>
		</g>
		<g>
			<path class="st1" d="M189.8,59.9c-0.2-0.4-1.4-0.6-4.5-1c-3.1-0.4-4.5-0.6-7.7,0.2c-2.7,0.7-5.6,4.1-6.4,5.2
				c-0.2,0.2-0.2,0.3-0.2,0.3c1.7-1.6,5.7-3.9,5.7-3.9s-0.3,1.1-0.9,1.5c-0.6,0.5-2,3.2-2,3.2s2.3-2,2.4-2.8s1.5-2.8,1.5-2
				c0,0.8,0.6,3.4,3.7,2.5c3.1-0.9,2.2-3.4,2.2-3.4s1.1,0.2,3.3-0.1c1.8-0.2,3.5,0.9,4.1,1.3C190.6,60.7,189.9,60.2,189.8,59.9z
				 M181.2,61.9c-0.4,0.2-0.8,0-1-0.4s0.1-0.8,0.5-0.9c0.4-0.2,0.8,0,1,0.4C181.8,61.3,181.6,61.7,181.2,61.9z"/>
			<path class="st0" d="M190.9,61c0.1,0.1,0.2,0.1,0.2,0.1S191,61.1,190.9,61z"/>
		</g>
		<path class="st0" d="M151.2,118.9c-1,0-2.4-0.6-2.5-0.7c-3.9-1.3-3.7-8-3.5-12.1c0-0.4,0-0.8,0-1.2c0-1-0.2-1.7-0.7-2.1
			c-1-0.9-3-0.6-4.4-0.4c-0.3,0-0.6,0.1-0.9,0.1c-2.1,0.2-4.3-6.4-4.4-6.7l0.2-0.1c0,0,0.6,1.7,1.4,3.4c1.1,2.2,2,3.3,2.8,3.2
			c0.3,0,0.5-0.1,0.8-0.1c1.4-0.2,3.4-0.5,4.5,0.4c0.5,0.5,0.8,1.2,0.8,2.3c0,0.4,0,0.8,0,1.2c-0.1,4-0.4,10.7,3.4,11.9
			c0,0,2.3,1,3.1,0.5c0.2-0.1,0.3-0.3,0.3-0.5c0.1-2,0.6-3.1,1.6-3.5c0.6-0.2,0.6-0.6,0.6-1.1c0-0.3,0-0.7,0.1-1.2
			c0.2-0.6,0.6-1,1-1.4c0.5-0.5,1.1-1,1.2-2.1c0-0.2,0.1-0.4,0.1-0.7c0.3-2.2,0.6-5.1,2.5-6c2-1,2.9-4.2,2.9-4.2l0.2,0
			c0,0.1-0.9,3.4-3,4.4c-1.8,0.9-2.2,3.8-2.5,5.9c0,0.2-0.1,0.5-0.1,0.7c-0.2,1.2-0.8,1.7-1.3,2.2c-0.4,0.4-0.8,0.7-0.9,1.3
			c-0.1,0.5-0.1,0.9-0.1,1.2c0,0.6,0,1-0.8,1.3c-0.9,0.3-1.4,1.4-1.5,3.3c0,0.3-0.1,0.5-0.4,0.7
			C151.7,118.9,151.5,118.9,151.2,118.9z"/>
		<path class="st0" d="M160.3,122.6c-1.1,0-2.7-2-3.2-3.4c-0.7-1.8,1.1-2.4,1.1-2.4l0.1,0.2c-0.1,0-1.6,0.6-1,2.2
			c0.5,1.3,2.1,3.3,3.1,3.3c0,0,0,0,0,0c0.3,0,0.6-0.3,0.7-0.7c0.3-0.9-0.1-1.6-0.4-2.2c-0.5-0.8-0.9-1.6,0.6-2.7
			c0.7-0.5,1-1.1,1.1-1.7c0.1-1.3-1.1-2.4-1.1-2.4l0.1-0.1c0.1,0,1.2,1.2,1.1,2.5c0,0.7-0.4,1.3-1.1,1.8c-1.4,1-1,1.6-0.5,2.4
			c0.4,0.6,0.8,1.3,0.4,2.3C161.1,122.3,160.8,122.6,160.3,122.6C160.4,122.6,160.3,122.6,160.3,122.6z"/>
		<path class="st0" d="M163.2,132.3c-0.4,0-0.8,0-1.1-0.1c-1.3-0.3-2.3-1.2-2.6-2.4l0.2,0c0.3,1.1,1.2,1.9,2.5,2.3
			c1.5,0.4,3.1-0.1,4-1c0.2-0.2,0.3-0.4,0.5-0.5c0.9-1,1.8-2,3.4-1.4c0.7,0.2,1.2,0.8,1.7,1.4c0.4,0.6,0.9,1.1,1.5,1.4
			c1.7,0.7,2.8-0.2,3.8-1.1l0,0c1.3-1.2,1.6-1.4,3.4-1c1.2,0.3,4.1,0.7,5.2-0.8c0.3-0.4,0.4-1,0.5-1.6c0.2-1.1,0.4-2.2,2.3-2.1
			c0.5,0,1,0.4,1.4,0.7c0.3,0.2,0.6,0.4,0.9,0.6c1.2,0.4,2.8,0.4,4,0c1.2-0.5,1.4-1.3,1.7-2.2c0.3-0.8,0.6-1.7,1.5-2.2
			c0.8-0.4,1.5-0.4,2.1-0.4c1,0,1.6,0.1,1.8-1.7c0-0.2,0-0.6-0.1-1c-0.1-0.7-0.2-1.6,0.1-2c0.3-0.4,0.8-0.5,1.4-0.6
			c0.5-0.1,1-0.2,1.2-0.4c0.8-0.8,0.4-1.7,0.1-2.6c-0.4-1-0.8-1.9,0-2.9c0.3-0.3,0.6-0.5,0.9-0.7c0.4-0.2,0.8-0.5,1.1-1
			c0.2-0.4,0.2-0.9,0.2-1.4c0-0.4,0-0.9,0.1-1.3c0.3-0.8,0.8-1.1,1.2-1.4c0.6-0.4,1.1-0.7,1-2.1c0-0.4-0.1-0.7-0.3-1.1
			c-0.2-0.7-0.5-1.5,0.1-2.2c0.2-0.3,0.6-0.5,1-0.7c0.2-0.1,0.4-0.2,0.5-0.3l0.1,0.1c-0.1,0.1-0.3,0.2-0.6,0.3
			c-0.4,0.2-0.8,0.4-0.9,0.6c-0.5,0.7-0.3,1.4-0.1,2.1c0.1,0.4,0.2,0.7,0.3,1.1c0.1,1.4-0.4,1.8-1,2.2c-0.4,0.3-0.9,0.6-1.2,1.4
			c-0.1,0.4-0.1,0.8-0.1,1.2c0,0.5,0,1-0.2,1.5c-0.3,0.5-0.7,0.8-1.1,1c-0.3,0.2-0.6,0.4-0.9,0.6c-0.7,0.9-0.3,1.8,0,2.7
			c0.4,0.9,0.8,1.9-0.1,2.8c-0.3,0.3-0.8,0.4-1.3,0.5c-0.5,0.1-1,0.2-1.3,0.5c-0.3,0.4-0.2,1.2-0.1,1.9c0.1,0.4,0.1,0.7,0.1,1
			c-0.2,1.9-0.9,1.8-1.9,1.8c-0.6,0-1.3-0.1-2,0.3c-0.9,0.5-1.2,1.3-1.4,2.1c-0.3,0.9-0.6,1.9-1.8,2.3c-1.2,0.5-2.9,0.5-4.1,0
			c-0.3-0.1-0.6-0.4-0.9-0.6c-0.4-0.3-0.8-0.6-1.3-0.7c-1.7-0.1-1.9,0.8-2.1,2c-0.1,0.6-0.2,1.2-0.6,1.6c-1.2,1.6-4.1,1.1-5.4,0.9
			c-1.7-0.4-1.9-0.2-3.2,1l0,0c-1,0.9-2.2,1.9-4,1.2c-0.7-0.3-1.1-0.9-1.6-1.4c-0.5-0.6-0.9-1.2-1.6-1.4c-1.5-0.5-2.4,0.4-3.2,1.4
			c-0.2,0.2-0.3,0.4-0.5,0.5C165.5,131.9,164.4,132.3,163.2,132.3z"/>
		<path class="st0" d="M166.7,109.1c-0.3,0-0.6-0.1-0.8-0.2c-0.2-0.2-0.2-0.4-0.1-0.8l0.2,0.1c-0.1,0.3-0.1,0.5,0,0.6
			c0.5,0.5,2.6-0.2,3.2-0.5c0.7-0.4,1.4-0.8,2.1-1.2c1-0.6,1.9-1.2,3-1.6c2.3-0.9,4.4-1.3,6.7-1.7c0.3-0.1,0.7-0.1,1-0.2
			c1.2-0.2,4-1.2,4.9-2.4c0.2-0.3,0.3-0.6,0.2-1l0.2,0c0.1,0.4,0,0.7-0.2,1.1c-0.9,1.3-3.8,2.3-5,2.5c-0.3,0.1-0.7,0.1-1,0.2
			c-2.3,0.4-4.4,0.8-6.7,1.7c-1.1,0.4-2.1,1-3,1.6c-0.7,0.4-1.4,0.8-2.1,1.2C169,108.6,167.7,109.1,166.7,109.1z"/>
		<path class="st0" d="M164.1,104.9l-0.1-0.1c0.5-0.3,1-0.5,1.4-0.8c0.9-0.5,1.7-1,2.7-1.4c0.5-0.2,1.1-0.3,1.6-0.4
			c0.5-0.1,1-0.1,1.5-0.3c-0.1-0.9,1.3-1.2,2.3-1.4c0.2-0.1,0.5-0.1,0.6-0.2c0.6-0.2,1-0.4,1.5-0.6c0.6-0.3,1.2-0.5,2-0.7
			c0.5-0.1,0.8-0.3,1.1-0.6c0.2-0.1,0.3-0.3,0.6-0.4c0.7-0.4,1.2-0.3,1.8-0.2c0.2,0,0.3,0.1,0.5,0.1c0.2,0,0.3,0,0.5-0.1
			c0.2-0.1,0.3-0.1,0.5-0.1c0.2,0,0.5,0.1,0.8,0.3c0.2,0.1,0.4,0.2,0.6,0.2l0,0c0.7,0.2,1.3,0.3,1.9,0l0.1,0.2c-0.7,0.3-1.4,0.1-2,0
			l0,0c-0.2,0-0.4-0.1-0.6-0.2c-0.2-0.1-0.5-0.2-0.7-0.2c-0.2,0-0.3,0-0.5,0.1c-0.2,0.1-0.3,0.1-0.5,0.1c-0.2,0-0.4,0-0.5-0.1
			c-0.6-0.1-1-0.2-1.6,0.2c-0.2,0.1-0.4,0.3-0.5,0.4c-0.3,0.2-0.6,0.5-1.1,0.6c-0.7,0.2-1.3,0.4-1.9,0.7c-0.5,0.2-0.9,0.4-1.5,0.6
			c-0.2,0.1-0.4,0.1-0.6,0.2c-0.9,0.2-2.3,0.5-2.2,1.3l0,0.1l-0.1,0c-0.6,0.2-1.1,0.3-1.6,0.4c-0.5,0.1-1,0.1-1.5,0.4
			c-0.9,0.4-1.8,0.9-2.7,1.4C165.1,104.4,164.6,104.6,164.1,104.9z"/>
		<path class="st0" d="M247.9,110.9c-3.7-10.9-11.7-16.3-17.6-19c-6.5-2.9-12.2-3.2-12.2-3.2l0-0.2c0.1,0,5.8,0.3,12.3,3.2
			c6,2.7,14,8.1,17.7,19.1L247.9,110.9z"/>
		<path class="st0" d="M139.8,149c-2.8-8.8-2.2-16.6-1.2-21.6c1.1-5.4,2.9-8.8,2.9-8.8l0.1,0.1c0,0-1.8,3.4-2.9,8.8
			c-1,5-1.6,12.7,1.2,21.5L139.8,149z"/>
		<path class="st0" d="M148.7,155.6c-4.8-7.9-4.8-15.6-4-20.7c0.9-5.5,2.9-9.2,3-9.2l0.1,0.1c0,0-2.1,3.7-2.9,9.2
			c-0.8,5-0.8,12.7,4,20.6L148.7,155.6z"/>
		<path class="st0" d="M159.6,161.4c-3.5-5.4-7.5-13.7-6.7-21.9c0.5-5,2.5-7.6,2.6-7.6l0.1,0.1c0,0-2,2.7-2.5,7.6
			c-0.5,4.5,0.3,12,6.7,21.8L159.6,161.4z"/>
		<path class="st0" d="M167.7,161.1c-3-4.4-6.6-11.1-6.8-18.2c-0.1-4.3,1.1-6.7,1.1-6.7l0.1,0.1c0,0-1.2,2.4-1.1,6.6
			c0.1,3.9,1.4,10.2,6.7,18.1L167.7,161.1z"/>
		<path class="st0" d="M177.1,159.4c-5-5.8-6.5-10.9-7-14.2c-0.5-3.6,0.2-5.8,0.2-5.8l0.2,0c0,0-0.7,2.2-0.2,5.7
			c0.5,3.3,2,8.3,7,14.1L177.1,159.4z"/>
		<path class="st0" d="M187.3,157.2c-5.5-5.2-7.5-18.3-7.5-18.4l0.2,0c0,0.1,2,13.2,7.4,18.3L187.3,157.2z"/>
		<path class="st0" d="M196.7,155.3c-3.6-3.3-8.2-18.2-8.3-18.3l0.2,0c0,0.1,4.7,15,8.2,18.2L196.7,155.3z"/>
		<path class="st0" d="M207.3,150.7c-1.8-5.2-10-15.9-10.1-16l0.1-0.1c0.1,0.1,8.4,10.8,10.1,16.1L207.3,150.7z"/>
		<path class="st0" d="M217.6,145.9c-2.4-9.1-12.1-16.3-12.2-16.4l0.1-0.1c0.1,0.1,9.9,7.3,12.3,16.5L217.6,145.9z"/>
		<path class="st0" d="M227.1,139.7c-5.5-12.9-15.2-16.4-15.3-16.5l0.1-0.2c0.1,0,9.9,3.6,15.4,16.5L227.1,139.7z"/>
		<path class="st0" d="M236,133.1c-4.1-8.8-9.1-13.1-12.6-15.2c-3.8-2.3-6.7-2.5-6.7-2.5l0-0.2c0,0,2.9,0.2,6.8,2.5
			c3.5,2.1,8.6,6.4,12.7,15.2L236,133.1z"/>
		<path class="st0" d="M241.8,124.6c-3-6.3-9.5-10.7-14.3-13.2c-5.3-2.7-9.9-4-10-4l0-0.2c0,0,4.7,1.3,10,4
			c4.9,2.5,11.4,6.9,14.4,13.3L241.8,124.6z"/>
		<path class="st0" d="M244.7,116.9c-3.7-6.7-11-11.2-16.5-13.9c-5.9-2.8-11-4.1-11-4.1l0-0.2c0.1,0,5.1,1.3,11.1,4.1
			c5.5,2.6,12.8,7.2,16.5,13.9L244.7,116.9z"/>
		<path class="st1" d="M157.5,132c0,0,5.5,3.7,9,4.3c3.5,0.7,10.9,1.3,13.9,0.5c3-0.8,10.4-2.7,12.2-3c1.8-0.3,4.5-1.7,5.8-2.5
			s1.9-2.1,2.6-2.7c0.6-0.7,3.1-2,4-2.3c0.8-0.3,2.7-2.1,3.5-3.2c0.9-1.1,1.9-3,2.3-3.9c0.4-0.9,2-2.5,2.4-3.2s1.6-3,1.6-3.6
			c0-0.6,1-5.1,1-5.5c0-0.4-0.4-5.6-0.4-5.6l1.7-1.3c0,0,2.8,11.1-2.1,18.6c-4.9,7.5-10.3,11.8-14.4,14s-8.1,3.5-10.5,4.1
			c-2.4,0.5-7,1.9-9.1,2.1s-7.5,0.2-8.9,0.3c-1.4,0.1-4.5,0.2-5.6-1s-4.6-1.2-6.3-2.4c-1.7-1.2-4-3.7-4.2-4
			C155.9,131.5,157.5,132,157.5,132z"/>
	</g>
	<path class="st4" d="M49.5,320.3"/>
	<path class="st0" d="M86.2,326.6c-3,0-5.3-0.1-6.2-0.3c-3.8-0.9-5-0.9-5-0.9l-0.3,0l-0.1-0.3l-9.5-30l-25-5L27.6,309
		c1.5,0.7,6.8,3,9.8,1.3c3.5-2.1,11-8.6,11-8.6l0.3-0.3l0.2,0.3c0,0.1,4.4,5.3,6.9,5.6l0.9,0.1L56,308c-0.1,0-6.1,4.8-5.7,14.6
		l-0.7,0c-0.2-5.3,1.4-9.2,2.9-11.4c1-1.6,2-2.7,2.6-3.3c-2.4-0.9-5.5-4.3-6.4-5.4c-1.4,1.2-7.6,6.6-10.9,8.5
		c-3.7,2.2-10.6-1.3-10.8-1.5l-0.4-0.2l13.2-20l25.9,5.2l0.1,0.2l9.5,30c0.5,0,2,0.2,4.9,0.9c1.9,0.4,10.2,0.4,19.1-0.1
		c10.3-0.6,17.8-1.5,19.9-2.5c4.7-2.2,18.1-17.3,19.5-18.9c-0.4-1.7-3.5-14.1-5.9-23.8c-0.4-1.6-0.8-3.1-1.3-4.8
		c-2.6-9.8-5.2-19.8-4.4-23.5c0.4-1.7-2-10.4-6.3-22.6c-3.7-10.7-7.7-20.7-8.9-22.7c-2.4-3.7-2-9.9-1.9-12.8c0-0.5,0-0.9,0-1.2
		c0-0.4-0.1-1.1-0.2-2c-0.4-3.6-1.1-10.4,0.8-14.1c2.4-4.5,26.7-27,27.8-27.9l0.5,0.5c-0.3,0.2-25.3,23.3-27.6,27.7
		c-1.8,3.5-1.1,10.1-0.7,13.7c0.1,1,0.2,1.6,0.2,2c0,0.3,0,0.7,0,1.2c-0.1,2.9-0.4,8.9,1.8,12.4c1.3,2.1,5.3,12.1,9,22.8
		c2.1,6,6.9,20.3,6.3,23c-0.7,3.5,2,13.9,4.4,23.2c0.4,1.7,0.9,3.3,1.3,4.8c2.7,10.4,6,23.8,6,24l0,0.2l-0.1,0.1
		c-0.6,0.7-14.8,16.9-19.9,19.3c-3.2,1.5-15.2,2.3-20.2,2.6C94.4,326.5,89.7,326.6,86.2,326.6z"/>
	<path class="st0" d="M47.9,319.4l-22.8-6.6l-0.1-0.1c-0.2-0.2-5.7-4.9-6.9-7.6c-1.3-2.8-0.8-4,1.2-7.4c2.1-3.6,6.2-3.1,6.2-3.1
		l0.1,0l7.8,4.2l-0.3,0.7l-7.7-4.1c-0.5-0.1-3.7-0.3-5.4,2.8c-2,3.4-2.3,4.2-1.2,6.7c1.1,2.4,6,6.8,6.6,7.3l22.4,6.5
		c0.4-0.2,1.9-0.9,2.7-3.1c0.8-1.9,0.9-4.8-6.3-8.3l0.3-0.7c6,2.9,8.1,5.8,6.7,9.3c-1.1,2.8-3.2,3.5-3.3,3.5L47.9,319.4z"/>
	<path class="st0" d="M47.8,331.3c-0.4,0-0.9,0-1.3-0.1c-0.4,0-0.9-0.1-1.3-0.1c-0.1,0-0.3,0-0.4,0c-0.2,0-0.3,0-0.5,0
		c-2.5,0-8.8-1.2-36.6-9.5l-0.1,0l-0.1-0.1c-0.2-0.2-5.2-4.8-2.9-8.7c0.3-0.6,0.6-1.1,0.9-1.6c1.4-2.5,1.8-3.3,3.9-3.7l0.1,0l0.1,0
		l36.8,11.5l0,0c0.1,0,1.6,0.9,3.1,2.3c2,1.9,2.8,4.1,2.3,6.1C51.1,330.2,49.9,331.3,47.8,331.3z M45.2,330.4c0.5,0,0.9,0,1.3,0.1
		c0.4,0,0.8,0.1,1.2,0.1c1.2,0,2.5-0.3,3.2-3.2c1-4.2-4.5-7.3-5-7.6L9.4,308.4c-1.7,0.3-2,0.9-3.3,3.3c-0.3,0.5-0.5,1-0.9,1.6
		c-1.8,3.2,2.2,7.2,2.7,7.8c31.5,9.4,34.8,9.4,36.3,9.4c0.2,0,0.4,0,0.5,0C44.9,330.4,45.1,330.4,45.2,330.4z"/>
	<path class="st0" d="M39.6,340.1c-0.4,0-0.7,0-0.7,0l0,0c-0.2,0-25-4.9-30.7-6.7c-5.4-1.6-5.6-3.5-5.6-3.9c-0.6-3.3,0.7-5.3,2-6.4
		c1.3-1.2,2.9-1.7,3.3-1.5l-0.2,0.7c0,0,0.1,0,0.1,0s0,0,0,0c-0.3,0-2,0.5-3.3,2c-1.1,1.4-1.5,3.1-1.1,5.1l0,0.1l0,0.1l0,0
		c0,0-0.1,1.6,5.1,3.2c5.6,1.7,29.9,6.5,30.6,6.6c0.3,0,4.4,0.5,5.9-3.2c0.5-1.4,0.5-2.6,0-3.5c-0.7-1.1-1.9-1.6-2.6-1.7l0.1-0.7
		c0.7,0.1,2.3,0.6,3.2,2c0.7,1.1,0.7,2.5,0.1,4.2C44.3,339.7,41.1,340.1,39.6,340.1z"/>
	<path class="st0" d="M6.6,346.7c-0.5,0-1,0-1.3,0c-1.7,0-3-0.6-3.9-1.7c-1.5-1.7-1.5-4.3-1.2-6.2c0.2-1.4,1-2.5,2.4-3.1
		c1-0.5,1.9-0.5,2-0.6l0,0l0,0c5.6,0.2,16.2,0.6,16.5,0.6v0.7c-0.4,0-15.6-0.6-16.5-0.6c-0.1,0-0.9,0.1-1.7,0.5
		c-1.1,0.5-1.8,1.4-1.9,2.5c-0.2,1.7-0.2,4.1,1.1,5.6c0.8,0.9,1.9,1.4,3.4,1.4c4.6,0.1,22.9-0.6,23.8-0.7c0.4-0.1,4.3-1.1,3.8-6.4
		l0.7-0.1c0.6,6.1-4.4,7.2-4.4,7.2l-0.1,0C29,346.1,12.8,346.7,6.6,346.7z"/>
	<path class="st0" d="M32.8,363.6L32.8,363.6l-0.2,0l-8.6-4.1l0.3-0.7l8.5,4c3.9,0,28.3-1,30.6-1.1c0.9-1.2,7.7-10.1,8.6-12.7
		c0.8-2.2-1.9-5.2-2.8-6.2c-0.2-0.2-0.3-0.3-0.3-0.4l0.6-0.4l-0.3,0.2l0.3-0.2c0,0,0.2,0.2,0.3,0.3c1.1,1.2,4,4.3,3,6.9
		c-1.1,2.8-8.5,12.6-8.8,13l-0.1,0.1l-0.2,0C63.5,362.6,36.7,363.6,32.8,363.6z"/>
	<path class="st0" d="M167.6,369.7c-15.1,0-33.7-2-41.7-4.2c-12.5-3.4-57.9-7.4-58.4-7.4l0.1-0.7c0.5,0,46,4,58.5,7.5
		c6.3,1.7,18.7,3.3,31,3.9c14,0.7,24.7,0.1,29.4-1.8c6.6-2.6,10.9-5.5,13.7-7.5c1.8-1.2,2.8-2,3.6-2c0.8-0.1,2.7-0.6,3.6-2
		c0.7-1.2,0.6-2.8-0.3-4.8c-1.2-2.5-1.7-11.5-2.2-20.9c-0.6-10.7-1.4-24.1-3.3-25.7l0.5-0.6c2.1,1.8,2.8,13.6,3.5,26.2
		c0.5,9.4,1.1,18.3,2.2,20.7c1,2.2,1.1,4,0.2,5.4c-1,1.7-3.1,2.3-4.1,2.4c-0.6,0-1.7,0.8-3.2,1.9c-2.8,2-7.1,4.9-13.8,7.5
		C182.9,369.1,175.8,369.7,167.6,369.7z"/>
	<polygon class="st0" points="59.8,293.7 59.1,293.3 87.3,239.3 73.4,233.1 43.3,290.2 42.6,289.8 73,232.2 88.3,239 	"/>
	<polygon class="st0" points="17.3,373.8 3.6,368 15.3,346 16,346.4 4.6,367.6 17,372.9 31.6,344.3 32.2,344.6 	"/>
	<path class="st0" d="M178,283.3c-0.4,0-0.7,0-1,0c-2.2-0.1-4.1-0.6-4.3-0.8l-0.2-0.2l0-0.1l-41-66l0.6-0.4l41.1,66.1
		c0.8,0.2,6.6,1.7,12.2-0.9c4.4-2.1,25.1-13.3,25.3-13.4l0.4,0.6c-0.2,0.1-20.9,11.4-25.3,13.4C182.9,282.9,180.1,283.3,178,283.3z"
		/>
	<path class="st0" d="M249.7,255.3l-0.2-0.1l-42.4-29.9l0.4-0.6l42.2,29.8l45.1-22.3c0.9-2.4,13.2-34.9,14.3-41.7
		c1.2-7.3,9.7-9.3,10.8-9.3v0.7c-1,0-9,1.8-10.1,8.7c-1.2,7.1-13.9,40.6-14.4,42l-0.1,0.1l-0.1,0.1L249.7,255.3z"/>
	<path class="st0" d="M257,351.5c-8.6,0-29.8-1-30-1l0-0.7c0.3,0,26.9,1.2,32.5,0.9c5.4-0.3,82.3-33.6,88.2-36.1
		c-1.6-3.2-13.6-28.4-17.5-37.3c-3.3-7.6-4.1-22.3-4.7-34.1c-0.2-3.2-0.3-6.2-0.5-8.8c-0.9-12.2-0.6-36.2-0.6-36.4l0.7,0
		c0,0.2-0.3,24.2,0.6,36.4c0.2,2.6,0.3,5.6,0.5,8.8c0.6,11.7,1.3,26.3,4.6,33.8c4.1,9.5,17.6,37.3,17.7,37.6l0.2,0.3l-0.4,0.2
		c-3.4,1.5-83.2,36-88.8,36.3C258.9,351.5,258,351.5,257,351.5z"/>
	<path class="st0" d="M298.9,162.3c-13.5-3.5-22.8-9.7-27.4-18.6c-3.3-6.4-3.6-12.9-3.3-17.2c0.3-3.3,0.9-5.8,1.3-7.1L241.5,136
		l-0.4-0.6l29.6-17.5l-0.4,1c0,0.1-4.5,12.7,1.7,24.6c4.6,8.7,13.6,14.8,27,18.2L298.9,162.3z"/>
	<path class="st1" d="M215.5,178.9c0,0,68.3,15.9,67.4,15.9c-0.9,0-0.9,6.9-0.9,6.9L215.5,178.9z"/>
	<polygon class="st1" points="211.3,183.7 276.6,204.6 275.7,211.2 	"/>
	<polygon class="st1" points="215.8,190.8 272.4,223.2 276.6,215.1 	"/>
	<path class="st0" d="M226.9,351c-4.9-17.7-16.6-35.3-25.5-47c-9.6-12.7-18.2-21.3-18.3-21.4l0.5-0.5c0.1,0.1,8.7,8.7,18.4,21.5
		c8.9,11.8,20.6,29.5,25.6,47.3L226.9,351z"/>
	<path class="st4" d="M369.2,137.7"/>
	<path class="st4" d="M249.2,88.4"/>
	<path class="st0" d="M76.3,336.4c-0.4-0.6-0.3-1.1-0.1-1.4c1.4-2.8,14.3-3.4,32.3-4.1c5.4-0.2,10.5-0.4,14-0.7
		c5.8-0.5,13.6-4.1,21.5-9.8c6.6-4.8,11.7-10.2,11.9-12.5c0.5-4.5-5.3-8.6-5.9-9c-3-0.8-5.7-3-7.9-6.3c-2-3-3.6-6.9-4.9-11.7
		c-4.4-16.7-3.2-40.3,0-43.5c4.2-4.2-2.2-16.6-2.3-16.7l0.7-0.3c0.3,0.5,6.7,13,2.1,17.6c-2.8,2.8-4.3,25.8,0.2,42.7
		c1.8,6.9,5.5,15.6,12.3,17.5l0.1,0l0,0c0.3,0.2,6.8,4.6,6.2,9.7c-0.3,2.6-5.3,8-12.2,13c-11.3,8.3-19,9.7-21.8,10
		c-3.5,0.3-8.6,0.5-14,0.7c-6.8,0.2-14.6,0.5-20.7,1.1c-8.4,0.8-10.7,1.8-11.1,2.6c-0.1,0.1-0.1,0.3,0.1,0.6L76.3,336.4z"/>
	<path class="st0" d="M147,358.9c-11.9,0-24.2-1.2-33.2-2.1c-3.5-0.4-6.6-0.7-8.9-0.8c-15.1-1-16.1-1.2-28.5-3.1
		c-1.6-0.2-3.4-0.5-5.4-0.8l0.1-0.7c2,0.3,3.8,0.6,5.4,0.8c12.4,1.9,13.5,2.1,28.5,3.1c2.3,0.2,5.4,0.5,8.9,0.8
		c10.8,1.1,27.1,2.7,41.5,1.9c17-1,27.4-5.2,31.1-12.4c2.2-4.5,2.5-9.3,0.8-14.4c-1.4-4.1-4-8.4-7.8-12.8
		c-6.5-7.5-14.4-12.6-14.4-12.7l0.4-0.6c0.1,0.1,8,5.2,14.6,12.8c3.9,4.5,6.6,8.9,8,13.1c1.8,5.3,1.5,10.4-0.8,15
		C181.8,356.2,164.7,358.9,147,358.9z"/>
	<path class="st0" d="M336.3,334.7c-0.1-0.1-6.7-10.6-10-17.7c-1.4-3-3.8-4.4-7.6-4.4c0,0,0,0,0,0c-3.4,0-7.4,1.1-11.2,2.2l-0.6,0.2
		c-0.5,0.1-1.9,0.5-2.5-0.4c-1-1.6,1.8-5.9,4-9c2.2-3.1,4.6-5.9,5.1-6.6c-0.5-2.2-5.8-24.4-10.5-46.3c-1.1-5.3-1.2-12.1-0.2-20
		c0.8-6.3,2.3-13.5,4.5-21.2c3.7-13.1,8-23.6,8.1-23.7l0.7,0.3c0,0.1-4.4,10.5-8,23.6c-6.1,21.9-5.7,34.3-4.3,40.9
		c4.9,23,10.5,46.2,10.5,46.4l0,0.2l-0.1,0.1c-5.2,6.1-10.2,13.4-9.2,14.8c0.2,0.3,0.8,0.3,1.7,0.1l0.6-0.2
		c7.7-2.2,16.3-4.7,19.7,2.6c3.3,7.1,9.9,17.6,9.9,17.7L336.3,334.7z"/>
	<path class="st0" d="M288.2,347c-0.3-0.3-7.8-8.4-10-13.9c-1-2.6-8.8-0.7-16.3,1.2c-7.5,1.8-15.4,3.7-18.4,1.8
		c-0.6-0.4-0.7-0.9-0.7-1.2c0.2-2.1,7.1-4.8,18.4-9.1c11.2-4.2,25.3-9.5,25.8-13.3c0.1-0.4,0-0.7-0.3-0.9c-2.2-2-14.5,1.3-25.4,4.2
		c-13.3,3.6-21.6,5.7-22.9,3.5c-0.2-0.3-0.2-0.7-0.1-1c0.8-2.7,10.7-7.3,21.1-12.1c5-2.3,9.7-4.5,13.2-6.3c5.1-2.7,5.2-3.6,5.1-3.9
		c0-0.1-0.1-0.2-0.3-0.3c-2.7-1-15.4,5.2-24.6,9.8c-5.2,2.6-9.7,4.8-12.2,5.7c-2.7,1-5.5,0.4-8.1-1.7c-3.9-3.2-6.4-9.4-5.7-14.2
		c1.1-6.9-17.4-22.7-17.6-22.9l0.5-0.6c0.8,0.7,18.9,16.3,17.8,23.6c-0.7,4.5,1.7,10.4,5.4,13.5c1.6,1.3,4.2,2.7,7.4,1.6
		c2.5-0.9,6.9-3.1,12.1-5.6c12.6-6.2,22.4-10.8,25.2-9.8c0.4,0.1,0.6,0.4,0.8,0.7c0.9,2.1-6.1,5.4-18.6,11.2
		c-9.4,4.3-20,9.2-20.7,11.6c-0.1,0.2,0,0.4,0,0.4c0.3,0.5,1.8,0.9,7.3-0.2c4.1-0.8,9.3-2.2,14.8-3.7c12.1-3.3,23.6-6.3,26.1-4.1
		c0.4,0.4,0.6,0.9,0.5,1.5c-0.6,4.3-13.7,9.2-26.3,13.9c-4.7,1.8-9.2,3.5-12.6,5c-4.4,2-5.3,3-5.4,3.5c0,0.1,0,0.2,0.4,0.5
		c2.8,1.8,10.5-0.1,17.9-1.9c8.5-2.1,15.9-3.9,17.1-0.7c2.2,5.4,9.8,13.6,9.9,13.7L288.2,347z"/>
	<path class="st0" d="M298.7,344.8c-11.9-12-19.8-25.1-23.6-38.9c-3-11-3.3-22.6-1-34.2c4-19.8,14.5-33.4,14.6-33.5l0.6,0.5
		c-0.1,0.1-10.5,13.6-14.5,33.3c-2.3,11.5-2,22.9,1,33.9c3.7,13.7,11.6,26.6,23.4,38.6L298.7,344.8z"/>
	<path class="st0" d="M342.9,139.8c-0.1-0.2-13.3-22.6-21.4-26.4c-3.1-1.5-6.3-2.6-10-3.9c-6-2.1-12.8-4.6-22.1-9.4
		c-12.6-6.5-37.4-9.8-46.7-11.1c-1.6-0.2-2.7-0.4-3.1-0.4l0.1-0.7c0.4,0.1,1.5,0.2,3.1,0.4c9.3,1.2,34.2,4.6,46.9,11.2
		c9.2,4.8,16,7.2,22,9.3c3.7,1.3,6.9,2.5,10.1,3.9c8.3,3.9,21.2,25.8,21.7,26.7L342.9,139.8z"/>
	<path class="st0" d="M377.1,252.1c-1.7,0-3.4-0.1-4.9-0.2c-3.8-0.4-9.1-3.8-13.4-8.6c-5.1-5.7-8.2-12.3-8.7-18.8
		c-0.6-7.5,2-14.6,4.3-19.1c1.9-3.8,3.9-6.6,4.7-7.7c-1.8-0.2-7.2-0.8-12.1-2.2c-3.9-1.1-9.5-5.1-13.9-8.4c-2.5-1.8-4.7-3.4-6.1-4.1
		c-2.1-1-5.6-0.8-9-0.6c-2.8,0.2-5.8,0.3-8-0.2c-2.1-0.5-4.9-0.7-7.9-1c-4.2-0.4-8.5-0.8-11.2-1.8c-3-1-5.2-3-6.1-5.4
		c-0.8-2.1-0.6-4.6,0.7-7c3.1-6,16.4-4.4,17-4.3l36,5.2c0.5-0.6,2.4-2.7,4.3-5.1c2.1-2.6,2.7-15.9,2.7-16.6
		c-0.2-1.3-5.6-38.8-6.9-43.6c-1.4-5.2,2.6-8.4,2.6-8.4l0,0c0.1-0.1,2.4-1.7,4.6-1.1c1.1,0.3,2,1.2,2.6,2.6c0.7,1.8,2.6,5.4,4.5,9.3
		c5,10.1,6.7,13.5,6.3,14.3l-0.7-0.3c0,0,0,0,0,0c0.1-0.9-3.6-8.3-6.3-13.6c-1.9-3.9-3.8-7.5-4.5-9.3c-0.5-1.2-1.2-1.9-2.1-2.2
		c-1.8-0.5-3.8,0.9-4,0.9c-0.2,0.2-3.6,3-2.4,7.6c1.4,4.9,6.7,42.2,6.9,43.7l0,0l0,0c0,0.6-0.6,14.3-2.8,17.1
		c-2.2,2.7-4.4,5.2-4.4,5.3l-0.1,0.1l-0.2,0l-36.2-5.3c-0.1,0-13.3-1.6-16.2,4c-1.2,2.3-1.4,4.4-0.6,6.4c0.9,2.2,2.9,4,5.7,5
		c2.7,0.9,6.9,1.3,11.1,1.7c3,0.3,5.9,0.6,8,1c2.2,0.5,5.1,0.3,7.8,0.2c3.7-0.2,7.2-0.4,9.4,0.7c1.4,0.7,3.6,2.3,6.2,4.2
		c4.4,3.2,9.9,7.2,13.7,8.2c6,1.6,12.6,2.2,12.7,2.2l0.7,0.1l-0.4,0.5c-0.1,0.1-10.4,12.8-9.3,26.8c1.1,14.4,14.6,26,21.5,26.8
		c4.5,0.5,10.8,0.1,15.4-0.3c2.8-0.2,5.1-0.4,6.2-0.3c1.2,0.1,4.3-1.4,7.7-3.8c3.5-2.4,6.5-5.1,7.4-6.8c2.1-3.7,6.9-16,7.4-21.7
		c0.1-0.7,0.1-1.3,0.2-2c0.5-4.8,1.1-9.8-1.3-14.4c-2.9-5.6-5.9-10.8-9.8-13.7c-2-1.5-4-4.5-5.3-7.8c-1.3-3.5-1.4-6.4-0.3-7.9
		l0.2-0.2c2.2-3.1,8.1-11.2,9.7-15.7c1.5-4.2,1.8-7.3,0.8-8.8c-0.4-0.7-1-1.1-1.9-1.2c-3.5-0.5-5,2.3-6.2,5
		c-1.1,2.5-5.8,9.5-7.6,10.4c-0.3,0.1-0.6,0.1-0.8-0.1c-1.8-1.1-3.3-10.3-3.3-14.4c0-0.6,0-1.5,0.1-2.5c0.2-6.7,0.7-20.6-4.8-23.9
		c-0.5-0.1-5.4-1.4-8.4,2.1c-2,2.3-0.3,7.1,0.9,10.6c0.9,2.6,1.3,3.8,0.7,4.3c-0.4,0.4-1.6,2.5-5.2,12.3c-1,2.9,1.6,9.6,1.7,9.7
		l-0.7,0.3c-0.1-0.3-2.8-7.1-1.7-10.2c2.8-7.7,4.5-11.8,5.3-12.6c0.2-0.3-0.4-2.2-0.9-3.6c-1.3-3.7-3-8.7-0.8-11.3
		c3.4-4,9-2.4,9.2-2.3l0,0l0,0c5.9,3.5,5.5,17.8,5.2,24.6c0,1-0.1,1.9-0.1,2.5c0,4.5,1.7,12.9,3,13.8c0.1,0,0.1,0,0.1,0
		c1.5-0.8,6.2-7.5,7.3-10.1c0.9-2.1,2.7-6.1,7-5.5c1.1,0.2,1.9,0.7,2.4,1.5c0.7,1.2,1.2,3.9-0.8,9.5c-1.6,4.6-7.4,12.5-9.8,15.9
		l-0.2,0.2c-2,2.7,1.3,11.7,5.4,14.7c4.1,3,7.1,8.3,10.1,14c2.5,4.7,1.9,9.8,1.4,14.8c-0.1,0.7-0.1,1.3-0.2,2
		c-0.6,5.8-5.4,18.3-7.5,22c-2.2,3.9-12.9,11.3-15.8,11c-1-0.1-3.3,0.1-6,0.3C384.7,251.8,380.7,252.1,377.1,252.1z"/>
	<path class="st0" d="M361.3,149l-0.7-0.3c0.5-1,0.8-12.1,0-16.6c-0.1-0.5-0.2-1.2-0.4-1.9c-1-5.1-2.7-13.7-2.4-18.4
		c0.3-5.5,2.8-6.4,8.3-7.3c2.5-0.4,5.2,2.6,8,8.9c2.1,4.6,3.5,9.3,3.5,9.3l-0.7,0.2c-1.5-5.1-6.4-18.4-10.7-17.7
		c-5.5,0.8-7.4,1.6-7.7,6.6c-0.2,4.6,1.4,13.1,2.4,18.2c0.1,0.7,0.3,1.3,0.4,1.9c0.4,2,0.6,5.6,0.5,9.7
		C361.8,144.6,361.7,148.3,361.3,149z"/>
	<path class="st0" d="M376.9,207.1c-1.9,0-3.5-0.3-4.6-1.3c-2.4-2.2-11.7-8.8-11.8-8.9l0.4-0.6c0.4,0.3,9.4,6.7,11.9,8.9
		c1,0.9,3.1,1.2,5.8,1c2.2-0.2,4.7-0.8,6.6-1.6c4.1-1.7,7.4-2.9,10-3.6c3.1-0.8,6.2-3.6,6.7-5.3c0.5-1.9,0.3-6.2,0.3-6.2l0.7,0
		c0,0.2,0.3,4.5-0.3,6.5c-0.6,2.1-4.1,4.9-7.2,5.8c-2.6,0.7-5.8,1.9-9.9,3.6C383.4,206.2,379.9,207.1,376.9,207.1z"/>
	<path class="st0" d="M396.9,196c-1.5,0-2.8-0.5-3.7-1.5c-1.4-1.5-2-4-1.9-7.5c0.2-4.1,1.1-8,1.7-10.1c-1.8,1.9-5.4,5.1-9.1,4.6
		c-5.1-0.6-7.8-3.2-10.5-7.6c-2.7-4.3-23.1-14.4-23.4-14.5l0.3-0.7c0.9,0.4,20.9,10.3,23.7,14.8c2.7,4.3,5.1,6.8,10,7.3
		c4.7,0.5,9.6-5.6,9.6-5.7l1.4-1.8l-0.7,2.1c0,0.1-1.9,5.6-2.2,11.5c-0.1,3.3,0.4,5.6,1.7,6.9c0.8,0.8,1.9,1.3,3.2,1.3V196z"/>
	<path class="st0" d="M349.9,217.6c-0.2-0.2-19.5-15.6-26.6-25.5c-2.6-3.6-4.9-5.3-6.8-5.1c-1.8,0.2-2.6,2.2-2.6,2.3l-0.7-0.3
		c0-0.1,1-2.4,3.2-2.7c2.2-0.3,4.7,1.5,7.4,5.4c7.1,9.8,26.3,25.2,26.5,25.4L349.9,217.6z"/>
	<path class="st0" d="M345.2,155.4c-0.3-0.4-34.9-38.5-40.9-42.8c-3.4-2.4-14.8-0.8-25,0.7c-8.1,1.2-15.8,2.3-18.4,1.2
		c-0.8-0.3-1.2-0.7-1.2-1.1c0-1.1,2.8-2.3,6.2-3.7c4.2-1.7,8.9-3.7,9.8-6.1c0.2-0.5,0.1-0.9-0.1-1.4c-1-1.7-4.9-3.4-11.3-4.9
		c-4.9-1.2-9.5-1.8-9.5-1.9l0-0.2c0.8,0.1,18.5,2.7,20.9,6.9c0.3,0.5,0.4,1,0.2,1.6c-0.9,2.4-5.7,4.4-9.9,6.2
		c-3.2,1.3-6.1,2.6-6.1,3.6c0,0.3,0.4,0.7,1.1,1c2.5,1.1,10.2,0,18.3-1.2c10.2-1.5,21.7-3.2,25.1-0.7c6,4.4,40.6,42.5,40.9,42.9
		L345.2,155.4z"/>
	<path class="st0" d="M288.6,163.7c-9.7-3.6-16.3-9.2-19.7-16.6c-5.3-11.8-0.6-24.3-0.6-24.4l0.2,0.1c0,0.1-4.7,12.6,0.6,24.3
		c3.4,7.4,9.9,13,19.6,16.5L288.6,163.7z"/>
	<path class="st0" d="M129.2,181.8c-0.4,0-0.8,0-1.2-0.1c-0.8-0.2-1.3-0.6-1.5-1.3c-1.2-4.6,15.1-19.3,15.8-19.9l0.1,0.1
		c-0.2,0.2-16.9,15.2-15.8,19.7c0.1,0.6,0.6,0.9,1.3,1.1c0.4,0.1,0.7,0.1,1.2,0.1c3.4,0,8.7-2.6,14.7-5.5c8.3-4.1,17.7-8.7,26.5-9
		l0,0.2c-8.7,0.3-18.1,4.9-26.4,9C137.9,179.3,132.6,181.8,129.2,181.8z"/>
	<path class="st0" d="M183.7,269C183.7,269,183.7,269,183.7,269c-0.5-0.1-1.7-0.4-2.6-48.3c-0.4-23.6-0.6-47.4-0.6-47.7l0.2,0
		c0,0.2,0.1,24.1,0.6,47.7c0.3,13.9,0.6,24.9,0.9,32.9c0.6,13,1.2,15.1,1.5,15.2c0,0,0.1,0,0.1-0.1c0.9-1.6,1.7-9.5,2.6-18.6
		c1.6-16.4,3.8-38.8,8.5-42.4c0.6-0.4,1.2-0.6,1.8-0.5c3.3,0.6,12.6,5.9,23.2,11.9c15.8,9,33.7,19.2,37.8,17.3
		c0.4-0.2,0.7-0.5,0.8-1l0.2,0c-0.1,0.5-0.4,0.9-0.9,1.1c-0.3,0.2-0.8,0.2-1.3,0.2c-5.8,0-22.2-9.3-36.7-17.6
		c-10.6-6.1-19.8-11.3-23.2-11.9c-0.6-0.1-1.1,0-1.6,0.4c-4.7,3.5-6.8,25.9-8.4,42.3c-0.9,9.5-1.6,17-2.6,18.7
		C183.9,268.9,183.8,269,183.7,269z"/>
	<polygon class="st1" points="214.4,230.6 234.3,255.5 249.8,254.9 	"/>
	<path class="st0" d="M176.2,403.1"/>
	<path class="st1" d="M183.1,281.6l18.6,21.6c0,0-8.4-23.6,0.7-30.8c9.1-7.2-1.1,0.6-1.1,0.6L183.1,281.6z"/>
	<path class="st1" d="M75,325.1c-1.5-0.9,5,3.4,10.2,3.4c9.4,0,46.7-9,52.9-5c2,1.3,1-0.5,0.2-1.3c-4.1-4.1-1.8-14.7-1.8-14.7
		s-7.2,7.7-15.1,13.3C114.1,325.7,78.4,327.2,75,325.1z"/>
	<path class="st0" d="M132.3,216.8l-0.5-0.1c0.7-3.8-2.8-10.9-8.2-16.7c-3.4-3.7-3.3-6.3-3-10.2c0.1-2.2,0.3-4.9-0.1-8.5
		c-0.3-2.6-1.2-4.3-2.6-4.9c-2.8-1.2-7.1,2.2-7.1,2.2l-0.3-0.4c0.2-0.1,4.5-3.6,7.6-2.3c1.6,0.7,2.6,2.4,2.9,5.3
		c0.4,3.7,0.2,6.4,0.1,8.6c-0.3,3.9-0.4,6.3,2.9,9.8C129.5,205.6,133,212.8,132.3,216.8z"/>
	<path class="st0" d="M51.9,325.7c-1.5-6.4,2.9-13.7,5.1-17.3c0.5-0.8,1-1.7,1-1.9c0,0,0,0,0,0c-0.1,0-0.2,0-0.3,0
		c-1.7,0-4.9-4.5-6.1-6.4c-1.2-2-6.5-1.3-6.5-1.2c-1.6,0.4-5.7,5.5-7.9,8.2l-0.2,0.2c-0.9,1.2-2.5,1.6-4.4,1.3
		c-1.5-0.2-2.7-0.8-2.7-0.8l0.1-0.2c0,0,1.2,0.6,2.7,0.8c1.9,0.3,3.3-0.2,4.2-1.3l0.2-0.2c2.4-3,6.3-7.9,8-8.3
		c0.2,0,5.4-0.7,6.7,1.3c1.4,2.2,4.8,6.7,6.2,6.2c0.1,0,0.2,0,0.2,0c0.1,0.2-0.1,0.6-1,2.1c-2.1,3.5-6.5,10.8-5,17.1L51.9,325.7z"/>
	<path class="st0" d="M31.1,301.8c0,0-1.5-1.1-4.4-3.1c-1.9-1.3-4.1-1-5.4-0.3c-0.5,0.3-0.7,0.5-0.7,0.6h-0.2c0-0.3,0.4-0.6,0.8-0.8
		c1.3-0.7,3.6-1,5.6,0.3c2.9,2,4.4,3.1,4.4,3.1L31.1,301.8z"/>
	<path class="st0" d="M43.1,316.9c-0.5-0.8-0.7-1.7-0.5-2.6c0.5-2.1,2.8-3.7,3.3-4l-3.9-2.5l0.1-0.2l4.2,2.7l-0.1,0.1
		c0,0-2.8,1.7-3.4,4c-0.2,0.9-0.1,1.7,0.4,2.5L43.1,316.9z"/>
	<path class="st0" d="M50.3,330.4c0,0-2.8-0.4-5.8-1.7c-0.6-0.3-1.1-0.7-1.3-1.4c-0.7-2,0.5-5,0.8-5.6c-1.6-0.5-22.5-7.1-29.2-9
		c-6.9-2-8.8-1.1-8.8-1.1l-0.1-0.2c0.1,0,2-0.9,8.9,1.1c6.9,2,29.1,9,29.3,9l0.1,0l0,0.1c0,0-1.6,3.4-0.8,5.5c0.2,0.6,0.6,1,1.2,1.3
		c3,1.3,5.7,1.7,5.8,1.7L50.3,330.4z"/>
	<path class="st0" d="M41.5,339c-1.5-0.4-2.4-1-2.6-1.9c-0.5-1.7,1.6-3.9,2.1-4.4c-0.8-0.3-4.7-1.5-8.1-2.3
		c-3.7-0.8-5.5,0.3-6.9,1.2l-0.1,0c-0.2,0.1-0.4,0.2-0.6,0.1c-0.6-0.1-1.1-0.9-1.6-1.8c-0.6-0.9-1.2-1.9-1.9-2.2
		c-1.7-0.7-15.6-4.1-15.7-4.2l0-0.2c0.6,0.1,14,3.5,15.7,4.2c0.8,0.3,1.4,1.3,2,2.3c0.5,0.8,1,1.6,1.5,1.7c0.2,0,0.3,0,0.4-0.1
		l0.1,0c1.4-0.9,3.2-2.1,7-1.2c3.8,0.9,8.2,2.3,8.2,2.3l0.1,0l-0.1,0.1c0,0-2.6,2.5-2.2,4.3c0.2,0.8,1.1,1.4,2.5,1.8L41.5,339z"/>
	<path class="st0" d="M30.7,343.7c-1.5,0-2.8-0.4-3.8-1.2c-1.6-1.4-1.8-3.6-1.9-4.1C24,338.3,12,338,6.3,338c-4.3,0-5.1,0.6-5.2,0.8
		c-0.1,0.1,0,0.2,0,0.2l-0.2,0.1c0-0.1-0.1-0.2,0-0.3c0.3-0.6,2.2-0.9,5.4-0.9c6,0,18.8,0.4,18.9,0.4l0.1,0l0,0.1c0,0,0,2.5,1.8,4
		c1.2,1,3,1.4,5.2,1.1l0,0.2C31.8,343.6,31.2,343.7,30.7,343.7z"/>
	<path class="st0" d="M32.4,345l-0.1-0.1c0,0,1.3-1,3.1-2.1c1.6-0.9,4.1-2.1,6.3-2.1c4.2-0.1,7.9-6.4,8.3-7.4
		c0.4-1.1,7.7-3.5,10.4-3.4l0,0.2c-2.6-0.1-9.9,2.2-10.2,3.3c-0.2,0.6-1.2,2.4-2.7,4.1c-1.3,1.5-3.4,3.3-5.7,3.4
		C37.5,341,32.4,345,32.4,345z"/>
	<path class="st0" d="M39,359.5c-2.4,0-5.3-1.1-7.4-2c-2.5-1.1-4.4-2.2-4.5-2.2l0.1-0.2c0,0,2,1.1,4.4,2.2c2.3,1,5.5,2.1,7.9,1.9
		c1-0.1,2.5-0.1,4.3-0.2c6.3-0.2,16.8-0.6,17.6-2.8c0.2-0.6,0.4-2.1,0.7-4c0.7-5.5,1.7-13.7,5.5-16.2c1.1-0.7,2.4-0.9,3.8-0.5
		c5.2,1.5,8,5.9,10.1,9.1c1.5,2.3,2.6,4,4,4v0.2c-1.5,0-2.6-1.8-4.1-4.1c-2.1-3.2-4.9-7.6-10-9c-1.4-0.4-2.6-0.2-3.6,0.5
		c-3.7,2.4-4.8,10.9-5.4,16c-0.2,1.9-0.4,3.4-0.7,4.1c-0.9,2.4-11.1,2.7-17.8,2.9c-1.8,0.1-3.3,0.1-4.3,0.2
		C39.4,359.5,39.2,359.5,39,359.5z"/>
	<path class="st1" d="M42.4,307.1c0,0,4.4,0.1,5.8,1.6c1.4,1.5,3.4,4.4,3.4,4.4s3.6-5.3,3.8-5.3c0.2,0-6.5-4.7-6.8-5.5
		C48.4,301.4,42.4,307.1,42.4,307.1z"/>
	<polygon class="st0" points="45.8,318.5 48.1,319.1 49.8,317.8 49.8,321.9 	"/>
	<path class="st1" d="M26.4,359.4c0,0,4.4-14.6,16-19.5l0.5-0.6c0,0-9.5-0.1-9.6-0.6s0.6,4.5-1.8,6l-6.6,14.5l1.1,0.4"/>
	<path class="st1" d="M18.8,346.5L7.6,367.7c0,0,0.6,2,2,1s7.7-17.3,10.3-15.5s-6.5,16-6.5,16l2.3,0.9l13-24.3l-10.4,0.7"/>
	<polygon class="st1" points="79.1,235.5 48.9,291.7 56.4,293.6 84.9,238 	"/>
	<rect x="61.7" y="230.7" transform="matrix(0.8822 0.4709 -0.4709 0.8822 130.9526 1.8525)" class="st0" width="0.2" height="64"/>
	<path class="st0" d="M84.3,348.4c-0.3,0-0.5-0.1-0.8-0.3l0,0l0-0.1c1.2-10.7,15.9-10.2,23-10c10.6,0.3,20.9,1.6,31.5,3.8
		c0.8,0.2,1.5,0.3,2.3,0.5c8.4,1.8,17.2,3.6,25.6,1.8c3-0.7,4.8-1.8,5.4-3.4c0.6-1.7,0-3.9-1.9-6.6c-2.1-3-4.5-5.3-7-6.8
		c-1.1-0.7-2.7-1.1-4.3-1.5c-1.9-0.5-3.9-1-5-2c-1.3-1.1-1.8-2.1-1.6-2.8c0.3-0.7,1.5-1.1,3.4-1c3.9,0.2,10.2,1.8,13.6,3.9
		c-0.8-1.2-1.9-2.3-3-3.6c-2.3-2.5-4.6-5-4.9-7.8c-0.3-2.5,0.9-4.1,2-5.7c1.1-1.5,2.2-3,2.1-5.3c-0.4-7.4-4.4-12.4-8.7-17.8
		c-2-2.5-4.1-5.1-5.7-8c-3.8-6.6-6.6-11.4-6.3-19.6c0.1-4.8,0.5-10.1,3.4-13.4l0.1,0.1c-2.9,3.2-3.2,8.6-3.3,13.3
		c-0.2,8.1,2.5,12.9,6.3,19.5c1.6,2.8,3.7,5.5,5.7,8c4.3,5.4,8.3,10.5,8.7,17.9c0.1,2.4-1,3.9-2.1,5.4c-1.2,1.6-2.3,3.1-2,5.5
		c0.3,2.7,2.7,5.2,4.9,7.7c1.3,1.4,2.5,2.7,3.3,4l0.2,0.4l-0.4-0.3c-3.2-2.3-9.8-4-13.8-4.1c-1.8-0.1-2.9,0.2-3.2,0.9
		c-0.2,0.6,0.3,1.5,1.5,2.6c1.1,1,3,1.5,4.9,1.9c1.6,0.4,3.2,0.8,4.3,1.5c2.5,1.5,4.9,3.8,7,6.8c1.9,2.8,2.6,5,1.9,6.8
		c-0.6,1.7-2.5,2.9-5.6,3.5c-8.5,1.9-17.3,0-25.7-1.8c-0.8-0.2-1.5-0.3-2.3-0.5c-10.6-2.2-20.9-3.5-31.4-3.8
		c-7-0.2-21.6-0.7-22.8,9.8c0.4,0.3,0.9,0.3,1.4-0.1l0.1,0.2C84.9,348.3,84.6,348.4,84.3,348.4z"/>
	<path class="st0" d="M298.9,334.6c-0.9,0-1.8-0.2-2.7-0.5l0.1-0.2c1,0.4,2,0.5,3,0.5c-0.3-0.2-0.7-0.5-1.1-0.7
		c-1.5-1-3.4-2.2-4.2-3.8c-0.9-1.7-0.9-3.8-0.8-5.8c0.1-2.3,0.1-4.7-1.3-6.7c-1.3-1.7-3.8-2.7-6.2-3.6c-2.8-1-5.4-2-6.2-4
		c-0.5-1.1-0.3-2.4,0.5-4c0.9-1.9,1.9-2.7,2.8-3.4c1.2-0.9,2.2-1.6,2.5-4.8c0.5-4.5-0.6-7.3-3.4-8.4c-4.1-1.5-11.6,2.1-16,4.3
		c-0.6,0.3-1.2,0.6-1.7,0.8c-5.9,2.8-12.6,5.9-19.9,3.3l-0.1,0l0-0.1c-0.3-4.7,5.4-5.9,11.5-7.1c7.5-1.5,15.3-3,13.9-11.1
		c-5.3,0.3-10.8,2.9-14.8,4.9c-1.2,0.6-2.6,1.4-4.1,2.3c-3.8,2.2-8,4.6-11.1,5c-5.9,0.6-6.7-5.2-7.5-10.8c-0.4-2.7-0.7-5.2-1.6-7
		c-1.5-3.2-2.6-3.6-4.2-4.2c-0.8-0.3-1.8-0.6-3-1.4l0,0c-2.6-1.7-2.7-1.8-2.4-2.5c0.1-0.4,0.4-1,0.2-2.4c-0.4-2.7-1.2-5.7-1.9-8.9
		c-1.3-5.4-2.7-11-2.5-15.5l0.2,0c-0.2,4.4,1.2,10,2.5,15.4c0.8,3.2,1.5,6.2,1.9,8.9c0.2,1.5,0,2.1-0.2,2.5
		c-0.2,0.6-0.2,0.6,2.3,2.2l0,0c1.2,0.8,2.1,1.1,3,1.4c1.6,0.6,2.7,1,4.3,4.3c0.9,1.8,1.2,4.4,1.6,7.1c0.7,5.3,1.5,10.7,6.5,10.7
		c0.3,0,0.5,0,0.8,0c3-0.3,7.3-2.8,11-4.9c1.5-0.9,3-1.7,4.1-2.3c4-2,9.6-4.7,14.9-4.9l0.1,0l0,0.1c0.7,3.7-0.5,6.4-3.6,8.3
		c-2.8,1.6-6.6,2.4-10.4,3.1c-6,1.2-11.7,2.3-11.4,6.8c7.2,2.6,13.8-0.5,19.7-3.3c0.5-0.2,1-0.5,1.7-0.8c4.5-2.2,12-5.9,16.1-4.3
		c2.8,1.1,4,3.9,3.5,8.5c-0.4,3.2-1.4,4-2.6,4.9c-0.9,0.7-1.9,1.4-2.7,3.3c-0.7,1.6-0.9,2.8-0.5,3.9c0.8,1.9,3.4,2.9,6.1,3.9
		c2.5,0.9,5,1.9,6.3,3.7c1.5,2.1,1.4,4.5,1.4,6.9c-0.1,2-0.1,4,0.8,5.7c0.8,1.5,2.7,2.7,4.2,3.7c0.5,0.3,0.9,0.6,1.3,0.9l0.2,0.1
		l-0.2,0C299.3,334.6,299.1,334.6,298.9,334.6z"/>
	<path class="st0" d="M334.8,318.7c-0.1,0-0.3,0-0.4-0.1l0-0.2c0.6,0.2,0.9,0,1.1-0.4c-1.3-2.4-2.3-5-3.2-7.5
		c-1-2.7-2.1-5.4-3.6-8.1c-0.8-1.5-2-2.8-3.1-4.1c-2.3-2.5-4.4-4.9-3.6-8.6c0.3-1.4,1-2.2,1.6-3c0.9-1,1.6-1.9,1.3-4.1
		c-0.6-4.6-4.5-5-8-5.4c-2.3-0.2-4.3-0.5-5-1.8c-0.6-1.2-0.1-3.2,1.5-6.3c0.9-1.5,2-3,3.2-4.5c3.1-4,6.4-8.1,3.1-13.6
		c-4.1,0.2-8,2.1-11.8,4c-3.1,1.5-6.3,3.1-9.7,3.7l-0.2,0l0.1-0.2c1-2,2.6-3.6,4.1-5.2c1.3-1.3,2.6-2.7,3.6-4.3
		c1.6-2.5,2.5-5.5,3.5-8.3c0.4-1.1,0.8-2.3,1.2-3.4c3.4-9.2,5.4-17.1,4.9-27.4l0.2,0c0.6,10.4-1.5,18.2-4.9,27.5
		c-0.4,1.1-0.8,2.3-1.2,3.4c-0.9,2.8-1.9,5.8-3.5,8.3c-1,1.6-2.3,3-3.6,4.3c-1.5,1.5-3,3.1-4,5c3.2-0.7,6.4-2.2,9.4-3.7
		c3.8-1.8,7.8-3.8,11.9-4l0.1,0l0,0c3.3,5.6,0,9.8-3.1,13.8c-1.1,1.4-2.3,2.9-3.1,4.5c-1.6,2.9-2.1,4.9-1.5,6.1
		c0.7,1.3,2.6,1.5,4.8,1.7c3.5,0.4,7.5,0.8,8.1,5.6c0.3,2.3-0.5,3.3-1.4,4.3c-0.6,0.7-1.3,1.5-1.6,2.9c-0.8,3.6,1.3,5.9,3.5,8.4
		c1.1,1.3,2.3,2.6,3.2,4.1c1.5,2.6,2.5,5.4,3.6,8.1c1,2.5,1.9,5.1,3.3,7.5l0,0l0,0C335.6,318.3,335.3,318.7,334.8,318.7z"/>
	<path class="st0" d="M282.6,168.5c-1.9,0-3.9-1.2-5.7-2.3c-0.8-0.5-1.5-0.9-2.2-1.2c-8-3.7-17.6-6.2-27.2-7.2
		c-11.6-1.1-20.7-0.8-27.7,1c-2.9,0.7-5.7,2.1-8.4,3.3c-2.6,1.2-5.3,2.5-8,3.2l0-0.2c2.7-0.7,5.2-1.9,7.9-3.2
		c2.7-1.3,5.5-2.6,8.4-3.4c7.1-1.8,16.2-2.2,27.8-1c9.6,0.9,19.3,3.5,27.3,7.2c0.7,0.3,1.4,0.8,2.2,1.2c2.3,1.4,4.9,2.9,7.1,2
		l0.1,0.2C283.6,168.4,283.1,168.5,282.6,168.5z"/>
	<path class="st0" d="M354.2,204.1c-0.8,0-5.5-1.3-7.6-1.9c-2.9-0.9-7.9-2.5-9.5-3.7c-2.5-2-3.9-4.5-5.3-6.9
		c-2.3-4.1-4.3-7.6-10.8-7.9l0-0.2c6.6,0.3,8.7,4,11,8c1.4,2.4,2.8,4.9,5.2,6.9c2.6,2.1,16.4,5.7,16.9,5.6c0,0,0,0,0,0l0.1,0.1
		C354.3,204.1,354.3,204.1,354.2,204.1z"/>
	<path class="st0" d="M375.2,237.2c-3.7,0-7.2-0.9-9.9-3.7c-4.2-4.2-4.1-8.5-3.4-14.6c0.3-3.2,3.9-13.7,6.5-15.3
		c0.3-0.2,0.7-0.3,1-0.2l-0.1,0.2c-0.2-0.1-0.5,0-0.8,0.2c-2.4,1.5-6,11.8-6.4,15.2c-0.6,6-0.7,10.3,3.4,14.4
		c5.1,5.2,12.7,3.7,20,2.3c3.7-0.7,7.3-1.4,10.5-1.3c0.6,0,1.4,0.1,2.2,0.2c2.6,0.3,5.9,0.8,7.5-0.7c0.7-0.7,0.9-1.7,0.8-3
		c-0.4-3.3-4.3-5-8.2-6.6c-3.5-1.5-7.1-3.1-7.9-5.9c-1.1-3.7,2-5.3,4.9-6.9c1.8-0.9,3.6-1.9,4.5-3.3c1.3-2.1,1.2-4.5,1.1-6.9
		c0-0.7,0-1.4,0-2.2c-0.9-0.3-1.8-0.5-2.7-0.7l0-0.2c1,0.1,1.9,0.4,2.8,0.7l0.1,0l0,0.1c0,0.7,0,1.5,0,2.2c0.1,2.4,0.1,4.9-1.2,7
		c-0.9,1.4-2.7,2.4-4.5,3.4c-3,1.6-5.9,3.1-4.8,6.6c0.8,2.7,4.4,4.2,7.8,5.7c3.9,1.7,7.9,3.4,8.3,6.8c0.2,1.4-0.1,2.4-0.8,3.1
		c-1.6,1.5-4.9,1.1-7.6,0.8c-0.8-0.1-1.6-0.2-2.2-0.2c-3.2-0.2-6.7,0.5-10.4,1.3C382,236.5,378.5,237.2,375.2,237.2z"/>
	<path class="st1" d="M227.6,350.6l31.5,0.6l91.3-37.6c0,0-15.5,15.5-4.4,14.9c11.1-0.6,12.2-4.4,11.1-0.6
		c-1.1,3.9-60.8,35.9-73.6,37.1c-12.7,1.1-45.4,6.6-45.4,6.6L227.6,350.6z"/>
	<path class="st0" d="M361.3,149c0,0-0.6-3-2.2-3.5c-1.7-0.6-1.7-4.6-1.7-4.8l0,0c1.1-3.8-8.2-34.3-10-38.9
		c-1.6-4.3-4.2-3.6-4.3-3.5l-0.1-0.2c0,0,2.9-0.8,4.5,3.7c1.8,4.8,11,35.1,10,39c0,0.2,0.1,4.1,1.6,4.6c1.7,0.6,2.3,3.5,2.3,3.7
		L361.3,149z"/>
	<path class="st0" d="M362.7,183.3c-6.6-13.2-16.8-12.9-23.6-12.7c-2,0.1-3.6,0.1-4.8-0.2c-5-1.4-9.3,0.1-10.4,3.5
		c-0.5,1.8-1.1,2.7-1.8,2.7c0,0,0,0,0,0c-0.8,0-1.5-1.4-2.3-4.3c-1.4-5.4-14.4-6.3-14.6-6.3l0-0.2c0,0,3.4,0.2,6.8,1.1
		c4.7,1.2,7.3,3,7.9,5.3c0.9,3.4,1.6,4.2,2.1,4.2c0.4,0,1-0.4,1.6-2.5c1.1-3.6,5.5-5.1,10.6-3.7c1.1,0.3,2.8,0.3,4.7,0.2
		c3.4-0.1,7.6-0.2,11.9,1.4c5.1,1.9,9,5.6,11.9,11.5L362.7,183.3z"/>
	<path class="st0" d="M379.9,203.3c-8.2,0-16-5.8-16.1-5.9l0.1-0.1c0.1,0.1,9.4,7,18.3,5.7c3.9-0.6,7.2-2.7,9.8-6.2l0.1,0.1
		c-2.6,3.6-5.9,5.7-9.9,6.3C381.5,203.3,380.7,203.3,379.9,203.3z"/>
	<path class="st0" d="M376.3,161.3c-1.4,0-3.1-0.6-4.2-1.4c-1.9-1.4,0.9-13.9,2.7-21.2l0-0.2c0.3-1.1-0.1-2.5-0.5-4.2
		c-0.4-1.8-1-4-1.1-6.8c-0.3-6-2.1-13-4.4-17.4c-0.7-1.4-1.7-2.2-2.8-2.5c-2-0.5-3.9,0.8-4,0.8l-0.1-0.2c0.1-0.1,2-1.4,4.1-0.9
		c1.2,0.3,2.2,1.2,2.9,2.6c2.4,4.4,4.1,11.5,4.4,17.5c0.1,2.8,0.7,5,1.1,6.8c0.4,1.8,0.8,3.2,0.5,4.3l0,0.2c-3.1,12.4-4.1,20-2.8,21
		c1.5,1.1,4.2,1.8,5.5,1.1c0.7-0.4,1-1.1,0.9-2.1l0.2,0c0.1,1.1-0.3,1.9-1,2.3C377.4,161.2,376.8,161.3,376.3,161.3z"/>
	<path class="st0" d="M388.9,161.8c-1.3-1.3-1.1-8-0.8-15.9c0.2-7.5,0.5-15.2-0.6-18.7c-0.8-2.5-1.9-4-3.3-4.5
		c-1.6-0.6-3.1,0.4-3.2,0.4l-0.1-0.2c0.1,0,1.6-1.1,3.3-0.5c1.5,0.5,2.7,2.1,3.5,4.7c1.1,3.6,0.8,11.3,0.6,18.8
		c-0.2,7.5-0.5,14.5,0.8,15.7L388.9,161.8z"/>
	<path class="st0" d="M387.1,171.3c-0.6,0-1.2-0.2-1.7-0.6l0.1-0.1c0.8,0.6,1.6,0.7,2.5,0.4c1.5-0.5,2.8-2.3,3.5-4.8
		c0.6-2.3,3-3.4,5.4-4.5c2-0.9,3.8-1.8,4.6-3.3c1.6-3.3,4.9-9.6,5-9.7l0.2,0.1c0,0.1-3.3,6.4-5,9.7c-0.8,1.5-2.7,2.4-4.7,3.3
		c-2.3,1.1-4.7,2.2-5.3,4.4c-0.7,2.5-2,4.4-3.6,4.9C387.7,171.2,387.4,171.3,387.1,171.3z"/>
	<path class="st1" d="M402.4,190.4c0,0,9.6,16.8,5.2,30.8c0,0,0.9-18.6-5.5-23.6C402,197.6,404.4,193.7,402.4,190.4z"/>
	<path class="st1" d="M391.2,149.1c0,0,1.3,13.1-2.8,18.1l6.3-6.3C394.7,160.9,390.6,153.5,391.2,149.1z"/>
	<path class="st1" d="M355.8,112.6c0,0,7,25.4,1.7,33.5l3.9,1.7C361.3,147.8,361.7,118.5,355.8,112.6z"/>
	<path class="st1" d="M372.6,205.6c0,0,8.2,14,2.7,23.9c0,0,12.2-23.8,17.7-26C398.5,201.3,378.7,208.8,372.6,205.6z"/>
	<path class="st0" d="M96.3,238.7H84.7c-1.6,0-3-1.3-3-3V231c0-1.6,1.3-3,3-3h11.6c1.6,0,3,1.3,3,3v4.7
		C99.3,237.3,98,238.7,96.3,238.7z M84.7,228.7c-1.2,0-2.2,1-2.2,2.2v4.7c0,1.2,1,2.2,2.2,2.2h11.6c1.2,0,2.2-1,2.2-2.2V231
		c0-1.2-1-2.2-2.2-2.2H84.7z"/>
	<path class="st0" d="M108.8,234.8H97.2c-1.6,0-3-1.3-3-3v-4.7c0-1.6,1.3-3,3-3h11.6c1.6,0,3,1.3,3,3v4.7
		C111.8,233.5,110.4,234.8,108.8,234.8z M97.2,224.9c-1.2,0-2.2,1-2.2,2.2v4.7c0,1.2,1,2.2,2.2,2.2h11.6c1.2,0,2.2-1,2.2-2.2v-4.7
		c0-1.2-1-2.2-2.2-2.2H97.2z"/>
	<path class="st0" d="M117.3,231.5h-9.5c-1.4,0-2.5-1.3-2.5-2.9v-4.7c0-1.6,1.1-2.9,2.5-2.9h9.5c1.4,0,2.5,1.3,2.5,2.9v4.7
		C119.8,230.1,118.6,231.5,117.3,231.5z M107.7,221.5c-1,0-1.8,1-1.8,2.3v4.7c0,1.3,0.8,2.3,1.8,2.3h9.5c1,0,1.8-1,1.8-2.3v-4.7
		c0-1.3-0.8-2.3-1.8-2.3H107.7z"/>
	<path class="st0" d="M227.4,374.8l-10.1-20.3l0.1-0.1c2.2-6.5,0.6-16.6-4.6-29.4c-4-9.7-8.7-17.5-8.8-17.6l0.6-0.4
		c0,0.1,4.8,7.9,8.8,17.7c5.4,13,6.9,23,4.7,29.8l9.8,19.5c2.7-0.4,24.7-3.3,41.3-3.8c8.9-0.3,23.2-1.9,40.4-8.2
		c20.5-7.5,40-19.6,57.8-35.9l0.5,0.5c-17.9,16.4-37.4,28.6-58.1,36.1c-17.3,6.3-31.7,8-40.6,8.2c-17.5,0.5-41.2,3.8-41.4,3.9
		L227.4,374.8z"/>
	<polygon class="st1" points="151.8,248.4 195,282 175.7,287.4 	"/>
	<ellipse class="st0" cx="367.5" cy="326.1" rx="1.8" ry="1.5"/>
	<ellipse class="st0" cx="202.6" cy="164.8" rx="1.8" ry="1.5"/>
	<ellipse class="st0" cx="209.6" cy="271.7" rx="1.8" ry="1.5"/>
	<ellipse class="st0" cx="288.1" cy="239.2" rx="1.8" ry="1.5"/>
	<ellipse class="st0" cx="76.2" cy="335.1" rx="1.8" ry="1.5"/>
</g>
</svg>
